<?xml version="1.0" encoding="utf-8" standalone="no"?>
<!DOCTYPE svg PUBLIC "-//W3C//DTD SVG 1.1//EN"
  "http://www.w3.org/Graphics/SVG/1.1/DTD/svg11.dtd">
<!-- Created with matplotlib (https://matplotlib.org/) -->
<svg height="432pt" version="1.1" viewBox="0 0 1080 432" width="1080pt" xmlns="http://www.w3.org/2000/svg" xmlns:xlink="http://www.w3.org/1999/xlink">
 <defs>
  <style type="text/css">
*{stroke-linecap:butt;stroke-linejoin:round;}
  </style>
 </defs>
 <g id="figure_1">
  <g id="patch_1">
   <path d="M 0 432 
L 1080 432 
L 1080 0 
L 0 0 
z
" style="fill:#ffffff;"/>
  </g>
  <g id="axes_1">
   <g id="patch_2">
    <path d="M 135 378 
L 972 378 
L 972 51.84 
L 135 51.84 
z
" style="fill:#ffffff;"/>
   </g>
   <g id="matplotlib.axis_1">
    <g id="xtick_1">
     <g id="line2d_1">
      <defs>
       <path d="M 0 0 
L 0 3.5 
" id="m557381810f" style="stroke:#000000;stroke-width:0.8;"/>
      </defs>
      <g>
       <use style="stroke:#000000;stroke-width:0.8;" x="135" xlink:href="#m557381810f" y="378"/>
      </g>
     </g>
     <g id="text_1">
      <!-- 0 -->
      <defs>
       <path d="M 31.78125 66.40625 
Q 24.171875 66.40625 20.328125 58.90625 
Q 16.5 51.421875 16.5 36.375 
Q 16.5 21.390625 20.328125 13.890625 
Q 24.171875 6.390625 31.78125 6.390625 
Q 39.453125 6.390625 43.28125 13.890625 
Q 47.125 21.390625 47.125 36.375 
Q 47.125 51.421875 43.28125 58.90625 
Q 39.453125 66.40625 31.78125 66.40625 
z
M 31.78125 74.21875 
Q 44.046875 74.21875 50.515625 64.515625 
Q 56.984375 54.828125 56.984375 36.375 
Q 56.984375 17.96875 50.515625 8.265625 
Q 44.046875 -1.421875 31.78125 -1.421875 
Q 19.53125 -1.421875 13.0625 8.265625 
Q 6.59375 17.96875 6.59375 36.375 
Q 6.59375 54.828125 13.0625 64.515625 
Q 19.53125 74.21875 31.78125 74.21875 
z
" id="DejaVuSans-48"/>
      </defs>
      <g transform="translate(131.81875 392.598437)scale(0.1 -0.1)">
       <use xlink:href="#DejaVuSans-48"/>
      </g>
     </g>
    </g>
    <g id="xtick_2">
     <g id="line2d_2">
      <g>
       <use style="stroke:#000000;stroke-width:0.8;" x="302.4" xlink:href="#m557381810f" y="378"/>
      </g>
     </g>
     <g id="text_2">
      <!-- 500 -->
      <defs>
       <path d="M 10.796875 72.90625 
L 49.515625 72.90625 
L 49.515625 64.59375 
L 19.828125 64.59375 
L 19.828125 46.734375 
Q 21.96875 47.46875 24.109375 47.828125 
Q 26.265625 48.1875 28.421875 48.1875 
Q 40.625 48.1875 47.75 41.5 
Q 54.890625 34.8125 54.890625 23.390625 
Q 54.890625 11.625 47.5625 5.09375 
Q 40.234375 -1.421875 26.90625 -1.421875 
Q 22.3125 -1.421875 17.546875 -0.640625 
Q 12.796875 0.140625 7.71875 1.703125 
L 7.71875 11.625 
Q 12.109375 9.234375 16.796875 8.0625 
Q 21.484375 6.890625 26.703125 6.890625 
Q 35.15625 6.890625 40.078125 11.328125 
Q 45.015625 15.765625 45.015625 23.390625 
Q 45.015625 31 40.078125 35.4375 
Q 35.15625 39.890625 26.703125 39.890625 
Q 22.75 39.890625 18.8125 39.015625 
Q 14.890625 38.140625 10.796875 36.28125 
z
" id="DejaVuSans-53"/>
      </defs>
      <g transform="translate(292.85625 392.598437)scale(0.1 -0.1)">
       <use xlink:href="#DejaVuSans-53"/>
       <use x="63.623047" xlink:href="#DejaVuSans-48"/>
       <use x="127.246094" xlink:href="#DejaVuSans-48"/>
      </g>
     </g>
    </g>
    <g id="xtick_3">
     <g id="line2d_3">
      <g>
       <use style="stroke:#000000;stroke-width:0.8;" x="469.8" xlink:href="#m557381810f" y="378"/>
      </g>
     </g>
     <g id="text_3">
      <!-- 1000 -->
      <defs>
       <path d="M 12.40625 8.296875 
L 28.515625 8.296875 
L 28.515625 63.921875 
L 10.984375 60.40625 
L 10.984375 69.390625 
L 28.421875 72.90625 
L 38.28125 72.90625 
L 38.28125 8.296875 
L 54.390625 8.296875 
L 54.390625 0 
L 12.40625 0 
z
" id="DejaVuSans-49"/>
      </defs>
      <g transform="translate(457.075 392.598437)scale(0.1 -0.1)">
       <use xlink:href="#DejaVuSans-49"/>
       <use x="63.623047" xlink:href="#DejaVuSans-48"/>
       <use x="127.246094" xlink:href="#DejaVuSans-48"/>
       <use x="190.869141" xlink:href="#DejaVuSans-48"/>
      </g>
     </g>
    </g>
    <g id="xtick_4">
     <g id="line2d_4">
      <g>
       <use style="stroke:#000000;stroke-width:0.8;" x="637.2" xlink:href="#m557381810f" y="378"/>
      </g>
     </g>
     <g id="text_4">
      <!-- 1500 -->
      <g transform="translate(624.475 392.598437)scale(0.1 -0.1)">
       <use xlink:href="#DejaVuSans-49"/>
       <use x="63.623047" xlink:href="#DejaVuSans-53"/>
       <use x="127.246094" xlink:href="#DejaVuSans-48"/>
       <use x="190.869141" xlink:href="#DejaVuSans-48"/>
      </g>
     </g>
    </g>
    <g id="xtick_5">
     <g id="line2d_5">
      <g>
       <use style="stroke:#000000;stroke-width:0.8;" x="804.6" xlink:href="#m557381810f" y="378"/>
      </g>
     </g>
     <g id="text_5">
      <!-- 2000 -->
      <defs>
       <path d="M 19.1875 8.296875 
L 53.609375 8.296875 
L 53.609375 0 
L 7.328125 0 
L 7.328125 8.296875 
Q 12.9375 14.109375 22.625 23.890625 
Q 32.328125 33.6875 34.8125 36.53125 
Q 39.546875 41.84375 41.421875 45.53125 
Q 43.3125 49.21875 43.3125 52.78125 
Q 43.3125 58.59375 39.234375 62.25 
Q 35.15625 65.921875 28.609375 65.921875 
Q 23.96875 65.921875 18.8125 64.3125 
Q 13.671875 62.703125 7.8125 59.421875 
L 7.8125 69.390625 
Q 13.765625 71.78125 18.9375 73 
Q 24.125 74.21875 28.421875 74.21875 
Q 39.75 74.21875 46.484375 68.546875 
Q 53.21875 62.890625 53.21875 53.421875 
Q 53.21875 48.921875 51.53125 44.890625 
Q 49.859375 40.875 45.40625 35.40625 
Q 44.1875 33.984375 37.640625 27.21875 
Q 31.109375 20.453125 19.1875 8.296875 
z
" id="DejaVuSans-50"/>
      </defs>
      <g transform="translate(791.875 392.598437)scale(0.1 -0.1)">
       <use xlink:href="#DejaVuSans-50"/>
       <use x="63.623047" xlink:href="#DejaVuSans-48"/>
       <use x="127.246094" xlink:href="#DejaVuSans-48"/>
       <use x="190.869141" xlink:href="#DejaVuSans-48"/>
      </g>
     </g>
    </g>
    <g id="xtick_6">
     <g id="line2d_6">
      <g>
       <use style="stroke:#000000;stroke-width:0.8;" x="972" xlink:href="#m557381810f" y="378"/>
      </g>
     </g>
     <g id="text_6">
      <!-- 2500 -->
      <g transform="translate(959.275 392.598437)scale(0.1 -0.1)">
       <use xlink:href="#DejaVuSans-50"/>
       <use x="63.623047" xlink:href="#DejaVuSans-53"/>
       <use x="127.246094" xlink:href="#DejaVuSans-48"/>
       <use x="190.869141" xlink:href="#DejaVuSans-48"/>
      </g>
     </g>
    </g>
    <g id="text_7">
     <!-- Model number -->
     <defs>
      <path d="M 9.8125 72.90625 
L 24.515625 72.90625 
L 43.109375 23.296875 
L 61.8125 72.90625 
L 76.515625 72.90625 
L 76.515625 0 
L 66.890625 0 
L 66.890625 64.015625 
L 48.09375 14.015625 
L 38.1875 14.015625 
L 19.390625 64.015625 
L 19.390625 0 
L 9.8125 0 
z
" id="DejaVuSans-77"/>
      <path d="M 30.609375 48.390625 
Q 23.390625 48.390625 19.1875 42.75 
Q 14.984375 37.109375 14.984375 27.296875 
Q 14.984375 17.484375 19.15625 11.84375 
Q 23.34375 6.203125 30.609375 6.203125 
Q 37.796875 6.203125 41.984375 11.859375 
Q 46.1875 17.53125 46.1875 27.296875 
Q 46.1875 37.015625 41.984375 42.703125 
Q 37.796875 48.390625 30.609375 48.390625 
z
M 30.609375 56 
Q 42.328125 56 49.015625 48.375 
Q 55.71875 40.765625 55.71875 27.296875 
Q 55.71875 13.875 49.015625 6.21875 
Q 42.328125 -1.421875 30.609375 -1.421875 
Q 18.84375 -1.421875 12.171875 6.21875 
Q 5.515625 13.875 5.515625 27.296875 
Q 5.515625 40.765625 12.171875 48.375 
Q 18.84375 56 30.609375 56 
z
" id="DejaVuSans-111"/>
      <path d="M 45.40625 46.390625 
L 45.40625 75.984375 
L 54.390625 75.984375 
L 54.390625 0 
L 45.40625 0 
L 45.40625 8.203125 
Q 42.578125 3.328125 38.25 0.953125 
Q 33.9375 -1.421875 27.875 -1.421875 
Q 17.96875 -1.421875 11.734375 6.484375 
Q 5.515625 14.40625 5.515625 27.296875 
Q 5.515625 40.1875 11.734375 48.09375 
Q 17.96875 56 27.875 56 
Q 33.9375 56 38.25 53.625 
Q 42.578125 51.265625 45.40625 46.390625 
z
M 14.796875 27.296875 
Q 14.796875 17.390625 18.875 11.75 
Q 22.953125 6.109375 30.078125 6.109375 
Q 37.203125 6.109375 41.296875 11.75 
Q 45.40625 17.390625 45.40625 27.296875 
Q 45.40625 37.203125 41.296875 42.84375 
Q 37.203125 48.484375 30.078125 48.484375 
Q 22.953125 48.484375 18.875 42.84375 
Q 14.796875 37.203125 14.796875 27.296875 
z
" id="DejaVuSans-100"/>
      <path d="M 56.203125 29.59375 
L 56.203125 25.203125 
L 14.890625 25.203125 
Q 15.484375 15.921875 20.484375 11.0625 
Q 25.484375 6.203125 34.421875 6.203125 
Q 39.59375 6.203125 44.453125 7.46875 
Q 49.3125 8.734375 54.109375 11.28125 
L 54.109375 2.78125 
Q 49.265625 0.734375 44.1875 -0.34375 
Q 39.109375 -1.421875 33.890625 -1.421875 
Q 20.796875 -1.421875 13.15625 6.1875 
Q 5.515625 13.8125 5.515625 26.8125 
Q 5.515625 40.234375 12.765625 48.109375 
Q 20.015625 56 32.328125 56 
Q 43.359375 56 49.78125 48.890625 
Q 56.203125 41.796875 56.203125 29.59375 
z
M 47.21875 32.234375 
Q 47.125 39.59375 43.09375 43.984375 
Q 39.0625 48.390625 32.421875 48.390625 
Q 24.90625 48.390625 20.390625 44.140625 
Q 15.875 39.890625 15.1875 32.171875 
z
" id="DejaVuSans-101"/>
      <path d="M 9.421875 75.984375 
L 18.40625 75.984375 
L 18.40625 0 
L 9.421875 0 
z
" id="DejaVuSans-108"/>
      <path id="DejaVuSans-32"/>
      <path d="M 54.890625 33.015625 
L 54.890625 0 
L 45.90625 0 
L 45.90625 32.71875 
Q 45.90625 40.484375 42.875 44.328125 
Q 39.84375 48.1875 33.796875 48.1875 
Q 26.515625 48.1875 22.3125 43.546875 
Q 18.109375 38.921875 18.109375 30.90625 
L 18.109375 0 
L 9.078125 0 
L 9.078125 54.6875 
L 18.109375 54.6875 
L 18.109375 46.1875 
Q 21.34375 51.125 25.703125 53.5625 
Q 30.078125 56 35.796875 56 
Q 45.21875 56 50.046875 50.171875 
Q 54.890625 44.34375 54.890625 33.015625 
z
" id="DejaVuSans-110"/>
      <path d="M 8.5 21.578125 
L 8.5 54.6875 
L 17.484375 54.6875 
L 17.484375 21.921875 
Q 17.484375 14.15625 20.5 10.265625 
Q 23.53125 6.390625 29.59375 6.390625 
Q 36.859375 6.390625 41.078125 11.03125 
Q 45.3125 15.671875 45.3125 23.6875 
L 45.3125 54.6875 
L 54.296875 54.6875 
L 54.296875 0 
L 45.3125 0 
L 45.3125 8.40625 
Q 42.046875 3.421875 37.71875 1 
Q 33.40625 -1.421875 27.6875 -1.421875 
Q 18.265625 -1.421875 13.375 4.4375 
Q 8.5 10.296875 8.5 21.578125 
z
M 31.109375 56 
z
" id="DejaVuSans-117"/>
      <path d="M 52 44.1875 
Q 55.375 50.25 60.0625 53.125 
Q 64.75 56 71.09375 56 
Q 79.640625 56 84.28125 50.015625 
Q 88.921875 44.046875 88.921875 33.015625 
L 88.921875 0 
L 79.890625 0 
L 79.890625 32.71875 
Q 79.890625 40.578125 77.09375 44.375 
Q 74.3125 48.1875 68.609375 48.1875 
Q 61.625 48.1875 57.5625 43.546875 
Q 53.515625 38.921875 53.515625 30.90625 
L 53.515625 0 
L 44.484375 0 
L 44.484375 32.71875 
Q 44.484375 40.625 41.703125 44.40625 
Q 38.921875 48.1875 33.109375 48.1875 
Q 26.21875 48.1875 22.15625 43.53125 
Q 18.109375 38.875 18.109375 30.90625 
L 18.109375 0 
L 9.078125 0 
L 9.078125 54.6875 
L 18.109375 54.6875 
L 18.109375 46.1875 
Q 21.1875 51.21875 25.484375 53.609375 
Q 29.78125 56 35.6875 56 
Q 41.65625 56 45.828125 52.96875 
Q 50 49.953125 52 44.1875 
z
" id="DejaVuSans-109"/>
      <path d="M 48.6875 27.296875 
Q 48.6875 37.203125 44.609375 42.84375 
Q 40.53125 48.484375 33.40625 48.484375 
Q 26.265625 48.484375 22.1875 42.84375 
Q 18.109375 37.203125 18.109375 27.296875 
Q 18.109375 17.390625 22.1875 11.75 
Q 26.265625 6.109375 33.40625 6.109375 
Q 40.53125 6.109375 44.609375 11.75 
Q 48.6875 17.390625 48.6875 27.296875 
z
M 18.109375 46.390625 
Q 20.953125 51.265625 25.265625 53.625 
Q 29.59375 56 35.59375 56 
Q 45.5625 56 51.78125 48.09375 
Q 58.015625 40.1875 58.015625 27.296875 
Q 58.015625 14.40625 51.78125 6.484375 
Q 45.5625 -1.421875 35.59375 -1.421875 
Q 29.59375 -1.421875 25.265625 0.953125 
Q 20.953125 3.328125 18.109375 8.203125 
L 18.109375 0 
L 9.078125 0 
L 9.078125 75.984375 
L 18.109375 75.984375 
z
" id="DejaVuSans-98"/>
      <path d="M 41.109375 46.296875 
Q 39.59375 47.171875 37.8125 47.578125 
Q 36.03125 48 33.890625 48 
Q 26.265625 48 22.1875 43.046875 
Q 18.109375 38.09375 18.109375 28.8125 
L 18.109375 0 
L 9.078125 0 
L 9.078125 54.6875 
L 18.109375 54.6875 
L 18.109375 46.1875 
Q 20.953125 51.171875 25.484375 53.578125 
Q 30.03125 56 36.53125 56 
Q 37.453125 56 38.578125 55.875 
Q 39.703125 55.765625 41.0625 55.515625 
z
" id="DejaVuSans-114"/>
     </defs>
     <g transform="translate(502.937031 409.315938)scale(0.14 -0.14)">
      <use xlink:href="#DejaVuSans-77"/>
      <use x="86.279297" xlink:href="#DejaVuSans-111"/>
      <use x="147.460938" xlink:href="#DejaVuSans-100"/>
      <use x="210.9375" xlink:href="#DejaVuSans-101"/>
      <use x="272.460938" xlink:href="#DejaVuSans-108"/>
      <use x="300.244141" xlink:href="#DejaVuSans-32"/>
      <use x="332.03125" xlink:href="#DejaVuSans-110"/>
      <use x="395.410156" xlink:href="#DejaVuSans-117"/>
      <use x="458.789062" xlink:href="#DejaVuSans-109"/>
      <use x="556.201172" xlink:href="#DejaVuSans-98"/>
      <use x="619.677734" xlink:href="#DejaVuSans-101"/>
      <use x="681.201172" xlink:href="#DejaVuSans-114"/>
     </g>
    </g>
   </g>
   <g id="matplotlib.axis_2">
    <g id="ytick_1">
     <g id="line2d_7">
      <defs>
       <path d="M 0 0 
L -3.5 0 
" id="m30050bdeba" style="stroke:#000000;stroke-width:0.8;"/>
      </defs>
      <g>
       <use style="stroke:#000000;stroke-width:0.8;" x="135" xlink:href="#m30050bdeba" y="378"/>
      </g>
     </g>
     <g id="text_8">
      <!-- −14 -->
      <defs>
       <path d="M 10.59375 35.5 
L 73.1875 35.5 
L 73.1875 27.203125 
L 10.59375 27.203125 
z
" id="DejaVuSans-8722"/>
       <path d="M 37.796875 64.3125 
L 12.890625 25.390625 
L 37.796875 25.390625 
z
M 35.203125 72.90625 
L 47.609375 72.90625 
L 47.609375 25.390625 
L 58.015625 25.390625 
L 58.015625 17.1875 
L 47.609375 17.1875 
L 47.609375 0 
L 37.796875 0 
L 37.796875 17.1875 
L 4.890625 17.1875 
L 4.890625 26.703125 
z
" id="DejaVuSans-52"/>
      </defs>
      <g transform="translate(106.895313 381.799219)scale(0.1 -0.1)">
       <use xlink:href="#DejaVuSans-8722"/>
       <use x="83.789062" xlink:href="#DejaVuSans-49"/>
       <use x="147.412109" xlink:href="#DejaVuSans-52"/>
      </g>
     </g>
    </g>
    <g id="ytick_2">
     <g id="line2d_8">
      <g>
       <use style="stroke:#000000;stroke-width:0.8;" x="135" xlink:href="#m30050bdeba" y="318.698182"/>
      </g>
     </g>
     <g id="text_9">
      <!-- −12 -->
      <g transform="translate(106.895313 322.497401)scale(0.1 -0.1)">
       <use xlink:href="#DejaVuSans-8722"/>
       <use x="83.789062" xlink:href="#DejaVuSans-49"/>
       <use x="147.412109" xlink:href="#DejaVuSans-50"/>
      </g>
     </g>
    </g>
    <g id="ytick_3">
     <g id="line2d_9">
      <g>
       <use style="stroke:#000000;stroke-width:0.8;" x="135" xlink:href="#m30050bdeba" y="259.396364"/>
      </g>
     </g>
     <g id="text_10">
      <!-- −10 -->
      <g transform="translate(106.895313 263.195582)scale(0.1 -0.1)">
       <use xlink:href="#DejaVuSans-8722"/>
       <use x="83.789062" xlink:href="#DejaVuSans-49"/>
       <use x="147.412109" xlink:href="#DejaVuSans-48"/>
      </g>
     </g>
    </g>
    <g id="ytick_4">
     <g id="line2d_10">
      <g>
       <use style="stroke:#000000;stroke-width:0.8;" x="135" xlink:href="#m30050bdeba" y="200.094545"/>
      </g>
     </g>
     <g id="text_11">
      <!-- −8 -->
      <defs>
       <path d="M 31.78125 34.625 
Q 24.75 34.625 20.71875 30.859375 
Q 16.703125 27.09375 16.703125 20.515625 
Q 16.703125 13.921875 20.71875 10.15625 
Q 24.75 6.390625 31.78125 6.390625 
Q 38.8125 6.390625 42.859375 10.171875 
Q 46.921875 13.96875 46.921875 20.515625 
Q 46.921875 27.09375 42.890625 30.859375 
Q 38.875 34.625 31.78125 34.625 
z
M 21.921875 38.8125 
Q 15.578125 40.375 12.03125 44.71875 
Q 8.5 49.078125 8.5 55.328125 
Q 8.5 64.0625 14.71875 69.140625 
Q 20.953125 74.21875 31.78125 74.21875 
Q 42.671875 74.21875 48.875 69.140625 
Q 55.078125 64.0625 55.078125 55.328125 
Q 55.078125 49.078125 51.53125 44.71875 
Q 48 40.375 41.703125 38.8125 
Q 48.828125 37.15625 52.796875 32.3125 
Q 56.78125 27.484375 56.78125 20.515625 
Q 56.78125 9.90625 50.3125 4.234375 
Q 43.84375 -1.421875 31.78125 -1.421875 
Q 19.734375 -1.421875 13.25 4.234375 
Q 6.78125 9.90625 6.78125 20.515625 
Q 6.78125 27.484375 10.78125 32.3125 
Q 14.796875 37.15625 21.921875 38.8125 
z
M 18.3125 54.390625 
Q 18.3125 48.734375 21.84375 45.5625 
Q 25.390625 42.390625 31.78125 42.390625 
Q 38.140625 42.390625 41.71875 45.5625 
Q 45.3125 48.734375 45.3125 54.390625 
Q 45.3125 60.0625 41.71875 63.234375 
Q 38.140625 66.40625 31.78125 66.40625 
Q 25.390625 66.40625 21.84375 63.234375 
Q 18.3125 60.0625 18.3125 54.390625 
z
" id="DejaVuSans-56"/>
      </defs>
      <g transform="translate(113.257812 203.893764)scale(0.1 -0.1)">
       <use xlink:href="#DejaVuSans-8722"/>
       <use x="83.789062" xlink:href="#DejaVuSans-56"/>
      </g>
     </g>
    </g>
    <g id="ytick_5">
     <g id="line2d_11">
      <g>
       <use style="stroke:#000000;stroke-width:0.8;" x="135" xlink:href="#m30050bdeba" y="140.792727"/>
      </g>
     </g>
     <g id="text_12">
      <!-- −6 -->
      <defs>
       <path d="M 33.015625 40.375 
Q 26.375 40.375 22.484375 35.828125 
Q 18.609375 31.296875 18.609375 23.390625 
Q 18.609375 15.53125 22.484375 10.953125 
Q 26.375 6.390625 33.015625 6.390625 
Q 39.65625 6.390625 43.53125 10.953125 
Q 47.40625 15.53125 47.40625 23.390625 
Q 47.40625 31.296875 43.53125 35.828125 
Q 39.65625 40.375 33.015625 40.375 
z
M 52.59375 71.296875 
L 52.59375 62.3125 
Q 48.875 64.0625 45.09375 64.984375 
Q 41.3125 65.921875 37.59375 65.921875 
Q 27.828125 65.921875 22.671875 59.328125 
Q 17.53125 52.734375 16.796875 39.40625 
Q 19.671875 43.65625 24.015625 45.921875 
Q 28.375 48.1875 33.59375 48.1875 
Q 44.578125 48.1875 50.953125 41.515625 
Q 57.328125 34.859375 57.328125 23.390625 
Q 57.328125 12.15625 50.6875 5.359375 
Q 44.046875 -1.421875 33.015625 -1.421875 
Q 20.359375 -1.421875 13.671875 8.265625 
Q 6.984375 17.96875 6.984375 36.375 
Q 6.984375 53.65625 15.1875 63.9375 
Q 23.390625 74.21875 37.203125 74.21875 
Q 40.921875 74.21875 44.703125 73.484375 
Q 48.484375 72.75 52.59375 71.296875 
z
" id="DejaVuSans-54"/>
      </defs>
      <g transform="translate(113.257812 144.591946)scale(0.1 -0.1)">
       <use xlink:href="#DejaVuSans-8722"/>
       <use x="83.789062" xlink:href="#DejaVuSans-54"/>
      </g>
     </g>
    </g>
    <g id="ytick_6">
     <g id="line2d_12">
      <g>
       <use style="stroke:#000000;stroke-width:0.8;" x="135" xlink:href="#m30050bdeba" y="81.490909"/>
      </g>
     </g>
     <g id="text_13">
      <!-- −4 -->
      <g transform="translate(113.257812 85.290128)scale(0.1 -0.1)">
       <use xlink:href="#DejaVuSans-8722"/>
       <use x="83.789062" xlink:href="#DejaVuSans-52"/>
      </g>
     </g>
    </g>
    <g id="text_14">
     <!-- log(Mdot) [Msol / yr] -->
     <defs>
      <path d="M 45.40625 27.984375 
Q 45.40625 37.75 41.375 43.109375 
Q 37.359375 48.484375 30.078125 48.484375 
Q 22.859375 48.484375 18.828125 43.109375 
Q 14.796875 37.75 14.796875 27.984375 
Q 14.796875 18.265625 18.828125 12.890625 
Q 22.859375 7.515625 30.078125 7.515625 
Q 37.359375 7.515625 41.375 12.890625 
Q 45.40625 18.265625 45.40625 27.984375 
z
M 54.390625 6.78125 
Q 54.390625 -7.171875 48.1875 -13.984375 
Q 42 -20.796875 29.203125 -20.796875 
Q 24.46875 -20.796875 20.265625 -20.09375 
Q 16.0625 -19.390625 12.109375 -17.921875 
L 12.109375 -9.1875 
Q 16.0625 -11.328125 19.921875 -12.34375 
Q 23.78125 -13.375 27.78125 -13.375 
Q 36.625 -13.375 41.015625 -8.765625 
Q 45.40625 -4.15625 45.40625 5.171875 
L 45.40625 9.625 
Q 42.625 4.78125 38.28125 2.390625 
Q 33.9375 0 27.875 0 
Q 17.828125 0 11.671875 7.65625 
Q 5.515625 15.328125 5.515625 27.984375 
Q 5.515625 40.671875 11.671875 48.328125 
Q 17.828125 56 27.875 56 
Q 33.9375 56 38.28125 53.609375 
Q 42.625 51.21875 45.40625 46.390625 
L 45.40625 54.6875 
L 54.390625 54.6875 
z
" id="DejaVuSans-103"/>
      <path d="M 31 75.875 
Q 24.46875 64.65625 21.28125 53.65625 
Q 18.109375 42.671875 18.109375 31.390625 
Q 18.109375 20.125 21.3125 9.0625 
Q 24.515625 -2 31 -13.1875 
L 23.1875 -13.1875 
Q 15.875 -1.703125 12.234375 9.375 
Q 8.59375 20.453125 8.59375 31.390625 
Q 8.59375 42.28125 12.203125 53.3125 
Q 15.828125 64.359375 23.1875 75.875 
z
" id="DejaVuSans-40"/>
      <path d="M 18.3125 70.21875 
L 18.3125 54.6875 
L 36.8125 54.6875 
L 36.8125 47.703125 
L 18.3125 47.703125 
L 18.3125 18.015625 
Q 18.3125 11.328125 20.140625 9.421875 
Q 21.96875 7.515625 27.59375 7.515625 
L 36.8125 7.515625 
L 36.8125 0 
L 27.59375 0 
Q 17.1875 0 13.234375 3.875 
Q 9.28125 7.765625 9.28125 18.015625 
L 9.28125 47.703125 
L 2.6875 47.703125 
L 2.6875 54.6875 
L 9.28125 54.6875 
L 9.28125 70.21875 
z
" id="DejaVuSans-116"/>
      <path d="M 8.015625 75.875 
L 15.828125 75.875 
Q 23.140625 64.359375 26.78125 53.3125 
Q 30.421875 42.28125 30.421875 31.390625 
Q 30.421875 20.453125 26.78125 9.375 
Q 23.140625 -1.703125 15.828125 -13.1875 
L 8.015625 -13.1875 
Q 14.5 -2 17.703125 9.0625 
Q 20.90625 20.125 20.90625 31.390625 
Q 20.90625 42.671875 17.703125 53.65625 
Q 14.5 64.65625 8.015625 75.875 
z
" id="DejaVuSans-41"/>
      <path d="M 8.59375 75.984375 
L 29.296875 75.984375 
L 29.296875 69 
L 17.578125 69 
L 17.578125 -6.203125 
L 29.296875 -6.203125 
L 29.296875 -13.1875 
L 8.59375 -13.1875 
z
" id="DejaVuSans-91"/>
      <path d="M 44.28125 53.078125 
L 44.28125 44.578125 
Q 40.484375 46.53125 36.375 47.5 
Q 32.28125 48.484375 27.875 48.484375 
Q 21.1875 48.484375 17.84375 46.4375 
Q 14.5 44.390625 14.5 40.28125 
Q 14.5 37.15625 16.890625 35.375 
Q 19.28125 33.59375 26.515625 31.984375 
L 29.59375 31.296875 
Q 39.15625 29.25 43.1875 25.515625 
Q 47.21875 21.78125 47.21875 15.09375 
Q 47.21875 7.46875 41.1875 3.015625 
Q 35.15625 -1.421875 24.609375 -1.421875 
Q 20.21875 -1.421875 15.453125 -0.5625 
Q 10.6875 0.296875 5.421875 2 
L 5.421875 11.28125 
Q 10.40625 8.6875 15.234375 7.390625 
Q 20.0625 6.109375 24.8125 6.109375 
Q 31.15625 6.109375 34.5625 8.28125 
Q 37.984375 10.453125 37.984375 14.40625 
Q 37.984375 18.0625 35.515625 20.015625 
Q 33.0625 21.96875 24.703125 23.78125 
L 21.578125 24.515625 
Q 13.234375 26.265625 9.515625 29.90625 
Q 5.8125 33.546875 5.8125 39.890625 
Q 5.8125 47.609375 11.28125 51.796875 
Q 16.75 56 26.8125 56 
Q 31.78125 56 36.171875 55.265625 
Q 40.578125 54.546875 44.28125 53.078125 
z
" id="DejaVuSans-115"/>
      <path d="M 25.390625 72.90625 
L 33.6875 72.90625 
L 8.296875 -9.28125 
L 0 -9.28125 
z
" id="DejaVuSans-47"/>
      <path d="M 32.171875 -5.078125 
Q 28.375 -14.84375 24.75 -17.8125 
Q 21.140625 -20.796875 15.09375 -20.796875 
L 7.90625 -20.796875 
L 7.90625 -13.28125 
L 13.1875 -13.28125 
Q 16.890625 -13.28125 18.9375 -11.515625 
Q 21 -9.765625 23.484375 -3.21875 
L 25.09375 0.875 
L 2.984375 54.6875 
L 12.5 54.6875 
L 29.59375 11.921875 
L 46.6875 54.6875 
L 56.203125 54.6875 
z
" id="DejaVuSans-121"/>
      <path d="M 30.421875 75.984375 
L 30.421875 -13.1875 
L 9.71875 -13.1875 
L 9.71875 -6.203125 
L 21.390625 -6.203125 
L 21.390625 69 
L 9.71875 69 
L 9.71875 75.984375 
z
" id="DejaVuSans-93"/>
     </defs>
     <g transform="translate(99.98375 285.994062)rotate(-90)scale(0.14 -0.14)">
      <use xlink:href="#DejaVuSans-108"/>
      <use x="27.783203" xlink:href="#DejaVuSans-111"/>
      <use x="88.964844" xlink:href="#DejaVuSans-103"/>
      <use x="152.441406" xlink:href="#DejaVuSans-40"/>
      <use x="191.455078" xlink:href="#DejaVuSans-77"/>
      <use x="277.734375" xlink:href="#DejaVuSans-100"/>
      <use x="341.210938" xlink:href="#DejaVuSans-111"/>
      <use x="402.392578" xlink:href="#DejaVuSans-116"/>
      <use x="441.601562" xlink:href="#DejaVuSans-41"/>
      <use x="480.615234" xlink:href="#DejaVuSans-32"/>
      <use x="512.402344" xlink:href="#DejaVuSans-91"/>
      <use x="551.416016" xlink:href="#DejaVuSans-77"/>
      <use x="637.695312" xlink:href="#DejaVuSans-115"/>
      <use x="689.794922" xlink:href="#DejaVuSans-111"/>
      <use x="750.976562" xlink:href="#DejaVuSans-108"/>
      <use x="778.759766" xlink:href="#DejaVuSans-32"/>
      <use x="810.546875" xlink:href="#DejaVuSans-47"/>
      <use x="844.238281" xlink:href="#DejaVuSans-32"/>
      <use x="876.025391" xlink:href="#DejaVuSans-121"/>
      <use x="935.205078" xlink:href="#DejaVuSans-114"/>
      <use x="976.318359" xlink:href="#DejaVuSans-93"/>
     </g>
    </g>
   </g>
   <g id="line2d_13">
    <path clip-path="url(#pe56d3fcea4)" d="M 136.0044 332.366707 
L 140.022 332.590958 
L 141.0264 332.462284 
L 142.0308 332.186042 
L 143.0352 331.710402 
L 144.0396 330.954953 
L 145.044 329.76869 
L 146.0484 327.857514 
L 147.0528 324.532714 
L 148.0572 317.62051 
L 149.0616 308.207613 
L 150.066 308.41535 
L 151.0704 305.723995 
L 152.0748 303.555225 
L 153.0792 301.819148 
L 154.0836 299.36559 
L 155.088 298.03489 
L 156.0924 296.988482 
L 157.0968 296.230602 
L 158.1012 296.246645 
L 159.1056 298.155397 
L 161.1144 304.915572 
L 162.1188 304.918822 
L 164.1276 301.878948 
L 167.1408 297.209257 
L 169.1496 294.496841 
L 171.1584 292.13262 
L 172.1628 291.124384 
L 173.1672 290.406135 
L 174.1716 289.929438 
L 176.1804 289.387036 
L 179.1936 289.056582 
L 181.2024 288.871538 
L 184.2156 288.194968 
L 189.2376 287.697297 
L 193.2552 287.426096 
L 197.2728 287.273018 
L 203.2992 287.188929 
L 207.3168 287.295926 
L 209.3256 287.353466 
L 211.3344 287.106767 
L 214.3476 286.787368 
L 220.374 286.164281 
L 231.4224 284.688445 
L 238.4532 283.512553 
L 248.4972 281.392322 
L 254.5236 279.815732 
L 260.55 277.998962 
L 268.5852 274.991759 
L 272.6028 273.21432 
L 276.6204 271.225326 
L 281.6424 268.286386 
L 284.6556 266.291264 
L 287.6688 264.019586 
L 292.6908 260.061782 
L 296.7084 257.362884 
L 300.726 255.024071 
L 304.7436 252.975443 
L 308.7612 251.167659 
L 313.7832 249.190067 
L 318.8052 247.457017 
L 323.8272 245.928902 
L 331.8624 243.810727 
L 335.88 242.914002 
L 339.8976 242.25674 
L 344.9196 241.751869 
L 348.9372 241.673128 
L 359.9856 242.123543 
L 362.9988 242.517196 
L 366.012 243.109455 
L 369.0252 243.942972 
L 372.0384 244.992645 
L 374.0472 245.833949 
L 376.056 246.74362 
L 379.0692 248.516634 
L 380.0736 249.245497 
L 381.078 250.553086 
L 382.0824 254.926227 
L 383.0868 261.054066 
L 384.0912 266.041763 
L 385.0956 270.297299 
L 386.1 273.997098 
L 388.1088 280.344925 
L 389.1132 283.363764 
L 390.1176 285.151228 
L 391.122 283.882182 
L 392.1264 283.956879 
L 393.1308 285.310173 
L 394.1352 286.123519 
L 395.1396 286.146456 
L 398.1528 285.78196 
L 400.1616 285.887674 
L 407.1924 286.309267 
L 431.298 287.544669 
L 445.3596 288.216229 
L 467.4564 289.383914 
L 478.5048 289.931926 
L 483.5268 289.976283 
L 487.5444 289.719796 
L 489.5532 289.456369 
L 491.562 288.983075 
L 494.5752 287.795913 
L 496.584 286.711384 
L 498.5928 285.274418 
L 500.6016 283.451176 
L 502.6104 281.203031 
L 504.6192 278.477304 
L 506.628 275.134536 
L 508.6368 270.955612 
L 509.6412 268.510283 
L 510.6456 265.750524 
L 511.65 263.852124 
L 512.6544 266.80523 
L 513.6588 268.960334 
L 514.6632 269.002649 
L 515.6676 266.964084 
L 516.672 269.025402 
L 517.6764 271.961848 
L 518.6808 272.633034 
L 520.6896 267.830576 
L 521.694 267.620144 
L 522.6984 268.070242 
L 524.7072 273.951096 
L 525.7116 274.626065 
L 526.716 272.070538 
L 527.7204 269.008896 
L 528.7248 268.011183 
L 530.7336 267.68641 
L 531.738 268.805914 
L 532.7424 272.370467 
L 533.7468 274.909478 
L 534.7512 275.455098 
L 536.76 269.614275 
L 537.7644 268.393911 
L 538.7688 268.118519 
L 539.7732 267.990045 
L 540.7776 268.189926 
L 541.782 270.406819 
L 542.7864 273.97888 
L 543.7908 275.600039 
L 544.7952 275.380082 
L 545.7996 271.043778 
L 546.804 268.969882 
L 547.8084 268.767392 
L 548.8128 269.655578 
L 549.8172 273.113112 
L 550.8216 275.26031 
L 551.826 275.179924 
L 552.8304 271.142749 
L 553.8348 269.456316 
L 554.8392 268.673403 
L 555.8436 268.475522 
L 556.848 269.692556 
L 557.8524 272.93772 
L 558.8568 275.226054 
L 559.8612 275.496978 
L 560.8656 272.229491 
L 561.87 272.422523 
L 562.8744 270.521819 
L 563.8788 270.843805 
L 565.8876 270.462001 
L 574.9272 269.299533 
L 575.9316 341.427437 
L 588.9888 337.404226 
L 602.046 333.786253 
L 604.0548 333.3176 
L 606.0636 332.732771 
L 611.0856 331.477616 
L 613.0944 330.898617 
L 615.1032 330.41881 
L 618.1164 329.56342 
L 630.1692 326.360902 
L 632.178 325.756683 
L 634.1868 325.185556 
L 645.2352 321.966624 
L 647.244 321.303456 
L 649.2528 320.728875 
L 651.2616 320.064139 
L 653.2704 319.464293 
L 655.2792 318.776862 
L 659.2968 317.450685 
L 661.3056 316.695927 
L 664.3188 315.611678 
L 666.3276 314.825443 
L 668.3364 314.16621 
L 670.3452 313.351235 
L 671.3496 313.014858 
L 673.3584 312.193349 
L 678.3804 310.490096 
L 680.3892 309.755954 
L 681.3936 309.437837 
L 683.4024 308.644349 
L 684.4068 308.306737 
L 686.4156 307.454192 
L 688.4244 306.67397 
L 691.4376 305.219978 
L 696.4596 302.80469 
L 698.4684 301.695 
L 700.4772 300.68876 
L 702.486 299.525513 
L 704.4948 298.485575 
L 706.5036 297.18954 
L 708.5124 296.029694 
L 710.5212 294.693862 
L 712.53 293.496117 
L 714.5388 292.02184 
L 715.5432 291.381552 
L 717.552 289.84307 
L 719.5608 288.453984 
L 720.5652 287.583349 
L 724.5828 284.699724 
L 725.5872 283.771941 
L 727.596 282.241139 
L 728.6004 281.293074 
L 732.618 278.27172 
L 734.6268 276.442985 
L 739.6488 272.550827 
L 740.6532 271.521276 
L 747.684 265.745391 
L 749.6928 263.921968 
L 758.7324 256.45671 
L 763.7544 252.546283 
L 768.7764 248.937431 
L 773.7984 245.598714 
L 778.8204 242.591648 
L 784.8468 239.276373 
L 790.8732 236.220259 
L 798.9084 232.45513 
L 803.9304 230.270037 
L 809.9568 227.86568 
L 820.0008 224.178734 
L 821.0052 223.882571 
L 823.014 223.137291 
L 836.0712 219.474421 
L 845.1108 217.259631 
L 849.1284 216.813503 
L 851.1372 216.839315 
L 853.146 217.16362 
L 856.1592 218.533749 
L 859.1724 220.03787 
L 860.1768 220.437372 
L 868.212 222.386829 
L 875.2428 223.552029 
L 880.2648 224.721202 
L 885.2868 226.342754 
L 887.2956 227.4455 
L 888.3 228.183287 
L 889.3044 229.445361 
L 891.3132 234.777497 
L 892.3176 237.821852 
L 894.3264 245.633755 
L 895.3308 250.143031 
L 896.3352 255.868377 
L 897.3396 264.823362 
L 898.344 314.701858 
L 898.389989 433 
L 898.389989 433 
" style="fill:none;stroke:#ff7f0e;stroke-linecap:square;stroke-width:1.5;"/>
   </g>
   <g id="line2d_14">
    <path clip-path="url(#pe56d3fcea4)" d="M 176.137464 433 
L 176.1804 425.326262 
L 177.1848 340.599018 
L 179.1936 226.624114 
L 180.198 173.052322 
L 181.2024 127.017698 
L 182.2068 103.367694 
L 183.2112 92.333504 
L 184.2156 88.140686 
L 185.22 85.740949 
L 186.2244 84.483183 
L 187.2288 82.32768 
L 188.2332 81.288587 
L 189.2376 81.288587 
L 190.242 80.274475 
L 194.2596 80.274475 
L 197.2728 83.172641 
L 198.2772 84.990114 
L 199.2816 85.86605 
L 200.286 88.368703 
L 201.2904 91.449746 
L 202.2948 94.119975 
L 203.2992 98.833782 
L 204.3036 104.614875 
L 205.308 113.014812 
L 206.3124 126.228229 
L 207.3168 150.260288 
L 208.3212 170.505193 
L 209.3256 164.157609 
L 210.33 139.871399 
L 211.3344 132.477328 
L 212.3388 130.946814 
L 213.3432 132.51982 
L 214.3476 133.187204 
L 216.3564 135.95641 
L 217.3608 135.544398 
L 218.3652 136.134136 
L 219.3696 137.684442 
L 220.374 137.35574 
L 221.3784 138.23903 
L 222.3828 138.603825 
L 223.3872 139.317054 
L 224.3916 140.264156 
L 225.396 140.264156 
L 226.4004 141.52072 
L 227.4048 141.52072 
L 228.4092 142.02011 
L 229.4136 142.758887 
L 230.418 143.709539 
L 231.4224 145.594385 
L 232.4268 143.827609 
L 233.4312 145.504121 
L 234.4356 145.410238 
L 235.44 147.683086 
L 237.4488 146.439024 
L 238.4532 148.082069 
L 239.4576 148.30515 
L 240.462 148.680718 
L 241.4664 149.309 
L 242.4708 149.560168 
L 243.4752 150.18845 
L 244.4796 150.18845 
L 245.484 151.061986 
L 246.4884 152.31855 
L 247.4928 151.561377 
L 248.4972 152.368662 
L 249.5016 152.386624 
L 250.506 153.419004 
L 251.5104 153.254968 
L 252.5148 154.220118 
L 253.5192 154.680455 
L 254.5236 154.596127 
L 255.528 155.219631 
L 256.5324 155.161574 
L 257.5368 156.32622 
L 258.5412 156.515935 
L 259.5456 156.515935 
L 260.55 157.215269 
L 261.5544 159.234889 
L 262.5588 158.137499 
L 263.5632 157.860789 
L 264.5676 159.277894 
L 265.572 159.77958 
L 267.5808 160.617431 
L 268.5852 161.080321 
L 269.5896 161.79663 
L 270.594 162.114001 
L 271.5984 161.820831 
L 272.6028 162.220507 
L 273.6072 162.132869 
L 274.6116 164.096154 
L 275.616 163.694265 
L 276.6204 163.586743 
L 277.6248 164.857592 
L 278.6292 164.926932 
L 279.6336 165.165064 
L 280.638 166.151286 
L 281.6424 166.779568 
L 282.6468 166.985099 
L 283.6512 167.613381 
L 284.6556 167.613381 
L 285.66 168.245811 
L 287.6688 170.047729 
L 288.6732 170.228669 
L 289.6776 170.228669 
L 290.682 171.203332 
L 291.6864 170.959916 
L 293.6952 172.21648 
L 294.6996 172.250322 
L 296.7084 172.985301 
L 297.7128 173.613583 
L 298.7172 173.613583 
L 300.726 174.270784 
L 301.7304 174.899066 
L 302.7348 174.899066 
L 303.7392 175.527348 
L 304.7436 175.197346 
L 306.7524 176.45391 
L 308.7612 176.45391 
L 309.7656 176.753122 
L 310.77 176.753122 
L 311.7744 177.381404 
L 312.7788 177.381404 
L 313.7832 178.009686 
L 315.792 178.009686 
L 316.7964 178.637968 
L 318.8052 178.637968 
L 319.8096 179.266249 
L 321.8184 179.266249 
L 322.8228 179.894531 
L 324.8316 179.894531 
L 325.836 180.522813 
L 327.8448 180.522813 
L 328.8492 181.151095 
L 329.8536 180.522813 
L 330.858 180.522813 
L 331.8624 181.151095 
L 332.8668 181.151095 
L 335.88 183.035941 
L 336.8844 184.292505 
L 338.8932 185.549069 
L 343.9152 191.831889 
L 344.9196 194.473909 
L 345.924 196.636778 
L 346.9284 199.468815 
L 347.9328 201.774229 
L 348.9372 205.6541 
L 349.9416 208.69602 
L 350.946 212.931878 
L 352.9548 219.211238 
L 353.9592 222.02304 
L 354.9636 222.02304 
L 355.968 224.635984 
L 356.9724 227.853153 
L 357.9768 231.787096 
L 358.9812 237.606433 
L 359.9856 244.080031 
L 360.99 251.501104 
L 361.9944 260.184883 
L 364.0032 283.888509 
L 365.0076 296.963932 
L 367.0164 331.747596 
L 368.0208 352.750394 
L 370.0296 399.939361 
L 371.190899 433 
M 737.360056 433 
L 737.64 423.751996 
L 739.6488 374.280209 
L 740.6532 344.97907 
L 745.6752 231.449722 
L 747.684 199.189352 
L 748.6884 191.462436 
L 749.6928 188.377006 
L 750.6972 187.363373 
L 751.7016 186.658916 
L 752.706 186.105525 
L 754.7148 186.105525 
L 755.7192 185.668041 
L 764.7588 185.688763 
L 765.7632 186.503844 
L 766.7676 185.708523 
L 767.772 185.727365 
L 768.7764 186.466151 
L 769.7808 185.745327 
L 770.7852 186.448614 
L 775.8072 186.448614 
L 776.8116 187.134779 
L 780.8292 187.134779 
L 781.8336 187.804227 
L 783.8424 187.804227 
L 784.8468 188.457357 
L 786.8556 188.457357 
L 787.86 189.094556 
L 788.8644 189.094556 
L 789.8688 189.722838 
L 790.8732 189.722838 
L 791.8776 190.35112 
L 792.882 190.35112 
L 793.8864 190.979402 
L 794.8908 190.979402 
L 795.8952 191.607684 
L 796.8996 191.607684 
L 798.9084 192.864248 
L 799.9128 192.864248 
L 801.9216 194.120812 
L 802.926 194.120812 
L 806.9436 196.63394 
L 807.948 196.63394 
L 813.9744 200.403632 
L 814.9788 201.660196 
L 815.9832 201.660196 
L 817.992 202.91676 
L 818.9964 204.173324 
L 820.0008 204.173324 
L 821.0052 206.058169 
L 822.0096 206.058169 
L 823.014 207.55412 
L 824.0184 208.274935 
L 825.0228 209.664368 
L 827.0316 210.986929 
L 829.0404 213.508965 
L 830.0448 214.137247 
L 831.0492 215.393811 
L 832.0536 217.278657 
L 834.0624 219.791785 
L 836.0712 223.561477 
L 837.0756 224.818041 
L 838.08 227.570555 
L 839.0844 228.994647 
L 841.0932 235.253112 
L 842.0976 238.763546 
L 843.102 243.059418 
L 844.1064 248.006598 
L 845.1108 254.675449 
L 846.1152 263.603729 
L 847.1196 274.936092 
L 849.1284 307.410964 
L 850.1328 328.592469 
L 851.1372 360.890993 
L 853.180027 433 
L 853.180027 433 
" style="fill:none;stroke:#008000;stroke-linecap:square;stroke-width:1.5;"/>
   </g>
   <g id="line2d_15">
    <path clip-path="url(#pe56d3fcea4)" d="M 136.0044 332.366707 
L 140.022 332.590958 
L 141.0264 332.462284 
L 142.0308 332.186042 
L 143.0352 331.710402 
L 144.0396 330.954953 
L 145.044 329.76869 
L 146.0484 327.857514 
L 147.0528 324.532714 
L 148.0572 317.62051 
L 149.0616 308.207613 
L 150.066 308.41535 
L 151.0704 305.723995 
L 152.0748 303.555225 
L 153.0792 301.819148 
L 154.0836 299.36559 
L 155.088 298.03489 
L 156.0924 296.988482 
L 157.0968 296.230602 
L 158.1012 296.246645 
L 159.1056 298.155397 
L 161.1144 304.915572 
L 162.1188 304.918822 
L 164.1276 301.878948 
L 167.1408 297.209257 
L 169.1496 294.496841 
L 171.1584 292.13262 
L 172.1628 291.124384 
L 173.1672 290.406135 
L 174.1716 289.929438 
L 177.1848 289.006396 
L 178.1892 275.836806 
L 181.2024 127.017654 
L 182.2068 103.367686 
L 183.2112 92.333501 
L 184.2156 88.140684 
L 185.22 85.740947 
L 186.2244 84.483181 
L 187.2288 82.327679 
L 188.2332 81.288586 
L 189.2376 81.288586 
L 190.242 80.274474 
L 194.2596 80.274474 
L 197.2728 83.172639 
L 198.2772 84.990112 
L 199.2816 85.866047 
L 200.286 88.368701 
L 201.2904 91.449743 
L 202.2948 94.119971 
L 203.2992 98.833776 
L 204.3036 104.614866 
L 205.308 113.014794 
L 206.3124 126.228181 
L 207.3168 150.25998 
L 208.3212 170.503717 
L 209.3256 164.156707 
L 210.33 139.871261 
L 211.3344 132.477249 
L 212.3388 130.946744 
L 213.3432 132.51974 
L 214.3476 133.187119 
L 216.3564 135.956303 
L 217.3608 135.544294 
L 218.3652 136.134026 
L 219.3696 137.684317 
L 220.374 137.355616 
L 221.3784 138.238897 
L 222.3828 138.603686 
L 223.3872 139.316906 
L 224.3916 140.263995 
L 225.396 140.263994 
L 226.4004 141.520539 
L 227.4048 141.520537 
L 228.4092 142.019918 
L 229.4136 142.758682 
L 230.418 143.709315 
L 231.4224 145.594122 
L 232.4268 143.827377 
L 233.4312 145.503854 
L 234.4356 145.409969 
L 235.44 147.682762 
L 237.4488 146.438721 
L 238.4532 148.081721 
L 239.4576 148.304789 
L 240.462 148.680342 
L 241.4664 149.308599 
L 242.4708 149.559752 
L 243.4752 150.188006 
L 244.4796 150.187999 
L 245.484 151.061495 
L 246.4884 152.317999 
L 247.4928 151.560848 
L 248.4972 152.368089 
L 249.5016 152.386039 
L 250.506 153.418357 
L 251.5104 153.254316 
L 252.5148 154.219401 
L 253.5192 154.679696 
L 254.5236 154.595357 
L 255.528 155.218804 
L 256.5324 155.160732 
L 257.5368 156.325277 
L 258.5412 156.514954 
L 259.5456 156.514929 
L 260.55 157.214182 
L 261.5544 159.233581 
L 262.5588 158.136265 
L 263.5632 157.859548 
L 264.5676 159.276468 
L 265.572 159.778053 
L 267.5808 160.615699 
L 268.5852 161.078467 
L 269.5896 161.794605 
L 270.594 162.111854 
L 271.5984 161.818655 
L 272.6028 162.218182 
L 273.6072 162.130472 
L 274.6116 164.093255 
L 275.616 163.691338 
L 276.6204 163.583726 
L 277.6248 164.85411 
L 278.6292 164.923278 
L 279.6336 165.161167 
L 280.638 166.146878 
L 281.6424 166.774711 
L 282.6468 166.97991 
L 283.6512 167.607639 
L 284.6556 167.607332 
L 285.66 168.239086 
L 287.6688 170.039012 
L 288.6732 170.219251 
L 289.6776 170.21863 
L 290.682 171.191796 
L 291.6864 170.947909 
L 293.6952 172.201664 
L 294.6996 172.234644 
L 296.7084 172.966943 
L 297.7128 173.593369 
L 298.7172 173.592406 
L 300.726 174.246465 
L 301.7304 174.872447 
L 302.7348 174.871346 
L 303.7392 175.497087 
L 304.7436 175.166713 
L 306.7524 176.417614 
L 308.7612 176.41506 
L 309.7656 176.712055 
L 310.77 176.710721 
L 311.7744 177.335509 
L 312.7788 177.334125 
L 313.7832 177.958594 
L 315.792 177.95566 
L 316.7964 178.579703 
L 318.8052 178.576618 
L 319.8096 179.200202 
L 321.8184 179.196979 
L 322.8228 179.820122 
L 324.8316 179.816765 
L 325.836 180.439392 
L 327.8448 180.435915 
L 328.8492 181.057995 
L 329.8536 180.432352 
L 330.858 180.43051 
L 331.8624 181.052261 
L 332.8668 181.050374 
L 335.88 182.91339 
L 336.8844 184.155487 
L 338.8932 185.394213 
L 343.9152 191.569455 
L 344.9196 194.150412 
L 345.924 196.253936 
L 346.9284 198.992621 
L 347.9328 201.20606 
L 348.9372 204.891785 
L 349.9416 207.740232 
L 350.946 211.625711 
L 352.9548 217.157547 
L 353.9592 219.519782 
L 354.9636 219.521383 
L 355.968 221.6344 
L 356.9724 224.123655 
L 357.9768 226.966594 
L 359.9856 234.138853 
L 360.99 237.123676 
L 361.9944 239.476432 
L 362.9988 241.257695 
L 364.0032 242.178868 
L 365.0076 242.686413 
L 367.0164 243.344741 
L 370.0296 244.257939 
L 373.0428 245.367963 
L 377.0604 247.304381 
L 378.0648 247.826495 
L 380.0736 249.245497 
L 381.078 250.553086 
L 382.0824 254.926227 
L 383.0868 261.054066 
L 384.0912 266.041763 
L 385.0956 270.297299 
L 386.1 273.997098 
L 388.1088 280.344925 
L 389.1132 283.363764 
L 390.1176 285.151228 
L 391.122 283.882182 
L 392.1264 283.956879 
L 393.1308 285.310173 
L 394.1352 286.123519 
L 395.1396 286.146456 
L 398.1528 285.78196 
L 400.1616 285.887674 
L 407.1924 286.309267 
L 431.298 287.544669 
L 445.3596 288.216229 
L 467.4564 289.383914 
L 478.5048 289.931926 
L 483.5268 289.976283 
L 487.5444 289.719796 
L 489.5532 289.456369 
L 491.562 288.983075 
L 494.5752 287.795913 
L 496.584 286.711384 
L 498.5928 285.274418 
L 500.6016 283.451176 
L 502.6104 281.203031 
L 504.6192 278.477304 
L 506.628 275.134536 
L 508.6368 270.955612 
L 509.6412 268.510283 
L 510.6456 265.750524 
L 511.65 263.852124 
L 512.6544 266.80523 
L 513.6588 268.960334 
L 514.6632 269.002649 
L 515.6676 266.964084 
L 516.672 269.025402 
L 517.6764 271.961848 
L 518.6808 272.633034 
L 520.6896 267.830576 
L 521.694 267.620144 
L 522.6984 268.070242 
L 524.7072 273.951096 
L 525.7116 274.626065 
L 526.716 272.070538 
L 527.7204 269.008896 
L 528.7248 268.011183 
L 530.7336 267.68641 
L 531.738 268.805914 
L 532.7424 272.370467 
L 533.7468 274.909478 
L 534.7512 275.455098 
L 536.76 269.614275 
L 537.7644 268.393911 
L 538.7688 268.118519 
L 539.7732 267.990045 
L 540.7776 268.189926 
L 541.782 270.406819 
L 542.7864 273.97888 
L 543.7908 275.600039 
L 544.7952 275.380082 
L 545.7996 271.043778 
L 546.804 268.969882 
L 547.8084 268.767392 
L 548.8128 269.655578 
L 549.8172 273.113112 
L 550.8216 275.26031 
L 551.826 275.179924 
L 552.8304 271.142749 
L 553.8348 269.456316 
L 554.8392 268.673403 
L 555.8436 268.475522 
L 556.848 269.692556 
L 557.8524 272.93772 
L 558.8568 275.226054 
L 559.8612 275.496978 
L 560.8656 272.229491 
L 561.87 272.422523 
L 562.8744 270.521819 
L 563.8788 270.843805 
L 565.8876 270.462001 
L 574.9272 269.299533 
L 575.9316 341.427437 
L 588.9888 337.404226 
L 602.046 333.786253 
L 604.0548 333.3176 
L 606.0636 332.732771 
L 611.0856 331.477616 
L 613.0944 330.898617 
L 615.1032 330.41881 
L 618.1164 329.56342 
L 630.1692 326.360902 
L 632.178 325.756683 
L 634.1868 325.185556 
L 645.2352 321.966624 
L 647.244 321.303456 
L 649.2528 320.728875 
L 651.2616 320.064139 
L 653.2704 319.464293 
L 655.2792 318.776862 
L 659.2968 317.450685 
L 661.3056 316.695927 
L 664.3188 315.611678 
L 666.3276 314.825443 
L 668.3364 314.16621 
L 670.3452 313.351235 
L 671.3496 313.014858 
L 673.3584 312.193349 
L 678.3804 310.490096 
L 680.3892 309.755954 
L 681.3936 309.437837 
L 683.4024 308.644349 
L 684.4068 308.306737 
L 686.4156 307.454192 
L 688.4244 306.67397 
L 691.4376 305.219978 
L 696.4596 302.80469 
L 698.4684 301.695 
L 700.4772 300.68876 
L 702.486 299.525513 
L 704.4948 298.485575 
L 706.5036 297.18954 
L 708.5124 296.029694 
L 710.5212 294.693862 
L 712.53 293.496117 
L 714.5388 292.02184 
L 715.5432 291.381552 
L 717.552 289.84307 
L 719.5608 288.453984 
L 720.5652 287.583349 
L 724.5828 284.699724 
L 725.5872 283.771941 
L 727.596 282.241139 
L 728.6004 281.293074 
L 732.618 278.27172 
L 734.6268 276.442985 
L 739.6488 272.546053 
L 741.6576 270.458987 
L 742.662 268.724375 
L 743.6664 263.73174 
L 745.6752 230.678721 
L 747.684 199.116249 
L 748.6884 191.419066 
L 749.6928 188.340582 
L 750.6972 187.327422 
L 751.7016 186.622598 
L 752.706 186.068389 
L 754.7148 186.063248 
L 755.7192 185.624449 
L 764.7588 185.613086 
L 765.7632 186.418525 
L 766.7676 185.623651 
L 767.772 185.637632 
L 768.7764 186.365866 
L 769.7808 185.645281 
L 770.7852 186.33728 
L 775.8072 186.306052 
L 776.8116 186.977435 
L 780.8292 186.946606 
L 781.8336 187.597434 
L 783.8424 187.579199 
L 784.8468 188.210896 
L 786.8556 188.190266 
L 787.86 188.802963 
L 788.8644 188.79134 
L 789.8688 189.392204 
L 790.8732 189.379394 
L 791.8776 189.977149 
L 792.882 189.962956 
L 793.8864 190.557316 
L 794.8908 190.541724 
L 795.8952 191.131767 
L 796.8996 191.114455 
L 798.9084 192.28249 
L 799.9128 192.262079 
L 801.9216 193.412807 
L 802.926 193.389516 
L 806.9436 195.632975 
L 807.948 195.603109 
L 813.9744 198.798288 
L 814.9788 199.854249 
L 815.9832 199.796426 
L 817.992 200.777153 
L 818.9964 201.767943 
L 820.0008 201.702752 
L 821.0052 203.17925 
L 822.0096 203.094027 
L 823.014 204.193862 
L 824.0184 204.675969 
L 825.0228 205.636396 
L 827.0316 206.419449 
L 829.0404 207.939541 
L 830.0448 208.19851 
L 831.0492 208.861652 
L 832.0536 209.854055 
L 834.0624 210.954186 
L 836.0712 212.430665 
L 837.0756 212.796005 
L 838.08 213.641626 
L 839.0844 213.873777 
L 840.0888 214.562814 
L 842.0976 215.570361 
L 844.1064 216.370567 
L 847.1196 216.883037 
L 850.1328 216.812976 
L 852.1416 216.945774 
L 853.146 217.163619 
L 856.1592 218.533749 
L 859.1724 220.03787 
L 860.1768 220.437372 
L 868.212 222.386829 
L 875.2428 223.552029 
L 880.2648 224.721202 
L 885.2868 226.342754 
L 887.2956 227.4455 
L 888.3 228.183287 
L 889.3044 229.445361 
L 891.3132 234.777497 
L 892.3176 237.821852 
L 894.3264 245.633755 
L 895.3308 250.143031 
L 896.3352 255.868377 
L 897.3396 264.823362 
L 898.344 314.701858 
L 898.389989 433 
L 898.389989 433 
" style="fill:none;stroke:#1f77b4;stroke-dasharray:3,4.95;stroke-dashoffset:0;stroke-width:3;"/>
   </g>
   <g id="line2d_16">
    <path clip-path="url(#pe56d3fcea4)" d="M 135 259.396364 
L 972 259.396364 
" style="fill:none;stroke:#000000;stroke-dasharray:5.55,2.4;stroke-dashoffset:0;stroke-width:1.5;"/>
   </g>
   <g id="line2d_17">
    <path clip-path="url(#pe56d3fcea4)" d="M 179.1936 378 
L 179.1936 51.84 
" style="fill:none;stroke:#008000;stroke-dasharray:2,3.3;stroke-dashoffset:0;stroke-width:2;"/>
   </g>
   <g id="line2d_18">
    <path clip-path="url(#pe56d3fcea4)" d="M 361.9944 378 
L 361.9944 51.84 
" style="fill:none;stroke:#008000;stroke-dasharray:2,3.3;stroke-dashoffset:0;stroke-width:2;"/>
   </g>
   <g id="line2d_19">
    <path clip-path="url(#pe56d3fcea4)" d="M 293.6952 378 
L 293.6952 51.84 
" style="fill:none;stroke:#ff7f0e;stroke-dasharray:2,3.3;stroke-dashoffset:0;stroke-width:2;"/>
   </g>
   <g id="line2d_20">
    <path clip-path="url(#pe56d3fcea4)" d="M 383.0868 378 
L 383.0868 51.84 
" style="fill:none;stroke:#ff7f0e;stroke-dasharray:2,3.3;stroke-dashoffset:0;stroke-width:2;"/>
   </g>
   <g id="patch_3">
    <path d="M 135 378 
L 135 51.84 
" style="fill:none;stroke:#000000;stroke-linecap:square;stroke-linejoin:miter;stroke-width:0.8;"/>
   </g>
   <g id="patch_4">
    <path d="M 972 378 
L 972 51.84 
" style="fill:none;stroke:#000000;stroke-linecap:square;stroke-linejoin:miter;stroke-width:0.8;"/>
   </g>
   <g id="patch_5">
    <path d="M 135 378 
L 972 378 
" style="fill:none;stroke:#000000;stroke-linecap:square;stroke-linejoin:miter;stroke-width:0.8;"/>
   </g>
   <g id="patch_6">
    <path d="M 135 51.84 
L 972 51.84 
" style="fill:none;stroke:#000000;stroke-linecap:square;stroke-linejoin:miter;stroke-width:0.8;"/>
   </g>
   <g id="legend_1">
    <g id="patch_7">
     <path d="M 906.860937 103.874375 
L 965 103.874375 
Q 967 103.874375 967 101.874375 
L 967 58.84 
Q 967 56.84 965 56.84 
L 906.860937 56.84 
Q 904.860937 56.84 904.860937 58.84 
L 904.860937 101.874375 
Q 904.860937 103.874375 906.860937 103.874375 
z
" style="fill:#ffffff;opacity:0.8;stroke:#cccccc;stroke-linejoin:miter;"/>
    </g>
    <g id="line2d_21">
     <path d="M 908.860937 64.938437 
L 928.860937 64.938437 
" style="fill:none;stroke:#ff7f0e;stroke-linecap:square;stroke-width:1.5;"/>
    </g>
    <g id="line2d_22"/>
    <g id="text_15">
     <!-- Wind -->
     <defs>
      <path d="M 3.328125 72.90625 
L 13.28125 72.90625 
L 28.609375 11.28125 
L 43.890625 72.90625 
L 54.984375 72.90625 
L 70.3125 11.28125 
L 85.59375 72.90625 
L 95.609375 72.90625 
L 77.296875 0 
L 64.890625 0 
L 49.515625 63.28125 
L 33.984375 0 
L 21.578125 0 
z
" id="DejaVuSans-87"/>
      <path d="M 9.421875 54.6875 
L 18.40625 54.6875 
L 18.40625 0 
L 9.421875 0 
z
M 9.421875 75.984375 
L 18.40625 75.984375 
L 18.40625 64.59375 
L 9.421875 64.59375 
z
" id="DejaVuSans-105"/>
     </defs>
     <g transform="translate(936.860937 68.438437)scale(0.1 -0.1)">
      <use xlink:href="#DejaVuSans-87"/>
      <use x="98.845703" xlink:href="#DejaVuSans-105"/>
      <use x="126.628906" xlink:href="#DejaVuSans-110"/>
      <use x="190.007812" xlink:href="#DejaVuSans-100"/>
     </g>
    </g>
    <g id="line2d_23">
     <path d="M 908.860937 79.616562 
L 928.860937 79.616562 
" style="fill:none;stroke:#008000;stroke-linecap:square;stroke-width:1.5;"/>
    </g>
    <g id="line2d_24"/>
    <g id="text_16">
     <!-- RLOF -->
     <defs>
      <path d="M 44.390625 34.1875 
Q 47.5625 33.109375 50.5625 29.59375 
Q 53.5625 26.078125 56.59375 19.921875 
L 66.609375 0 
L 56 0 
L 46.6875 18.703125 
Q 43.0625 26.03125 39.671875 28.421875 
Q 36.28125 30.8125 30.421875 30.8125 
L 19.671875 30.8125 
L 19.671875 0 
L 9.8125 0 
L 9.8125 72.90625 
L 32.078125 72.90625 
Q 44.578125 72.90625 50.734375 67.671875 
Q 56.890625 62.453125 56.890625 51.90625 
Q 56.890625 45.015625 53.6875 40.46875 
Q 50.484375 35.9375 44.390625 34.1875 
z
M 19.671875 64.796875 
L 19.671875 38.921875 
L 32.078125 38.921875 
Q 39.203125 38.921875 42.84375 42.21875 
Q 46.484375 45.515625 46.484375 51.90625 
Q 46.484375 58.296875 42.84375 61.546875 
Q 39.203125 64.796875 32.078125 64.796875 
z
" id="DejaVuSans-82"/>
      <path d="M 9.8125 72.90625 
L 19.671875 72.90625 
L 19.671875 8.296875 
L 55.171875 8.296875 
L 55.171875 0 
L 9.8125 0 
z
" id="DejaVuSans-76"/>
      <path d="M 39.40625 66.21875 
Q 28.65625 66.21875 22.328125 58.203125 
Q 16.015625 50.203125 16.015625 36.375 
Q 16.015625 22.609375 22.328125 14.59375 
Q 28.65625 6.59375 39.40625 6.59375 
Q 50.140625 6.59375 56.421875 14.59375 
Q 62.703125 22.609375 62.703125 36.375 
Q 62.703125 50.203125 56.421875 58.203125 
Q 50.140625 66.21875 39.40625 66.21875 
z
M 39.40625 74.21875 
Q 54.734375 74.21875 63.90625 63.9375 
Q 73.09375 53.65625 73.09375 36.375 
Q 73.09375 19.140625 63.90625 8.859375 
Q 54.734375 -1.421875 39.40625 -1.421875 
Q 24.03125 -1.421875 14.8125 8.828125 
Q 5.609375 19.09375 5.609375 36.375 
Q 5.609375 53.65625 14.8125 63.9375 
Q 24.03125 74.21875 39.40625 74.21875 
z
" id="DejaVuSans-79"/>
      <path d="M 9.8125 72.90625 
L 51.703125 72.90625 
L 51.703125 64.59375 
L 19.671875 64.59375 
L 19.671875 43.109375 
L 48.578125 43.109375 
L 48.578125 34.8125 
L 19.671875 34.8125 
L 19.671875 0 
L 9.8125 0 
z
" id="DejaVuSans-70"/>
     </defs>
     <g transform="translate(936.860937 83.116562)scale(0.1 -0.1)">
      <use xlink:href="#DejaVuSans-82"/>
      <use x="69.482422" xlink:href="#DejaVuSans-76"/>
      <use x="125.148438" xlink:href="#DejaVuSans-79"/>
      <use x="203.859375" xlink:href="#DejaVuSans-70"/>
     </g>
    </g>
    <g id="line2d_25">
     <path d="M 908.860937 94.294687 
L 928.860937 94.294687 
" style="fill:none;stroke:#1f77b4;stroke-dasharray:3,4.95;stroke-dashoffset:0;stroke-width:3;"/>
    </g>
    <g id="line2d_26"/>
    <g id="text_17">
     <!-- Total -->
     <defs>
      <path d="M -0.296875 72.90625 
L 61.375 72.90625 
L 61.375 64.59375 
L 35.5 64.59375 
L 35.5 0 
L 25.59375 0 
L 25.59375 64.59375 
L -0.296875 64.59375 
z
" id="DejaVuSans-84"/>
      <path d="M 34.28125 27.484375 
Q 23.390625 27.484375 19.1875 25 
Q 14.984375 22.515625 14.984375 16.5 
Q 14.984375 11.71875 18.140625 8.90625 
Q 21.296875 6.109375 26.703125 6.109375 
Q 34.1875 6.109375 38.703125 11.40625 
Q 43.21875 16.703125 43.21875 25.484375 
L 43.21875 27.484375 
z
M 52.203125 31.203125 
L 52.203125 0 
L 43.21875 0 
L 43.21875 8.296875 
Q 40.140625 3.328125 35.546875 0.953125 
Q 30.953125 -1.421875 24.3125 -1.421875 
Q 15.921875 -1.421875 10.953125 3.296875 
Q 6 8.015625 6 15.921875 
Q 6 25.140625 12.171875 29.828125 
Q 18.359375 34.515625 30.609375 34.515625 
L 43.21875 34.515625 
L 43.21875 35.40625 
Q 43.21875 41.609375 39.140625 45 
Q 35.0625 48.390625 27.6875 48.390625 
Q 23 48.390625 18.546875 47.265625 
Q 14.109375 46.140625 10.015625 43.890625 
L 10.015625 52.203125 
Q 14.9375 54.109375 19.578125 55.046875 
Q 24.21875 56 28.609375 56 
Q 40.484375 56 46.34375 49.84375 
Q 52.203125 43.703125 52.203125 31.203125 
z
" id="DejaVuSans-97"/>
     </defs>
     <g transform="translate(936.860937 97.794687)scale(0.1 -0.1)">
      <use xlink:href="#DejaVuSans-84"/>
      <use x="60.818359" xlink:href="#DejaVuSans-111"/>
      <use x="122" xlink:href="#DejaVuSans-116"/>
      <use x="161.208984" xlink:href="#DejaVuSans-97"/>
      <use x="222.488281" xlink:href="#DejaVuSans-108"/>
     </g>
    </g>
   </g>
  </g>
 </g>
 <defs>
  <clipPath id="pe56d3fcea4">
   <rect height="326.16" width="837" x="135" y="51.84"/>
  </clipPath>
 </defs>
</svg>
