<?xml version="1.0" encoding="utf-8" standalone="no"?>
<!DOCTYPE svg PUBLIC "-//W3C//DTD SVG 1.1//EN"
  "http://www.w3.org/Graphics/SVG/1.1/DTD/svg11.dtd">
<!-- Created with matplotlib (https://matplotlib.org/) -->
<svg height="288pt" version="1.1" viewBox="0 0 720 288" width="720pt" xmlns="http://www.w3.org/2000/svg" xmlns:xlink="http://www.w3.org/1999/xlink">
 <defs>
  <style type="text/css">
*{stroke-linecap:butt;stroke-linejoin:round;}
  </style>
 </defs>
 <g id="figure_1">
  <g id="patch_1">
   <path d="M 0 288 
L 720 288 
L 720 0 
L 0 0 
z
" style="fill:#ffffff;"/>
  </g>
  <g id="axes_1">
   <g id="patch_2">
    <path d="M 90 252 
L 343.636364 252 
L 343.636364 34.56 
L 90 34.56 
z
" style="fill:#ffffff;"/>
   </g>
   <g id="matplotlib.axis_1">
    <g id="xtick_1">
     <g id="line2d_1">
      <defs>
       <path d="M 0 0 
L 0 3.5 
" id="m53dd4a18e7" style="stroke:#000000;stroke-width:0.8;"/>
      </defs>
      <g>
       <use style="stroke:#000000;stroke-width:0.8;" x="343.636364" xlink:href="#m53dd4a18e7" y="252"/>
      </g>
     </g>
     <g id="text_1">
      <!-- 3.5 -->
      <defs>
       <path d="M 40.578125 39.3125 
Q 47.65625 37.796875 51.625 33 
Q 55.609375 28.21875 55.609375 21.1875 
Q 55.609375 10.40625 48.1875 4.484375 
Q 40.765625 -1.421875 27.09375 -1.421875 
Q 22.515625 -1.421875 17.65625 -0.515625 
Q 12.796875 0.390625 7.625 2.203125 
L 7.625 11.71875 
Q 11.71875 9.328125 16.59375 8.109375 
Q 21.484375 6.890625 26.8125 6.890625 
Q 36.078125 6.890625 40.9375 10.546875 
Q 45.796875 14.203125 45.796875 21.1875 
Q 45.796875 27.640625 41.28125 31.265625 
Q 36.765625 34.90625 28.71875 34.90625 
L 20.21875 34.90625 
L 20.21875 43.015625 
L 29.109375 43.015625 
Q 36.375 43.015625 40.234375 45.921875 
Q 44.09375 48.828125 44.09375 54.296875 
Q 44.09375 59.90625 40.109375 62.90625 
Q 36.140625 65.921875 28.71875 65.921875 
Q 24.65625 65.921875 20.015625 65.03125 
Q 15.375 64.15625 9.8125 62.3125 
L 9.8125 71.09375 
Q 15.4375 72.65625 20.34375 73.4375 
Q 25.25 74.21875 29.59375 74.21875 
Q 40.828125 74.21875 47.359375 69.109375 
Q 53.90625 64.015625 53.90625 55.328125 
Q 53.90625 49.265625 50.4375 45.09375 
Q 46.96875 40.921875 40.578125 39.3125 
z
" id="DejaVuSans-51"/>
       <path d="M 10.6875 12.40625 
L 21 12.40625 
L 21 0 
L 10.6875 0 
z
" id="DejaVuSans-46"/>
       <path d="M 10.796875 72.90625 
L 49.515625 72.90625 
L 49.515625 64.59375 
L 19.828125 64.59375 
L 19.828125 46.734375 
Q 21.96875 47.46875 24.109375 47.828125 
Q 26.265625 48.1875 28.421875 48.1875 
Q 40.625 48.1875 47.75 41.5 
Q 54.890625 34.8125 54.890625 23.390625 
Q 54.890625 11.625 47.5625 5.09375 
Q 40.234375 -1.421875 26.90625 -1.421875 
Q 22.3125 -1.421875 17.546875 -0.640625 
Q 12.796875 0.140625 7.71875 1.703125 
L 7.71875 11.625 
Q 12.109375 9.234375 16.796875 8.0625 
Q 21.484375 6.890625 26.703125 6.890625 
Q 35.15625 6.890625 40.078125 11.328125 
Q 45.015625 15.765625 45.015625 23.390625 
Q 45.015625 31 40.078125 35.4375 
Q 35.15625 39.890625 26.703125 39.890625 
Q 22.75 39.890625 18.8125 39.015625 
Q 14.890625 38.140625 10.796875 36.28125 
z
" id="DejaVuSans-53"/>
      </defs>
      <g transform="translate(335.684801 266.598437)scale(0.1 -0.1)">
       <use xlink:href="#DejaVuSans-51"/>
       <use x="63.623047" xlink:href="#DejaVuSans-46"/>
       <use x="95.410156" xlink:href="#DejaVuSans-53"/>
      </g>
     </g>
    </g>
    <g id="xtick_2">
     <g id="line2d_2">
      <g>
       <use style="stroke:#000000;stroke-width:0.8;" x="307.402597" xlink:href="#m53dd4a18e7" y="252"/>
      </g>
     </g>
     <g id="text_2">
      <!-- 3.6 -->
      <defs>
       <path d="M 33.015625 40.375 
Q 26.375 40.375 22.484375 35.828125 
Q 18.609375 31.296875 18.609375 23.390625 
Q 18.609375 15.53125 22.484375 10.953125 
Q 26.375 6.390625 33.015625 6.390625 
Q 39.65625 6.390625 43.53125 10.953125 
Q 47.40625 15.53125 47.40625 23.390625 
Q 47.40625 31.296875 43.53125 35.828125 
Q 39.65625 40.375 33.015625 40.375 
z
M 52.59375 71.296875 
L 52.59375 62.3125 
Q 48.875 64.0625 45.09375 64.984375 
Q 41.3125 65.921875 37.59375 65.921875 
Q 27.828125 65.921875 22.671875 59.328125 
Q 17.53125 52.734375 16.796875 39.40625 
Q 19.671875 43.65625 24.015625 45.921875 
Q 28.375 48.1875 33.59375 48.1875 
Q 44.578125 48.1875 50.953125 41.515625 
Q 57.328125 34.859375 57.328125 23.390625 
Q 57.328125 12.15625 50.6875 5.359375 
Q 44.046875 -1.421875 33.015625 -1.421875 
Q 20.359375 -1.421875 13.671875 8.265625 
Q 6.984375 17.96875 6.984375 36.375 
Q 6.984375 53.65625 15.1875 63.9375 
Q 23.390625 74.21875 37.203125 74.21875 
Q 40.921875 74.21875 44.703125 73.484375 
Q 48.484375 72.75 52.59375 71.296875 
z
" id="DejaVuSans-54"/>
      </defs>
      <g transform="translate(299.451035 266.598437)scale(0.1 -0.1)">
       <use xlink:href="#DejaVuSans-51"/>
       <use x="63.623047" xlink:href="#DejaVuSans-46"/>
       <use x="95.410156" xlink:href="#DejaVuSans-54"/>
      </g>
     </g>
    </g>
    <g id="xtick_3">
     <g id="line2d_3">
      <g>
       <use style="stroke:#000000;stroke-width:0.8;" x="271.168831" xlink:href="#m53dd4a18e7" y="252"/>
      </g>
     </g>
     <g id="text_3">
      <!-- 3.7 -->
      <defs>
       <path d="M 8.203125 72.90625 
L 55.078125 72.90625 
L 55.078125 68.703125 
L 28.609375 0 
L 18.3125 0 
L 43.21875 64.59375 
L 8.203125 64.59375 
z
" id="DejaVuSans-55"/>
      </defs>
      <g transform="translate(263.217269 266.598437)scale(0.1 -0.1)">
       <use xlink:href="#DejaVuSans-51"/>
       <use x="63.623047" xlink:href="#DejaVuSans-46"/>
       <use x="95.410156" xlink:href="#DejaVuSans-55"/>
      </g>
     </g>
    </g>
    <g id="xtick_4">
     <g id="line2d_4">
      <g>
       <use style="stroke:#000000;stroke-width:0.8;" x="234.935065" xlink:href="#m53dd4a18e7" y="252"/>
      </g>
     </g>
     <g id="text_4">
      <!-- 3.8 -->
      <defs>
       <path d="M 31.78125 34.625 
Q 24.75 34.625 20.71875 30.859375 
Q 16.703125 27.09375 16.703125 20.515625 
Q 16.703125 13.921875 20.71875 10.15625 
Q 24.75 6.390625 31.78125 6.390625 
Q 38.8125 6.390625 42.859375 10.171875 
Q 46.921875 13.96875 46.921875 20.515625 
Q 46.921875 27.09375 42.890625 30.859375 
Q 38.875 34.625 31.78125 34.625 
z
M 21.921875 38.8125 
Q 15.578125 40.375 12.03125 44.71875 
Q 8.5 49.078125 8.5 55.328125 
Q 8.5 64.0625 14.71875 69.140625 
Q 20.953125 74.21875 31.78125 74.21875 
Q 42.671875 74.21875 48.875 69.140625 
Q 55.078125 64.0625 55.078125 55.328125 
Q 55.078125 49.078125 51.53125 44.71875 
Q 48 40.375 41.703125 38.8125 
Q 48.828125 37.15625 52.796875 32.3125 
Q 56.78125 27.484375 56.78125 20.515625 
Q 56.78125 9.90625 50.3125 4.234375 
Q 43.84375 -1.421875 31.78125 -1.421875 
Q 19.734375 -1.421875 13.25 4.234375 
Q 6.78125 9.90625 6.78125 20.515625 
Q 6.78125 27.484375 10.78125 32.3125 
Q 14.796875 37.15625 21.921875 38.8125 
z
M 18.3125 54.390625 
Q 18.3125 48.734375 21.84375 45.5625 
Q 25.390625 42.390625 31.78125 42.390625 
Q 38.140625 42.390625 41.71875 45.5625 
Q 45.3125 48.734375 45.3125 54.390625 
Q 45.3125 60.0625 41.71875 63.234375 
Q 38.140625 66.40625 31.78125 66.40625 
Q 25.390625 66.40625 21.84375 63.234375 
Q 18.3125 60.0625 18.3125 54.390625 
z
" id="DejaVuSans-56"/>
      </defs>
      <g transform="translate(226.983502 266.598437)scale(0.1 -0.1)">
       <use xlink:href="#DejaVuSans-51"/>
       <use x="63.623047" xlink:href="#DejaVuSans-46"/>
       <use x="95.410156" xlink:href="#DejaVuSans-56"/>
      </g>
     </g>
    </g>
    <g id="xtick_5">
     <g id="line2d_5">
      <g>
       <use style="stroke:#000000;stroke-width:0.8;" x="198.701299" xlink:href="#m53dd4a18e7" y="252"/>
      </g>
     </g>
     <g id="text_5">
      <!-- 3.9 -->
      <defs>
       <path d="M 10.984375 1.515625 
L 10.984375 10.5 
Q 14.703125 8.734375 18.5 7.8125 
Q 22.3125 6.890625 25.984375 6.890625 
Q 35.75 6.890625 40.890625 13.453125 
Q 46.046875 20.015625 46.78125 33.40625 
Q 43.953125 29.203125 39.59375 26.953125 
Q 35.25 24.703125 29.984375 24.703125 
Q 19.046875 24.703125 12.671875 31.3125 
Q 6.296875 37.9375 6.296875 49.421875 
Q 6.296875 60.640625 12.9375 67.421875 
Q 19.578125 74.21875 30.609375 74.21875 
Q 43.265625 74.21875 49.921875 64.515625 
Q 56.59375 54.828125 56.59375 36.375 
Q 56.59375 19.140625 48.40625 8.859375 
Q 40.234375 -1.421875 26.421875 -1.421875 
Q 22.703125 -1.421875 18.890625 -0.6875 
Q 15.09375 0.046875 10.984375 1.515625 
z
M 30.609375 32.421875 
Q 37.25 32.421875 41.125 36.953125 
Q 45.015625 41.5 45.015625 49.421875 
Q 45.015625 57.28125 41.125 61.84375 
Q 37.25 66.40625 30.609375 66.40625 
Q 23.96875 66.40625 20.09375 61.84375 
Q 16.21875 57.28125 16.21875 49.421875 
Q 16.21875 41.5 20.09375 36.953125 
Q 23.96875 32.421875 30.609375 32.421875 
z
" id="DejaVuSans-57"/>
      </defs>
      <g transform="translate(190.749736 266.598437)scale(0.1 -0.1)">
       <use xlink:href="#DejaVuSans-51"/>
       <use x="63.623047" xlink:href="#DejaVuSans-46"/>
       <use x="95.410156" xlink:href="#DejaVuSans-57"/>
      </g>
     </g>
    </g>
    <g id="xtick_6">
     <g id="line2d_6">
      <g>
       <use style="stroke:#000000;stroke-width:0.8;" x="162.467532" xlink:href="#m53dd4a18e7" y="252"/>
      </g>
     </g>
     <g id="text_6">
      <!-- 4.0 -->
      <defs>
       <path d="M 37.796875 64.3125 
L 12.890625 25.390625 
L 37.796875 25.390625 
z
M 35.203125 72.90625 
L 47.609375 72.90625 
L 47.609375 25.390625 
L 58.015625 25.390625 
L 58.015625 17.1875 
L 47.609375 17.1875 
L 47.609375 0 
L 37.796875 0 
L 37.796875 17.1875 
L 4.890625 17.1875 
L 4.890625 26.703125 
z
" id="DejaVuSans-52"/>
       <path d="M 31.78125 66.40625 
Q 24.171875 66.40625 20.328125 58.90625 
Q 16.5 51.421875 16.5 36.375 
Q 16.5 21.390625 20.328125 13.890625 
Q 24.171875 6.390625 31.78125 6.390625 
Q 39.453125 6.390625 43.28125 13.890625 
Q 47.125 21.390625 47.125 36.375 
Q 47.125 51.421875 43.28125 58.90625 
Q 39.453125 66.40625 31.78125 66.40625 
z
M 31.78125 74.21875 
Q 44.046875 74.21875 50.515625 64.515625 
Q 56.984375 54.828125 56.984375 36.375 
Q 56.984375 17.96875 50.515625 8.265625 
Q 44.046875 -1.421875 31.78125 -1.421875 
Q 19.53125 -1.421875 13.0625 8.265625 
Q 6.59375 17.96875 6.59375 36.375 
Q 6.59375 54.828125 13.0625 64.515625 
Q 19.53125 74.21875 31.78125 74.21875 
z
" id="DejaVuSans-48"/>
      </defs>
      <g transform="translate(154.51597 266.598437)scale(0.1 -0.1)">
       <use xlink:href="#DejaVuSans-52"/>
       <use x="63.623047" xlink:href="#DejaVuSans-46"/>
       <use x="95.410156" xlink:href="#DejaVuSans-48"/>
      </g>
     </g>
    </g>
    <g id="xtick_7">
     <g id="line2d_7">
      <g>
       <use style="stroke:#000000;stroke-width:0.8;" x="126.233766" xlink:href="#m53dd4a18e7" y="252"/>
      </g>
     </g>
     <g id="text_7">
      <!-- 4.1 -->
      <defs>
       <path d="M 12.40625 8.296875 
L 28.515625 8.296875 
L 28.515625 63.921875 
L 10.984375 60.40625 
L 10.984375 69.390625 
L 28.421875 72.90625 
L 38.28125 72.90625 
L 38.28125 8.296875 
L 54.390625 8.296875 
L 54.390625 0 
L 12.40625 0 
z
" id="DejaVuSans-49"/>
      </defs>
      <g transform="translate(118.282204 266.598437)scale(0.1 -0.1)">
       <use xlink:href="#DejaVuSans-52"/>
       <use x="63.623047" xlink:href="#DejaVuSans-46"/>
       <use x="95.410156" xlink:href="#DejaVuSans-49"/>
      </g>
     </g>
    </g>
    <g id="xtick_8">
     <g id="line2d_8">
      <g>
       <use style="stroke:#000000;stroke-width:0.8;" x="90" xlink:href="#m53dd4a18e7" y="252"/>
      </g>
     </g>
     <g id="text_8">
      <!-- 4.2 -->
      <defs>
       <path d="M 19.1875 8.296875 
L 53.609375 8.296875 
L 53.609375 0 
L 7.328125 0 
L 7.328125 8.296875 
Q 12.9375 14.109375 22.625 23.890625 
Q 32.328125 33.6875 34.8125 36.53125 
Q 39.546875 41.84375 41.421875 45.53125 
Q 43.3125 49.21875 43.3125 52.78125 
Q 43.3125 58.59375 39.234375 62.25 
Q 35.15625 65.921875 28.609375 65.921875 
Q 23.96875 65.921875 18.8125 64.3125 
Q 13.671875 62.703125 7.8125 59.421875 
L 7.8125 69.390625 
Q 13.765625 71.78125 18.9375 73 
Q 24.125 74.21875 28.421875 74.21875 
Q 39.75 74.21875 46.484375 68.546875 
Q 53.21875 62.890625 53.21875 53.421875 
Q 53.21875 48.921875 51.53125 44.890625 
Q 49.859375 40.875 45.40625 35.40625 
Q 44.1875 33.984375 37.640625 27.21875 
Q 31.109375 20.453125 19.1875 8.296875 
z
" id="DejaVuSans-50"/>
      </defs>
      <g transform="translate(82.048438 266.598437)scale(0.1 -0.1)">
       <use xlink:href="#DejaVuSans-52"/>
       <use x="63.623047" xlink:href="#DejaVuSans-46"/>
       <use x="95.410156" xlink:href="#DejaVuSans-50"/>
      </g>
     </g>
    </g>
    <g id="text_9">
     <!-- log(Teff) [K] -->
     <defs>
      <path d="M 9.421875 75.984375 
L 18.40625 75.984375 
L 18.40625 0 
L 9.421875 0 
z
" id="DejaVuSans-108"/>
      <path d="M 30.609375 48.390625 
Q 23.390625 48.390625 19.1875 42.75 
Q 14.984375 37.109375 14.984375 27.296875 
Q 14.984375 17.484375 19.15625 11.84375 
Q 23.34375 6.203125 30.609375 6.203125 
Q 37.796875 6.203125 41.984375 11.859375 
Q 46.1875 17.53125 46.1875 27.296875 
Q 46.1875 37.015625 41.984375 42.703125 
Q 37.796875 48.390625 30.609375 48.390625 
z
M 30.609375 56 
Q 42.328125 56 49.015625 48.375 
Q 55.71875 40.765625 55.71875 27.296875 
Q 55.71875 13.875 49.015625 6.21875 
Q 42.328125 -1.421875 30.609375 -1.421875 
Q 18.84375 -1.421875 12.171875 6.21875 
Q 5.515625 13.875 5.515625 27.296875 
Q 5.515625 40.765625 12.171875 48.375 
Q 18.84375 56 30.609375 56 
z
" id="DejaVuSans-111"/>
      <path d="M 45.40625 27.984375 
Q 45.40625 37.75 41.375 43.109375 
Q 37.359375 48.484375 30.078125 48.484375 
Q 22.859375 48.484375 18.828125 43.109375 
Q 14.796875 37.75 14.796875 27.984375 
Q 14.796875 18.265625 18.828125 12.890625 
Q 22.859375 7.515625 30.078125 7.515625 
Q 37.359375 7.515625 41.375 12.890625 
Q 45.40625 18.265625 45.40625 27.984375 
z
M 54.390625 6.78125 
Q 54.390625 -7.171875 48.1875 -13.984375 
Q 42 -20.796875 29.203125 -20.796875 
Q 24.46875 -20.796875 20.265625 -20.09375 
Q 16.0625 -19.390625 12.109375 -17.921875 
L 12.109375 -9.1875 
Q 16.0625 -11.328125 19.921875 -12.34375 
Q 23.78125 -13.375 27.78125 -13.375 
Q 36.625 -13.375 41.015625 -8.765625 
Q 45.40625 -4.15625 45.40625 5.171875 
L 45.40625 9.625 
Q 42.625 4.78125 38.28125 2.390625 
Q 33.9375 0 27.875 0 
Q 17.828125 0 11.671875 7.65625 
Q 5.515625 15.328125 5.515625 27.984375 
Q 5.515625 40.671875 11.671875 48.328125 
Q 17.828125 56 27.875 56 
Q 33.9375 56 38.28125 53.609375 
Q 42.625 51.21875 45.40625 46.390625 
L 45.40625 54.6875 
L 54.390625 54.6875 
z
" id="DejaVuSans-103"/>
      <path d="M 31 75.875 
Q 24.46875 64.65625 21.28125 53.65625 
Q 18.109375 42.671875 18.109375 31.390625 
Q 18.109375 20.125 21.3125 9.0625 
Q 24.515625 -2 31 -13.1875 
L 23.1875 -13.1875 
Q 15.875 -1.703125 12.234375 9.375 
Q 8.59375 20.453125 8.59375 31.390625 
Q 8.59375 42.28125 12.203125 53.3125 
Q 15.828125 64.359375 23.1875 75.875 
z
" id="DejaVuSans-40"/>
      <path d="M -0.296875 72.90625 
L 61.375 72.90625 
L 61.375 64.59375 
L 35.5 64.59375 
L 35.5 0 
L 25.59375 0 
L 25.59375 64.59375 
L -0.296875 64.59375 
z
" id="DejaVuSans-84"/>
      <path d="M 56.203125 29.59375 
L 56.203125 25.203125 
L 14.890625 25.203125 
Q 15.484375 15.921875 20.484375 11.0625 
Q 25.484375 6.203125 34.421875 6.203125 
Q 39.59375 6.203125 44.453125 7.46875 
Q 49.3125 8.734375 54.109375 11.28125 
L 54.109375 2.78125 
Q 49.265625 0.734375 44.1875 -0.34375 
Q 39.109375 -1.421875 33.890625 -1.421875 
Q 20.796875 -1.421875 13.15625 6.1875 
Q 5.515625 13.8125 5.515625 26.8125 
Q 5.515625 40.234375 12.765625 48.109375 
Q 20.015625 56 32.328125 56 
Q 43.359375 56 49.78125 48.890625 
Q 56.203125 41.796875 56.203125 29.59375 
z
M 47.21875 32.234375 
Q 47.125 39.59375 43.09375 43.984375 
Q 39.0625 48.390625 32.421875 48.390625 
Q 24.90625 48.390625 20.390625 44.140625 
Q 15.875 39.890625 15.1875 32.171875 
z
" id="DejaVuSans-101"/>
      <path d="M 37.109375 75.984375 
L 37.109375 68.5 
L 28.515625 68.5 
Q 23.6875 68.5 21.796875 66.546875 
Q 19.921875 64.59375 19.921875 59.515625 
L 19.921875 54.6875 
L 34.71875 54.6875 
L 34.71875 47.703125 
L 19.921875 47.703125 
L 19.921875 0 
L 10.890625 0 
L 10.890625 47.703125 
L 2.296875 47.703125 
L 2.296875 54.6875 
L 10.890625 54.6875 
L 10.890625 58.5 
Q 10.890625 67.625 15.140625 71.796875 
Q 19.390625 75.984375 28.609375 75.984375 
z
" id="DejaVuSans-102"/>
      <path d="M 8.015625 75.875 
L 15.828125 75.875 
Q 23.140625 64.359375 26.78125 53.3125 
Q 30.421875 42.28125 30.421875 31.390625 
Q 30.421875 20.453125 26.78125 9.375 
Q 23.140625 -1.703125 15.828125 -13.1875 
L 8.015625 -13.1875 
Q 14.5 -2 17.703125 9.0625 
Q 20.90625 20.125 20.90625 31.390625 
Q 20.90625 42.671875 17.703125 53.65625 
Q 14.5 64.65625 8.015625 75.875 
z
" id="DejaVuSans-41"/>
      <path id="DejaVuSans-32"/>
      <path d="M 8.59375 75.984375 
L 29.296875 75.984375 
L 29.296875 69 
L 17.578125 69 
L 17.578125 -6.203125 
L 29.296875 -6.203125 
L 29.296875 -13.1875 
L 8.59375 -13.1875 
z
" id="DejaVuSans-91"/>
      <path d="M 9.8125 72.90625 
L 19.671875 72.90625 
L 19.671875 42.09375 
L 52.390625 72.90625 
L 65.09375 72.90625 
L 28.90625 38.921875 
L 67.671875 0 
L 54.6875 0 
L 19.671875 35.109375 
L 19.671875 0 
L 9.8125 0 
z
" id="DejaVuSans-75"/>
      <path d="M 30.421875 75.984375 
L 30.421875 -13.1875 
L 9.71875 -13.1875 
L 9.71875 -6.203125 
L 21.390625 -6.203125 
L 21.390625 69 
L 9.71875 69 
L 9.71875 75.984375 
z
" id="DejaVuSans-93"/>
     </defs>
     <g transform="translate(186.886932 280.276563)scale(0.1 -0.1)">
      <use xlink:href="#DejaVuSans-108"/>
      <use x="27.783203" xlink:href="#DejaVuSans-111"/>
      <use x="88.964844" xlink:href="#DejaVuSans-103"/>
      <use x="152.441406" xlink:href="#DejaVuSans-40"/>
      <use x="191.455078" xlink:href="#DejaVuSans-84"/>
      <use x="252.273438" xlink:href="#DejaVuSans-101"/>
      <use x="313.796875" xlink:href="#DejaVuSans-102"/>
      <use x="349.001953" xlink:href="#DejaVuSans-102"/>
      <use x="384.207031" xlink:href="#DejaVuSans-41"/>
      <use x="423.220703" xlink:href="#DejaVuSans-32"/>
      <use x="455.007812" xlink:href="#DejaVuSans-91"/>
      <use x="494.021484" xlink:href="#DejaVuSans-75"/>
      <use x="559.597656" xlink:href="#DejaVuSans-93"/>
     </g>
    </g>
   </g>
   <g id="matplotlib.axis_2">
    <g id="ytick_1">
     <g id="line2d_9">
      <defs>
       <path d="M 0 0 
L -3.5 0 
" id="m3a3d979ec5" style="stroke:#000000;stroke-width:0.8;"/>
      </defs>
      <g>
       <use style="stroke:#000000;stroke-width:0.8;" x="90" xlink:href="#m3a3d979ec5" y="252"/>
      </g>
     </g>
     <g id="text_10">
      <!-- −0.5 -->
      <defs>
       <path d="M 10.59375 35.5 
L 73.1875 35.5 
L 73.1875 27.203125 
L 10.59375 27.203125 
z
" id="DejaVuSans-8722"/>
      </defs>
      <g transform="translate(58.717187 255.799219)scale(0.1 -0.1)">
       <use xlink:href="#DejaVuSans-8722"/>
       <use x="83.789062" xlink:href="#DejaVuSans-48"/>
       <use x="147.412109" xlink:href="#DejaVuSans-46"/>
       <use x="179.199219" xlink:href="#DejaVuSans-53"/>
      </g>
     </g>
    </g>
    <g id="ytick_2">
     <g id="line2d_10">
      <g>
       <use style="stroke:#000000;stroke-width:0.8;" x="90" xlink:href="#m3a3d979ec5" y="220.937143"/>
      </g>
     </g>
     <g id="text_11">
      <!-- 0.0 -->
      <g transform="translate(67.096875 224.736362)scale(0.1 -0.1)">
       <use xlink:href="#DejaVuSans-48"/>
       <use x="63.623047" xlink:href="#DejaVuSans-46"/>
       <use x="95.410156" xlink:href="#DejaVuSans-48"/>
      </g>
     </g>
    </g>
    <g id="ytick_3">
     <g id="line2d_11">
      <g>
       <use style="stroke:#000000;stroke-width:0.8;" x="90" xlink:href="#m3a3d979ec5" y="189.874286"/>
      </g>
     </g>
     <g id="text_12">
      <!-- 0.5 -->
      <g transform="translate(67.096875 193.673504)scale(0.1 -0.1)">
       <use xlink:href="#DejaVuSans-48"/>
       <use x="63.623047" xlink:href="#DejaVuSans-46"/>
       <use x="95.410156" xlink:href="#DejaVuSans-53"/>
      </g>
     </g>
    </g>
    <g id="ytick_4">
     <g id="line2d_12">
      <g>
       <use style="stroke:#000000;stroke-width:0.8;" x="90" xlink:href="#m3a3d979ec5" y="158.811429"/>
      </g>
     </g>
     <g id="text_13">
      <!-- 1.0 -->
      <g transform="translate(67.096875 162.610647)scale(0.1 -0.1)">
       <use xlink:href="#DejaVuSans-49"/>
       <use x="63.623047" xlink:href="#DejaVuSans-46"/>
       <use x="95.410156" xlink:href="#DejaVuSans-48"/>
      </g>
     </g>
    </g>
    <g id="ytick_5">
     <g id="line2d_13">
      <g>
       <use style="stroke:#000000;stroke-width:0.8;" x="90" xlink:href="#m3a3d979ec5" y="127.748571"/>
      </g>
     </g>
     <g id="text_14">
      <!-- 1.5 -->
      <g transform="translate(67.096875 131.54779)scale(0.1 -0.1)">
       <use xlink:href="#DejaVuSans-49"/>
       <use x="63.623047" xlink:href="#DejaVuSans-46"/>
       <use x="95.410156" xlink:href="#DejaVuSans-53"/>
      </g>
     </g>
    </g>
    <g id="ytick_6">
     <g id="line2d_14">
      <g>
       <use style="stroke:#000000;stroke-width:0.8;" x="90" xlink:href="#m3a3d979ec5" y="96.685714"/>
      </g>
     </g>
     <g id="text_15">
      <!-- 2.0 -->
      <g transform="translate(67.096875 100.484933)scale(0.1 -0.1)">
       <use xlink:href="#DejaVuSans-50"/>
       <use x="63.623047" xlink:href="#DejaVuSans-46"/>
       <use x="95.410156" xlink:href="#DejaVuSans-48"/>
      </g>
     </g>
    </g>
    <g id="ytick_7">
     <g id="line2d_15">
      <g>
       <use style="stroke:#000000;stroke-width:0.8;" x="90" xlink:href="#m3a3d979ec5" y="65.622857"/>
      </g>
     </g>
     <g id="text_16">
      <!-- 2.5 -->
      <g transform="translate(67.096875 69.422076)scale(0.1 -0.1)">
       <use xlink:href="#DejaVuSans-50"/>
       <use x="63.623047" xlink:href="#DejaVuSans-46"/>
       <use x="95.410156" xlink:href="#DejaVuSans-53"/>
      </g>
     </g>
    </g>
    <g id="ytick_8">
     <g id="line2d_16">
      <g>
       <use style="stroke:#000000;stroke-width:0.8;" x="90" xlink:href="#m3a3d979ec5" y="34.56"/>
      </g>
     </g>
     <g id="text_17">
      <!-- 3.0 -->
      <g transform="translate(67.096875 38.359219)scale(0.1 -0.1)">
       <use xlink:href="#DejaVuSans-51"/>
       <use x="63.623047" xlink:href="#DejaVuSans-46"/>
       <use x="95.410156" xlink:href="#DejaVuSans-48"/>
      </g>
     </g>
    </g>
    <g id="text_18">
     <!-- log(L) [Lsol] -->
     <defs>
      <path d="M 9.8125 72.90625 
L 19.671875 72.90625 
L 19.671875 8.296875 
L 55.171875 8.296875 
L 55.171875 0 
L 9.8125 0 
z
" id="DejaVuSans-76"/>
      <path d="M 44.28125 53.078125 
L 44.28125 44.578125 
Q 40.484375 46.53125 36.375 47.5 
Q 32.28125 48.484375 27.875 48.484375 
Q 21.1875 48.484375 17.84375 46.4375 
Q 14.5 44.390625 14.5 40.28125 
Q 14.5 37.15625 16.890625 35.375 
Q 19.28125 33.59375 26.515625 31.984375 
L 29.59375 31.296875 
Q 39.15625 29.25 43.1875 25.515625 
Q 47.21875 21.78125 47.21875 15.09375 
Q 47.21875 7.46875 41.1875 3.015625 
Q 35.15625 -1.421875 24.609375 -1.421875 
Q 20.21875 -1.421875 15.453125 -0.5625 
Q 10.6875 0.296875 5.421875 2 
L 5.421875 11.28125 
Q 10.40625 8.6875 15.234375 7.390625 
Q 20.0625 6.109375 24.8125 6.109375 
Q 31.15625 6.109375 34.5625 8.28125 
Q 37.984375 10.453125 37.984375 14.40625 
Q 37.984375 18.0625 35.515625 20.015625 
Q 33.0625 21.96875 24.703125 23.78125 
L 21.578125 24.515625 
Q 13.234375 26.265625 9.515625 29.90625 
Q 5.8125 33.546875 5.8125 39.890625 
Q 5.8125 47.609375 11.28125 51.796875 
Q 16.75 56 26.8125 56 
Q 31.78125 56 36.171875 55.265625 
Q 40.578125 54.546875 44.28125 53.078125 
z
" id="DejaVuSans-115"/>
     </defs>
     <g transform="translate(52.6375 172.919844)rotate(-90)scale(0.1 -0.1)">
      <use xlink:href="#DejaVuSans-108"/>
      <use x="27.783203" xlink:href="#DejaVuSans-111"/>
      <use x="88.964844" xlink:href="#DejaVuSans-103"/>
      <use x="152.441406" xlink:href="#DejaVuSans-40"/>
      <use x="191.455078" xlink:href="#DejaVuSans-76"/>
      <use x="247.167969" xlink:href="#DejaVuSans-41"/>
      <use x="286.181641" xlink:href="#DejaVuSans-32"/>
      <use x="317.96875" xlink:href="#DejaVuSans-91"/>
      <use x="356.982422" xlink:href="#DejaVuSans-76"/>
      <use x="412.695312" xlink:href="#DejaVuSans-115"/>
      <use x="464.794922" xlink:href="#DejaVuSans-111"/>
      <use x="525.976562" xlink:href="#DejaVuSans-108"/>
      <use x="553.759766" xlink:href="#DejaVuSans-93"/>
     </g>
    </g>
   </g>
   <g id="line2d_17">
    <path clip-path="url(#p5070105852)" d="M 303.338373 112.360576 
L 299.540763 123.244877 
L 297.27328 130.500624 
L 294.913197 138.992019 
L 292.896665 147.394661 
L 291.091786 156.486093 
L 289.708849 165.677061 
L 288.86307 173.86466 
L 288.447684 181.560763 
L 288.373068 186.874501 
L 288.464479 192.087582 
L 288.848306 198.298576 
L 289.47711 204.465472 
L 290.387345 210.640514 
L 291.989055 218.866888 
L 294.444208 230.511925 
L 294.903623 233.910465 
L 294.975459 236.181245 
L 294.848632 237.527109 
L 294.549086 238.711763 
L 294.034749 239.701254 
L 293.256803 240.456686 
L 292.166826 240.937539 
L 290.692563 241.085046 
L 288.779581 240.852529 
L 286.37733 240.194754 
L 283.46774 239.087899 
L 280.04756 237.515024 
L 276.166044 235.493173 
L 271.864666 233.031546 
L 267.232727 230.177311 
L 259.872618 225.307549 
L 254.852791 221.926471 
L 252.388782 220.435755 
L 250.135091 219.522901 
L 248.613726 219.941681 
L 248.198697 221.676724 
L 248.484783 223.830536 
L 249.091578 225.835105 
L 250.238938 228.243116 
L 250.821817 228.856294 
L 250.876736 228.726292 
L 250.688167 228.362294 
L 250.073844 227.430895 
L 248.911131 224.559764 
L 247.776733 221.416636 
L 246.921214 218.381465 
L 246.336892 215.378356 
L 246.037171 212.787087 
L 246.024575 211.030708 
L 246.230465 209.575568 
L 247.111158 204.802314 
L 247.789073 202.994539 
L 248.636846 201.452036 
L 249.549644 200.243091 
L 250.393856 199.398178 
L 251.366144 198.667477 
L 253.095827 197.784707 
L 255.119495 197.189102 
L 257.398875 196.91356 
L 259.895301 196.90925 
L 265.390266 197.144246 
L 266.824125 197.086921 
L 268.246607 196.898124 
L 269.613532 196.527943 
L 270.876127 195.93843 
L 271.982725 195.128258 
L 272.908315 194.12986 
L 273.661481 192.991498 
L 274.282596 191.760541 
L 275.194113 189.12103 
L 275.854136 186.356025 
L 276.600347 182.090661 
L 278.84668 167.506799 
L 280.540728 158.67509 
L 282.212364 151.313705 
L 284.503443 142.495923 
L 287.073684 133.711707 
L 287.95755 130.813289 
L 287.678773 131.218291 
L 287.127879 132.662675 
L 287.095825 132.470733 
L 289.015717 126.6228 
L 292.12326 117.877076 
L 295.4559 109.168386 
L 298.994361 100.497811 
L 303.413272 90.441315 
L 307.436954 81.8717 
L 312.366506 71.929829 
L 318.303068 60.656836 
L 323.723749 50.868476 
L 330.943478 38.365786 
L 337.592058 27.328064 
L 342.807754 19.13373 
L 347.349964 12.406514 
L 348.282324 11.087462 
L 341.291294 20.787419 
L 334.134543 31.460501 
L 327.198362 42.213893 
L 320.414572 53.012253 
L 313.812383 63.865685 
L 307.413754 74.776652 
L 301.223432 85.744416 
L 295.20765 96.76016 
L 289.507699 107.854565 
L 285.168772 119.219728 
L 290.140846 109.706929 
L 295.416364 98.509491 
L 300.981182 87.380246 
L 300.004123 88.716869 
L 294.121996 99.762056 
L 290.862157 106.890766 
L 296.312598 95.798299 
L 291.988835 103.533996 
L 287.939169 112.010458 
L 290.786125 105.594863 
L 284.886942 116.565985 
L 285.789691 113.880095 
L 286.088575 114.332097 
L 284.036141 117.820606 
L 284.330959 116.975129 
L 284.24377 117.111235 
L 283.871367 117.797952 
L 284.452111 116.789849 
L 284.491991 116.374567 
L 283.450349 117.189646 
L 282.610227 117.569359 
L 282.864127 116.751227 
L 299.388317 87.251789 
L 297.852515 89.901576 
L 304.963211 77.344063 
L 318.585899 54.498745 
L 335.47181 27.977464 
L 334.58927 29.438889 
L 341.938095 18.587159 
L 345.937457 13.035282 
L 348.816956 9.413796 
L 350.363759 7.652304 
L 351.190563 6.807712 
L 351.728734 6.493586 
L 343.755172 16.986037 
L 338.579386 24.443368 
L 329.947406 37.627235 
L 340.558825 21.625788 
L 345.778109 14.18115 
L 351.404928 6.879219 
L 354.429892 3.308097 
L 358.420655 -1 
M 358.757031 -1 
L 356.027033 1.890191 
L 350.681983 8.116166 
L 347.81449 11.746571 
L 345.686648 14.569484 
L 350.57402 8.166251 
L 353.560724 4.580127 
L 357.502503 0.181739 
L 358.624105 -1 
M 358.890541 -1 
L 354.163138 4.247831 
L 350.42537 8.728792 
L 347.595793 12.374588 
L 343.552336 17.914461 
L 333.699184 32.256613 
L 345.342978 15.484508 
L 346.615832 13.892996 
L 347.068804 13.459789 
L 350.076698 9.890236 
L 350.848801 9.127662 
L 348.753462 11.869544 
L 344.100421 18.047851 
L 334.449138 32.047101 
L 329.286164 40.154124 
L 332.995959 34.50512 
L 339.26149 25.115936 
L 343.768966 18.582489 
L 347.118134 13.95894 
L 351.365613 8.491328 
L 355.976195 3.165373 
L 359.220325 -0.313141 
L 359.88471 -1 
M 360.247684 -1 
L 356.309814 3.20945 
L 353.191414 6.742085 
L 357.13919 2.266201 
L 353.608987 6.285139 
L 349.901615 10.77803 
L 345.702181 16.263148 
L 339.774725 24.618721 
L 338.729136 26.068064 
L 347.396029 14.037707 
L 350.31548 10.429384 
L 352.624408 7.776373 
L 355.107034 5.323626 
L 355.107611 5.616899 
L 351.566304 9.780084 
L 345.900279 17.066482 
L 340.56899 24.472345 
L 337.354514 29.139851 
L 332.944643 35.70401 
L 330.981135 38.825427 
L 332.25842 36.955241 
L 346.388002 16.410522 
L 349.139649 12.736745 
L 352.026204 9.112052 
L 355.825499 4.655149 
L 359.817965 0.278655 
L 361.010893 -1 
M 361.297603 -1 
L 351.838417 9.807276 
L 348.954537 13.432835 
L 344.804142 18.935352 
L 341.448999 23.556429 
L 350.496486 11.387245 
L 355.377415 5.119991 
L 355.825738 4.210686 
L 355.863535 3.292294 
L 355.011436 2.605644 
L 353.647741 2.233374 
L 352.176744 2.020986 
L 346.238536 1.744351 
L 331.349798 1.66094 
L 298.592138 1.593463 
L 206.272686 1.710888 
L 170.535095 1.781693 
L 57.365708 1.964522 
L -1 2.226097 
L -1 2.226097 
" style="fill:none;stroke:#1f77b4;stroke-linecap:square;stroke-width:1.5;"/>
   </g>
   <g id="line2d_18">
    <path clip-path="url(#p5070105852)" d="M 250.238938 228.243116 
L 250.821817 228.856294 
L 250.876736 228.726292 
L 250.688167 228.362294 
L 250.073844 227.430895 
L 248.911131 224.559764 
L 247.776733 221.416636 
L 246.921214 218.381465 
L 246.336892 215.378356 
L 246.037171 212.787087 
L 246.024575 211.030708 
L 246.230465 209.575568 
L 247.111158 204.802314 
L 247.789073 202.994539 
L 248.636846 201.452036 
L 249.549644 200.243091 
L 250.393856 199.398178 
L 251.366144 198.667477 
L 251.366144 198.667477 
" style="fill:none;stroke:#ff0000;stroke-linecap:square;stroke-width:1.5;"/>
   </g>
   <g id="line2d_19">
    <path clip-path="url(#p5070105852)" d="M 301.08343 74.207798 
L 300.601379 75.1267 
L 291.836416 95.1326 
L 289.900029 99.90156 
L 282.485637 120.284733 
L 279.910034 128.389867 
L 276.42924 140.858552 
L 273.949181 151.43393 
L 272.991936 156.081769 
L 270.441763 169.170341 
L 269.438744 172.95395 
L 268.677227 174.951654 
L 267.763563 176.68597 
L 267.031322 177.644412 
L 266.147629 178.385684 
L 265.104762 178.872401 
L 263.86016 179.032726 
L 262.335519 178.750477 
L 261.474173 178.418971 
L 260.527351 177.927225 
L 259.489522 177.249238 
L 258.362857 176.366689 
L 257.135747 175.244879 
L 255.80174 173.853425 
L 254.373826 172.178941 
L 251.242043 167.991896 
L 245.941108 160.524683 
L 243.957415 158.011397 
L 241.807371 155.532399 
L 239.456897 153.088948 
L 236.854629 150.691087 
L 233.954668 148.35904 
L 230.661313 146.140091 
L 226.934392 144.084973 
L 222.679809 142.284403 
L 218.125197 140.670738 
L 208.608381 137.782696 
L 203.746233 136.474874 
L 198.817395 135.298013 
L 193.818332 134.328765 
L 188.780646 133.786641 
L 184.532971 134.813155 
L 184.120845 138.041106 
L 185.553998 141.439349 
L 187.567933 144.695063 
L 189.614299 147.559845 
L 188.944513 147.728592 
L 185.893815 145.922003 
L 182.283592 143.937634 
L 178.393569 141.990381 
L 174.371884 140.307316 
L 170.609118 139.521407 
L 168.994208 140.679719 
L 169.579915 142.543204 
L 170.63929 143.973879 
L 172.655973 143.053331 
L 175.732677 141.458218 
L 180.21445 139.113023 
L 183.398644 137.736955 
L 186.808901 136.558052 
L 190.561773 135.535289 
L 194.198438 134.766223 
L 198.262997 134.117671 
L 202.580114 133.626031 
L 208.282614 133.172595 
L 215.162453 132.668763 
L 216.462759 132.428087 
L 216.866153 132.219068 
L 216.840168 131.915047 
L 216.334716 131.568282 
L 214.748821 130.925508 
L 210.184388 129.481382 
L 203.743553 127.394137 
L 199.412763 125.740327 
L 195.334107 124.102006 
L 195.42168 124.263929 
L 196.178943 124.942783 
L 197.435003 125.797989 
L 198.987646 126.512367 
L 199.865364 126.725438 
L 200.778284 126.788181 
L 201.675091 126.672605 
L 203.326816 126.119545 
L 204.958068 125.543747 
L 206.676271 125.13165 
L 209.360195 124.775288 
L 213.016296 124.587529 
L 217.384858 124.615492 
L 223.822099 124.91906 
L 228.705602 125.328882 
L 233.568497 125.936215 
L 236.717729 126.51786 
L 239.751864 127.287839 
L 242.666471 128.263987 
L 245.421574 129.46597 
L 247.990232 130.886233 
L 250.364871 132.497428 
L 252.558199 134.259433 
L 255.598598 137.077565 
L 259.575727 140.875977 
L 260.661015 141.757989 
L 261.838621 142.557628 
L 263.151386 143.194029 
L 264.617188 143.481668 
L 266.05079 143.215941 
L 267.222207 142.515029 
L 268.153721 141.60905 
L 269.579768 139.557533 
L 270.716007 137.386034 
L 272.158118 134.037906 
L 274.292249 128.353753 
L 280.621287 111.088251 
L 283.307044 104.159981 
L 286.633039 96.080249 
L 292.166821 83.440439 
L 293.136616 81.288497 
L 285.297189 98.665621 
L 285.534896 98.043299 
L 289.559221 88.696384 
L 293.767435 79.378699 
L 299.287978 67.769472 
L 306.308262 53.926747 
L 309.174698 48.568427 
L 306.391852 53.560216 
L 300.917112 63.759377 
L 295.693846 74.046876 
L 290.648798 84.381237 
L 282.630699 101.668078 
L 281.313152 105.189284 
L 279.645088 108.625661 
L 278.251089 112.134726 
L 273.750728 122.638297 
L 274.290837 121.640066 
L 274.986517 119.883098 
L 274.815724 119.647837 
L 274.661234 119.071906 
L 274.598416 115.362466 
L 274.794558 114.354699 
L 275.175231 113.399754 
L 276.694769 110.601669 
L 276.559244 110.777783 
L 276.310343 111.134561 
L 276.894035 110.166739 
L 279.335673 105.573189 
L 284.056932 95.933091 
L 291.687776 79.804646 
L 296.340376 70.463096 
L 302.487372 58.676988 
L 309.870547 45.277036 
L 316.638731 33.508994 
L 322.256403 24.040672 
L 324.262872 20.755608 
L 316.398339 33.824507 
L 316.475287 33.787537 
L 322.546374 23.632191 
L 330.858139 10.15369 
L 336.439767 1.369335 
L 323.834747 21.506014 
L 321.78716 24.883195 
L 330.177568 11.232045 
L 336.547956 1.163476 
L 325.51781 18.779578 
L 317.347895 32.287992 
L 313.973995 37.96184 
L 323.913752 21.322986 
L 325.950871 18.001602 
L 317.304106 32.238015 
L 317.518688 31.970697 
L 323.630951 21.826934 
L 331.969967 8.356196 
L 337.921936 -1 
M 337.927791 -1 
L 325.258616 19.169389 
L 317.069859 32.672176 
L 333.565681 5.807497 
L 337.902656 -1 
M 337.930578 -1 
L 330.422211 10.826212 
L 331.564218 8.998394 
L 325.294666 19.08987 
L 318.704703 29.874421 
L 334.469384 4.383081 
L 337.904747 -1 
M 337.929677 -1 
L 330.197423 11.207493 
L 323.927715 21.299983 
L 319.808875 28.042916 
L 332.940592 6.781641 
L 333.490249 5.961153 
L 331.704716 8.755058 
L 325.411883 18.83866 
L 321.948941 24.590634 
L 330.250701 11.109586 
L 337.922762 -1 
M 337.953644 -1 
L 329.402451 12.484307 
L 321.092105 25.9512 
L 336.908209 0.649762 
L 337.972057 -1 
M 338.011607 -1 
L 326.595327 17.07002 
L 322.446877 23.802954 
L 331.193222 9.650922 
L 337.331394 0.107688 
L 327.094545 16.317974 
L 325.039055 19.693426 
L 329.810025 11.995611 
L 338.032879 -1 
M 338.110979 -1 
L 333.23733 6.664696 
L 322.976632 23.048011 
L 338.171925 -0.953833 
L 327.86175 15.302533 
L 325.817298 18.680378 
L 329.362492 12.914517 
L 338.191697 -1 
M 338.27314 -1 
L 333.974247 5.704338 
L 329.7492 12.420099 
L 325.220812 19.613775 
L 338.249067 -1 
M 338.424151 -1 
L 328.387464 14.81055 
L 327.621226 16.071468 
L 331.823807 9.345678 
L 338.405491 -1 
M 338.463693 -1 
L 334.109411 5.799498 
L 325.674062 19.23501 
L 338.457449 -1 
M 338.72948 -1 
L 330.376515 12.07323 
L 328.335684 15.382333 
L 334.665622 5.301262 
L 338.70318 -1 
M 338.793603 -1 
L 336.009396 3.373556 
L 327.476276 16.783007 
L 338.77658 -1 
M 339.14959 -1 
L 333.972671 7.04075 
L 329.866704 13.561809 
L 339.128035 -1 
M 339.227674 -1 
L 333.079809 8.58863 
L 329.136434 14.758923 
L 339.216096 -1 
M 339.752946 -1 
L 334.987128 6.363863 
L 332.014248 11.049092 
L 339.72022 -1 
M 339.871576 -1 
L 336.22313 4.613951 
L 331.928432 11.311959 
L 339.826792 -1 
M 340.67231 -1 
L 333.43521 10.164949 
L 340.622242 -1 
M 340.770664 -1 
L 335.581351 6.947476 
L 340.777773 -1 
M 342.090508 -1 
L 339.314959 3.16082 
L 335.881067 8.436069 
L 342.027715 -1 
M 342.390382 -1 
L 339.211571 3.782402 
L 342.385603 -1 
M 344.837429 -1 
L 342.024569 3.061313 
L 339.384932 6.980795 
L 344.738801 -1 
M 345.400247 -1 
L 343.767132 1.343082 
L 345.434887 -1 
M 352.7515 -1 
L 350.129204 2.191095 
L 345.252979 8.698849 
L 347.5805 5.324679 
L 352.387905 -1 
M 355.151206 -1 
L 350.486019 4.6498 
L 353.93885 0.534784 
L 355.336957 -1 
L 355.336957 -1 
" style="fill:none;stroke:#1f77b4;stroke-linecap:square;stroke-width:1.5;"/>
   </g>
   <g id="line2d_20">
    <path clip-path="url(#p5070105852)" d="M 185.553998 141.439349 
L 187.567933 144.695063 
L 189.614299 147.559845 
L 188.944513 147.728592 
L 185.893815 145.922003 
L 182.283592 143.937634 
L 178.393569 141.990381 
L 174.371884 140.307316 
L 170.609118 139.521407 
L 168.994208 140.679719 
L 169.579915 142.543204 
L 170.63929 143.973879 
L 172.655973 143.053331 
L 175.732677 141.458218 
L 180.21445 139.113023 
L 183.398644 137.736955 
L 186.808901 136.558052 
L 190.561773 135.535289 
L 194.198438 134.766223 
L 198.262997 134.117671 
L 202.580114 133.626031 
L 208.282614 133.172595 
L 215.162453 132.668763 
L 216.462759 132.428087 
L 216.866153 132.219068 
L 216.840168 131.915047 
L 216.334716 131.568282 
L 214.748821 130.925508 
L 210.184388 129.481382 
L 203.743553 127.394137 
L 199.412763 125.740327 
L 195.334107 124.102006 
L 195.42168 124.263929 
L 196.178943 124.942783 
L 197.435003 125.797989 
L 198.987646 126.512367 
L 199.865364 126.725438 
L 200.778284 126.788181 
L 201.675091 126.672605 
L 203.326816 126.119545 
L 204.958068 125.543747 
L 206.676271 125.13165 
L 209.360195 124.775288 
L 213.016296 124.587529 
L 215.803996 124.582676 
L 215.803996 124.582676 
" style="fill:none;stroke:#ff0000;stroke-linecap:square;stroke-width:1.5;"/>
   </g>
   <g id="line2d_21">
    <path clip-path="url(#p5070105852)" d="M 302.115344 53.854562 
L 300.987227 53.405397 
L 300.693488 53.509686 
L 298.123564 58.679119 
L 288.33653 79.660695 
L 281.2112 96.652722 
L 274.738471 114.087638 
L 272.153743 121.705374 
L 266.640137 137.43843 
L 265.745575 139.50156 
L 264.741442 141.321656 
L 264.013988 142.378634 
L 263.211927 143.26437 
L 262.330059 143.941854 
L 261.323281 144.326972 
L 260.769566 144.383909 
L 260.16035 144.317392 
L 259.49423 144.110801 
L 258.769143 143.739345 
L 257.971244 143.164201 
L 257.065026 142.332844 
L 256.078925 141.22886 
L 253.786792 138.087622 
L 249.537849 131.794215 
L 247.882253 129.674765 
L 246.08031 127.582618 
L 244.090412 125.486363 
L 241.866433 123.376159 
L 239.360175 121.258978 
L 236.495123 119.164972 
L 233.195695 117.145545 
L 229.36761 115.28605 
L 225.26066 113.527027 
L 216.620047 110.178666 
L 207.753948 106.918407 
L 198.707314 103.763897 
L 189.501083 100.715251 
L 180.135691 97.814121 
L 170.604067 95.124841 
L 160.911454 92.669644 
L 155.994242 91.578501 
L 151.021616 90.627964 
L 145.988139 89.913021 
L 140.972543 89.800047 
L 137.954914 91.939878 
L 138.652491 95.339842 
L 140.423706 98.66312 
L 142.487848 101.810157 
L 142.967826 103.578925 
L 139.664738 101.980235 
L 131.705724 97.960066 
L 127.47842 96.118725 
L 123.12041 94.806449 
L 120.261321 95.686708 
L 121.238673 98.35788 
L 122.897679 100.532363 
L 124.004463 101.509433 
L 124.754647 101.487291 
L 125.910524 101.243083 
L 127.324775 100.683789 
L 128.747747 99.857136 
L 130.952273 98.291172 
L 134.691265 95.686291 
L 137.107993 94.262885 
L 140.783064 92.501161 
L 144.359864 91.139057 
L 147.826412 90.07164 
L 151.717586 89.106011 
L 155.880176 88.287972 
L 162.243386 87.335325 
L 171.516459 86.050748 
L 172.080647 85.84447 
L 172.336689 85.561338 
L 172.064464 85.223555 
L 170.617178 84.61993 
L 167.063801 83.615142 
L 159.76303 81.623978 
L 155.452581 80.205053 
L 151.448463 78.826269 
L 151.857255 79.267385 
L 152.880832 80.022181 
L 154.241663 80.822083 
L 155.824089 81.480318 
L 156.692435 81.700885 
L 157.599039 81.80188 
L 158.511491 81.763992 
L 160.242031 81.355048 
L 164.361111 79.945361 
L 166.99933 79.414235 
L 170.632877 79.009223 
L 174.697848 78.816892 
L 180.340728 78.828603 
L 187.241982 79.104291 
L 195.428292 79.684212 
L 204.895026 80.618157 
L 214.418576 81.792432 
L 223.95814 83.170638 
L 234.672477 84.948333 
L 241.752553 86.334342 
L 246.367606 87.468728 
L 248.594731 88.160878 
L 250.691743 89.00911 
L 253.617866 90.498559 
L 256.272999 92.207459 
L 258.678706 94.082875 
L 261.636742 96.723359 
L 263.857884 98.69076 
L 265.51886 99.875283 
L 266.467719 100.359964 
L 267.528049 100.69326 
L 268.671029 100.757159 
L 269.759907 100.500447 
L 270.711091 100.029133 
L 271.538546 99.443621 
L 272.908647 98.090819 
L 274.07087 96.639297 
L 276.068491 93.631203 
L 278.288399 89.848335 
L 281.104701 84.563225 
L 285.981467 74.624453 
L 289.910973 66.131948 
L 292.865768 59.937818 
L 295.810708 54.030302 
L 293.466205 58.568947 
L 292.067028 61.264132 
L 286.174731 73.096178 
L 280.842097 84.082813 
L 277.983985 89.52502 
L 276.34634 92.184074 
L 275.001087 93.860198 
L 274.171011 94.618014 
L 273.089261 95.164773 
L 272.084731 95.111057 
L 272.333366 94.623337 
L 272.315666 92.512602 
L 272.328036 91.405631 
L 272.382996 89.687353 
L 272.608493 89.243815 
L 272.627414 88.651747 
L 272.967064 87.664186 
L 274.19607 86.772834 
L 274.919582 86.495123 
L 275.596791 85.97795 
L 275.541462 85.956787 
L 276.327448 85.547295 
L 277.72409 84.4002 
L 278.926106 83.029895 
L 280.515271 80.817272 
L 282.346008 77.866643 
L 284.102516 74.718796 
L 287.31249 68.531937 
L 287.416181 68.292055 
L 287.054233 68.991254 
L 284.778986 73.324606 
L 302.114348 40.629489 
L 312.280842 22.870016 
L 321.879339 6.846565 
L 326.7377 -1 
M 326.816374 -1 
L 324.528188 2.618093 
L 326.768108 -1 
M 326.895522 -1 
L 325.899938 0.534751 
L 326.846762 -1 
" style="fill:none;stroke:#1f77b4;stroke-linecap:square;stroke-width:1.5;"/>
   </g>
   <g id="line2d_22">
    <path clip-path="url(#p5070105852)" d="M 122.897679 100.532363 
L 124.004463 101.509433 
L 124.754647 101.487291 
L 125.910524 101.243083 
L 127.324775 100.683789 
L 128.747747 99.857136 
L 130.952273 98.291172 
L 134.691265 95.686291 
L 137.107993 94.262885 
L 140.783064 92.501161 
L 144.359864 91.139057 
L 147.826412 90.07164 
L 151.717586 89.106011 
L 155.880176 88.287972 
L 162.243386 87.335325 
L 171.516459 86.050748 
L 172.080647 85.84447 
L 172.336689 85.561338 
L 172.064464 85.223555 
L 170.617178 84.61993 
L 167.063801 83.615142 
L 159.76303 81.623978 
L 155.452581 80.205053 
L 151.448463 78.826269 
L 151.857255 79.267385 
L 152.880832 80.022181 
L 154.241663 80.822083 
L 155.824089 81.480318 
L 156.692435 81.700885 
L 157.599039 81.80188 
L 158.511491 81.763992 
L 160.242031 81.355048 
L 164.361111 79.945361 
L 166.99933 79.414235 
L 170.632877 79.009223 
L 172.472328 78.895355 
L 172.472328 78.895355 
" style="fill:none;stroke:#ff0000;stroke-linecap:square;stroke-width:1.5;"/>
   </g>
   <g id="patch_3">
    <path d="M 90 252 
L 90 34.56 
" style="fill:none;stroke:#000000;stroke-linecap:square;stroke-linejoin:miter;stroke-width:0.8;"/>
   </g>
   <g id="patch_4">
    <path d="M 343.636364 252 
L 343.636364 34.56 
" style="fill:none;stroke:#000000;stroke-linecap:square;stroke-linejoin:miter;stroke-width:0.8;"/>
   </g>
   <g id="patch_5">
    <path d="M 90 252 
L 343.636364 252 
" style="fill:none;stroke:#000000;stroke-linecap:square;stroke-linejoin:miter;stroke-width:0.8;"/>
   </g>
   <g id="patch_6">
    <path d="M 90 34.56 
L 343.636364 34.56 
" style="fill:none;stroke:#000000;stroke-linecap:square;stroke-linejoin:miter;stroke-width:0.8;"/>
   </g>
  </g>
  <g id="axes_2">
   <g id="patch_7">
    <path d="M 394.363636 98.512941 
L 648 98.512941 
L 648 34.56 
L 394.363636 34.56 
z
" style="fill:#ffffff;"/>
   </g>
   <g id="matplotlib.axis_3">
    <g id="xtick_9">
     <g id="line2d_23">
      <g>
       <use style="stroke:#000000;stroke-width:0.8;" x="394.363636" xlink:href="#m53dd4a18e7" y="98.512941"/>
      </g>
     </g>
     <g id="text_19">
      <!-- 0 -->
      <g transform="translate(391.182386 113.111379)scale(0.1 -0.1)">
       <use xlink:href="#DejaVuSans-48"/>
      </g>
     </g>
    </g>
    <g id="xtick_10">
     <g id="line2d_24">
      <g>
       <use style="stroke:#000000;stroke-width:0.8;" x="440.479339" xlink:href="#m53dd4a18e7" y="98.512941"/>
      </g>
     </g>
     <g id="text_20">
      <!-- 100 -->
      <g transform="translate(430.935589 113.111379)scale(0.1 -0.1)">
       <use xlink:href="#DejaVuSans-49"/>
       <use x="63.623047" xlink:href="#DejaVuSans-48"/>
       <use x="127.246094" xlink:href="#DejaVuSans-48"/>
      </g>
     </g>
    </g>
    <g id="xtick_11">
     <g id="line2d_25">
      <g>
       <use style="stroke:#000000;stroke-width:0.8;" x="486.595041" xlink:href="#m53dd4a18e7" y="98.512941"/>
      </g>
     </g>
     <g id="text_21">
      <!-- 200 -->
      <g transform="translate(477.051291 113.111379)scale(0.1 -0.1)">
       <use xlink:href="#DejaVuSans-50"/>
       <use x="63.623047" xlink:href="#DejaVuSans-48"/>
       <use x="127.246094" xlink:href="#DejaVuSans-48"/>
      </g>
     </g>
    </g>
    <g id="xtick_12">
     <g id="line2d_26">
      <g>
       <use style="stroke:#000000;stroke-width:0.8;" x="532.710744" xlink:href="#m53dd4a18e7" y="98.512941"/>
      </g>
     </g>
     <g id="text_22">
      <!-- 300 -->
      <g transform="translate(523.166994 113.111379)scale(0.1 -0.1)">
       <use xlink:href="#DejaVuSans-51"/>
       <use x="63.623047" xlink:href="#DejaVuSans-48"/>
       <use x="127.246094" xlink:href="#DejaVuSans-48"/>
      </g>
     </g>
    </g>
    <g id="xtick_13">
     <g id="line2d_27">
      <g>
       <use style="stroke:#000000;stroke-width:0.8;" x="578.826446" xlink:href="#m53dd4a18e7" y="98.512941"/>
      </g>
     </g>
     <g id="text_23">
      <!-- 400 -->
      <g transform="translate(569.282696 113.111379)scale(0.1 -0.1)">
       <use xlink:href="#DejaVuSans-52"/>
       <use x="63.623047" xlink:href="#DejaVuSans-48"/>
       <use x="127.246094" xlink:href="#DejaVuSans-48"/>
      </g>
     </g>
    </g>
    <g id="xtick_14">
     <g id="line2d_28">
      <g>
       <use style="stroke:#000000;stroke-width:0.8;" x="624.942149" xlink:href="#m53dd4a18e7" y="98.512941"/>
      </g>
     </g>
     <g id="text_24">
      <!-- 500 -->
      <g transform="translate(615.398399 113.111379)scale(0.1 -0.1)">
       <use xlink:href="#DejaVuSans-53"/>
       <use x="63.623047" xlink:href="#DejaVuSans-48"/>
       <use x="127.246094" xlink:href="#DejaVuSans-48"/>
      </g>
     </g>
    </g>
   </g>
   <g id="matplotlib.axis_4">
    <g id="ytick_9">
     <g id="line2d_29">
      <g>
       <use style="stroke:#000000;stroke-width:0.8;" x="394.363636" xlink:href="#m3a3d979ec5" y="98.512941"/>
      </g>
     </g>
     <g id="text_25">
      <!-- 0.0 -->
      <g transform="translate(371.460511 102.31216)scale(0.1 -0.1)">
       <use xlink:href="#DejaVuSans-48"/>
       <use x="63.623047" xlink:href="#DejaVuSans-46"/>
       <use x="95.410156" xlink:href="#DejaVuSans-48"/>
      </g>
     </g>
    </g>
    <g id="ytick_10">
     <g id="line2d_30">
      <g>
       <use style="stroke:#000000;stroke-width:0.8;" x="394.363636" xlink:href="#m3a3d979ec5" y="68.05916"/>
      </g>
     </g>
     <g id="text_26">
      <!-- 0.5 -->
      <g transform="translate(371.460511 71.858378)scale(0.1 -0.1)">
       <use xlink:href="#DejaVuSans-48"/>
       <use x="63.623047" xlink:href="#DejaVuSans-46"/>
       <use x="95.410156" xlink:href="#DejaVuSans-53"/>
      </g>
     </g>
    </g>
    <g id="ytick_11">
     <g id="line2d_31">
      <g>
       <use style="stroke:#000000;stroke-width:0.8;" x="394.363636" xlink:href="#m3a3d979ec5" y="37.605378"/>
      </g>
     </g>
     <g id="text_27">
      <!-- 1.0 -->
      <g transform="translate(371.460511 41.404597)scale(0.1 -0.1)">
       <use xlink:href="#DejaVuSans-49"/>
       <use x="63.623047" xlink:href="#DejaVuSans-46"/>
       <use x="95.410156" xlink:href="#DejaVuSans-48"/>
      </g>
     </g>
    </g>
   </g>
   <g id="line2d_32">
    <path clip-path="url(#p3e3931bf70)" d="M 394.363636 98.512933 
L 416.499174 98.419685 
L 418.343802 98.242902 
L 419.727273 97.909705 
L 420.649587 97.482833 
L 421.571901 96.7601 
L 422.494215 95.553959 
L 423.416529 93.590757 
L 424.338843 90.519741 
L 425.261157 86.017045 
L 426.183471 80.051506 
L 428.489256 63.60711 
L 428.950413 61.24163 
L 429.41157 59.47425 
L 429.872727 58.307732 
L 430.333884 57.727734 
L 430.795041 57.766074 
L 431.256198 58.33085 
L 431.717355 59.554432 
L 432.178512 61.38524 
L 432.639669 63.928726 
L 433.100826 67.311387 
L 434.02314 76.913307 
L 435.406612 94.199959 
L 435.867769 97.187003 
L 436.328926 98.278283 
L 436.790083 98.49202 
L 439.557025 98.512941 
L 471.838017 98.417102 
L 474.604959 98.236325 
L 476.449587 97.924893 
L 477.833058 97.445376 
L 478.755372 96.897617 
L 479.677686 96.035591 
L 480.6 94.644223 
L 481.061157 93.626094 
L 481.522314 92.244302 
L 481.983471 90.214622 
L 482.444628 86.851756 
L 482.905785 80.867456 
L 484.289256 52.09789 
L 485.672727 38.932823 
L 486.133884 36.92728 
L 486.595041 36.316415 
L 487.056198 36.311325 
L 490.284298 37.251736 
L 492.590083 37.601311 
L 496.279339 37.788014 
L 500.890909 37.767388 
L 512.880992 37.611942 
L 591.738843 37.603861 
L 604.65124 37.491341 
L 610.185124 37.288724 
L 613.87438 37.677794 
L 618.947107 37.801227 
L 633.242975 37.912662 
L 635.087603 37.889063 
L 648.461157 37.987719 
L 648.461157 37.987719 
" style="fill:none;stroke:#1f77b4;stroke-linecap:square;stroke-width:1.5;"/>
   </g>
   <g id="line2d_33">
    <path clip-path="url(#p3e3931bf70)" d="M 486.133884 36.92728 
L 486.595041 36.316415 
L 487.056198 36.311325 
L 490.284298 37.251736 
L 492.590083 37.601311 
L 496.279339 37.788014 
L 500.890909 37.767388 
L 512.880992 37.611942 
L 591.738843 37.603861 
L 603.267769 37.54203 
L 603.267769 37.54203 
" style="fill:none;stroke:#ff0000;stroke-linecap:square;stroke-width:1.5;"/>
   </g>
   <g id="patch_8">
    <path d="M 394.363636 98.512941 
L 394.363636 34.56 
" style="fill:none;stroke:#000000;stroke-linecap:square;stroke-linejoin:miter;stroke-width:0.8;"/>
   </g>
   <g id="patch_9">
    <path d="M 648 98.512941 
L 648 34.56 
" style="fill:none;stroke:#000000;stroke-linecap:square;stroke-linejoin:miter;stroke-width:0.8;"/>
   </g>
   <g id="patch_10">
    <path d="M 394.363636 98.512941 
L 648 98.512941 
" style="fill:none;stroke:#000000;stroke-linecap:square;stroke-linejoin:miter;stroke-width:0.8;"/>
   </g>
   <g id="patch_11">
    <path d="M 394.363636 34.56 
L 648 34.56 
" style="fill:none;stroke:#000000;stroke-linecap:square;stroke-linejoin:miter;stroke-width:0.8;"/>
   </g>
  </g>
  <g id="axes_3">
   <g id="matplotlib.axis_5">
    <g id="ytick_12">
     <g id="line2d_34">
      <defs>
       <path d="M 0 0 
L 3.5 0 
" id="m0a49e20170" style="stroke:#000000;stroke-width:0.8;"/>
      </defs>
      <g>
       <use style="stroke:#000000;stroke-width:0.8;" x="648" xlink:href="#m0a49e20170" y="95.605989"/>
      </g>
     </g>
     <g id="text_28">
      <!-- 0.0 -->
      <g transform="translate(655 99.405208)scale(0.1 -0.1)">
       <use xlink:href="#DejaVuSans-48"/>
       <use x="63.623047" xlink:href="#DejaVuSans-46"/>
       <use x="95.410156" xlink:href="#DejaVuSans-48"/>
      </g>
     </g>
    </g>
    <g id="ytick_13">
     <g id="line2d_35">
      <g>
       <use style="stroke:#000000;stroke-width:0.8;" x="648" xlink:href="#m0a49e20170" y="54.972052"/>
      </g>
     </g>
     <g id="text_29">
      <!-- 0.5 -->
      <g transform="translate(655 58.77127)scale(0.1 -0.1)">
       <use xlink:href="#DejaVuSans-48"/>
       <use x="63.623047" xlink:href="#DejaVuSans-46"/>
       <use x="95.410156" xlink:href="#DejaVuSans-53"/>
      </g>
     </g>
    </g>
   </g>
   <g id="line2d_36">
    <path clip-path="url(#p3e3931bf70)" d="M 394.363636 37.466952 
L 485.672727 37.504057 
L 485.672727 37.504057 
" style="fill:none;stroke:#1f77b4;stroke-dasharray:5.55,2.4;stroke-dashoffset:0;stroke-width:1.5;"/>
   </g>
   <g id="line2d_37">
    <path clip-path="url(#p3e3931bf70)" d="M 603.728926 95.605989 
L 604.190083 95.605989 
L 604.65124 95.605989 
L 605.112397 95.605989 
L 605.573554 95.605989 
L 606.034711 95.605989 
L 606.495868 95.605989 
L 606.957025 95.605989 
L 607.418182 95.605989 
L 607.879339 95.605989 
L 608.340496 95.605989 
L 608.801653 95.605989 
L 609.26281 95.605989 
L 609.723967 95.605989 
L 610.185124 95.605989 
L 610.646281 95.605989 
L 611.107438 95.605989 
L 611.568595 95.605989 
L 612.029752 95.605989 
L 612.490909 95.605989 
L 612.952066 95.605989 
L 613.413223 95.605989 
L 613.87438 95.605989 
L 614.335537 95.605989 
L 614.796694 95.605989 
L 615.257851 95.605989 
L 615.719008 95.605989 
L 616.180165 95.605989 
L 616.641322 95.605989 
L 617.102479 95.605989 
L 617.563636 95.605989 
L 618.024793 95.605989 
L 618.48595 95.605989 
L 618.947107 95.605989 
L 619.408264 95.605989 
L 619.869421 95.605989 
L 620.330579 95.605989 
L 620.791736 95.605989 
L 621.252893 95.605989 
L 621.71405 95.605989 
L 622.175207 95.605989 
L 622.636364 95.605989 
L 623.097521 95.605989 
L 623.558678 95.605989 
L 624.019835 95.605989 
L 624.480992 95.605989 
L 624.942149 95.605989 
L 625.403306 95.605989 
L 625.864463 95.605989 
L 626.32562 95.605989 
L 626.786777 95.605989 
L 627.247934 95.605989 
L 627.709091 95.605989 
L 628.170248 95.605989 
L 628.631405 95.605989 
L 629.092562 95.605989 
L 629.553719 95.605989 
L 630.014876 95.605989 
L 630.476033 95.605989 
L 630.93719 95.605989 
L 631.398347 95.605989 
L 631.859504 95.605989 
L 632.320661 95.605989 
L 632.781818 95.605989 
L 633.242975 95.605989 
L 633.704132 95.605989 
L 634.165289 95.605989 
L 634.626446 95.605989 
L 635.087603 95.605989 
L 635.54876 95.605989 
L 636.009917 95.605989 
L 636.471074 95.605989 
L 636.932231 95.605989 
L 637.393388 95.605989 
L 637.854545 95.605989 
L 638.315702 95.605989 
L 638.77686 95.605989 
L 639.238017 95.605989 
L 639.699174 95.605989 
L 640.160331 95.605989 
L 640.621488 95.605989 
L 641.082645 95.605989 
L 641.543802 95.605989 
L 642.004959 95.605989 
L 642.466116 95.605989 
L 642.927273 95.605989 
L 643.38843 95.605989 
L 643.849587 95.605989 
L 644.310744 95.605989 
L 644.771901 95.605989 
L 645.233058 95.605989 
L 645.694215 95.605989 
L 646.155372 95.605989 
L 646.616529 95.605989 
L 647.077686 95.605989 
L 647.538843 95.605989 
L 648 95.605989 
L 648.461157 95.605989 
" style="fill:none;stroke:#1f77b4;stroke-dasharray:5.55,2.4;stroke-dashoffset:0;stroke-width:1.5;"/>
   </g>
   <g id="line2d_38">
    <path clip-path="url(#p3e3931bf70)" d="M 486.133884 37.511717 
L 505.041322 37.95739 
L 512.419835 38.389506 
L 517.492562 38.864749 
L 521.642975 39.418397 
L 525.793388 40.170132 
L 529.943802 41.205963 
L 532.249587 41.944103 
L 534.555372 42.827768 
L 536.861157 43.88452 
L 539.166942 45.151717 
L 541.472727 46.704154 
L 543.778512 48.620227 
L 546.084298 50.932365 
L 547.467769 52.530486 
L 549.312397 54.925626 
L 551.157025 57.668635 
L 553.001653 60.787844 
L 554.846281 64.36424 
L 556.690909 68.430065 
L 562.224793 72.35658 
L 566.836364 75.893508 
L 572.370248 80.402971 
L 576.520661 84.029734 
L 579.287603 86.731871 
L 581.132231 88.774138 
L 585.282645 93.613901 
L 586.204959 94.330217 
L 587.127273 94.829755 
L 588.510744 95.266043 
L 590.355372 95.509651 
L 593.583471 95.600254 
L 603.267769 95.605989 
L 603.267769 95.605989 
" style="fill:none;stroke:#ff0000;stroke-dasharray:5.55,2.4;stroke-dashoffset:0;stroke-width:1.5;"/>
   </g>
   <g id="patch_12">
    <path d="M 394.363636 98.512941 
L 394.363636 34.56 
" style="fill:none;stroke:#000000;stroke-linecap:square;stroke-linejoin:miter;stroke-width:0.8;"/>
   </g>
   <g id="patch_13">
    <path d="M 648 98.512941 
L 648 34.56 
" style="fill:none;stroke:#000000;stroke-linecap:square;stroke-linejoin:miter;stroke-width:0.8;"/>
   </g>
   <g id="patch_14">
    <path d="M 394.363636 98.512941 
L 648 98.512941 
" style="fill:none;stroke:#000000;stroke-linecap:square;stroke-linejoin:miter;stroke-width:0.8;"/>
   </g>
   <g id="patch_15">
    <path d="M 394.363636 34.56 
L 648 34.56 
" style="fill:none;stroke:#000000;stroke-linecap:square;stroke-linejoin:miter;stroke-width:0.8;"/>
   </g>
  </g>
  <g id="axes_4">
   <g id="patch_16">
    <path d="M 394.363636 175.256471 
L 648 175.256471 
L 648 111.303529 
L 394.363636 111.303529 
z
" style="fill:#ffffff;"/>
   </g>
   <g id="matplotlib.axis_6">
    <g id="xtick_15">
     <g id="line2d_39">
      <g>
       <use style="stroke:#000000;stroke-width:0.8;" x="394.363636" xlink:href="#m53dd4a18e7" y="175.256471"/>
      </g>
     </g>
     <g id="text_30">
      <!-- 0 -->
      <g transform="translate(391.182386 189.854908)scale(0.1 -0.1)">
       <use xlink:href="#DejaVuSans-48"/>
      </g>
     </g>
    </g>
    <g id="xtick_16">
     <g id="line2d_40">
      <g>
       <use style="stroke:#000000;stroke-width:0.8;" x="440.479339" xlink:href="#m53dd4a18e7" y="175.256471"/>
      </g>
     </g>
     <g id="text_31">
      <!-- 100 -->
      <g transform="translate(430.935589 189.854908)scale(0.1 -0.1)">
       <use xlink:href="#DejaVuSans-49"/>
       <use x="63.623047" xlink:href="#DejaVuSans-48"/>
       <use x="127.246094" xlink:href="#DejaVuSans-48"/>
      </g>
     </g>
    </g>
    <g id="xtick_17">
     <g id="line2d_41">
      <g>
       <use style="stroke:#000000;stroke-width:0.8;" x="486.595041" xlink:href="#m53dd4a18e7" y="175.256471"/>
      </g>
     </g>
     <g id="text_32">
      <!-- 200 -->
      <g transform="translate(477.051291 189.854908)scale(0.1 -0.1)">
       <use xlink:href="#DejaVuSans-50"/>
       <use x="63.623047" xlink:href="#DejaVuSans-48"/>
       <use x="127.246094" xlink:href="#DejaVuSans-48"/>
      </g>
     </g>
    </g>
    <g id="xtick_18">
     <g id="line2d_42">
      <g>
       <use style="stroke:#000000;stroke-width:0.8;" x="532.710744" xlink:href="#m53dd4a18e7" y="175.256471"/>
      </g>
     </g>
     <g id="text_33">
      <!-- 300 -->
      <g transform="translate(523.166994 189.854908)scale(0.1 -0.1)">
       <use xlink:href="#DejaVuSans-51"/>
       <use x="63.623047" xlink:href="#DejaVuSans-48"/>
       <use x="127.246094" xlink:href="#DejaVuSans-48"/>
      </g>
     </g>
    </g>
    <g id="xtick_19">
     <g id="line2d_43">
      <g>
       <use style="stroke:#000000;stroke-width:0.8;" x="578.826446" xlink:href="#m53dd4a18e7" y="175.256471"/>
      </g>
     </g>
     <g id="text_34">
      <!-- 400 -->
      <g transform="translate(569.282696 189.854908)scale(0.1 -0.1)">
       <use xlink:href="#DejaVuSans-52"/>
       <use x="63.623047" xlink:href="#DejaVuSans-48"/>
       <use x="127.246094" xlink:href="#DejaVuSans-48"/>
      </g>
     </g>
    </g>
    <g id="xtick_20">
     <g id="line2d_44">
      <g>
       <use style="stroke:#000000;stroke-width:0.8;" x="624.942149" xlink:href="#m53dd4a18e7" y="175.256471"/>
      </g>
     </g>
     <g id="text_35">
      <!-- 500 -->
      <g transform="translate(615.398399 189.854908)scale(0.1 -0.1)">
       <use xlink:href="#DejaVuSans-53"/>
       <use x="63.623047" xlink:href="#DejaVuSans-48"/>
       <use x="127.246094" xlink:href="#DejaVuSans-48"/>
      </g>
     </g>
    </g>
   </g>
   <g id="matplotlib.axis_7">
    <g id="ytick_14">
     <g id="line2d_45">
      <g>
       <use style="stroke:#000000;stroke-width:0.8;" x="394.363636" xlink:href="#m3a3d979ec5" y="175.256471"/>
      </g>
     </g>
     <g id="text_36">
      <!-- 0.0 -->
      <g transform="translate(371.460511 179.055689)scale(0.1 -0.1)">
       <use xlink:href="#DejaVuSans-48"/>
       <use x="63.623047" xlink:href="#DejaVuSans-46"/>
       <use x="95.410156" xlink:href="#DejaVuSans-48"/>
      </g>
     </g>
    </g>
    <g id="ytick_15">
     <g id="line2d_46">
      <g>
       <use style="stroke:#000000;stroke-width:0.8;" x="394.363636" xlink:href="#m3a3d979ec5" y="144.802689"/>
      </g>
     </g>
     <g id="text_37">
      <!-- 0.5 -->
      <g transform="translate(371.460511 148.601908)scale(0.1 -0.1)">
       <use xlink:href="#DejaVuSans-48"/>
       <use x="63.623047" xlink:href="#DejaVuSans-46"/>
       <use x="95.410156" xlink:href="#DejaVuSans-53"/>
      </g>
     </g>
    </g>
    <g id="ytick_16">
     <g id="line2d_47">
      <g>
       <use style="stroke:#000000;stroke-width:0.8;" x="394.363636" xlink:href="#m3a3d979ec5" y="114.348908"/>
      </g>
     </g>
     <g id="text_38">
      <!-- 1.0 -->
      <g transform="translate(371.460511 118.148126)scale(0.1 -0.1)">
       <use xlink:href="#DejaVuSans-49"/>
       <use x="63.623047" xlink:href="#DejaVuSans-46"/>
       <use x="95.410156" xlink:href="#DejaVuSans-48"/>
      </g>
     </g>
    </g>
    <g id="text_39">
     <!-- L_H / L (-) -->
     <defs>
      <path d="M 50.984375 -16.609375 
L 50.984375 -23.578125 
L -0.984375 -23.578125 
L -0.984375 -16.609375 
z
" id="DejaVuSans-95"/>
      <path d="M 9.8125 72.90625 
L 19.671875 72.90625 
L 19.671875 43.015625 
L 55.515625 43.015625 
L 55.515625 72.90625 
L 65.375 72.90625 
L 65.375 0 
L 55.515625 0 
L 55.515625 34.71875 
L 19.671875 34.71875 
L 19.671875 0 
L 9.8125 0 
z
" id="DejaVuSans-72"/>
      <path d="M 25.390625 72.90625 
L 33.6875 72.90625 
L 8.296875 -9.28125 
L 0 -9.28125 
z
" id="DejaVuSans-47"/>
      <path d="M 4.890625 31.390625 
L 31.203125 31.390625 
L 31.203125 23.390625 
L 4.890625 23.390625 
z
" id="DejaVuSans-45"/>
     </defs>
     <g transform="translate(365.102699 167.269063)rotate(-90)scale(0.1 -0.1)">
      <use xlink:href="#DejaVuSans-76"/>
      <use x="55.712891" xlink:href="#DejaVuSans-95"/>
      <use x="105.712891" xlink:href="#DejaVuSans-72"/>
      <use x="180.908203" xlink:href="#DejaVuSans-32"/>
      <use x="212.695312" xlink:href="#DejaVuSans-47"/>
      <use x="246.386719" xlink:href="#DejaVuSans-32"/>
      <use x="278.173828" xlink:href="#DejaVuSans-76"/>
      <use x="333.886719" xlink:href="#DejaVuSans-32"/>
      <use x="365.673828" xlink:href="#DejaVuSans-40"/>
      <use x="404.6875" xlink:href="#DejaVuSans-45"/>
      <use x="440.771484" xlink:href="#DejaVuSans-41"/>
     </g>
    </g>
   </g>
   <g id="line2d_48">
    <path clip-path="url(#p0a743d517e)" d="M 394.363636 175.25647 
L 420.649587 175.158541 
L 422.494215 174.964744 
L 423.877686 174.595176 
L 424.8 174.119321 
L 425.722314 173.31355 
L 426.644628 171.972933 
L 427.566942 169.806418 
L 428.489256 166.47416 
L 429.41157 161.714305 
L 430.333884 155.638364 
L 432.178512 143.048749 
L 432.639669 140.728876 
L 433.100826 139.008011 
L 433.561983 137.923114 
L 434.02314 137.470887 
L 434.484298 137.673428 
L 434.945455 138.594765 
L 435.406612 140.217531 
L 435.867769 142.605572 
L 436.328926 145.829732 
L 437.25124 155.019546 
L 438.634711 171.139366 
L 439.095868 173.924452 
L 439.557025 174.996688 
L 440.018182 175.229582 
L 442.323967 175.256471 
L 474.604959 175.147503 
L 476.449587 174.944592 
L 477.371901 174.680759 
L 478.294215 174.14053 
L 478.755372 173.629868 
L 479.216529 172.784676 
L 479.677686 171.412088 
L 480.138843 169.268163 
L 480.6 165.665162 
L 481.061157 157.294464 
L 481.522314 135.637506 
L 481.983471 119.344742 
L 482.444628 114.298443 
L 482.905785 113.68443 
L 483.366942 117.551744 
L 484.289256 136.2951 
L 484.750413 143.176666 
L 485.21157 146.950353 
L 485.672727 142.969391 
L 487.056198 115.640329 
L 487.517355 114.537809 
L 487.978512 114.272281 
L 490.284298 114.626789 
L 493.512397 114.473992 
L 507.808264 114.317018 
L 577.904132 114.297343 
L 579.287603 114.495022 
L 581.132231 115.045214 
L 582.515702 115.679897 
L 583.899174 116.618876 
L 584.821488 117.463971 
L 585.743802 118.520457 
L 587.127273 120.520084 
L 589.894215 125.236419 
L 590.355372 124.857641 
L 590.816529 122.950792 
L 592.661157 108.675078 
L 593.122314 107.331311 
L 593.583471 106.5666 
L 594.044628 106.112231 
L 594.505785 105.834572 
L 594.966942 105.764227 
L 595.428099 105.927101 
L 595.889256 106.372756 
L 596.81157 107.851107 
L 598.195041 110.013475 
L 599.578512 111.462886 
L 600.500826 112.124233 
L 601.42314 112.572806 
L 602.806612 112.956411 
L 604.65124 113.144241 
L 606.495868 112.952382 
L 608.340496 112.503526 
L 609.723967 111.928602 
L 611.107438 111.06661 
L 612.490909 109.815062 
L 613.413223 108.785935 
L 615.257851 106.302547 
L 617.102479 103.833527 
L 618.024793 102.99265 
L 618.48595 102.825469 
L 618.947107 102.9282 
L 619.408264 103.444371 
L 619.869421 104.598486 
L 621.252893 109.367055 
L 622.175207 111.374099 
L 623.097521 112.598986 
L 624.019835 113.371261 
L 624.942149 113.870525 
L 626.32562 114.352101 
L 628.170248 114.719571 
L 630.476033 114.946363 
L 634.165289 115.10019 
L 646.155372 115.275935 
L 648.461157 115.674626 
L 648.461157 115.674626 
" style="fill:none;stroke:#1f77b4;stroke-linecap:square;stroke-width:1.5;"/>
   </g>
   <g id="line2d_49">
    <path clip-path="url(#p0a743d517e)" d="M 482.444628 114.298443 
L 482.905785 113.68443 
L 483.366942 117.551744 
L 484.289256 136.2951 
L 484.750413 143.176666 
L 485.21157 146.950353 
L 485.672727 142.969391 
L 487.056198 115.640329 
L 487.517355 114.537809 
L 487.978512 114.272281 
L 490.284298 114.626789 
L 493.512397 114.473992 
L 507.808264 114.317018 
L 577.904132 114.297343 
L 579.287603 114.495022 
L 581.132231 115.045214 
L 582.515702 115.679897 
L 583.899174 116.618876 
L 584.821488 117.463971 
L 585.743802 118.520457 
L 587.127273 120.520084 
L 589.894215 125.236419 
L 590.355372 124.857641 
L 590.816529 122.950792 
L 592.661157 108.675078 
L 593.122314 107.331311 
L 593.583471 106.5666 
L 594.044628 106.112231 
L 594.505785 105.834572 
L 594.966942 105.764227 
L 595.428099 105.927101 
L 595.889256 106.372756 
L 596.81157 107.851107 
L 598.195041 110.013475 
L 599.578512 111.462886 
L 600.500826 112.124233 
L 601.42314 112.572806 
L 602.806612 112.956411 
L 603.267769 113.027262 
L 603.267769 113.027262 
" style="fill:none;stroke:#ff0000;stroke-linecap:square;stroke-width:1.5;"/>
   </g>
   <g id="patch_17">
    <path d="M 394.363636 175.256471 
L 394.363636 111.303529 
" style="fill:none;stroke:#000000;stroke-linecap:square;stroke-linejoin:miter;stroke-width:0.8;"/>
   </g>
   <g id="patch_18">
    <path d="M 648 175.256471 
L 648 111.303529 
" style="fill:none;stroke:#000000;stroke-linecap:square;stroke-linejoin:miter;stroke-width:0.8;"/>
   </g>
   <g id="patch_19">
    <path d="M 394.363636 175.256471 
L 648 175.256471 
" style="fill:none;stroke:#000000;stroke-linecap:square;stroke-linejoin:miter;stroke-width:0.8;"/>
   </g>
   <g id="patch_20">
    <path d="M 394.363636 111.303529 
L 648 111.303529 
" style="fill:none;stroke:#000000;stroke-linecap:square;stroke-linejoin:miter;stroke-width:0.8;"/>
   </g>
  </g>
  <g id="axes_5">
   <g id="matplotlib.axis_8">
    <g id="ytick_17">
     <g id="line2d_50">
      <g>
       <use style="stroke:#000000;stroke-width:0.8;" x="648" xlink:href="#m0a49e20170" y="172.349519"/>
      </g>
     </g>
     <g id="text_40">
      <!-- 0.0 -->
      <g transform="translate(655 176.148737)scale(0.1 -0.1)">
       <use xlink:href="#DejaVuSans-48"/>
       <use x="63.623047" xlink:href="#DejaVuSans-46"/>
       <use x="95.410156" xlink:href="#DejaVuSans-48"/>
      </g>
     </g>
    </g>
    <g id="ytick_18">
     <g id="line2d_51">
      <g>
       <use style="stroke:#000000;stroke-width:0.8;" x="648" xlink:href="#m0a49e20170" y="131.715581"/>
      </g>
     </g>
     <g id="text_41">
      <!-- 0.5 -->
      <g transform="translate(655 135.5148)scale(0.1 -0.1)">
       <use xlink:href="#DejaVuSans-48"/>
       <use x="63.623047" xlink:href="#DejaVuSans-46"/>
       <use x="95.410156" xlink:href="#DejaVuSans-53"/>
      </g>
     </g>
    </g>
    <g id="text_42">
     <!-- center_h1 (- -) -->
     <defs>
      <path d="M 48.78125 52.59375 
L 48.78125 44.1875 
Q 44.96875 46.296875 41.140625 47.34375 
Q 37.3125 48.390625 33.40625 48.390625 
Q 24.65625 48.390625 19.8125 42.84375 
Q 14.984375 37.3125 14.984375 27.296875 
Q 14.984375 17.28125 19.8125 11.734375 
Q 24.65625 6.203125 33.40625 6.203125 
Q 37.3125 6.203125 41.140625 7.25 
Q 44.96875 8.296875 48.78125 10.40625 
L 48.78125 2.09375 
Q 45.015625 0.34375 40.984375 -0.53125 
Q 36.96875 -1.421875 32.421875 -1.421875 
Q 20.0625 -1.421875 12.78125 6.34375 
Q 5.515625 14.109375 5.515625 27.296875 
Q 5.515625 40.671875 12.859375 48.328125 
Q 20.21875 56 33.015625 56 
Q 37.15625 56 41.109375 55.140625 
Q 45.0625 54.296875 48.78125 52.59375 
z
" id="DejaVuSans-99"/>
      <path d="M 54.890625 33.015625 
L 54.890625 0 
L 45.90625 0 
L 45.90625 32.71875 
Q 45.90625 40.484375 42.875 44.328125 
Q 39.84375 48.1875 33.796875 48.1875 
Q 26.515625 48.1875 22.3125 43.546875 
Q 18.109375 38.921875 18.109375 30.90625 
L 18.109375 0 
L 9.078125 0 
L 9.078125 54.6875 
L 18.109375 54.6875 
L 18.109375 46.1875 
Q 21.34375 51.125 25.703125 53.5625 
Q 30.078125 56 35.796875 56 
Q 45.21875 56 50.046875 50.171875 
Q 54.890625 44.34375 54.890625 33.015625 
z
" id="DejaVuSans-110"/>
      <path d="M 18.3125 70.21875 
L 18.3125 54.6875 
L 36.8125 54.6875 
L 36.8125 47.703125 
L 18.3125 47.703125 
L 18.3125 18.015625 
Q 18.3125 11.328125 20.140625 9.421875 
Q 21.96875 7.515625 27.59375 7.515625 
L 36.8125 7.515625 
L 36.8125 0 
L 27.59375 0 
Q 17.1875 0 13.234375 3.875 
Q 9.28125 7.765625 9.28125 18.015625 
L 9.28125 47.703125 
L 2.6875 47.703125 
L 2.6875 54.6875 
L 9.28125 54.6875 
L 9.28125 70.21875 
z
" id="DejaVuSans-116"/>
      <path d="M 41.109375 46.296875 
Q 39.59375 47.171875 37.8125 47.578125 
Q 36.03125 48 33.890625 48 
Q 26.265625 48 22.1875 43.046875 
Q 18.109375 38.09375 18.109375 28.8125 
L 18.109375 0 
L 9.078125 0 
L 9.078125 54.6875 
L 18.109375 54.6875 
L 18.109375 46.1875 
Q 20.953125 51.171875 25.484375 53.578125 
Q 30.03125 56 36.53125 56 
Q 37.453125 56 38.578125 55.875 
Q 39.703125 55.765625 41.0625 55.515625 
z
" id="DejaVuSans-114"/>
      <path d="M 54.890625 33.015625 
L 54.890625 0 
L 45.90625 0 
L 45.90625 32.71875 
Q 45.90625 40.484375 42.875 44.328125 
Q 39.84375 48.1875 33.796875 48.1875 
Q 26.515625 48.1875 22.3125 43.546875 
Q 18.109375 38.921875 18.109375 30.90625 
L 18.109375 0 
L 9.078125 0 
L 9.078125 75.984375 
L 18.109375 75.984375 
L 18.109375 46.1875 
Q 21.34375 51.125 25.703125 53.5625 
Q 30.078125 56 35.796875 56 
Q 45.21875 56 50.046875 50.171875 
Q 54.890625 44.34375 54.890625 33.015625 
z
" id="DejaVuSans-104"/>
     </defs>
     <g transform="translate(682.501562 177.315156)rotate(-90)scale(0.1 -0.1)">
      <use xlink:href="#DejaVuSans-99"/>
      <use x="54.980469" xlink:href="#DejaVuSans-101"/>
      <use x="116.503906" xlink:href="#DejaVuSans-110"/>
      <use x="179.882812" xlink:href="#DejaVuSans-116"/>
      <use x="219.091797" xlink:href="#DejaVuSans-101"/>
      <use x="280.615234" xlink:href="#DejaVuSans-114"/>
      <use x="321.728516" xlink:href="#DejaVuSans-95"/>
      <use x="371.728516" xlink:href="#DejaVuSans-104"/>
      <use x="435.107422" xlink:href="#DejaVuSans-49"/>
      <use x="498.730469" xlink:href="#DejaVuSans-32"/>
      <use x="530.517578" xlink:href="#DejaVuSans-40"/>
      <use x="569.53125" xlink:href="#DejaVuSans-45"/>
      <use x="605.615234" xlink:href="#DejaVuSans-45"/>
      <use x="641.699219" xlink:href="#DejaVuSans-41"/>
     </g>
    </g>
   </g>
   <g id="line2d_52">
    <path clip-path="url(#p0a743d517e)" d="M 394.363636 114.210481 
L 481.983471 114.222112 
L 481.983471 114.222112 
" style="fill:none;stroke:#1f77b4;stroke-dasharray:5.55,2.4;stroke-dashoffset:0;stroke-width:1.5;"/>
   </g>
   <g id="line2d_53">
    <path clip-path="url(#p0a743d517e)" d="M 603.728926 172.349519 
L 604.190083 172.349519 
L 604.65124 172.349519 
L 605.112397 172.349519 
L 605.573554 172.349519 
L 606.034711 172.349519 
L 606.495868 172.349519 
L 606.957025 172.349519 
L 607.418182 172.349519 
L 607.879339 172.349519 
L 608.340496 172.349519 
L 608.801653 172.349519 
L 609.26281 172.349519 
L 609.723967 172.349519 
L 610.185124 172.349519 
L 610.646281 172.349519 
L 611.107438 172.349519 
L 611.568595 172.349519 
L 612.029752 172.349519 
L 612.490909 172.349519 
L 612.952066 172.349519 
L 613.413223 172.349519 
L 613.87438 172.349519 
L 614.335537 172.349519 
L 614.796694 172.349519 
L 615.257851 172.349519 
L 615.719008 172.349519 
L 616.180165 172.349519 
L 616.641322 172.349519 
L 617.102479 172.349519 
L 617.563636 172.349519 
L 618.024793 172.349519 
L 618.48595 172.349519 
L 618.947107 172.349519 
L 619.408264 172.349519 
L 619.869421 172.349519 
L 620.330579 172.349519 
L 620.791736 172.349519 
L 621.252893 172.349519 
L 621.71405 172.349519 
L 622.175207 172.349519 
L 622.636364 172.349519 
L 623.097521 172.349519 
L 623.558678 172.349519 
L 624.019835 172.349519 
L 624.480992 172.349519 
L 624.942149 172.349519 
L 625.403306 172.349519 
L 625.864463 172.349519 
L 626.32562 172.349519 
L 626.786777 172.349519 
L 627.247934 172.349519 
L 627.709091 172.349519 
L 628.170248 172.349519 
L 628.631405 172.349519 
L 629.092562 172.349519 
L 629.553719 172.349519 
L 630.014876 172.349519 
L 630.476033 172.349519 
L 630.93719 172.349519 
L 631.398347 172.349519 
L 631.859504 172.349519 
L 632.320661 172.349519 
L 632.781818 172.349519 
L 633.242975 172.349519 
L 633.704132 172.349519 
L 634.165289 172.349519 
L 634.626446 172.349519 
L 635.087603 172.349519 
L 635.54876 172.349519 
L 636.009917 172.349519 
L 636.471074 172.349519 
L 636.932231 172.349519 
L 637.393388 172.349519 
L 637.854545 172.349519 
L 638.315702 172.349519 
L 638.77686 172.349519 
L 639.238017 172.349519 
L 639.699174 172.349519 
L 640.160331 172.349519 
L 640.621488 172.349519 
L 641.082645 172.349519 
L 641.543802 172.349519 
L 642.004959 172.349519 
L 642.466116 172.349519 
L 642.927273 172.349519 
L 643.38843 172.349519 
L 643.849587 172.349519 
L 644.310744 172.349519 
L 644.771901 172.349519 
L 645.233058 172.349519 
L 645.694215 172.349519 
L 646.155372 172.349519 
L 646.616529 172.349519 
L 647.077686 172.349519 
L 647.538843 172.349519 
L 648 172.349519 
L 648.461157 172.349519 
" style="fill:none;stroke:#1f77b4;stroke-dasharray:5.55,2.4;stroke-dashoffset:0;stroke-width:1.5;"/>
   </g>
   <g id="line2d_54">
    <path clip-path="url(#p0a743d517e)" d="M 482.444628 114.225528 
L 493.512397 114.432273 
L 503.657851 114.814123 
L 511.497521 115.323101 
L 517.492562 115.946726 
L 522.104132 116.61974 
L 526.715702 117.532441 
L 530.404959 118.494292 
L 533.171901 119.403567 
L 535.938843 120.508514 
L 538.244628 121.61178 
L 541.01157 123.215212 
L 543.317355 124.826733 
L 545.62314 126.762284 
L 547.467769 128.595758 
L 549.312397 130.706581 
L 551.157025 133.230242 
L 552.540496 135.424255 
L 554.385124 138.833502 
L 555.768595 141.857939 
L 556.690909 144.102594 
L 560.380165 147.381216 
L 563.147107 150.116109 
L 566.375207 153.553695 
L 570.52562 158.32476 
L 574.214876 162.856716 
L 576.520661 165.949696 
L 577.904132 168.113259 
L 579.287603 170.401438 
L 580.209917 171.105384 
L 581.132231 171.490927 
L 582.515702 171.824321 
L 584.821488 172.10711 
L 588.510744 172.289888 
L 594.966942 172.349336 
L 603.267769 172.349519 
L 603.267769 172.349519 
" style="fill:none;stroke:#ff0000;stroke-dasharray:5.55,2.4;stroke-dashoffset:0;stroke-width:1.5;"/>
   </g>
   <g id="patch_21">
    <path d="M 394.363636 175.256471 
L 394.363636 111.303529 
" style="fill:none;stroke:#000000;stroke-linecap:square;stroke-linejoin:miter;stroke-width:0.8;"/>
   </g>
   <g id="patch_22">
    <path d="M 648 175.256471 
L 648 111.303529 
" style="fill:none;stroke:#000000;stroke-linecap:square;stroke-linejoin:miter;stroke-width:0.8;"/>
   </g>
   <g id="patch_23">
    <path d="M 394.363636 175.256471 
L 648 175.256471 
" style="fill:none;stroke:#000000;stroke-linecap:square;stroke-linejoin:miter;stroke-width:0.8;"/>
   </g>
   <g id="patch_24">
    <path d="M 394.363636 111.303529 
L 648 111.303529 
" style="fill:none;stroke:#000000;stroke-linecap:square;stroke-linejoin:miter;stroke-width:0.8;"/>
   </g>
  </g>
  <g id="axes_6">
   <g id="patch_25">
    <path d="M 394.363636 252 
L 648 252 
L 648 188.047059 
L 394.363636 188.047059 
z
" style="fill:#ffffff;"/>
   </g>
   <g id="matplotlib.axis_9">
    <g id="xtick_21">
     <g id="line2d_55">
      <g>
       <use style="stroke:#000000;stroke-width:0.8;" x="394.363636" xlink:href="#m53dd4a18e7" y="252"/>
      </g>
     </g>
     <g id="text_43">
      <!-- 0 -->
      <g transform="translate(391.182386 266.598437)scale(0.1 -0.1)">
       <use xlink:href="#DejaVuSans-48"/>
      </g>
     </g>
    </g>
    <g id="xtick_22">
     <g id="line2d_56">
      <g>
       <use style="stroke:#000000;stroke-width:0.8;" x="440.479339" xlink:href="#m53dd4a18e7" y="252"/>
      </g>
     </g>
     <g id="text_44">
      <!-- 100 -->
      <g transform="translate(430.935589 266.598437)scale(0.1 -0.1)">
       <use xlink:href="#DejaVuSans-49"/>
       <use x="63.623047" xlink:href="#DejaVuSans-48"/>
       <use x="127.246094" xlink:href="#DejaVuSans-48"/>
      </g>
     </g>
    </g>
    <g id="xtick_23">
     <g id="line2d_57">
      <g>
       <use style="stroke:#000000;stroke-width:0.8;" x="486.595041" xlink:href="#m53dd4a18e7" y="252"/>
      </g>
     </g>
     <g id="text_45">
      <!-- 200 -->
      <g transform="translate(477.051291 266.598437)scale(0.1 -0.1)">
       <use xlink:href="#DejaVuSans-50"/>
       <use x="63.623047" xlink:href="#DejaVuSans-48"/>
       <use x="127.246094" xlink:href="#DejaVuSans-48"/>
      </g>
     </g>
    </g>
    <g id="xtick_24">
     <g id="line2d_58">
      <g>
       <use style="stroke:#000000;stroke-width:0.8;" x="532.710744" xlink:href="#m53dd4a18e7" y="252"/>
      </g>
     </g>
     <g id="text_46">
      <!-- 300 -->
      <g transform="translate(523.166994 266.598437)scale(0.1 -0.1)">
       <use xlink:href="#DejaVuSans-51"/>
       <use x="63.623047" xlink:href="#DejaVuSans-48"/>
       <use x="127.246094" xlink:href="#DejaVuSans-48"/>
      </g>
     </g>
    </g>
    <g id="xtick_25">
     <g id="line2d_59">
      <g>
       <use style="stroke:#000000;stroke-width:0.8;" x="578.826446" xlink:href="#m53dd4a18e7" y="252"/>
      </g>
     </g>
     <g id="text_47">
      <!-- 400 -->
      <g transform="translate(569.282696 266.598437)scale(0.1 -0.1)">
       <use xlink:href="#DejaVuSans-52"/>
       <use x="63.623047" xlink:href="#DejaVuSans-48"/>
       <use x="127.246094" xlink:href="#DejaVuSans-48"/>
      </g>
     </g>
    </g>
    <g id="xtick_26">
     <g id="line2d_60">
      <g>
       <use style="stroke:#000000;stroke-width:0.8;" x="624.942149" xlink:href="#m53dd4a18e7" y="252"/>
      </g>
     </g>
     <g id="text_48">
      <!-- 500 -->
      <g transform="translate(615.398399 266.598437)scale(0.1 -0.1)">
       <use xlink:href="#DejaVuSans-53"/>
       <use x="63.623047" xlink:href="#DejaVuSans-48"/>
       <use x="127.246094" xlink:href="#DejaVuSans-48"/>
      </g>
     </g>
    </g>
    <g id="text_49">
     <!-- Model Number -->
     <defs>
      <path d="M 9.8125 72.90625 
L 24.515625 72.90625 
L 43.109375 23.296875 
L 61.8125 72.90625 
L 76.515625 72.90625 
L 76.515625 0 
L 66.890625 0 
L 66.890625 64.015625 
L 48.09375 14.015625 
L 38.1875 14.015625 
L 19.390625 64.015625 
L 19.390625 0 
L 9.8125 0 
z
" id="DejaVuSans-77"/>
      <path d="M 45.40625 46.390625 
L 45.40625 75.984375 
L 54.390625 75.984375 
L 54.390625 0 
L 45.40625 0 
L 45.40625 8.203125 
Q 42.578125 3.328125 38.25 0.953125 
Q 33.9375 -1.421875 27.875 -1.421875 
Q 17.96875 -1.421875 11.734375 6.484375 
Q 5.515625 14.40625 5.515625 27.296875 
Q 5.515625 40.1875 11.734375 48.09375 
Q 17.96875 56 27.875 56 
Q 33.9375 56 38.25 53.625 
Q 42.578125 51.265625 45.40625 46.390625 
z
M 14.796875 27.296875 
Q 14.796875 17.390625 18.875 11.75 
Q 22.953125 6.109375 30.078125 6.109375 
Q 37.203125 6.109375 41.296875 11.75 
Q 45.40625 17.390625 45.40625 27.296875 
Q 45.40625 37.203125 41.296875 42.84375 
Q 37.203125 48.484375 30.078125 48.484375 
Q 22.953125 48.484375 18.875 42.84375 
Q 14.796875 37.203125 14.796875 27.296875 
z
" id="DejaVuSans-100"/>
      <path d="M 9.8125 72.90625 
L 23.09375 72.90625 
L 55.421875 11.921875 
L 55.421875 72.90625 
L 64.984375 72.90625 
L 64.984375 0 
L 51.703125 0 
L 19.390625 60.984375 
L 19.390625 0 
L 9.8125 0 
z
" id="DejaVuSans-78"/>
      <path d="M 8.5 21.578125 
L 8.5 54.6875 
L 17.484375 54.6875 
L 17.484375 21.921875 
Q 17.484375 14.15625 20.5 10.265625 
Q 23.53125 6.390625 29.59375 6.390625 
Q 36.859375 6.390625 41.078125 11.03125 
Q 45.3125 15.671875 45.3125 23.6875 
L 45.3125 54.6875 
L 54.296875 54.6875 
L 54.296875 0 
L 45.3125 0 
L 45.3125 8.40625 
Q 42.046875 3.421875 37.71875 1 
Q 33.40625 -1.421875 27.6875 -1.421875 
Q 18.265625 -1.421875 13.375 4.4375 
Q 8.5 10.296875 8.5 21.578125 
z
M 31.109375 56 
z
" id="DejaVuSans-117"/>
      <path d="M 52 44.1875 
Q 55.375 50.25 60.0625 53.125 
Q 64.75 56 71.09375 56 
Q 79.640625 56 84.28125 50.015625 
Q 88.921875 44.046875 88.921875 33.015625 
L 88.921875 0 
L 79.890625 0 
L 79.890625 32.71875 
Q 79.890625 40.578125 77.09375 44.375 
Q 74.3125 48.1875 68.609375 48.1875 
Q 61.625 48.1875 57.5625 43.546875 
Q 53.515625 38.921875 53.515625 30.90625 
L 53.515625 0 
L 44.484375 0 
L 44.484375 32.71875 
Q 44.484375 40.625 41.703125 44.40625 
Q 38.921875 48.1875 33.109375 48.1875 
Q 26.21875 48.1875 22.15625 43.53125 
Q 18.109375 38.875 18.109375 30.90625 
L 18.109375 0 
L 9.078125 0 
L 9.078125 54.6875 
L 18.109375 54.6875 
L 18.109375 46.1875 
Q 21.1875 51.21875 25.484375 53.609375 
Q 29.78125 56 35.6875 56 
Q 41.65625 56 45.828125 52.96875 
Q 50 49.953125 52 44.1875 
z
" id="DejaVuSans-109"/>
      <path d="M 48.6875 27.296875 
Q 48.6875 37.203125 44.609375 42.84375 
Q 40.53125 48.484375 33.40625 48.484375 
Q 26.265625 48.484375 22.1875 42.84375 
Q 18.109375 37.203125 18.109375 27.296875 
Q 18.109375 17.390625 22.1875 11.75 
Q 26.265625 6.109375 33.40625 6.109375 
Q 40.53125 6.109375 44.609375 11.75 
Q 48.6875 17.390625 48.6875 27.296875 
z
M 18.109375 46.390625 
Q 20.953125 51.265625 25.265625 53.625 
Q 29.59375 56 35.59375 56 
Q 45.5625 56 51.78125 48.09375 
Q 58.015625 40.1875 58.015625 27.296875 
Q 58.015625 14.40625 51.78125 6.484375 
Q 45.5625 -1.421875 35.59375 -1.421875 
Q 29.59375 -1.421875 25.265625 0.953125 
Q 20.953125 3.328125 18.109375 8.203125 
L 18.109375 0 
L 9.078125 0 
L 9.078125 75.984375 
L 18.109375 75.984375 
z
" id="DejaVuSans-98"/>
     </defs>
     <g transform="translate(484.493537 280.276563)scale(0.1 -0.1)">
      <use xlink:href="#DejaVuSans-77"/>
      <use x="86.279297" xlink:href="#DejaVuSans-111"/>
      <use x="147.460938" xlink:href="#DejaVuSans-100"/>
      <use x="210.9375" xlink:href="#DejaVuSans-101"/>
      <use x="272.460938" xlink:href="#DejaVuSans-108"/>
      <use x="300.244141" xlink:href="#DejaVuSans-32"/>
      <use x="332.03125" xlink:href="#DejaVuSans-78"/>
      <use x="406.835938" xlink:href="#DejaVuSans-117"/>
      <use x="470.214844" xlink:href="#DejaVuSans-109"/>
      <use x="567.626953" xlink:href="#DejaVuSans-98"/>
      <use x="631.103516" xlink:href="#DejaVuSans-101"/>
      <use x="692.626953" xlink:href="#DejaVuSans-114"/>
     </g>
    </g>
   </g>
   <g id="matplotlib.axis_10">
    <g id="ytick_19">
     <g id="line2d_61">
      <g>
       <use style="stroke:#000000;stroke-width:0.8;" x="394.363636" xlink:href="#m3a3d979ec5" y="252"/>
      </g>
     </g>
     <g id="text_50">
      <!-- 0.0 -->
      <g transform="translate(371.460511 255.799219)scale(0.1 -0.1)">
       <use xlink:href="#DejaVuSans-48"/>
       <use x="63.623047" xlink:href="#DejaVuSans-46"/>
       <use x="95.410156" xlink:href="#DejaVuSans-48"/>
      </g>
     </g>
    </g>
    <g id="ytick_20">
     <g id="line2d_62">
      <g>
       <use style="stroke:#000000;stroke-width:0.8;" x="394.363636" xlink:href="#m3a3d979ec5" y="221.546218"/>
      </g>
     </g>
     <g id="text_51">
      <!-- 0.5 -->
      <g transform="translate(371.460511 225.345437)scale(0.1 -0.1)">
       <use xlink:href="#DejaVuSans-48"/>
       <use x="63.623047" xlink:href="#DejaVuSans-46"/>
       <use x="95.410156" xlink:href="#DejaVuSans-53"/>
      </g>
     </g>
    </g>
    <g id="ytick_21">
     <g id="line2d_63">
      <g>
       <use style="stroke:#000000;stroke-width:0.8;" x="394.363636" xlink:href="#m3a3d979ec5" y="191.092437"/>
      </g>
     </g>
     <g id="text_52">
      <!-- 1.0 -->
      <g transform="translate(371.460511 194.891656)scale(0.1 -0.1)">
       <use xlink:href="#DejaVuSans-49"/>
       <use x="63.623047" xlink:href="#DejaVuSans-46"/>
       <use x="95.410156" xlink:href="#DejaVuSans-48"/>
      </g>
     </g>
    </g>
   </g>
   <g id="line2d_64">
    <path clip-path="url(#pc00c5dcf7a)" d="M 394.363636 252 
L 422.955372 251.902398 
L 424.8 251.712273 
L 426.183471 251.354059 
L 427.105785 250.89719 
L 428.028099 250.130477 
L 428.950413 248.866852 
L 429.872727 246.837599 
L 430.795041 243.732577 
L 431.717355 239.311379 
L 432.639669 233.636053 
L 434.484298 221.595641 
L 434.945455 219.299609 
L 435.406612 217.586177 
L 435.867769 216.459552 
L 436.328926 215.981047 
L 436.790083 216.198543 
L 437.25124 217.151069 
L 437.712397 218.812421 
L 438.173554 221.27054 
L 438.634711 224.559694 
L 439.557025 233.73498 
L 440.479339 244.470182 
L 440.940496 248.568861 
L 441.401653 250.90731 
L 441.86281 251.782931 
L 442.323967 251.976078 
L 444.629752 252 
L 475.98843 251.889766 
L 477.371901 251.670497 
L 477.833058 251.471199 
L 478.294215 251.11291 
L 478.755372 250.478221 
L 479.216529 249.38948 
L 479.677686 247.484025 
L 480.138843 243.375999 
L 480.6 231.222231 
L 481.061157 205.903278 
L 481.522314 194.629006 
L 481.983471 192.032079 
L 482.444628 194.454598 
L 483.828099 229.420074 
L 484.289256 235.177142 
L 484.750413 232.457072 
L 485.21157 222.229041 
L 485.672727 202.904696 
L 486.133884 192.558477 
L 486.595041 190.471847 
L 487.056198 190.918878 
L 487.517355 191.206535 
L 488.439669 191.36429 
L 502.735537 190.97419 
L 556.690909 191.022348 
L 578.365289 191.103731 
L 580.209917 191.560341 
L 581.593388 192.110349 
L 582.97686 192.889317 
L 584.360331 194.027789 
L 585.743802 195.647772 
L 586.666116 197.035467 
L 588.049587 199.745507 
L 588.971901 201.617313 
L 589.433058 202.172852 
L 589.894215 202.049953 
L 590.355372 200.258255 
L 590.816529 196.643527 
L 591.738843 188.024484 
L 592.2 185.014846 
L 592.661157 183.101291 
L 593.122314 181.965461 
L 593.583471 181.248282 
L 594.505785 180.441449 
L 594.966942 180.266344 
L 595.428099 180.278888 
L 595.889256 180.558063 
L 596.350413 181.028986 
L 599.578512 185.59292 
L 600.500826 186.504443 
L 601.884298 187.421838 
L 603.267769 188.032718 
L 604.65124 188.455588 
L 606.034711 188.634674 
L 608.340496 188.599336 
L 610.646281 188.335229 
L 613.413223 187.812927 
L 616.180165 187.127597 
L 619.408264 186.151746 
L 624.019835 184.413988 
L 628.631405 182.209605 
L 630.014876 181.424843 
L 631.859504 180.156743 
L 633.242975 178.940583 
L 634.626446 177.244999 
L 636.009917 175.166658 
L 637.854545 171.825512 
L 641.082645 165.544471 
L 642.004959 164.297306 
L 642.466116 163.985405 
L 642.927273 164.068285 
L 643.38843 164.687047 
L 643.849587 166.128654 
L 647.077686 180.555214 
L 648 183.599188 
L 648.461157 184.898186 
L 648.461157 184.898186 
" style="fill:none;stroke:#1f77b4;stroke-linecap:square;stroke-width:1.5;"/>
   </g>
   <g id="line2d_65">
    <path clip-path="url(#pc00c5dcf7a)" d="M 486.595041 190.471847 
L 487.056198 190.918878 
L 487.517355 191.206535 
L 488.439669 191.36429 
L 502.735537 190.97419 
L 556.690909 191.022348 
L 578.365289 191.103731 
L 580.209917 191.560341 
L 581.593388 192.110349 
L 582.97686 192.889317 
L 584.360331 194.027789 
L 585.743802 195.647772 
L 586.666116 197.035467 
L 588.049587 199.745507 
L 588.971901 201.617313 
L 589.433058 202.172852 
L 589.894215 202.049953 
L 590.355372 200.258255 
L 590.816529 196.643527 
L 591.738843 188.024484 
L 592.2 185.014846 
L 592.661157 183.101291 
L 593.122314 181.965461 
L 593.583471 181.248282 
L 594.505785 180.441449 
L 594.966942 180.266344 
L 595.428099 180.278888 
L 595.889256 180.558063 
L 596.350413 181.028986 
L 599.578512 185.59292 
L 600.500826 186.504443 
L 601.884298 187.421838 
L 603.267769 188.032718 
L 603.267769 188.032718 
" style="fill:none;stroke:#ff0000;stroke-linecap:square;stroke-width:1.5;"/>
   </g>
   <g id="patch_26">
    <path d="M 394.363636 252 
L 394.363636 188.047059 
" style="fill:none;stroke:#000000;stroke-linecap:square;stroke-linejoin:miter;stroke-width:0.8;"/>
   </g>
   <g id="patch_27">
    <path d="M 648 252 
L 648 188.047059 
" style="fill:none;stroke:#000000;stroke-linecap:square;stroke-linejoin:miter;stroke-width:0.8;"/>
   </g>
   <g id="patch_28">
    <path d="M 394.363636 252 
L 648 252 
" style="fill:none;stroke:#000000;stroke-linecap:square;stroke-linejoin:miter;stroke-width:0.8;"/>
   </g>
   <g id="patch_29">
    <path d="M 394.363636 188.047059 
L 648 188.047059 
" style="fill:none;stroke:#000000;stroke-linecap:square;stroke-linejoin:miter;stroke-width:0.8;"/>
   </g>
  </g>
  <g id="axes_7">
   <g id="matplotlib.axis_11">
    <g id="ytick_22">
     <g id="line2d_66">
      <g>
       <use style="stroke:#000000;stroke-width:0.8;" x="648" xlink:href="#m0a49e20170" y="249.093048"/>
      </g>
     </g>
     <g id="text_53">
      <!-- 0.0 -->
      <g transform="translate(655 252.892267)scale(0.1 -0.1)">
       <use xlink:href="#DejaVuSans-48"/>
       <use x="63.623047" xlink:href="#DejaVuSans-46"/>
       <use x="95.410156" xlink:href="#DejaVuSans-48"/>
      </g>
     </g>
    </g>
    <g id="ytick_23">
     <g id="line2d_67">
      <g>
       <use style="stroke:#000000;stroke-width:0.8;" x="648" xlink:href="#m0a49e20170" y="208.45911"/>
      </g>
     </g>
     <g id="text_54">
      <!-- 0.5 -->
      <g transform="translate(655 212.258329)scale(0.1 -0.1)">
       <use xlink:href="#DejaVuSans-48"/>
       <use x="63.623047" xlink:href="#DejaVuSans-46"/>
       <use x="95.410156" xlink:href="#DejaVuSans-53"/>
      </g>
     </g>
    </g>
   </g>
   <g id="line2d_68">
    <path clip-path="url(#pc00c5dcf7a)" d="M 394.363636 190.954011 
L 486.133884 191.013965 
L 486.133884 191.013965 
" style="fill:none;stroke:#1f77b4;stroke-dasharray:5.55,2.4;stroke-dashoffset:0;stroke-width:1.5;"/>
   </g>
   <g id="line2d_69">
    <path clip-path="url(#pc00c5dcf7a)" d="M 603.728926 249.093048 
L 604.190083 249.093048 
L 604.65124 249.093048 
L 605.112397 249.093048 
L 605.573554 249.093048 
L 606.034711 249.093048 
L 606.495868 249.093048 
L 606.957025 249.093048 
L 607.418182 249.093048 
L 607.879339 249.093048 
L 608.340496 249.093048 
L 608.801653 249.093048 
L 609.26281 249.093048 
L 609.723967 249.093048 
L 610.185124 249.093048 
L 610.646281 249.093048 
L 611.107438 249.093048 
L 611.568595 249.093048 
L 612.029752 249.093048 
L 612.490909 249.093048 
L 612.952066 249.093048 
L 613.413223 249.093048 
L 613.87438 249.093048 
L 614.335537 249.093048 
L 614.796694 249.093048 
L 615.257851 249.093048 
L 615.719008 249.093048 
L 616.180165 249.093048 
L 616.641322 249.093048 
L 617.102479 249.093048 
L 617.563636 249.093048 
L 618.024793 249.093048 
L 618.48595 249.093048 
L 618.947107 249.093048 
L 619.408264 249.093048 
L 619.869421 249.093048 
L 620.330579 249.093048 
L 620.791736 249.093048 
L 621.252893 249.093048 
L 621.71405 249.093048 
L 622.175207 249.093048 
L 622.636364 249.093048 
L 623.097521 249.093048 
L 623.558678 249.093048 
L 624.019835 249.093048 
L 624.480992 249.093048 
L 624.942149 249.093048 
L 625.403306 249.093048 
L 625.864463 249.093048 
L 626.32562 249.093048 
L 626.786777 249.093048 
L 627.247934 249.093048 
L 627.709091 249.093048 
L 628.170248 249.093048 
L 628.631405 249.093048 
L 629.092562 249.093048 
L 629.553719 249.093048 
L 630.014876 249.093048 
L 630.476033 249.093048 
L 630.93719 249.093048 
L 631.398347 249.093048 
L 631.859504 249.093048 
L 632.320661 249.093048 
L 632.781818 249.093048 
L 633.242975 249.093048 
L 633.704132 249.093048 
L 634.165289 249.093048 
L 634.626446 249.093048 
L 635.087603 249.093048 
L 635.54876 249.093048 
L 636.009917 249.093048 
L 636.471074 249.093048 
L 636.932231 249.093048 
L 637.393388 249.093048 
L 637.854545 249.093048 
L 638.315702 249.093048 
L 638.77686 249.093048 
L 639.238017 249.093048 
L 639.699174 249.093048 
L 640.160331 249.093048 
L 640.621488 249.093048 
L 641.082645 249.093048 
L 641.543802 249.093048 
L 642.004959 249.093048 
L 642.466116 249.093048 
L 642.927273 249.093048 
L 643.38843 249.093048 
L 643.849587 249.093048 
L 644.310744 249.093048 
L 644.771901 249.093048 
L 645.233058 249.093048 
L 645.694215 249.093048 
L 646.155372 249.093048 
L 646.616529 249.093048 
L 647.077686 249.093048 
L 647.538843 249.093048 
L 648 249.093048 
L 648.461157 249.093048 
" style="fill:none;stroke:#1f77b4;stroke-dasharray:5.55,2.4;stroke-dashoffset:0;stroke-width:1.5;"/>
   </g>
   <g id="line2d_70">
    <path clip-path="url(#pc00c5dcf7a)" d="M 486.595041 191.02395 
L 507.347107 191.777203 
L 514.72562 192.384789 
L 520.720661 193.136818 
L 524.871074 193.86535 
L 529.482645 194.947056 
L 533.171901 196.08961 
L 536.4 197.368485 
L 539.166942 198.724363 
L 541.472727 200.098613 
L 543.778512 201.738976 
L 545.62314 203.294407 
L 547.467769 205.110685 
L 549.312397 207.243868 
L 551.157025 209.758953 
L 553.001653 212.7758 
L 554.385124 215.425027 
L 555.768595 218.474474 
L 556.690909 220.772677 
L 559.919008 223.693855 
L 563.147107 226.924046 
L 566.836364 230.974857 
L 571.447934 236.4106 
L 575.13719 241.063155 
L 576.981818 243.678607 
L 579.287603 247.374012 
L 580.209917 247.969773 
L 581.593388 248.424738 
L 583.438017 248.737447 
L 586.666116 248.978431 
L 591.738843 249.091364 
L 603.267769 249.093048 
L 603.267769 249.093048 
" style="fill:none;stroke:#ff0000;stroke-dasharray:5.55,2.4;stroke-dashoffset:0;stroke-width:1.5;"/>
   </g>
   <g id="patch_30">
    <path d="M 394.363636 252 
L 394.363636 188.047059 
" style="fill:none;stroke:#000000;stroke-linecap:square;stroke-linejoin:miter;stroke-width:0.8;"/>
   </g>
   <g id="patch_31">
    <path d="M 648 252 
L 648 188.047059 
" style="fill:none;stroke:#000000;stroke-linecap:square;stroke-linejoin:miter;stroke-width:0.8;"/>
   </g>
   <g id="patch_32">
    <path d="M 394.363636 252 
L 648 252 
" style="fill:none;stroke:#000000;stroke-linecap:square;stroke-linejoin:miter;stroke-width:0.8;"/>
   </g>
   <g id="patch_33">
    <path d="M 394.363636 188.047059 
L 648 188.047059 
" style="fill:none;stroke:#000000;stroke-linecap:square;stroke-linejoin:miter;stroke-width:0.8;"/>
   </g>
  </g>
 </g>
 <defs>
  <clipPath id="p5070105852">
   <rect height="217.44" width="253.636364" x="90" y="34.56"/>
  </clipPath>
  <clipPath id="p3e3931bf70">
   <rect height="63.952941" width="253.636364" x="394.363636" y="34.56"/>
  </clipPath>
  <clipPath id="p0a743d517e">
   <rect height="63.952941" width="253.636364" x="394.363636" y="111.303529"/>
  </clipPath>
  <clipPath id="pc00c5dcf7a">
   <rect height="63.952941" width="253.636364" x="394.363636" y="188.047059"/>
  </clipPath>
 </defs>
</svg>
