<?xml version="1.0" encoding="utf-8" standalone="no"?>
<!DOCTYPE svg PUBLIC "-//W3C//DTD SVG 1.1//EN"
  "http://www.w3.org/Graphics/SVG/1.1/DTD/svg11.dtd">
<!-- Created with matplotlib (https://matplotlib.org/) -->
<svg height="288pt" version="1.1" viewBox="0 0 720 288" width="720pt" xmlns="http://www.w3.org/2000/svg" xmlns:xlink="http://www.w3.org/1999/xlink">
 <defs>
  <style type="text/css">
*{stroke-linecap:butt;stroke-linejoin:round;}
  </style>
 </defs>
 <g id="figure_1">
  <g id="patch_1">
   <path d="M 0 288 
L 720 288 
L 720 0 
L 0 0 
z
" style="fill:#ffffff;"/>
  </g>
  <g id="axes_1">
   <g id="patch_2">
    <path d="M 90 252 
L 343.636364 252 
L 343.636364 34.56 
L 90 34.56 
z
" style="fill:#ffffff;"/>
   </g>
   <g id="matplotlib.axis_1">
    <g id="xtick_1">
     <g id="line2d_1">
      <defs>
       <path d="M 0 0 
L 0 3.5 
" id="m08e3356759" style="stroke:#000000;stroke-width:0.8;"/>
      </defs>
      <g>
       <use style="stroke:#000000;stroke-width:0.8;" x="343.636364" xlink:href="#m08e3356759" y="252"/>
      </g>
     </g>
     <g id="text_1">
      <!-- 3.4 -->
      <defs>
       <path d="M 40.578125 39.3125 
Q 47.65625 37.796875 51.625 33 
Q 55.609375 28.21875 55.609375 21.1875 
Q 55.609375 10.40625 48.1875 4.484375 
Q 40.765625 -1.421875 27.09375 -1.421875 
Q 22.515625 -1.421875 17.65625 -0.515625 
Q 12.796875 0.390625 7.625 2.203125 
L 7.625 11.71875 
Q 11.71875 9.328125 16.59375 8.109375 
Q 21.484375 6.890625 26.8125 6.890625 
Q 36.078125 6.890625 40.9375 10.546875 
Q 45.796875 14.203125 45.796875 21.1875 
Q 45.796875 27.640625 41.28125 31.265625 
Q 36.765625 34.90625 28.71875 34.90625 
L 20.21875 34.90625 
L 20.21875 43.015625 
L 29.109375 43.015625 
Q 36.375 43.015625 40.234375 45.921875 
Q 44.09375 48.828125 44.09375 54.296875 
Q 44.09375 59.90625 40.109375 62.90625 
Q 36.140625 65.921875 28.71875 65.921875 
Q 24.65625 65.921875 20.015625 65.03125 
Q 15.375 64.15625 9.8125 62.3125 
L 9.8125 71.09375 
Q 15.4375 72.65625 20.34375 73.4375 
Q 25.25 74.21875 29.59375 74.21875 
Q 40.828125 74.21875 47.359375 69.109375 
Q 53.90625 64.015625 53.90625 55.328125 
Q 53.90625 49.265625 50.4375 45.09375 
Q 46.96875 40.921875 40.578125 39.3125 
z
" id="DejaVuSans-51"/>
       <path d="M 10.6875 12.40625 
L 21 12.40625 
L 21 0 
L 10.6875 0 
z
" id="DejaVuSans-46"/>
       <path d="M 37.796875 64.3125 
L 12.890625 25.390625 
L 37.796875 25.390625 
z
M 35.203125 72.90625 
L 47.609375 72.90625 
L 47.609375 25.390625 
L 58.015625 25.390625 
L 58.015625 17.1875 
L 47.609375 17.1875 
L 47.609375 0 
L 37.796875 0 
L 37.796875 17.1875 
L 4.890625 17.1875 
L 4.890625 26.703125 
z
" id="DejaVuSans-52"/>
      </defs>
      <g transform="translate(335.684801 266.598437)scale(0.1 -0.1)">
       <use xlink:href="#DejaVuSans-51"/>
       <use x="63.623047" xlink:href="#DejaVuSans-46"/>
       <use x="95.410156" xlink:href="#DejaVuSans-52"/>
      </g>
     </g>
    </g>
    <g id="xtick_2">
     <g id="line2d_2">
      <g>
       <use style="stroke:#000000;stroke-width:0.8;" x="280.227273" xlink:href="#m08e3356759" y="252"/>
      </g>
     </g>
     <g id="text_2">
      <!-- 3.6 -->
      <defs>
       <path d="M 33.015625 40.375 
Q 26.375 40.375 22.484375 35.828125 
Q 18.609375 31.296875 18.609375 23.390625 
Q 18.609375 15.53125 22.484375 10.953125 
Q 26.375 6.390625 33.015625 6.390625 
Q 39.65625 6.390625 43.53125 10.953125 
Q 47.40625 15.53125 47.40625 23.390625 
Q 47.40625 31.296875 43.53125 35.828125 
Q 39.65625 40.375 33.015625 40.375 
z
M 52.59375 71.296875 
L 52.59375 62.3125 
Q 48.875 64.0625 45.09375 64.984375 
Q 41.3125 65.921875 37.59375 65.921875 
Q 27.828125 65.921875 22.671875 59.328125 
Q 17.53125 52.734375 16.796875 39.40625 
Q 19.671875 43.65625 24.015625 45.921875 
Q 28.375 48.1875 33.59375 48.1875 
Q 44.578125 48.1875 50.953125 41.515625 
Q 57.328125 34.859375 57.328125 23.390625 
Q 57.328125 12.15625 50.6875 5.359375 
Q 44.046875 -1.421875 33.015625 -1.421875 
Q 20.359375 -1.421875 13.671875 8.265625 
Q 6.984375 17.96875 6.984375 36.375 
Q 6.984375 53.65625 15.1875 63.9375 
Q 23.390625 74.21875 37.203125 74.21875 
Q 40.921875 74.21875 44.703125 73.484375 
Q 48.484375 72.75 52.59375 71.296875 
z
" id="DejaVuSans-54"/>
      </defs>
      <g transform="translate(272.27571 266.598437)scale(0.1 -0.1)">
       <use xlink:href="#DejaVuSans-51"/>
       <use x="63.623047" xlink:href="#DejaVuSans-46"/>
       <use x="95.410156" xlink:href="#DejaVuSans-54"/>
      </g>
     </g>
    </g>
    <g id="xtick_3">
     <g id="line2d_3">
      <g>
       <use style="stroke:#000000;stroke-width:0.8;" x="216.818182" xlink:href="#m08e3356759" y="252"/>
      </g>
     </g>
     <g id="text_3">
      <!-- 3.8 -->
      <defs>
       <path d="M 31.78125 34.625 
Q 24.75 34.625 20.71875 30.859375 
Q 16.703125 27.09375 16.703125 20.515625 
Q 16.703125 13.921875 20.71875 10.15625 
Q 24.75 6.390625 31.78125 6.390625 
Q 38.8125 6.390625 42.859375 10.171875 
Q 46.921875 13.96875 46.921875 20.515625 
Q 46.921875 27.09375 42.890625 30.859375 
Q 38.875 34.625 31.78125 34.625 
z
M 21.921875 38.8125 
Q 15.578125 40.375 12.03125 44.71875 
Q 8.5 49.078125 8.5 55.328125 
Q 8.5 64.0625 14.71875 69.140625 
Q 20.953125 74.21875 31.78125 74.21875 
Q 42.671875 74.21875 48.875 69.140625 
Q 55.078125 64.0625 55.078125 55.328125 
Q 55.078125 49.078125 51.53125 44.71875 
Q 48 40.375 41.703125 38.8125 
Q 48.828125 37.15625 52.796875 32.3125 
Q 56.78125 27.484375 56.78125 20.515625 
Q 56.78125 9.90625 50.3125 4.234375 
Q 43.84375 -1.421875 31.78125 -1.421875 
Q 19.734375 -1.421875 13.25 4.234375 
Q 6.78125 9.90625 6.78125 20.515625 
Q 6.78125 27.484375 10.78125 32.3125 
Q 14.796875 37.15625 21.921875 38.8125 
z
M 18.3125 54.390625 
Q 18.3125 48.734375 21.84375 45.5625 
Q 25.390625 42.390625 31.78125 42.390625 
Q 38.140625 42.390625 41.71875 45.5625 
Q 45.3125 48.734375 45.3125 54.390625 
Q 45.3125 60.0625 41.71875 63.234375 
Q 38.140625 66.40625 31.78125 66.40625 
Q 25.390625 66.40625 21.84375 63.234375 
Q 18.3125 60.0625 18.3125 54.390625 
z
" id="DejaVuSans-56"/>
      </defs>
      <g transform="translate(208.866619 266.598437)scale(0.1 -0.1)">
       <use xlink:href="#DejaVuSans-51"/>
       <use x="63.623047" xlink:href="#DejaVuSans-46"/>
       <use x="95.410156" xlink:href="#DejaVuSans-56"/>
      </g>
     </g>
    </g>
    <g id="xtick_4">
     <g id="line2d_4">
      <g>
       <use style="stroke:#000000;stroke-width:0.8;" x="153.409091" xlink:href="#m08e3356759" y="252"/>
      </g>
     </g>
     <g id="text_4">
      <!-- 4.0 -->
      <defs>
       <path d="M 31.78125 66.40625 
Q 24.171875 66.40625 20.328125 58.90625 
Q 16.5 51.421875 16.5 36.375 
Q 16.5 21.390625 20.328125 13.890625 
Q 24.171875 6.390625 31.78125 6.390625 
Q 39.453125 6.390625 43.28125 13.890625 
Q 47.125 21.390625 47.125 36.375 
Q 47.125 51.421875 43.28125 58.90625 
Q 39.453125 66.40625 31.78125 66.40625 
z
M 31.78125 74.21875 
Q 44.046875 74.21875 50.515625 64.515625 
Q 56.984375 54.828125 56.984375 36.375 
Q 56.984375 17.96875 50.515625 8.265625 
Q 44.046875 -1.421875 31.78125 -1.421875 
Q 19.53125 -1.421875 13.0625 8.265625 
Q 6.59375 17.96875 6.59375 36.375 
Q 6.59375 54.828125 13.0625 64.515625 
Q 19.53125 74.21875 31.78125 74.21875 
z
" id="DejaVuSans-48"/>
      </defs>
      <g transform="translate(145.457528 266.598437)scale(0.1 -0.1)">
       <use xlink:href="#DejaVuSans-52"/>
       <use x="63.623047" xlink:href="#DejaVuSans-46"/>
       <use x="95.410156" xlink:href="#DejaVuSans-48"/>
      </g>
     </g>
    </g>
    <g id="xtick_5">
     <g id="line2d_5">
      <g>
       <use style="stroke:#000000;stroke-width:0.8;" x="90" xlink:href="#m08e3356759" y="252"/>
      </g>
     </g>
     <g id="text_5">
      <!-- 4.2 -->
      <defs>
       <path d="M 19.1875 8.296875 
L 53.609375 8.296875 
L 53.609375 0 
L 7.328125 0 
L 7.328125 8.296875 
Q 12.9375 14.109375 22.625 23.890625 
Q 32.328125 33.6875 34.8125 36.53125 
Q 39.546875 41.84375 41.421875 45.53125 
Q 43.3125 49.21875 43.3125 52.78125 
Q 43.3125 58.59375 39.234375 62.25 
Q 35.15625 65.921875 28.609375 65.921875 
Q 23.96875 65.921875 18.8125 64.3125 
Q 13.671875 62.703125 7.8125 59.421875 
L 7.8125 69.390625 
Q 13.765625 71.78125 18.9375 73 
Q 24.125 74.21875 28.421875 74.21875 
Q 39.75 74.21875 46.484375 68.546875 
Q 53.21875 62.890625 53.21875 53.421875 
Q 53.21875 48.921875 51.53125 44.890625 
Q 49.859375 40.875 45.40625 35.40625 
Q 44.1875 33.984375 37.640625 27.21875 
Q 31.109375 20.453125 19.1875 8.296875 
z
" id="DejaVuSans-50"/>
      </defs>
      <g transform="translate(82.048437 266.598437)scale(0.1 -0.1)">
       <use xlink:href="#DejaVuSans-52"/>
       <use x="63.623047" xlink:href="#DejaVuSans-46"/>
       <use x="95.410156" xlink:href="#DejaVuSans-50"/>
      </g>
     </g>
    </g>
    <g id="text_6">
     <!-- log(Teff) [K] -->
     <defs>
      <path d="M 9.421875 75.984375 
L 18.40625 75.984375 
L 18.40625 0 
L 9.421875 0 
z
" id="DejaVuSans-108"/>
      <path d="M 30.609375 48.390625 
Q 23.390625 48.390625 19.1875 42.75 
Q 14.984375 37.109375 14.984375 27.296875 
Q 14.984375 17.484375 19.15625 11.84375 
Q 23.34375 6.203125 30.609375 6.203125 
Q 37.796875 6.203125 41.984375 11.859375 
Q 46.1875 17.53125 46.1875 27.296875 
Q 46.1875 37.015625 41.984375 42.703125 
Q 37.796875 48.390625 30.609375 48.390625 
z
M 30.609375 56 
Q 42.328125 56 49.015625 48.375 
Q 55.71875 40.765625 55.71875 27.296875 
Q 55.71875 13.875 49.015625 6.21875 
Q 42.328125 -1.421875 30.609375 -1.421875 
Q 18.84375 -1.421875 12.171875 6.21875 
Q 5.515625 13.875 5.515625 27.296875 
Q 5.515625 40.765625 12.171875 48.375 
Q 18.84375 56 30.609375 56 
z
" id="DejaVuSans-111"/>
      <path d="M 45.40625 27.984375 
Q 45.40625 37.75 41.375 43.109375 
Q 37.359375 48.484375 30.078125 48.484375 
Q 22.859375 48.484375 18.828125 43.109375 
Q 14.796875 37.75 14.796875 27.984375 
Q 14.796875 18.265625 18.828125 12.890625 
Q 22.859375 7.515625 30.078125 7.515625 
Q 37.359375 7.515625 41.375 12.890625 
Q 45.40625 18.265625 45.40625 27.984375 
z
M 54.390625 6.78125 
Q 54.390625 -7.171875 48.1875 -13.984375 
Q 42 -20.796875 29.203125 -20.796875 
Q 24.46875 -20.796875 20.265625 -20.09375 
Q 16.0625 -19.390625 12.109375 -17.921875 
L 12.109375 -9.1875 
Q 16.0625 -11.328125 19.921875 -12.34375 
Q 23.78125 -13.375 27.78125 -13.375 
Q 36.625 -13.375 41.015625 -8.765625 
Q 45.40625 -4.15625 45.40625 5.171875 
L 45.40625 9.625 
Q 42.625 4.78125 38.28125 2.390625 
Q 33.9375 0 27.875 0 
Q 17.828125 0 11.671875 7.65625 
Q 5.515625 15.328125 5.515625 27.984375 
Q 5.515625 40.671875 11.671875 48.328125 
Q 17.828125 56 27.875 56 
Q 33.9375 56 38.28125 53.609375 
Q 42.625 51.21875 45.40625 46.390625 
L 45.40625 54.6875 
L 54.390625 54.6875 
z
" id="DejaVuSans-103"/>
      <path d="M 31 75.875 
Q 24.46875 64.65625 21.28125 53.65625 
Q 18.109375 42.671875 18.109375 31.390625 
Q 18.109375 20.125 21.3125 9.0625 
Q 24.515625 -2 31 -13.1875 
L 23.1875 -13.1875 
Q 15.875 -1.703125 12.234375 9.375 
Q 8.59375 20.453125 8.59375 31.390625 
Q 8.59375 42.28125 12.203125 53.3125 
Q 15.828125 64.359375 23.1875 75.875 
z
" id="DejaVuSans-40"/>
      <path d="M -0.296875 72.90625 
L 61.375 72.90625 
L 61.375 64.59375 
L 35.5 64.59375 
L 35.5 0 
L 25.59375 0 
L 25.59375 64.59375 
L -0.296875 64.59375 
z
" id="DejaVuSans-84"/>
      <path d="M 56.203125 29.59375 
L 56.203125 25.203125 
L 14.890625 25.203125 
Q 15.484375 15.921875 20.484375 11.0625 
Q 25.484375 6.203125 34.421875 6.203125 
Q 39.59375 6.203125 44.453125 7.46875 
Q 49.3125 8.734375 54.109375 11.28125 
L 54.109375 2.78125 
Q 49.265625 0.734375 44.1875 -0.34375 
Q 39.109375 -1.421875 33.890625 -1.421875 
Q 20.796875 -1.421875 13.15625 6.1875 
Q 5.515625 13.8125 5.515625 26.8125 
Q 5.515625 40.234375 12.765625 48.109375 
Q 20.015625 56 32.328125 56 
Q 43.359375 56 49.78125 48.890625 
Q 56.203125 41.796875 56.203125 29.59375 
z
M 47.21875 32.234375 
Q 47.125 39.59375 43.09375 43.984375 
Q 39.0625 48.390625 32.421875 48.390625 
Q 24.90625 48.390625 20.390625 44.140625 
Q 15.875 39.890625 15.1875 32.171875 
z
" id="DejaVuSans-101"/>
      <path d="M 37.109375 75.984375 
L 37.109375 68.5 
L 28.515625 68.5 
Q 23.6875 68.5 21.796875 66.546875 
Q 19.921875 64.59375 19.921875 59.515625 
L 19.921875 54.6875 
L 34.71875 54.6875 
L 34.71875 47.703125 
L 19.921875 47.703125 
L 19.921875 0 
L 10.890625 0 
L 10.890625 47.703125 
L 2.296875 47.703125 
L 2.296875 54.6875 
L 10.890625 54.6875 
L 10.890625 58.5 
Q 10.890625 67.625 15.140625 71.796875 
Q 19.390625 75.984375 28.609375 75.984375 
z
" id="DejaVuSans-102"/>
      <path d="M 8.015625 75.875 
L 15.828125 75.875 
Q 23.140625 64.359375 26.78125 53.3125 
Q 30.421875 42.28125 30.421875 31.390625 
Q 30.421875 20.453125 26.78125 9.375 
Q 23.140625 -1.703125 15.828125 -13.1875 
L 8.015625 -13.1875 
Q 14.5 -2 17.703125 9.0625 
Q 20.90625 20.125 20.90625 31.390625 
Q 20.90625 42.671875 17.703125 53.65625 
Q 14.5 64.65625 8.015625 75.875 
z
" id="DejaVuSans-41"/>
      <path id="DejaVuSans-32"/>
      <path d="M 8.59375 75.984375 
L 29.296875 75.984375 
L 29.296875 69 
L 17.578125 69 
L 17.578125 -6.203125 
L 29.296875 -6.203125 
L 29.296875 -13.1875 
L 8.59375 -13.1875 
z
" id="DejaVuSans-91"/>
      <path d="M 9.8125 72.90625 
L 19.671875 72.90625 
L 19.671875 42.09375 
L 52.390625 72.90625 
L 65.09375 72.90625 
L 28.90625 38.921875 
L 67.671875 0 
L 54.6875 0 
L 19.671875 35.109375 
L 19.671875 0 
L 9.8125 0 
z
" id="DejaVuSans-75"/>
      <path d="M 30.421875 75.984375 
L 30.421875 -13.1875 
L 9.71875 -13.1875 
L 9.71875 -6.203125 
L 21.390625 -6.203125 
L 21.390625 69 
L 9.71875 69 
L 9.71875 75.984375 
z
" id="DejaVuSans-93"/>
     </defs>
     <g transform="translate(186.886932 280.276563)scale(0.1 -0.1)">
      <use xlink:href="#DejaVuSans-108"/>
      <use x="27.783203" xlink:href="#DejaVuSans-111"/>
      <use x="88.964844" xlink:href="#DejaVuSans-103"/>
      <use x="152.441406" xlink:href="#DejaVuSans-40"/>
      <use x="191.455078" xlink:href="#DejaVuSans-84"/>
      <use x="252.273438" xlink:href="#DejaVuSans-101"/>
      <use x="313.796875" xlink:href="#DejaVuSans-102"/>
      <use x="349.001953" xlink:href="#DejaVuSans-102"/>
      <use x="384.207031" xlink:href="#DejaVuSans-41"/>
      <use x="423.220703" xlink:href="#DejaVuSans-32"/>
      <use x="455.007812" xlink:href="#DejaVuSans-91"/>
      <use x="494.021484" xlink:href="#DejaVuSans-75"/>
      <use x="559.597656" xlink:href="#DejaVuSans-93"/>
     </g>
    </g>
   </g>
   <g id="matplotlib.axis_2">
    <g id="ytick_1">
     <g id="line2d_6">
      <defs>
       <path d="M 0 0 
L -3.5 0 
" id="m0f18d0a1b0" style="stroke:#000000;stroke-width:0.8;"/>
      </defs>
      <g>
       <use style="stroke:#000000;stroke-width:0.8;" x="90" xlink:href="#m0f18d0a1b0" y="252"/>
      </g>
     </g>
     <g id="text_7">
      <!-- −0.5 -->
      <defs>
       <path d="M 10.59375 35.5 
L 73.1875 35.5 
L 73.1875 27.203125 
L 10.59375 27.203125 
z
" id="DejaVuSans-8722"/>
       <path d="M 10.796875 72.90625 
L 49.515625 72.90625 
L 49.515625 64.59375 
L 19.828125 64.59375 
L 19.828125 46.734375 
Q 21.96875 47.46875 24.109375 47.828125 
Q 26.265625 48.1875 28.421875 48.1875 
Q 40.625 48.1875 47.75 41.5 
Q 54.890625 34.8125 54.890625 23.390625 
Q 54.890625 11.625 47.5625 5.09375 
Q 40.234375 -1.421875 26.90625 -1.421875 
Q 22.3125 -1.421875 17.546875 -0.640625 
Q 12.796875 0.140625 7.71875 1.703125 
L 7.71875 11.625 
Q 12.109375 9.234375 16.796875 8.0625 
Q 21.484375 6.890625 26.703125 6.890625 
Q 35.15625 6.890625 40.078125 11.328125 
Q 45.015625 15.765625 45.015625 23.390625 
Q 45.015625 31 40.078125 35.4375 
Q 35.15625 39.890625 26.703125 39.890625 
Q 22.75 39.890625 18.8125 39.015625 
Q 14.890625 38.140625 10.796875 36.28125 
z
" id="DejaVuSans-53"/>
      </defs>
      <g transform="translate(58.717187 255.799219)scale(0.1 -0.1)">
       <use xlink:href="#DejaVuSans-8722"/>
       <use x="83.789062" xlink:href="#DejaVuSans-48"/>
       <use x="147.412109" xlink:href="#DejaVuSans-46"/>
       <use x="179.199219" xlink:href="#DejaVuSans-53"/>
      </g>
     </g>
    </g>
    <g id="ytick_2">
     <g id="line2d_7">
      <g>
       <use style="stroke:#000000;stroke-width:0.8;" x="90" xlink:href="#m0f18d0a1b0" y="227.84"/>
      </g>
     </g>
     <g id="text_8">
      <!-- 0.0 -->
      <g transform="translate(67.096875 231.639219)scale(0.1 -0.1)">
       <use xlink:href="#DejaVuSans-48"/>
       <use x="63.623047" xlink:href="#DejaVuSans-46"/>
       <use x="95.410156" xlink:href="#DejaVuSans-48"/>
      </g>
     </g>
    </g>
    <g id="ytick_3">
     <g id="line2d_8">
      <g>
       <use style="stroke:#000000;stroke-width:0.8;" x="90" xlink:href="#m0f18d0a1b0" y="203.68"/>
      </g>
     </g>
     <g id="text_9">
      <!-- 0.5 -->
      <g transform="translate(67.096875 207.479219)scale(0.1 -0.1)">
       <use xlink:href="#DejaVuSans-48"/>
       <use x="63.623047" xlink:href="#DejaVuSans-46"/>
       <use x="95.410156" xlink:href="#DejaVuSans-53"/>
      </g>
     </g>
    </g>
    <g id="ytick_4">
     <g id="line2d_9">
      <g>
       <use style="stroke:#000000;stroke-width:0.8;" x="90" xlink:href="#m0f18d0a1b0" y="179.52"/>
      </g>
     </g>
     <g id="text_10">
      <!-- 1.0 -->
      <defs>
       <path d="M 12.40625 8.296875 
L 28.515625 8.296875 
L 28.515625 63.921875 
L 10.984375 60.40625 
L 10.984375 69.390625 
L 28.421875 72.90625 
L 38.28125 72.90625 
L 38.28125 8.296875 
L 54.390625 8.296875 
L 54.390625 0 
L 12.40625 0 
z
" id="DejaVuSans-49"/>
      </defs>
      <g transform="translate(67.096875 183.319219)scale(0.1 -0.1)">
       <use xlink:href="#DejaVuSans-49"/>
       <use x="63.623047" xlink:href="#DejaVuSans-46"/>
       <use x="95.410156" xlink:href="#DejaVuSans-48"/>
      </g>
     </g>
    </g>
    <g id="ytick_5">
     <g id="line2d_10">
      <g>
       <use style="stroke:#000000;stroke-width:0.8;" x="90" xlink:href="#m0f18d0a1b0" y="155.36"/>
      </g>
     </g>
     <g id="text_11">
      <!-- 1.5 -->
      <g transform="translate(67.096875 159.159219)scale(0.1 -0.1)">
       <use xlink:href="#DejaVuSans-49"/>
       <use x="63.623047" xlink:href="#DejaVuSans-46"/>
       <use x="95.410156" xlink:href="#DejaVuSans-53"/>
      </g>
     </g>
    </g>
    <g id="ytick_6">
     <g id="line2d_11">
      <g>
       <use style="stroke:#000000;stroke-width:0.8;" x="90" xlink:href="#m0f18d0a1b0" y="131.2"/>
      </g>
     </g>
     <g id="text_12">
      <!-- 2.0 -->
      <g transform="translate(67.096875 134.999219)scale(0.1 -0.1)">
       <use xlink:href="#DejaVuSans-50"/>
       <use x="63.623047" xlink:href="#DejaVuSans-46"/>
       <use x="95.410156" xlink:href="#DejaVuSans-48"/>
      </g>
     </g>
    </g>
    <g id="ytick_7">
     <g id="line2d_12">
      <g>
       <use style="stroke:#000000;stroke-width:0.8;" x="90" xlink:href="#m0f18d0a1b0" y="107.04"/>
      </g>
     </g>
     <g id="text_13">
      <!-- 2.5 -->
      <g transform="translate(67.096875 110.839219)scale(0.1 -0.1)">
       <use xlink:href="#DejaVuSans-50"/>
       <use x="63.623047" xlink:href="#DejaVuSans-46"/>
       <use x="95.410156" xlink:href="#DejaVuSans-53"/>
      </g>
     </g>
    </g>
    <g id="ytick_8">
     <g id="line2d_13">
      <g>
       <use style="stroke:#000000;stroke-width:0.8;" x="90" xlink:href="#m0f18d0a1b0" y="82.88"/>
      </g>
     </g>
     <g id="text_14">
      <!-- 3.0 -->
      <g transform="translate(67.096875 86.679219)scale(0.1 -0.1)">
       <use xlink:href="#DejaVuSans-51"/>
       <use x="63.623047" xlink:href="#DejaVuSans-46"/>
       <use x="95.410156" xlink:href="#DejaVuSans-48"/>
      </g>
     </g>
    </g>
    <g id="ytick_9">
     <g id="line2d_14">
      <g>
       <use style="stroke:#000000;stroke-width:0.8;" x="90" xlink:href="#m0f18d0a1b0" y="58.72"/>
      </g>
     </g>
     <g id="text_15">
      <!-- 3.5 -->
      <g transform="translate(67.096875 62.519219)scale(0.1 -0.1)">
       <use xlink:href="#DejaVuSans-51"/>
       <use x="63.623047" xlink:href="#DejaVuSans-46"/>
       <use x="95.410156" xlink:href="#DejaVuSans-53"/>
      </g>
     </g>
    </g>
    <g id="ytick_10">
     <g id="line2d_15">
      <g>
       <use style="stroke:#000000;stroke-width:0.8;" x="90" xlink:href="#m0f18d0a1b0" y="34.56"/>
      </g>
     </g>
     <g id="text_16">
      <!-- 4.0 -->
      <g transform="translate(67.096875 38.359219)scale(0.1 -0.1)">
       <use xlink:href="#DejaVuSans-52"/>
       <use x="63.623047" xlink:href="#DejaVuSans-46"/>
       <use x="95.410156" xlink:href="#DejaVuSans-48"/>
      </g>
     </g>
    </g>
    <g id="text_17">
     <!-- log(L) [Lsol] -->
     <defs>
      <path d="M 9.8125 72.90625 
L 19.671875 72.90625 
L 19.671875 8.296875 
L 55.171875 8.296875 
L 55.171875 0 
L 9.8125 0 
z
" id="DejaVuSans-76"/>
      <path d="M 44.28125 53.078125 
L 44.28125 44.578125 
Q 40.484375 46.53125 36.375 47.5 
Q 32.28125 48.484375 27.875 48.484375 
Q 21.1875 48.484375 17.84375 46.4375 
Q 14.5 44.390625 14.5 40.28125 
Q 14.5 37.15625 16.890625 35.375 
Q 19.28125 33.59375 26.515625 31.984375 
L 29.59375 31.296875 
Q 39.15625 29.25 43.1875 25.515625 
Q 47.21875 21.78125 47.21875 15.09375 
Q 47.21875 7.46875 41.1875 3.015625 
Q 35.15625 -1.421875 24.609375 -1.421875 
Q 20.21875 -1.421875 15.453125 -0.5625 
Q 10.6875 0.296875 5.421875 2 
L 5.421875 11.28125 
Q 10.40625 8.6875 15.234375 7.390625 
Q 20.0625 6.109375 24.8125 6.109375 
Q 31.15625 6.109375 34.5625 8.28125 
Q 37.984375 10.453125 37.984375 14.40625 
Q 37.984375 18.0625 35.515625 20.015625 
Q 33.0625 21.96875 24.703125 23.78125 
L 21.578125 24.515625 
Q 13.234375 26.265625 9.515625 29.90625 
Q 5.8125 33.546875 5.8125 39.890625 
Q 5.8125 47.609375 11.28125 51.796875 
Q 16.75 56 26.8125 56 
Q 31.78125 56 36.171875 55.265625 
Q 40.578125 54.546875 44.28125 53.078125 
z
" id="DejaVuSans-115"/>
     </defs>
     <g transform="translate(52.6375 172.919844)rotate(-90)scale(0.1 -0.1)">
      <use xlink:href="#DejaVuSans-108"/>
      <use x="27.783203" xlink:href="#DejaVuSans-111"/>
      <use x="88.964844" xlink:href="#DejaVuSans-103"/>
      <use x="152.441406" xlink:href="#DejaVuSans-40"/>
      <use x="191.455078" xlink:href="#DejaVuSans-76"/>
      <use x="247.167969" xlink:href="#DejaVuSans-41"/>
      <use x="286.181641" xlink:href="#DejaVuSans-32"/>
      <use x="317.96875" xlink:href="#DejaVuSans-91"/>
      <use x="356.982422" xlink:href="#DejaVuSans-76"/>
      <use x="412.695312" xlink:href="#DejaVuSans-115"/>
      <use x="464.794922" xlink:href="#DejaVuSans-111"/>
      <use x="525.976562" xlink:href="#DejaVuSans-108"/>
      <use x="553.759766" xlink:href="#DejaVuSans-93"/>
     </g>
    </g>
   </g>
   <g id="line2d_16">
    <path clip-path="url(#pb1891d0f11)" d="M 276.671076 143.391559 
L 273.191091 152.283819 
L 271.36412 157.500485 
L 269.132897 164.690795 
L 267.39583 171.225262 
L 266.261378 176.214912 
L 265.029219 182.972344 
L 264.186328 189.464221 
L 263.757922 194.684083 
L 263.575546 200.526383 
L 263.656419 205.401453 
L 263.992267 210.232226 
L 264.659085 215.828816 
L 265.506272 220.639434 
L 266.357604 224.635397 
L 269.125762 236.643575 
L 269.338714 238.542706 
L 269.315451 240.234533 
L 269.130484 241.220013 
L 268.781461 242.070278 
L 268.221321 242.752696 
L 267.409515 243.237568 
L 266.295056 243.487299 
L 264.820646 243.459821 
L 262.936957 243.117483 
L 260.61374 242.432865 
L 257.837929 241.387473 
L 254.643367 239.992221 
L 251.057415 238.246526 
L 245.078636 235.026797 
L 238.63854 231.239204 
L 234.246192 228.609478 
L 232.090184 227.450032 
L 230.118205 226.740034 
L 228.787011 227.065752 
L 228.42386 228.41523 
L 228.674185 230.090417 
L 229.205131 231.649526 
L 230.209071 233.522424 
L 230.71909 233.99934 
L 230.761316 233.87373 
L 230.581144 233.592029 
L 230.045146 232.843196 
L 228.712631 229.881891 
L 227.726936 227.263658 
L 227.064635 224.867897 
L 226.657007 222.623545 
L 226.501615 220.690025 
L 226.590402 219.578354 
L 227.472263 215.290689 
L 228.065439 213.884641 
L 228.80724 212.684917 
L 229.837661 211.518337 
L 230.896195 210.700656 
L 231.916273 210.150665 
L 233.565194 209.570046 
L 235.451676 209.231663 
L 237.540017 209.13015 
L 244.72111 209.289827 
L 245.965781 209.142985 
L 247.161841 208.855067 
L 248.266611 208.396557 
L 249.234884 207.766423 
L 250.044776 206.989891 
L 250.703796 206.104499 
L 251.247271 205.147088 
L 252.044849 203.094134 
L 252.622369 200.943575 
L 253.275303 197.626069 
L 255.240845 186.283066 
L 256.723137 179.413959 
L 258.185818 173.688437 
L 260.190512 166.830162 
L 262.439474 159.997994 
L 263.212856 157.743669 
L 262.968927 158.058671 
L 262.486894 159.18208 
L 262.458847 159.032792 
L 264.578448 153.349092 
L 267.807819 145.420905 
L 271.287959 137.53099 
L 275.609101 128.573902 
L 279.658411 120.786375 
L 283.938877 113.046586 
L 289.101703 104.270662 
L 294.508281 95.564371 
L 300.825544 85.840055 
L 307.391932 76.188135 
L 311.988491 69.824938 
L 315.181218 65.649511 
L 315.997033 64.623581 
L 309.879882 72.167992 
L 303.617725 80.469278 
L 297.548566 88.833028 
L 291.612751 97.231752 
L 285.835835 105.67331 
L 280.237034 114.159619 
L 274.820503 122.690102 
L 269.556694 131.257902 
L 264.569236 139.886884 
L 260.772676 148.726455 
L 265.12324 141.327611 
L 269.739319 132.618493 
L 274.608534 123.962414 
L 273.753608 125.002009 
L 268.606747 133.59271 
L 265.754387 139.137262 
L 270.523524 130.509788 
L 266.740231 136.526441 
L 263.196773 143.119245 
L 265.687859 138.129338 
L 260.526075 146.662433 
L 261.31598 144.573407 
L 261.577503 144.924965 
L 259.781623 147.638249 
L 260.039589 146.980656 
L 259.963299 147.086516 
L 259.637446 147.62063 
L 260.145597 146.836549 
L 260.180492 146.513552 
L 259.269055 147.147502 
L 258.533948 147.442835 
L 258.756111 146.80651 
L 274.8707 121.213889 
L 274.491073 121.808575 
L 271.87095 125.923448 
L 286.3588 103.718186 
L 291.261086 96.603445 
L 295.901743 90.027893 
L 304.787834 77.76025 
L 304.015611 78.896914 
L 311.013251 69.732107 
L 315.183204 64.721862 
L 317.818289 61.951792 
L 318.541742 61.294887 
L 319.012642 61.050567 
L 311.457575 69.932914 
L 304.744948 78.65579 
L 299.95398 85.265627 
L 305.936781 77.197985 
L 315.014934 65.602691 
L 316.827723 63.462358 
L 319.370295 60.64885 
L 323.468253 56.528881 
L 327.092571 53.176028 
L 332.353315 48.558916 
L 330.76784 50.113156 
L 322.773654 57.470149 
L 318.096735 62.312574 
L 315.587678 65.136222 
L 313.725817 67.331821 
L 318.002267 62.351528 
L 320.615634 59.562321 
L 324.783535 55.468342 
L 329.201678 51.47288 
L 332.220493 48.840175 
L 331.209007 49.849831 
L 326.070864 54.516898 
L 323.900191 56.529642 
L 319.147803 61.383622 
L 315.396319 65.624679 
L 311.297019 70.660002 
L 307.930089 75.017633 
L 305.687444 77.923596 
L 303.236786 81.088477 
L 312.820055 68.755987 
L 314.538853 66.805664 
L 314.935204 66.468724 
L 317.567111 63.692406 
L 318.242701 63.099293 
L 315.795117 65.942043 
L 312.337869 70.037217 
L 303.361083 81.660268 
L 301.20521 84.590608 
L 299.375393 87.230985 
L 304.245035 80.640628 
L 311.470307 71.174881 
L 316.19115 65.430975 
L 320.024063 61.217587 
L 322.021396 59.139332 
L 327.77225 53.756741 
L 333.642691 48.421349 
L 331.639883 50.419738 
L 328.025859 53.775568 
L 322.31588 59.174579 
L 323.746791 57.7626 
L 319.337041 62.278157 
L 315.555812 66.509325 
L 310.826876 72.250466 
L 307.637994 76.275161 
L 313.989905 68.337404 
L 317.107692 64.802612 
L 320.510159 61.384201 
L 321.968655 60.140598 
L 321.969159 60.368699 
L 318.870516 63.606732 
L 313.319056 69.990742 
L 307.549992 77.209348 
L 300.989885 85.976333 
L 300.858493 86.197555 
L 301.417371 85.470279 
L 314.923613 68.04387 
L 319.272928 63.087152 
L 323.277215 58.932768 
L 326.798889 55.539516 
L 330.998179 51.457309 
L 334.211616 47.952875 
L 335.387406 46.516791 
L 331.459245 51.019456 
L 326.034557 56.524825 
L 322.404875 60.151666 
L 318.460296 64.326855 
L 313.544598 70.009745 
L 310.017874 74.321667 
L 317.314427 65.564272 
L 322.205238 59.982215 
L 322.597521 59.274978 
L 322.630593 58.560673 
L 321.885006 58.026612 
L 320.691773 57.737069 
L 319.404651 57.571878 
L 314.208719 57.356718 
L 295.969906 57.267532 
L 220.402258 57.209695 
L 150.044681 57.39223 
L 51.021598 57.5603 
L -1 57.795372 
L -1 57.795372 
" style="fill:none;stroke:#1f77b4;stroke-linecap:square;stroke-width:1.5;"/>
   </g>
   <g id="line2d_17">
    <path clip-path="url(#pb1891d0f11)" d="M 231.195376 210.519149 
L 232.708849 209.83255 
L 234.479558 209.369302 
L 236.474016 209.154991 
L 238.658388 209.151639 
L 244.72111 209.289827 
L 245.965781 209.142985 
L 247.161841 208.855067 
L 248.266611 208.396557 
L 249.234884 207.766423 
L 250.044776 206.989891 
L 250.703796 206.104499 
L 251.247271 205.147088 
L 252.044849 203.094134 
L 252.622369 200.943575 
L 253.275303 197.626069 
L 255.240845 186.283066 
L 256.723137 179.413959 
L 258.185818 173.688437 
L 260.190512 166.830162 
L 262.439474 159.997994 
L 263.212856 157.743669 
L 262.968927 158.058671 
L 262.486894 159.18208 
L 262.458847 159.032792 
L 264.578448 153.349092 
L 267.807819 145.420905 
L 271.287959 137.53099 
L 275.609101 128.573902 
L 279.658411 120.786375 
L 283.938877 113.046586 
L 289.101703 104.270662 
L 294.508281 95.564371 
L 300.825544 85.840055 
L 307.391932 76.188135 
L 311.988491 69.824938 
L 315.181218 65.649511 
L 315.997033 64.623581 
L 315.997033 64.623581 
" style="fill:none;stroke:#ff0000;stroke-linecap:square;stroke-width:1.5;"/>
   </g>
   <g id="line2d_18">
    <path clip-path="url(#pb1891d0f11)" d="M 274.698002 113.717176 
L 274.276206 114.431877 
L 266.360273 130.50232 
L 261.02597 142.828698 
L 256.17128 155.858786 
L 252.913133 166.327292 
L 251.688395 170.838015 
L 250.442062 175.959272 
L 247.556859 188.795363 
L 246.799329 191.057317 
L 246.09481 192.549814 
L 245.235533 193.812939 
L 244.528423 194.476232 
L 243.693952 194.962944 
L 242.697976 195.221665 
L 241.481846 195.179186 
L 240.039901 194.770311 
L 238.303332 193.860519 
L 236.243779 192.301572 
L 233.827098 189.916954 
L 231.086787 186.660364 
L 226.448469 180.852531 
L 224.712738 178.897753 
L 222.83145 176.969643 
L 220.774785 175.069182 
L 218.4978 173.204179 
L 215.960335 171.390364 
L 213.078648 169.664515 
L 209.817593 168.06609 
L 206.094833 166.665647 
L 202.109547 165.410574 
L 193.782334 163.164319 
L 189.527954 162.147124 
L 185.21522 161.231788 
L 180.841041 160.477928 
L 176.433066 160.056276 
L 172.71635 160.854676 
L 172.35574 163.365305 
L 173.609748 166.008382 
L 175.371941 168.540604 
L 177.162512 170.768768 
L 176.576449 170.900016 
L 170.748143 167.951493 
L 167.344373 166.436963 
L 163.825399 165.127913 
L 160.532978 164.51665 
L 159.119932 165.417559 
L 159.632425 166.866937 
L 160.570626 167.974509 
L 162.614762 167.138573 
L 165.835366 165.625025 
L 169.986721 163.770409 
L 172.790595 162.777591 
L 175.445355 162.016375 
L 178.968082 161.215373 
L 186.809939 160.086208 
L 191.552387 159.696886 
L 200.12451 159.108219 
L 201.007883 158.837053 
L 200.985147 158.600592 
L 200.542877 158.330886 
L 199.155219 157.83095 
L 194.347078 156.485631 
L 188.744201 154.835675 
L 185.030695 153.533301 
L 182.167344 152.523783 
L 182.496596 152.873301 
L 183.419781 153.511718 
L 184.654322 154.146639 
L 186.132194 154.564229 
L 186.930998 154.61303 
L 188.45476 154.330961 
L 191.33267 153.470194 
L 193.65127 153.121763 
L 196.834733 152.918979 
L 201.461751 152.923161 
L 207.094337 153.159269 
L 212.791163 153.616067 
L 217.014085 154.157938 
L 219.716852 154.684545 
L 222.322039 155.361615 
L 224.806943 156.206736 
L 227.141448 157.225953 
L 229.301634 158.40976 
L 231.296094 159.726828 
L 234.034164 161.873134 
L 238.378761 165.570205 
L 240.358793 166.878155 
L 241.507463 167.373134 
L 242.79004 167.596853 
L 244.044441 167.390176 
L 245.069432 166.845023 
L 245.884506 166.140372 
L 247.132297 164.544748 
L 248.569737 161.994522 
L 250.157933 158.492207 
L 259.955228 135.217136 
L 263.35145 128.038393 
L 267.337947 120.021066 
L 267.744539 119.224387 
L 260.885041 132.739928 
L 262.839521 128.617239 
L 268.769616 116.834703 
L 273.630771 107.811976 
L 278.744504 98.837041 
L 281.77786 93.775443 
L 279.34287 97.657946 
L 274.552473 105.590626 
L 268.493073 116.267576 
L 262.733981 127.0096 
L 258.551862 135.075172 
L 257.399008 137.813888 
L 255.939452 140.486625 
L 253.394283 145.92693 
L 250.781887 151.385342 
L 251.022621 151.032378 
L 251.840711 149.436217 
L 251.776368 149.175076 
L 251.578579 148.611483 
L 251.523614 145.726363 
L 251.695239 144.942544 
L 252.028327 144.199808 
L 254.727833 139.707691 
L 254.515441 140.061438 
L 255.668714 138.112481 
L 260.090222 130.061227 
L 269.85799 112.020181 
L 276.671052 100.411957 
L 280.463623 94.280059 
L 283.948275 88.768857 
L 293.224353 74.698301 
L 294.980013 72.143251 
L 288.098547 82.30795 
L 288.165876 82.279195 
L 295.278946 71.755381 
L 302.599351 61.284283 
L 305.634796 57.065038 
L 296.414516 70.104545 
L 292.813765 75.353596 
L 302.008651 62.124305 
L 305.729461 56.904926 
L 296.078083 70.606339 
L 288.929408 81.112882 
L 285.977246 85.525876 
L 294.674533 72.584545 
L 288.891093 81.074012 
L 301.723721 62.499263 
L 307.326052 54.675662 
L 295.851289 70.909525 
L 288.686127 81.411693 
L 303.119971 60.516942 
L 308.762581 52.703966 
L 295.882833 70.847677 
L 290.116615 79.235661 
L 303.910711 59.409063 
L 310.237393 50.741998 
L 296.503613 69.947327 
L 291.082766 77.811157 
L 303.92682 59.417575 
L 309.580917 51.607674 
L 311.523365 49.020394 
L 307.46679 54.519346 
L 299.477145 65.710017 
L 292.205592 76.184267 
L 306.044683 56.50537 
L 311.813003 48.726795 
L 313.522783 46.522709 
L 309.595079 51.682716 
L 302.548249 61.439548 
L 297.020911 69.276682 
L 293.391017 74.513409 
L 301.044069 63.506273 
L 306.41497 56.083757 
L 297.457727 68.691758 
L 295.659174 71.317109 
L 301.684427 62.717459 
L 309.179585 52.292443 
L 314.336235 45.621064 
L 308.451505 53.366021 
L 302.832664 61.183652 
L 293.854553 73.926231 
L 307.150435 55.25813 
L 298.129032 67.90197 
L 296.340136 70.529183 
L 301.299065 63.433864 
L 308.772572 53.003073 
L 312.689065 47.837042 
L 315.068213 44.9002 
L 311.066839 50.041479 
L 307.234154 55.228892 
L 295.81821 71.255158 
L 308.893003 53.019665 
L 300.421374 64.902527 
L 297.918573 68.500031 
L 305.317862 58.04946 
L 311.036541 50.257111 
L 315.048926 45.118524 
L 317.159846 42.580848 
L 315.217502 44.980173 
L 311.200557 50.117325 
L 305.482373 57.908302 
L 298.049973 68.34767 
L 296.214804 70.960563 
L 307.341332 55.299927 
L 309.296425 52.72223 
L 309.46661 52.751665 
L 304.053965 60.173127 
L 298.543724 67.964036 
L 309.737145 52.313201 
L 315.752769 44.604486 
L 317.893125 42.07576 
L 314.96035 45.688021 
L 310.937506 50.822858 
L 303.385899 61.229096 
L 297.791741 69.05345 
L 310.634608 51.368116 
L 310.807244 51.448467 
L 305.33763 58.867538 
L 299.883366 66.548073 
L 309.236535 53.512454 
L 313.162987 48.349399 
L 317.302865 43.248864 
L 319.502413 40.739087 
L 316.283232 44.570617 
L 312.205852 49.689604 
L 306.428091 57.464587 
L 299.24438 67.479162 
L 308.631103 54.4584 
L 310.584667 51.877116 
L 312.723804 49.360497 
L 311.756719 50.934932 
L 306.239489 58.344404 
L 301.762467 64.593738 
L 311.211388 51.584134 
L 315.229429 46.447064 
L 319.542782 41.400166 
L 321.725857 39.115387 
L 319.475853 41.608519 
L 317.268735 44.115915 
L 313.158479 49.224615 
L 307.320505 56.982966 
L 301.687378 64.798191 
L 309.797303 53.620034 
L 311.79864 51.052713 
L 313.976076 48.54584 
L 314.341683 48.693873 
L 308.683427 56.105439 
L 303.005809 63.906072 
L 312.196264 51.375487 
L 316.270793 46.255062 
L 320.678442 41.238479 
L 323.058549 38.790851 
L 322.169309 39.824337 
L 317.649091 44.802688 
L 313.500973 49.900054 
L 307.649323 57.653933 
L 304.883682 61.403592 
L 310.642111 53.624839 
L 312.650508 51.058721 
L 314.65801 48.724892 
L 316.155074 47.275648 
L 317.141895 46.643316 
L 316.112739 48.20348 
L 312.066441 53.293128 
L 308.15059 58.458415 
L 305.145934 62.561387 
L 310.86472 54.769077 
L 314.879896 49.631325 
L 316.962664 47.084823 
L 321.45054 42.094744 
L 323.85795 39.656958 
L 326.382387 37.268528 
L 325.119048 38.716331 
L 320.34239 43.604068 
L 316.023375 48.648955 
L 311.946835 53.768781 
L 308.060125 58.941868 
L 313.362871 52.026756 
L 315.490853 49.498008 
L 317.53293 47.407105 
L 319.550432 45.944897 
L 320.773965 45.968895 
L 312.513313 55.807949 
L 308.211815 61.429507 
L 316.181642 51.137728 
L 320.59971 46.12514 
L 322.974021 43.675156 
L 328.017052 38.886486 
L 330.649693 36.561542 
L 330.293571 37.209981 
L 325.253534 42.000082 
L 320.527378 46.907603 
L 316.138637 51.930276 
L 312.04624 57.04462 
L 316.512223 51.616022 
L 318.808732 49.141483 
L 321.433352 46.836641 
L 324.261886 45.344499 
L 327.399262 44.706695 
L 329.485755 45.795368 
L 327.326765 47.991421 
L 322.288919 52.779376 
L 317.613053 57.704185 
L 313.346357 62.765771 
L 315.382938 60.141417 
L 319.70054 55.095899 
L 324.494628 50.212829 
L 332.271833 43.113898 
L 337.374322 38.348294 
L 339.812154 35.922079 
L 341.066327 34.929608 
L 339.09348 37.507715 
L 334.666695 42.516475 
L 329.914113 47.41395 
L 322.535214 54.668209 
L 317.925266 59.616511 
L 320.946494 56.415943 
L 323.417377 54.004892 
L 326.051028 51.66531 
L 331.648198 47.373072 
L 327.555981 46.765956 
L 305.215937 46.585906 
L 257.740548 46.578392 
L 255.292737 45.905919 
L 254.99842 46.212663 
L 253.62244 46.570167 
L 250.82864 46.577879 
L 248.096215 46.367482 
L 247.382971 46.557376 
L 236.218406 46.600419 
L 220.541054 46.624639 
L 192.652327 46.690779 
L 178.685908 46.772332 
L 156.33791 46.899376 
L 36.202915 46.926203 
L -1 47.06181 
L -1 47.06181 
" style="fill:none;stroke:#1f77b4;stroke-linecap:square;stroke-width:1.5;"/>
   </g>
   <g id="line2d_19">
    <path clip-path="url(#pb1891d0f11)" d="M 200.078497 152.897637 
L 205.673982 153.082004 
L 211.367402 153.478019 
L 215.622434 153.950389 
L 218.378013 154.40278 
L 221.032881 155.001653 
L 223.583162 155.760878 
L 225.993878 156.695755 
L 228.241453 157.800403 
L 230.319262 159.053555 
L 232.238424 160.424004 
L 234.898773 162.615884 
L 238.378761 165.570205 
L 240.358793 166.878155 
L 241.507463 167.373134 
L 242.79004 167.596853 
L 244.044441 167.390176 
L 245.069432 166.845023 
L 245.884506 166.140372 
L 247.132297 164.544748 
L 248.569737 161.994522 
L 250.157933 158.492207 
L 259.955228 135.217136 
L 263.35145 128.038393 
L 267.337947 120.021066 
L 267.744539 119.224387 
L 260.885041 132.739928 
L 262.839521 128.617239 
L 268.769616 116.834703 
L 273.630771 107.811976 
L 278.744504 98.837041 
L 281.77786 93.775443 
L 281.77786 93.775443 
" style="fill:none;stroke:#ff0000;stroke-linecap:square;stroke-width:1.5;"/>
   </g>
   <g id="line2d_20">
    <path clip-path="url(#pb1891d0f11)" d="M 275.600926 97.886881 
L 274.613824 97.537531 
L 274.356802 97.618645 
L 271.585704 102.567056 
L 268.762098 107.815254 
L 266.642304 111.876251 
L 265.363705 114.32224 
L 257.104814 131.657745 
L 254.63269 137.360175 
L 251.942729 143.9573 
L 245.084144 161.767317 
L 242.898762 165.916844 
L 241.924822 167.104643 
L 241.187794 167.716431 
L 240.370394 168.141144 
L 239.42337 168.298596 
L 238.307451 168.086179 
L 237.673 167.797268 
L 236.974839 167.349934 
L 236.181898 166.703323 
L 234.363151 164.742581 
L 228.146971 156.85815 
L 226.570272 155.230925 
L 224.829111 153.600505 
L 222.883128 151.959235 
L 220.690154 150.312538 
L 218.183233 148.683867 
L 215.296233 147.113201 
L 211.946659 145.666928 
L 204.604095 142.987424 
L 193.034705 139.158761 
L 181.107941 135.508641 
L 172.984003 133.187994 
L 164.714064 131.015806 
L 156.306724 129.003718 
L 147.744962 127.227723 
L 143.393914 126.488416 
L 138.989622 125.93235 
L 134.600975 125.844481 
L 131.96055 127.508794 
L 132.57093 130.153211 
L 134.120743 132.737982 
L 135.926867 135.185678 
L 136.346848 136.561386 
L 130.061313 133.753341 
L 126.492508 132.191162 
L 122.793618 130.759008 
L 118.980358 129.738349 
L 116.478656 130.422995 
L 117.333839 132.500573 
L 118.785469 134.191838 
L 119.779208 134.954386 
L 120.525083 134.921434 
L 121.794869 134.634996 
L 123.012988 134.145819 
L 124.486274 133.316638 
L 130.423323 129.711002 
L 132.66174 128.678765 
L 135.132295 127.689466 
L 138.494711 126.612699 
L 142.204899 125.679347 
L 146.004003 124.936373 
L 153.212963 123.927475 
L 161.326901 122.92836 
L 161.820566 122.767921 
L 162.044603 122.547707 
L 161.806406 122.284987 
L 160.54003 121.815501 
L 156.629106 120.847319 
L 150.265276 119.274027 
L 145.893096 117.924359 
L 143.767405 117.30932 
L 144.125098 117.65241 
L 145.589995 118.557237 
L 146.879851 119.139619 
L 148.355881 119.545133 
L 149.947555 119.594216 
L 151.461777 119.276149 
L 155.065972 118.179725 
L 157.374414 117.766627 
L 160.553768 117.451618 
L 164.110617 117.302027 
L 169.048137 117.311136 
L 175.086734 117.525559 
L 183.280749 118.057074 
L 191.572905 118.807692 
L 201.997426 119.996601 
L 213.467737 121.58809 
L 221.760009 122.951507 
L 226.821655 124.031233 
L 229.703082 124.884807 
L 232.335193 125.983321 
L 234.741442 127.256604 
L 236.916082 128.676688 
L 239.548285 130.710148 
L 242.125649 132.75948 
L 243.579003 133.680776 
L 244.409254 134.05775 
L 245.337043 134.31698 
L 246.33715 134.366679 
L 247.289919 134.167014 
L 248.122204 133.800437 
L 249.478823 132.834664 
L 250.571985 131.734919 
L 251.965032 129.999399 
L 253.608277 127.645594 
L 256.187031 123.536688 
L 259.208468 118.217491 
L 262.751103 111.648246 
L 265.880923 105.631788 
L 268.852827 100.20326 
L 270.084369 98.023568 
L 266.808649 103.649881 
L 261.271392 113.566223 
L 257.779972 119.976522 
L 255.365371 124.231331 
L 253.559856 127.017917 
L 252.489103 128.360335 
L 251.875951 129.002376 
L 251.149635 129.591789 
L 250.203104 130.017045 
L 249.32414 129.975267 
L 249.541696 129.595929 
L 249.526208 127.954246 
L 249.537032 127.093269 
L 249.585122 125.75683 
L 249.782431 125.411856 
L 249.924586 124.532995 
L 250.096181 124.183256 
L 251.171561 123.489982 
L 252.087407 123.068904 
L 254.258579 121.6446 
L 255.79792 120.01454 
L 257.535251 117.69902 
L 259.533459 114.61898 
L 262.648429 109.302617 
L 262.739159 109.116043 
L 262.094061 110.213347 
L 260.431613 113.030249 
L 276.302422 86.48134 
L 281.639292 78.14021 
L 288.154348 68.28367 
L 298.046546 53.920005 
L 310.020926 37.215268 
L 297.107781 55.370976 
L 295.212164 58.036294 
L 301.808268 48.657725 
L 299.581211 51.87735 
L 307.990004 40.027831 
L 312.035497 34.597347 
L 305.250357 43.9262 
L 296.990407 55.64452 
L 296.412445 56.415917 
L 298.041945 54.065999 
L 306.383462 42.372983 
L 306.667923 42.076036 
L 300.985665 50.069764 
L 311.362988 35.637661 
L 313.129381 33.324406 
L 309.300625 38.531431 
L 301.752617 49.046748 
L 300.101994 51.390507 
L 305.332571 43.990363 
L 307.941505 40.519635 
L 307.731941 40.922151 
L 302.036063 48.901053 
L 311.041814 36.379212 
L 314.5931 31.758366 
L 312.137766 35.059671 
L 308.720251 39.71747 
L 303.656914 46.718981 
L 301.456126 49.853191 
L 308.178688 40.511951 
L 309.083748 39.367872 
L 309.407078 39.17932 
L 303.667822 47.121119 
L 312.194457 35.387154 
L 314.873047 31.925648 
L 315.821318 30.788612 
L 315.751629 31.015065 
L 309.635213 39.129399 
L 306.283725 43.803901 
L 302.950761 48.470061 
L 310.254141 38.545669 
L 310.851146 38.084989 
L 305.023305 46.10927 
L 314.462299 33.310316 
L 317.287609 29.892976 
L 316.922693 30.462248 
L 311.612822 37.398484 
L 305.668831 45.55666 
L 304.464736 47.225814 
L 310.45058 39.078973 
L 311.387051 37.942139 
L 312.420713 36.966373 
L 311.113573 38.919644 
L 306.131128 45.702035 
L 315.656866 32.927177 
L 317.543625 30.649573 
L 319.059928 29.125738 
L 312.744045 37.18268 
L 306.762493 45.333312 
L 305.929957 46.488104 
L 310.941118 39.657126 
L 312.806577 37.379759 
L 313.890689 36.349328 
L 313.948696 36.734213 
L 308.909992 43.492399 
L 308.046456 44.654198 
L 316.146399 33.894873 
L 319.000367 30.485951 
L 321.139357 28.295995 
L 320.759486 28.903019 
L 316.059358 34.60136 
L 309.06811 43.873743 
L 308.223033 45.040685 
L 311.796272 40.218067 
L 314.354649 37.064207 
L 315.386531 36.056806 
L 316.647743 35.345605 
L 316.155992 36.24077 
L 310.002695 44.272365 
L 311.330546 42.399947 
L 315.774345 36.624918 
L 318.608921 33.210005 
L 321.628486 29.855371 
L 323.914188 27.720625 
L 323.25136 28.687043 
L 318.391462 34.335791 
L 313.82561 40.075229 
L 310.346415 44.70317 
L 314.699481 39.052075 
L 316.64428 36.806106 
L 317.404491 36.082546 
L 318.590654 35.272142 
L 319.45411 34.918205 
L 320.135272 34.849253 
L 319.678583 35.591974 
L 316.863646 39.007127 
L 312.78472 43.976819 
L 314.537738 41.65982 
L 318.241151 37.083526 
L 322.261388 32.607713 
L 324.370836 30.403937 
L 327.526155 27.670331 
L 327.992339 27.580247 
L 319.883668 36.509299 
L 316.067129 41.050939 
L 314.095125 43.570441 
L 316.894683 40.14555 
L 318.876034 37.906229 
L 319.938103 36.816493 
L 321.823075 35.364282 
L 323.228095 34.746264 
L 324.692632 34.375012 
L 326.297992 34.212153 
L 327.111408 34.270216 
L 326.997557 35.004085 
L 324.989463 37.229633 
L 318.627252 43.82479 
L 317.595976 44.934314 
L 318.293889 43.955891 
L 321.24126 40.576855 
L 325.492373 36.181081 
L 330.022311 31.889856 
L 333.475003 28.698643 
L 333.264558 28.582758 
L 332.48239 28.475519 
L 332.575638 27.905017 
L 332.324046 27.56351 
L 331.859515 27.240245 
L 331.783823 26.762981 
L 333.460777 27.306831 
L 335.379232 27.030892 
L 335.029668 28.219369 
L 333.178918 30.5068 
L 329.074322 34.95373 
L 321.71452 42.67457 
L 321.185235 43.331508 
L 324.472763 40.074155 
L 326.857863 37.982377 
L 328.178605 37.004274 
L 329.673122 36.13575 
L 331.249975 35.496139 
L 333.050719 35.075462 
L 336.491353 34.732686 
L 340.37951 34.784604 
L 339.93267 34.832002 
L 282.536562 34.833605 
L 226.116678 34.863612 
L 223.152007 34.758583 
L 218.004922 34.877234 
L 209.097042 34.853461 
L -1 35.404568 
L -1 35.404568 
" style="fill:none;stroke:#1f77b4;stroke-linecap:square;stroke-width:1.5;"/>
   </g>
   <g id="line2d_21">
    <path clip-path="url(#pb1891d0f11)" d="M 162.163287 117.363054 
L 167.061827 117.283905 
L 173.061276 117.433969 
L 180.192891 117.82898 
L 188.455888 118.502551 
L 197.82326 119.493009 
L 208.256368 120.833032 
L 218.664572 122.406844 
L 223.803194 123.353001 
L 227.805815 124.288498 
L 229.703082 124.884807 
L 232.335193 125.983321 
L 234.741442 127.256604 
L 236.916082 128.676688 
L 239.548285 130.710148 
L 242.125649 132.75948 
L 243.579003 133.680776 
L 244.409254 134.05775 
L 245.337043 134.31698 
L 246.33715 134.366679 
L 247.289919 134.167014 
L 248.122204 133.800437 
L 249.478823 132.834664 
L 250.571985 131.734919 
L 251.965032 129.999399 
L 253.608277 127.645594 
L 256.187031 123.536688 
L 259.208468 118.217491 
L 262.751103 111.648246 
L 265.880923 105.631788 
L 268.852827 100.20326 
L 270.084369 98.023568 
L 270.084369 98.023568 
" style="fill:none;stroke:#ff0000;stroke-linecap:square;stroke-width:1.5;"/>
   </g>
   <g id="patch_3">
    <path d="M 90 252 
L 90 34.56 
" style="fill:none;stroke:#000000;stroke-linecap:square;stroke-linejoin:miter;stroke-width:0.8;"/>
   </g>
   <g id="patch_4">
    <path d="M 343.636364 252 
L 343.636364 34.56 
" style="fill:none;stroke:#000000;stroke-linecap:square;stroke-linejoin:miter;stroke-width:0.8;"/>
   </g>
   <g id="patch_5">
    <path d="M 90 252 
L 343.636364 252 
" style="fill:none;stroke:#000000;stroke-linecap:square;stroke-linejoin:miter;stroke-width:0.8;"/>
   </g>
   <g id="patch_6">
    <path d="M 90 34.56 
L 343.636364 34.56 
" style="fill:none;stroke:#000000;stroke-linecap:square;stroke-linejoin:miter;stroke-width:0.8;"/>
   </g>
  </g>
  <g id="axes_2">
   <g id="patch_7">
    <path d="M 394.363636 98.512941 
L 648 98.512941 
L 648 34.56 
L 394.363636 34.56 
z
" style="fill:#ffffff;"/>
   </g>
   <g id="matplotlib.axis_3">
    <g id="xtick_6">
     <g id="line2d_22">
      <g>
       <use style="stroke:#000000;stroke-width:0.8;" x="394.363636" xlink:href="#m08e3356759" y="98.512941"/>
      </g>
     </g>
     <g id="text_18">
      <!-- 0 -->
      <g transform="translate(391.182386 113.111379)scale(0.1 -0.1)">
       <use xlink:href="#DejaVuSans-48"/>
      </g>
     </g>
    </g>
    <g id="xtick_7">
     <g id="line2d_23">
      <g>
       <use style="stroke:#000000;stroke-width:0.8;" x="428.181818" xlink:href="#m08e3356759" y="98.512941"/>
      </g>
     </g>
     <g id="text_19">
      <!-- 100 -->
      <g transform="translate(418.638068 113.111379)scale(0.1 -0.1)">
       <use xlink:href="#DejaVuSans-49"/>
       <use x="63.623047" xlink:href="#DejaVuSans-48"/>
       <use x="127.246094" xlink:href="#DejaVuSans-48"/>
      </g>
     </g>
    </g>
    <g id="xtick_8">
     <g id="line2d_24">
      <g>
       <use style="stroke:#000000;stroke-width:0.8;" x="462" xlink:href="#m08e3356759" y="98.512941"/>
      </g>
     </g>
     <g id="text_20">
      <!-- 200 -->
      <g transform="translate(452.45625 113.111379)scale(0.1 -0.1)">
       <use xlink:href="#DejaVuSans-50"/>
       <use x="63.623047" xlink:href="#DejaVuSans-48"/>
       <use x="127.246094" xlink:href="#DejaVuSans-48"/>
      </g>
     </g>
    </g>
    <g id="xtick_9">
     <g id="line2d_25">
      <g>
       <use style="stroke:#000000;stroke-width:0.8;" x="495.818182" xlink:href="#m08e3356759" y="98.512941"/>
      </g>
     </g>
     <g id="text_21">
      <!-- 300 -->
      <g transform="translate(486.274432 113.111379)scale(0.1 -0.1)">
       <use xlink:href="#DejaVuSans-51"/>
       <use x="63.623047" xlink:href="#DejaVuSans-48"/>
       <use x="127.246094" xlink:href="#DejaVuSans-48"/>
      </g>
     </g>
    </g>
    <g id="xtick_10">
     <g id="line2d_26">
      <g>
       <use style="stroke:#000000;stroke-width:0.8;" x="529.636364" xlink:href="#m08e3356759" y="98.512941"/>
      </g>
     </g>
     <g id="text_22">
      <!-- 400 -->
      <g transform="translate(520.092614 113.111379)scale(0.1 -0.1)">
       <use xlink:href="#DejaVuSans-52"/>
       <use x="63.623047" xlink:href="#DejaVuSans-48"/>
       <use x="127.246094" xlink:href="#DejaVuSans-48"/>
      </g>
     </g>
    </g>
    <g id="xtick_11">
     <g id="line2d_27">
      <g>
       <use style="stroke:#000000;stroke-width:0.8;" x="563.454545" xlink:href="#m08e3356759" y="98.512941"/>
      </g>
     </g>
     <g id="text_23">
      <!-- 500 -->
      <g transform="translate(553.910795 113.111379)scale(0.1 -0.1)">
       <use xlink:href="#DejaVuSans-53"/>
       <use x="63.623047" xlink:href="#DejaVuSans-48"/>
       <use x="127.246094" xlink:href="#DejaVuSans-48"/>
      </g>
     </g>
    </g>
    <g id="xtick_12">
     <g id="line2d_28">
      <g>
       <use style="stroke:#000000;stroke-width:0.8;" x="597.272727" xlink:href="#m08e3356759" y="98.512941"/>
      </g>
     </g>
     <g id="text_24">
      <!-- 600 -->
      <g transform="translate(587.728977 113.111379)scale(0.1 -0.1)">
       <use xlink:href="#DejaVuSans-54"/>
       <use x="63.623047" xlink:href="#DejaVuSans-48"/>
       <use x="127.246094" xlink:href="#DejaVuSans-48"/>
      </g>
     </g>
    </g>
    <g id="xtick_13">
     <g id="line2d_29">
      <g>
       <use style="stroke:#000000;stroke-width:0.8;" x="631.090909" xlink:href="#m08e3356759" y="98.512941"/>
      </g>
     </g>
     <g id="text_25">
      <!-- 700 -->
      <defs>
       <path d="M 8.203125 72.90625 
L 55.078125 72.90625 
L 55.078125 68.703125 
L 28.609375 0 
L 18.3125 0 
L 43.21875 64.59375 
L 8.203125 64.59375 
z
" id="DejaVuSans-55"/>
      </defs>
      <g transform="translate(621.547159 113.111379)scale(0.1 -0.1)">
       <use xlink:href="#DejaVuSans-55"/>
       <use x="63.623047" xlink:href="#DejaVuSans-48"/>
       <use x="127.246094" xlink:href="#DejaVuSans-48"/>
      </g>
     </g>
    </g>
   </g>
   <g id="matplotlib.axis_4">
    <g id="ytick_11">
     <g id="line2d_30">
      <g>
       <use style="stroke:#000000;stroke-width:0.8;" x="394.363636" xlink:href="#m0f18d0a1b0" y="98.512941"/>
      </g>
     </g>
     <g id="text_26">
      <!-- 3.4 -->
      <g transform="translate(371.460511 102.31216)scale(0.1 -0.1)">
       <use xlink:href="#DejaVuSans-51"/>
       <use x="63.623047" xlink:href="#DejaVuSans-46"/>
       <use x="95.410156" xlink:href="#DejaVuSans-52"/>
      </g>
     </g>
    </g>
    <g id="ytick_12">
     <g id="line2d_31">
      <g>
       <use style="stroke:#000000;stroke-width:0.8;" x="394.363636" xlink:href="#m0f18d0a1b0" y="66.536471"/>
      </g>
     </g>
     <g id="text_27">
      <!-- 3.6 -->
      <g transform="translate(371.460511 70.335689)scale(0.1 -0.1)">
       <use xlink:href="#DejaVuSans-51"/>
       <use x="63.623047" xlink:href="#DejaVuSans-46"/>
       <use x="95.410156" xlink:href="#DejaVuSans-54"/>
      </g>
     </g>
    </g>
    <g id="ytick_13">
     <g id="line2d_32">
      <g>
       <use style="stroke:#000000;stroke-width:0.8;" x="394.363636" xlink:href="#m0f18d0a1b0" y="34.56"/>
      </g>
     </g>
     <g id="text_28">
      <!-- 3.8 -->
      <g transform="translate(371.460511 38.359219)scale(0.1 -0.1)">
       <use xlink:href="#DejaVuSans-51"/>
       <use x="63.623047" xlink:href="#DejaVuSans-46"/>
       <use x="95.410156" xlink:href="#DejaVuSans-56"/>
      </g>
     </g>
    </g>
   </g>
   <g id="line2d_33">
    <path clip-path="url(#pa62675c3dc)" d="M 394.363636 64.743122 
L 398.421818 64.164922 
L 402.141818 63.44933 
L 406.876364 62.328318 
L 414.992727 60.287835 
L 418.374545 59.646024 
L 425.814545 58.609211 
L 427.843636 58.321985 
L 430.887273 58.141508 
L 433.930909 58.225213 
L 436.974545 58.573973 
L 439.341818 59.02845 
L 444.076364 60.318832 
L 446.443636 60.882369 
L 448.134545 61.056032 
L 449.487273 60.940488 
L 450.501818 60.637876 
L 451.516364 60.072624 
L 452.530909 59.163128 
L 453.545455 57.817165 
L 454.56 55.975158 
L 455.574545 53.634803 
L 456.927273 49.84888 
L 459.970909 40.595742 
L 460.309091 40.412609 
L 460.647273 40.538845 
L 461.661818 41.31287 
L 462.338182 41.528918 
L 464.705455 41.5943 
L 471.469091 41.424436 
L 479.585455 41.272727 
L 495.818182 41.020768 
L 503.258182 40.708677 
L 509.683636 40.226417 
L 515.432727 39.787798 
L 530.650909 39.445609 
L 535.047273 39.585459 
L 539.781818 39.860587 
L 542.487273 40.231862 
L 544.516364 40.698091 
L 546.545455 41.381228 
L 547.56 41.810253 
L 548.574545 43.005324 
L 549.927273 45.009781 
L 551.618182 47.99843 
L 552.970909 50.419079 
L 553.647273 51.315787 
L 554.323636 51.922191 
L 555.338182 52.482225 
L 557.029091 53.038613 
L 561.087273 54.29441 
L 563.454545 55.266893 
L 566.16 56.614097 
L 568.527273 57.956297 
L 568.865455 57.833286 
L 569.203636 57.590203 
L 569.541818 57.576059 
L 572.247273 59.324873 
L 575.967273 62.028478 
L 580.025455 65.356258 
L 583.745455 68.726807 
L 588.48 73.38858 
L 594.229091 79.488578 
L 597.272727 82.948631 
L 598.625455 84.574747 
L 598.963636 84.513938 
L 601.669091 61.155421 
L 602.345455 56.725742 
L 603.36 63.703006 
L 603.698182 63.271876 
L 604.036364 60.676374 
L 604.374545 59.237962 
L 604.712727 61.642982 
L 605.389091 57.948186 
L 605.727273 59.204413 
L 606.065455 56.601384 
L 606.403636 56.999724 
L 606.741818 57.131608 
L 607.08 56.225966 
L 607.418182 56.356055 
L 616.549091 56.317583 
L 616.887273 56.153259 
L 617.901818 56.427111 
L 618.916364 55.77984 
L 619.254545 55.596778 
L 620.269091 55.853285 
L 620.945455 56.083161 
L 621.96 56.522751 
L 622.298182 56.466148 
L 623.650909 57.085918 
L 624.327273 56.78114 
L 624.665455 56.806394 
L 634.134545 61.355143 
L 638.869091 63.835213 
L 641.574545 62.369426 
L 641.912727 62.322474 
L 643.603636 62.796953 
L 648.338182 65.460086 
L 648.338182 65.460086 
" style="fill:none;stroke:#1f77b4;stroke-linecap:square;stroke-width:1.5;"/>
   </g>
   <g id="line2d_34">
    <path clip-path="url(#pa62675c3dc)" d="M 547.56 41.810253 
L 548.574545 43.005324 
L 549.927273 45.009781 
L 551.618182 47.99843 
L 552.970909 50.419079 
L 553.647273 51.315787 
L 554.323636 51.922191 
L 555.338182 52.482225 
L 557.029091 53.038613 
L 561.087273 54.29441 
L 563.454545 55.266893 
L 566.16 56.614097 
L 568.527273 57.956297 
L 568.865455 57.833286 
L 569.203636 57.590203 
L 569.541818 57.576059 
L 572.247273 59.324873 
L 575.967273 62.028478 
L 580.025455 65.356258 
L 583.745455 68.726807 
L 588.48 73.38858 
L 594.229091 79.488578 
L 597.272727 82.948631 
L 598.625455 84.574747 
L 598.625455 84.574747 
" style="fill:none;stroke:#ff0000;stroke-linecap:square;stroke-width:1.5;"/>
   </g>
   <g id="patch_8">
    <path d="M 394.363636 98.512941 
L 394.363636 34.56 
" style="fill:none;stroke:#000000;stroke-linecap:square;stroke-linejoin:miter;stroke-width:0.8;"/>
   </g>
   <g id="patch_9">
    <path d="M 648 98.512941 
L 648 34.56 
" style="fill:none;stroke:#000000;stroke-linecap:square;stroke-linejoin:miter;stroke-width:0.8;"/>
   </g>
   <g id="patch_10">
    <path d="M 394.363636 98.512941 
L 648 98.512941 
" style="fill:none;stroke:#000000;stroke-linecap:square;stroke-linejoin:miter;stroke-width:0.8;"/>
   </g>
   <g id="patch_11">
    <path d="M 394.363636 34.56 
L 648 34.56 
" style="fill:none;stroke:#000000;stroke-linecap:square;stroke-linejoin:miter;stroke-width:0.8;"/>
   </g>
  </g>
  <g id="axes_3">
   <g id="matplotlib.axis_5">
    <g id="ytick_14">
     <g id="line2d_35">
      <defs>
       <path d="M 0 0 
L 3.5 0 
" id="m8ba05ec42d" style="stroke:#000000;stroke-width:0.8;"/>
      </defs>
      <g>
       <use style="stroke:#000000;stroke-width:0.8;" x="648" xlink:href="#m8ba05ec42d" y="90.981107"/>
      </g>
     </g>
     <g id="text_29">
      <!-- 0 -->
      <g transform="translate(655 94.780326)scale(0.1 -0.1)">
       <use xlink:href="#DejaVuSans-48"/>
      </g>
     </g>
    </g>
    <g id="ytick_15">
     <g id="line2d_36">
      <g>
       <use style="stroke:#000000;stroke-width:0.8;" x="648" xlink:href="#m8ba05ec42d" y="62.459618"/>
      </g>
     </g>
     <g id="text_30">
      <!-- 2 -->
      <g transform="translate(655 66.258837)scale(0.1 -0.1)">
       <use xlink:href="#DejaVuSans-50"/>
      </g>
     </g>
    </g>
   </g>
   <g id="line2d_37">
    <path clip-path="url(#pa62675c3dc)" d="M 394.363636 66.057729 
L 397.745455 66.724728 
L 400.789091 67.536302 
L 404.170909 68.682113 
L 407.552727 70.072474 
L 411.272727 71.830965 
L 418.712727 75.442477 
L 421.08 76.093284 
L 422.770909 76.665747 
L 423.785455 77.231427 
L 425.476364 78.576191 
L 428.858182 81.195758 
L 434.269091 85.07411 
L 445.429091 92.76209 
L 448.134545 94.313574 
L 449.825455 95.06121 
L 451.178182 95.461751 
L 452.530909 95.605989 
L 453.545455 95.489971 
L 454.56 95.147551 
L 455.574545 94.567608 
L 456.589091 93.757336 
L 457.941818 92.370399 
L 459.294545 90.866015 
L 459.632727 90.656473 
L 459.970909 90.752602 
L 461.661818 92.658168 
L 462.338182 92.795196 
L 466.396364 92.733665 
L 501.229091 91.926835 
L 506.301818 91.516318 
L 510.698182 90.929625 
L 515.094545 90.278554 
L 524.225455 89.51012 
L 532.003636 88.625094 
L 537.076364 87.906063 
L 542.487273 86.862444 
L 547.221818 85.92275 
L 547.221818 85.92275 
" style="fill:none;stroke:#1f77b4;stroke-dasharray:5.55,2.4;stroke-dashoffset:0;stroke-width:1.5;"/>
   </g>
   <g id="line2d_38">
    <path clip-path="url(#pa62675c3dc)" d="M 598.963636 42.855244 
L 599.978182 49.955798 
L 602.345455 67.632224 
L 603.021818 62.87826 
L 603.36 60.32358 
L 603.698182 60.630397 
L 604.036364 63.165782 
L 604.374545 64.802152 
L 604.712727 62.255915 
L 605.389091 65.97736 
L 605.727273 64.504682 
L 606.065455 67.023066 
L 606.403636 66.406529 
L 606.741818 66.510285 
L 607.08 67.31106 
L 607.418182 67.116984 
L 616.549091 67.148226 
L 616.887273 67.30586 
L 618.24 67.096828 
L 619.254545 67.253387 
L 623.650909 65.791901 
L 624.327273 66.057549 
L 624.665455 66.039331 
L 633.796364 62.005222 
L 638.869091 59.512404 
L 641.574545 60.861035 
L 641.912727 60.902342 
L 642.589091 60.809889 
L 642.927273 60.782068 
L 645.970909 59.247699 
L 648.338182 58.019808 
L 648.338182 58.019808 
" style="fill:none;stroke:#1f77b4;stroke-dasharray:5.55,2.4;stroke-dashoffset:0;stroke-width:1.5;"/>
   </g>
   <g id="line2d_39">
    <path clip-path="url(#pa62675c3dc)" d="M 547.56 85.869182 
L 548.912727 85.529826 
L 550.265455 85.465587 
L 552.294545 85.463033 
L 552.970909 85.242738 
L 553.985455 84.56628 
L 555.676364 83.04313 
L 560.749091 78.041174 
L 568.527273 70.293486 
L 568.865455 70.386453 
L 569.203636 70.718006 
L 569.541818 70.673946 
L 581.716364 58.732287 
L 592.2 48.754897 
L 598.625455 42.810833 
L 598.625455 42.810833 
" style="fill:none;stroke:#ff0000;stroke-dasharray:5.55,2.4;stroke-dashoffset:0;stroke-width:1.5;"/>
   </g>
   <g id="patch_12">
    <path d="M 394.363636 98.512941 
L 394.363636 34.56 
" style="fill:none;stroke:#000000;stroke-linecap:square;stroke-linejoin:miter;stroke-width:0.8;"/>
   </g>
   <g id="patch_13">
    <path d="M 648 98.512941 
L 648 34.56 
" style="fill:none;stroke:#000000;stroke-linecap:square;stroke-linejoin:miter;stroke-width:0.8;"/>
   </g>
   <g id="patch_14">
    <path d="M 394.363636 98.512941 
L 648 98.512941 
" style="fill:none;stroke:#000000;stroke-linecap:square;stroke-linejoin:miter;stroke-width:0.8;"/>
   </g>
   <g id="patch_15">
    <path d="M 394.363636 34.56 
L 648 34.56 
" style="fill:none;stroke:#000000;stroke-linecap:square;stroke-linejoin:miter;stroke-width:0.8;"/>
   </g>
  </g>
  <g id="axes_4">
   <g id="patch_16">
    <path d="M 394.363636 175.256471 
L 648 175.256471 
L 648 111.303529 
L 394.363636 111.303529 
z
" style="fill:#ffffff;"/>
   </g>
   <g id="matplotlib.axis_6">
    <g id="xtick_14">
     <g id="line2d_40">
      <g>
       <use style="stroke:#000000;stroke-width:0.8;" x="394.363636" xlink:href="#m08e3356759" y="175.256471"/>
      </g>
     </g>
     <g id="text_31">
      <!-- 0 -->
      <g transform="translate(391.182386 189.854908)scale(0.1 -0.1)">
       <use xlink:href="#DejaVuSans-48"/>
      </g>
     </g>
    </g>
    <g id="xtick_15">
     <g id="line2d_41">
      <g>
       <use style="stroke:#000000;stroke-width:0.8;" x="428.181818" xlink:href="#m08e3356759" y="175.256471"/>
      </g>
     </g>
     <g id="text_32">
      <!-- 100 -->
      <g transform="translate(418.638068 189.854908)scale(0.1 -0.1)">
       <use xlink:href="#DejaVuSans-49"/>
       <use x="63.623047" xlink:href="#DejaVuSans-48"/>
       <use x="127.246094" xlink:href="#DejaVuSans-48"/>
      </g>
     </g>
    </g>
    <g id="xtick_16">
     <g id="line2d_42">
      <g>
       <use style="stroke:#000000;stroke-width:0.8;" x="462" xlink:href="#m08e3356759" y="175.256471"/>
      </g>
     </g>
     <g id="text_33">
      <!-- 200 -->
      <g transform="translate(452.45625 189.854908)scale(0.1 -0.1)">
       <use xlink:href="#DejaVuSans-50"/>
       <use x="63.623047" xlink:href="#DejaVuSans-48"/>
       <use x="127.246094" xlink:href="#DejaVuSans-48"/>
      </g>
     </g>
    </g>
    <g id="xtick_17">
     <g id="line2d_43">
      <g>
       <use style="stroke:#000000;stroke-width:0.8;" x="495.818182" xlink:href="#m08e3356759" y="175.256471"/>
      </g>
     </g>
     <g id="text_34">
      <!-- 300 -->
      <g transform="translate(486.274432 189.854908)scale(0.1 -0.1)">
       <use xlink:href="#DejaVuSans-51"/>
       <use x="63.623047" xlink:href="#DejaVuSans-48"/>
       <use x="127.246094" xlink:href="#DejaVuSans-48"/>
      </g>
     </g>
    </g>
    <g id="xtick_18">
     <g id="line2d_44">
      <g>
       <use style="stroke:#000000;stroke-width:0.8;" x="529.636364" xlink:href="#m08e3356759" y="175.256471"/>
      </g>
     </g>
     <g id="text_35">
      <!-- 400 -->
      <g transform="translate(520.092614 189.854908)scale(0.1 -0.1)">
       <use xlink:href="#DejaVuSans-52"/>
       <use x="63.623047" xlink:href="#DejaVuSans-48"/>
       <use x="127.246094" xlink:href="#DejaVuSans-48"/>
      </g>
     </g>
    </g>
    <g id="xtick_19">
     <g id="line2d_45">
      <g>
       <use style="stroke:#000000;stroke-width:0.8;" x="563.454545" xlink:href="#m08e3356759" y="175.256471"/>
      </g>
     </g>
     <g id="text_36">
      <!-- 500 -->
      <g transform="translate(553.910795 189.854908)scale(0.1 -0.1)">
       <use xlink:href="#DejaVuSans-53"/>
       <use x="63.623047" xlink:href="#DejaVuSans-48"/>
       <use x="127.246094" xlink:href="#DejaVuSans-48"/>
      </g>
     </g>
    </g>
    <g id="xtick_20">
     <g id="line2d_46">
      <g>
       <use style="stroke:#000000;stroke-width:0.8;" x="597.272727" xlink:href="#m08e3356759" y="175.256471"/>
      </g>
     </g>
     <g id="text_37">
      <!-- 600 -->
      <g transform="translate(587.728977 189.854908)scale(0.1 -0.1)">
       <use xlink:href="#DejaVuSans-54"/>
       <use x="63.623047" xlink:href="#DejaVuSans-48"/>
       <use x="127.246094" xlink:href="#DejaVuSans-48"/>
      </g>
     </g>
    </g>
    <g id="xtick_21">
     <g id="line2d_47">
      <g>
       <use style="stroke:#000000;stroke-width:0.8;" x="631.090909" xlink:href="#m08e3356759" y="175.256471"/>
      </g>
     </g>
     <g id="text_38">
      <!-- 700 -->
      <g transform="translate(621.547159 189.854908)scale(0.1 -0.1)">
       <use xlink:href="#DejaVuSans-55"/>
       <use x="63.623047" xlink:href="#DejaVuSans-48"/>
       <use x="127.246094" xlink:href="#DejaVuSans-48"/>
      </g>
     </g>
    </g>
   </g>
   <g id="matplotlib.axis_7">
    <g id="ytick_16">
     <g id="line2d_48">
      <g>
       <use style="stroke:#000000;stroke-width:0.8;" x="394.363636" xlink:href="#m0f18d0a1b0" y="166.120336"/>
      </g>
     </g>
     <g id="text_39">
      <!-- 3.50 -->
      <g transform="translate(365.098011 169.919555)scale(0.1 -0.1)">
       <use xlink:href="#DejaVuSans-51"/>
       <use x="63.623047" xlink:href="#DejaVuSans-46"/>
       <use x="95.410156" xlink:href="#DejaVuSans-53"/>
       <use x="159.033203" xlink:href="#DejaVuSans-48"/>
      </g>
     </g>
    </g>
    <g id="ytick_17">
     <g id="line2d_49">
      <g>
       <use style="stroke:#000000;stroke-width:0.8;" x="394.363636" xlink:href="#m0f18d0a1b0" y="143.28"/>
      </g>
     </g>
     <g id="text_40">
      <!-- 3.75 -->
      <g transform="translate(365.098011 147.079219)scale(0.1 -0.1)">
       <use xlink:href="#DejaVuSans-51"/>
       <use x="63.623047" xlink:href="#DejaVuSans-46"/>
       <use x="95.410156" xlink:href="#DejaVuSans-55"/>
       <use x="159.033203" xlink:href="#DejaVuSans-53"/>
      </g>
     </g>
    </g>
    <g id="ytick_18">
     <g id="line2d_50">
      <g>
       <use style="stroke:#000000;stroke-width:0.8;" x="394.363636" xlink:href="#m0f18d0a1b0" y="120.439664"/>
      </g>
     </g>
     <g id="text_41">
      <!-- 4.00 -->
      <g transform="translate(365.098011 124.238883)scale(0.1 -0.1)">
       <use xlink:href="#DejaVuSans-52"/>
       <use x="63.623047" xlink:href="#DejaVuSans-46"/>
       <use x="95.410156" xlink:href="#DejaVuSans-48"/>
       <use x="159.033203" xlink:href="#DejaVuSans-48"/>
      </g>
     </g>
    </g>
    <g id="text_42">
     <!-- log(Teff) [K] (-) -->
     <defs>
      <path d="M 4.890625 31.390625 
L 31.203125 31.390625 
L 31.203125 23.390625 
L 4.890625 23.390625 
z
" id="DejaVuSans-45"/>
     </defs>
     <g transform="translate(359.018324 180.505781)rotate(-90)scale(0.1 -0.1)">
      <use xlink:href="#DejaVuSans-108"/>
      <use x="27.783203" xlink:href="#DejaVuSans-111"/>
      <use x="88.964844" xlink:href="#DejaVuSans-103"/>
      <use x="152.441406" xlink:href="#DejaVuSans-40"/>
      <use x="191.455078" xlink:href="#DejaVuSans-84"/>
      <use x="252.273438" xlink:href="#DejaVuSans-101"/>
      <use x="313.796875" xlink:href="#DejaVuSans-102"/>
      <use x="349.001953" xlink:href="#DejaVuSans-102"/>
      <use x="384.207031" xlink:href="#DejaVuSans-41"/>
      <use x="423.220703" xlink:href="#DejaVuSans-32"/>
      <use x="455.007812" xlink:href="#DejaVuSans-91"/>
      <use x="494.021484" xlink:href="#DejaVuSans-75"/>
      <use x="559.597656" xlink:href="#DejaVuSans-93"/>
      <use x="598.611328" xlink:href="#DejaVuSans-32"/>
      <use x="630.398438" xlink:href="#DejaVuSans-40"/>
      <use x="669.412109" xlink:href="#DejaVuSans-45"/>
      <use x="705.496094" xlink:href="#DejaVuSans-41"/>
     </g>
    </g>
   </g>
   <g id="line2d_51">
    <path clip-path="url(#p6f7bd2c0d6)" d="M 394.363636 155.39086 
L 402.141818 154.51012 
L 407.890909 153.526683 
L 417.021818 151.657051 
L 421.08 150.928728 
L 427.505455 149.973072 
L 430.210909 149.37306 
L 434.607273 148.591146 
L 443.738182 147.351445 
L 445.767273 146.900814 
L 447.458182 146.319047 
L 448.810909 145.620799 
L 449.825455 144.903197 
L 450.84 143.973344 
L 452.192727 142.399232 
L 453.545455 140.444745 
L 454.56 138.464731 
L 455.236364 136.694609 
L 456.589091 132.073812 
L 458.28 126.003337 
L 458.618182 125.899421 
L 459.294545 126.768585 
L 459.632727 127.284564 
L 459.970909 127.115681 
L 460.647273 125.436169 
L 461.661818 122.492518 
L 462 122.085327 
L 463.014545 122.441015 
L 464.367273 122.483899 
L 471.807273 122.468245 
L 483.981818 122.624491 
L 492.436364 122.951251 
L 499.2 123.444452 
L 503.934545 124.020479 
L 507.316364 124.656215 
L 509.683636 125.328866 
L 511.374545 126.024731 
L 512.727273 126.78974 
L 513.741818 127.347645 
L 517.123636 128.32814 
L 519.829091 129.326043 
L 522.534545 130.553819 
L 525.578182 132.182851 
L 528.96 134.054248 
L 529.636364 134.149409 
L 530.312727 133.834082 
L 532.68 132.236551 
L 536.738182 129.551898 
L 538.090909 128.861361 
L 538.767273 128.72678 
L 539.443636 128.821659 
L 540.458182 129.256509 
L 541.810909 130.099498 
L 547.898182 134.28675 
L 553.985455 141.356045 
L 555.676364 142.883958 
L 559.734545 146.196108 
L 560.410909 146.852949 
L 561.425455 147.447394 
L 563.116364 148.09751 
L 569.88 150.231449 
L 574.276364 151.747278 
L 578.672727 153.387117 
L 580.701818 152.592698 
L 583.745455 151.410451 
L 584.421818 151.594479 
L 591.185455 154.233458 
L 596.596364 156.55692 
L 598.625455 157.431026 
L 600.316364 157.194312 
L 603.36 153.182569 
L 605.389091 150.738111 
L 606.403636 149.633817 
L 607.418182 148.50712 
L 608.094545 148.568449 
L 609.785455 148.810675 
L 612.490909 148.710678 
L 617.901818 148.858258 
L 620.607273 149.2414 
L 621.621818 149.152298 
L 624.327273 149.63616 
L 625.003636 149.574956 
L 635.487273 151.714864 
L 638.530909 152.504694 
L 641.236364 151.784234 
L 643.265455 151.908697 
L 648.338182 153.310898 
L 648.338182 153.310898 
" style="fill:none;stroke:#1f77b4;stroke-linecap:square;stroke-width:1.5;"/>
   </g>
   <g id="line2d_52">
    <path clip-path="url(#p6f7bd2c0d6)" d="M 547.56 133.888145 
L 553.985455 141.356045 
L 555.676364 142.883958 
L 559.734545 146.196108 
L 560.410909 146.852949 
L 561.425455 147.447394 
L 563.116364 148.09751 
L 569.88 150.231449 
L 574.276364 151.747278 
L 578.672727 153.387117 
L 580.701818 152.592698 
L 583.745455 151.410451 
L 584.421818 151.594479 
L 591.185455 154.233458 
L 596.596364 156.55692 
L 598.625455 157.431026 
L 598.625455 157.431026 
" style="fill:none;stroke:#ff0000;stroke-linecap:square;stroke-width:1.5;"/>
   </g>
   <g id="patch_17">
    <path d="M 394.363636 175.256471 
L 394.363636 111.303529 
" style="fill:none;stroke:#000000;stroke-linecap:square;stroke-linejoin:miter;stroke-width:0.8;"/>
   </g>
   <g id="patch_18">
    <path d="M 648 175.256471 
L 648 111.303529 
" style="fill:none;stroke:#000000;stroke-linecap:square;stroke-linejoin:miter;stroke-width:0.8;"/>
   </g>
   <g id="patch_19">
    <path d="M 394.363636 175.256471 
L 648 175.256471 
" style="fill:none;stroke:#000000;stroke-linecap:square;stroke-linejoin:miter;stroke-width:0.8;"/>
   </g>
   <g id="patch_20">
    <path d="M 394.363636 111.303529 
L 648 111.303529 
" style="fill:none;stroke:#000000;stroke-linecap:square;stroke-linejoin:miter;stroke-width:0.8;"/>
   </g>
  </g>
  <g id="axes_5">
   <g id="matplotlib.axis_8">
    <g id="ytick_19">
     <g id="line2d_53">
      <g>
       <use style="stroke:#000000;stroke-width:0.8;" x="648" xlink:href="#m8ba05ec42d" y="175.256471"/>
      </g>
     </g>
     <g id="text_43">
      <!-- 1 -->
      <g transform="translate(655 179.055689)scale(0.1 -0.1)">
       <use xlink:href="#DejaVuSans-49"/>
      </g>
     </g>
    </g>
    <g id="ytick_20">
     <g id="line2d_54">
      <g>
       <use style="stroke:#000000;stroke-width:0.8;" x="648" xlink:href="#m8ba05ec42d" y="143.28"/>
      </g>
     </g>
     <g id="text_44">
      <!-- 2 -->
      <g transform="translate(655 147.079219)scale(0.1 -0.1)">
       <use xlink:href="#DejaVuSans-50"/>
      </g>
     </g>
    </g>
    <g id="ytick_21">
     <g id="line2d_55">
      <g>
       <use style="stroke:#000000;stroke-width:0.8;" x="648" xlink:href="#m8ba05ec42d" y="111.303529"/>
      </g>
     </g>
     <g id="text_45">
      <!-- 3 -->
      <g transform="translate(655 115.102748)scale(0.1 -0.1)">
       <use xlink:href="#DejaVuSans-51"/>
      </g>
     </g>
    </g>
    <g id="text_46">
     <!-- log(L) [Lsol] (- -) -->
     <g transform="translate(672.960937 182.018281)rotate(-90)scale(0.1 -0.1)">
      <use xlink:href="#DejaVuSans-108"/>
      <use x="27.783203" xlink:href="#DejaVuSans-111"/>
      <use x="88.964844" xlink:href="#DejaVuSans-103"/>
      <use x="152.441406" xlink:href="#DejaVuSans-40"/>
      <use x="191.455078" xlink:href="#DejaVuSans-76"/>
      <use x="247.167969" xlink:href="#DejaVuSans-41"/>
      <use x="286.181641" xlink:href="#DejaVuSans-32"/>
      <use x="317.96875" xlink:href="#DejaVuSans-91"/>
      <use x="356.982422" xlink:href="#DejaVuSans-76"/>
      <use x="412.695312" xlink:href="#DejaVuSans-115"/>
      <use x="464.794922" xlink:href="#DejaVuSans-111"/>
      <use x="525.976562" xlink:href="#DejaVuSans-108"/>
      <use x="553.759766" xlink:href="#DejaVuSans-93"/>
      <use x="592.773438" xlink:href="#DejaVuSans-32"/>
      <use x="624.560547" xlink:href="#DejaVuSans-40"/>
      <use x="663.574219" xlink:href="#DejaVuSans-45"/>
      <use x="699.658203" xlink:href="#DejaVuSans-45"/>
      <use x="735.742188" xlink:href="#DejaVuSans-41"/>
     </g>
    </g>
   </g>
   <g id="line2d_56">
    <path clip-path="url(#p6f7bd2c0d6)" d="M 394.363636 131.710484 
L 396.392727 132.456027 
L 398.76 133.556476 
L 401.127273 134.909317 
L 403.494545 136.533413 
L 405.861818 138.406429 
L 408.229091 140.513149 
L 411.272727 143.511747 
L 415.330909 147.915676 
L 420.403636 153.459669 
L 421.756364 154.56527 
L 425.476364 157.205512 
L 426.490909 158.518698 
L 434.607273 170.962918 
L 437.989091 175.730004 
L 441.709091 180.588264 
L 443.738182 182.89146 
L 445.090909 184.176369 
L 446.443636 185.153977 
L 447.458182 185.581971 
L 448.134545 185.664491 
L 448.810909 185.519216 
L 449.487273 185.095483 
L 450.163636 184.292267 
L 450.84 182.998674 
L 451.516364 181.127031 
L 452.530909 177.443692 
L 454.898182 168.734459 
L 455.912727 165.919351 
L 456.927273 163.759715 
L 457.603636 162.655099 
L 457.941818 162.376065 
L 458.28 162.904418 
L 459.632727 169.465214 
L 459.970909 169.552069 
L 461.323636 165.732295 
L 461.661818 165.327783 
L 462 165.923973 
L 462.338182 166.88312 
L 462.676364 167.275127 
L 463.352727 167.586146 
L 464.705455 167.623013 
L 476.541818 167.619497 
L 487.701818 167.396459 
L 495.48 167.016216 
L 500.214545 166.585528 
L 504.272727 166.002545 
L 507.654545 165.291078 
L 510.698182 164.409315 
L 514.08 163.320493 
L 523.210909 162.228779 
L 529.298182 161.569226 
L 538.429091 157.381429 
L 539.105455 157.474669 
L 539.781818 157.82408 
L 541.134545 158.631954 
L 541.810909 158.773917 
L 542.487273 158.587254 
L 544.178182 157.92129 
L 545.530909 157.700819 
L 547.221818 157.634021 
L 547.221818 157.634021 
" style="fill:none;stroke:#1f77b4;stroke-dasharray:5.55,2.4;stroke-dashoffset:0;stroke-width:1.5;"/>
   </g>
   <g id="line2d_57">
    <path clip-path="url(#p6f7bd2c0d6)" d="M 598.963636 118.622596 
L 599.978182 118.63649 
L 600.316364 119.366999 
L 604.374545 140.506941 
L 607.418182 156.528739 
L 607.756364 156.637947 
L 609.785455 155.21983 
L 610.8 155.014244 
L 612.490909 154.416015 
L 617.901818 151.882814 
L 618.578182 151.445693 
L 618.916364 151.413828 
L 619.592727 151.0667 
L 620.269091 150.680131 
L 620.607273 150.442624 
L 621.621818 150.707559 
L 623.989091 148.954196 
L 624.327273 148.91009 
L 624.665455 149.126814 
L 625.003636 149.144187 
L 630.752727 144.697575 
L 633.458182 142.5264 
L 636.163636 139.445369 
L 638.192727 137.056221 
L 638.530909 136.846979 
L 640.898182 139.6192 
L 641.236364 139.899578 
L 641.574545 139.824139 
L 642.250909 139.23087 
L 642.589091 139.290137 
L 642.927273 139.589099 
L 643.603636 138.921249 
L 648.338182 133.393587 
L 648.338182 133.393587 
" style="fill:none;stroke:#1f77b4;stroke-dasharray:5.55,2.4;stroke-dashoffset:0;stroke-width:1.5;"/>
   </g>
   <g id="line2d_58">
    <path clip-path="url(#p6f7bd2c0d6)" d="M 547.56 157.63873 
L 549.250909 157.811869 
L 550.941818 158.217261 
L 551.956364 158.634781 
L 552.970909 159.269304 
L 553.985455 160.152191 
L 555.338182 161.712499 
L 557.367273 164.564584 
L 559.058182 166.890544 
L 559.396364 167.218103 
L 559.734545 167.366153 
L 560.072727 167.229381 
L 560.749091 166.402305 
L 562.44 163.658728 
L 567.850909 154.255039 
L 578.672727 135.354962 
L 579.687273 137.049182 
L 583.745455 144.29907 
L 584.083636 143.978757 
L 596.934545 121.271708 
L 598.625455 118.513749 
L 598.625455 118.513749 
" style="fill:none;stroke:#ff0000;stroke-dasharray:5.55,2.4;stroke-dashoffset:0;stroke-width:1.5;"/>
   </g>
   <g id="patch_21">
    <path d="M 394.363636 175.256471 
L 394.363636 111.303529 
" style="fill:none;stroke:#000000;stroke-linecap:square;stroke-linejoin:miter;stroke-width:0.8;"/>
   </g>
   <g id="patch_22">
    <path d="M 648 175.256471 
L 648 111.303529 
" style="fill:none;stroke:#000000;stroke-linecap:square;stroke-linejoin:miter;stroke-width:0.8;"/>
   </g>
   <g id="patch_23">
    <path d="M 394.363636 175.256471 
L 648 175.256471 
" style="fill:none;stroke:#000000;stroke-linecap:square;stroke-linejoin:miter;stroke-width:0.8;"/>
   </g>
   <g id="patch_24">
    <path d="M 394.363636 111.303529 
L 648 111.303529 
" style="fill:none;stroke:#000000;stroke-linecap:square;stroke-linejoin:miter;stroke-width:0.8;"/>
   </g>
  </g>
  <g id="axes_6">
   <g id="patch_25">
    <path d="M 394.363636 252 
L 648 252 
L 648 188.047059 
L 394.363636 188.047059 
z
" style="fill:#ffffff;"/>
   </g>
   <g id="matplotlib.axis_9">
    <g id="xtick_22">
     <g id="line2d_59">
      <g>
       <use style="stroke:#000000;stroke-width:0.8;" x="394.363636" xlink:href="#m08e3356759" y="252"/>
      </g>
     </g>
     <g id="text_47">
      <!-- 0 -->
      <g transform="translate(391.182386 266.598437)scale(0.1 -0.1)">
       <use xlink:href="#DejaVuSans-48"/>
      </g>
     </g>
    </g>
    <g id="xtick_23">
     <g id="line2d_60">
      <g>
       <use style="stroke:#000000;stroke-width:0.8;" x="428.181818" xlink:href="#m08e3356759" y="252"/>
      </g>
     </g>
     <g id="text_48">
      <!-- 100 -->
      <g transform="translate(418.638068 266.598437)scale(0.1 -0.1)">
       <use xlink:href="#DejaVuSans-49"/>
       <use x="63.623047" xlink:href="#DejaVuSans-48"/>
       <use x="127.246094" xlink:href="#DejaVuSans-48"/>
      </g>
     </g>
    </g>
    <g id="xtick_24">
     <g id="line2d_61">
      <g>
       <use style="stroke:#000000;stroke-width:0.8;" x="462" xlink:href="#m08e3356759" y="252"/>
      </g>
     </g>
     <g id="text_49">
      <!-- 200 -->
      <g transform="translate(452.45625 266.598437)scale(0.1 -0.1)">
       <use xlink:href="#DejaVuSans-50"/>
       <use x="63.623047" xlink:href="#DejaVuSans-48"/>
       <use x="127.246094" xlink:href="#DejaVuSans-48"/>
      </g>
     </g>
    </g>
    <g id="xtick_25">
     <g id="line2d_62">
      <g>
       <use style="stroke:#000000;stroke-width:0.8;" x="495.818182" xlink:href="#m08e3356759" y="252"/>
      </g>
     </g>
     <g id="text_50">
      <!-- 300 -->
      <g transform="translate(486.274432 266.598437)scale(0.1 -0.1)">
       <use xlink:href="#DejaVuSans-51"/>
       <use x="63.623047" xlink:href="#DejaVuSans-48"/>
       <use x="127.246094" xlink:href="#DejaVuSans-48"/>
      </g>
     </g>
    </g>
    <g id="xtick_26">
     <g id="line2d_63">
      <g>
       <use style="stroke:#000000;stroke-width:0.8;" x="529.636364" xlink:href="#m08e3356759" y="252"/>
      </g>
     </g>
     <g id="text_51">
      <!-- 400 -->
      <g transform="translate(520.092614 266.598437)scale(0.1 -0.1)">
       <use xlink:href="#DejaVuSans-52"/>
       <use x="63.623047" xlink:href="#DejaVuSans-48"/>
       <use x="127.246094" xlink:href="#DejaVuSans-48"/>
      </g>
     </g>
    </g>
    <g id="xtick_27">
     <g id="line2d_64">
      <g>
       <use style="stroke:#000000;stroke-width:0.8;" x="563.454545" xlink:href="#m08e3356759" y="252"/>
      </g>
     </g>
     <g id="text_52">
      <!-- 500 -->
      <g transform="translate(553.910795 266.598437)scale(0.1 -0.1)">
       <use xlink:href="#DejaVuSans-53"/>
       <use x="63.623047" xlink:href="#DejaVuSans-48"/>
       <use x="127.246094" xlink:href="#DejaVuSans-48"/>
      </g>
     </g>
    </g>
    <g id="xtick_28">
     <g id="line2d_65">
      <g>
       <use style="stroke:#000000;stroke-width:0.8;" x="597.272727" xlink:href="#m08e3356759" y="252"/>
      </g>
     </g>
     <g id="text_53">
      <!-- 600 -->
      <g transform="translate(587.728977 266.598437)scale(0.1 -0.1)">
       <use xlink:href="#DejaVuSans-54"/>
       <use x="63.623047" xlink:href="#DejaVuSans-48"/>
       <use x="127.246094" xlink:href="#DejaVuSans-48"/>
      </g>
     </g>
    </g>
    <g id="xtick_29">
     <g id="line2d_66">
      <g>
       <use style="stroke:#000000;stroke-width:0.8;" x="631.090909" xlink:href="#m08e3356759" y="252"/>
      </g>
     </g>
     <g id="text_54">
      <!-- 700 -->
      <g transform="translate(621.547159 266.598437)scale(0.1 -0.1)">
       <use xlink:href="#DejaVuSans-55"/>
       <use x="63.623047" xlink:href="#DejaVuSans-48"/>
       <use x="127.246094" xlink:href="#DejaVuSans-48"/>
      </g>
     </g>
    </g>
    <g id="text_55">
     <!-- Model number -->
     <defs>
      <path d="M 9.8125 72.90625 
L 24.515625 72.90625 
L 43.109375 23.296875 
L 61.8125 72.90625 
L 76.515625 72.90625 
L 76.515625 0 
L 66.890625 0 
L 66.890625 64.015625 
L 48.09375 14.015625 
L 38.1875 14.015625 
L 19.390625 64.015625 
L 19.390625 0 
L 9.8125 0 
z
" id="DejaVuSans-77"/>
      <path d="M 45.40625 46.390625 
L 45.40625 75.984375 
L 54.390625 75.984375 
L 54.390625 0 
L 45.40625 0 
L 45.40625 8.203125 
Q 42.578125 3.328125 38.25 0.953125 
Q 33.9375 -1.421875 27.875 -1.421875 
Q 17.96875 -1.421875 11.734375 6.484375 
Q 5.515625 14.40625 5.515625 27.296875 
Q 5.515625 40.1875 11.734375 48.09375 
Q 17.96875 56 27.875 56 
Q 33.9375 56 38.25 53.625 
Q 42.578125 51.265625 45.40625 46.390625 
z
M 14.796875 27.296875 
Q 14.796875 17.390625 18.875 11.75 
Q 22.953125 6.109375 30.078125 6.109375 
Q 37.203125 6.109375 41.296875 11.75 
Q 45.40625 17.390625 45.40625 27.296875 
Q 45.40625 37.203125 41.296875 42.84375 
Q 37.203125 48.484375 30.078125 48.484375 
Q 22.953125 48.484375 18.875 42.84375 
Q 14.796875 37.203125 14.796875 27.296875 
z
" id="DejaVuSans-100"/>
      <path d="M 54.890625 33.015625 
L 54.890625 0 
L 45.90625 0 
L 45.90625 32.71875 
Q 45.90625 40.484375 42.875 44.328125 
Q 39.84375 48.1875 33.796875 48.1875 
Q 26.515625 48.1875 22.3125 43.546875 
Q 18.109375 38.921875 18.109375 30.90625 
L 18.109375 0 
L 9.078125 0 
L 9.078125 54.6875 
L 18.109375 54.6875 
L 18.109375 46.1875 
Q 21.34375 51.125 25.703125 53.5625 
Q 30.078125 56 35.796875 56 
Q 45.21875 56 50.046875 50.171875 
Q 54.890625 44.34375 54.890625 33.015625 
z
" id="DejaVuSans-110"/>
      <path d="M 8.5 21.578125 
L 8.5 54.6875 
L 17.484375 54.6875 
L 17.484375 21.921875 
Q 17.484375 14.15625 20.5 10.265625 
Q 23.53125 6.390625 29.59375 6.390625 
Q 36.859375 6.390625 41.078125 11.03125 
Q 45.3125 15.671875 45.3125 23.6875 
L 45.3125 54.6875 
L 54.296875 54.6875 
L 54.296875 0 
L 45.3125 0 
L 45.3125 8.40625 
Q 42.046875 3.421875 37.71875 1 
Q 33.40625 -1.421875 27.6875 -1.421875 
Q 18.265625 -1.421875 13.375 4.4375 
Q 8.5 10.296875 8.5 21.578125 
z
M 31.109375 56 
z
" id="DejaVuSans-117"/>
      <path d="M 52 44.1875 
Q 55.375 50.25 60.0625 53.125 
Q 64.75 56 71.09375 56 
Q 79.640625 56 84.28125 50.015625 
Q 88.921875 44.046875 88.921875 33.015625 
L 88.921875 0 
L 79.890625 0 
L 79.890625 32.71875 
Q 79.890625 40.578125 77.09375 44.375 
Q 74.3125 48.1875 68.609375 48.1875 
Q 61.625 48.1875 57.5625 43.546875 
Q 53.515625 38.921875 53.515625 30.90625 
L 53.515625 0 
L 44.484375 0 
L 44.484375 32.71875 
Q 44.484375 40.625 41.703125 44.40625 
Q 38.921875 48.1875 33.109375 48.1875 
Q 26.21875 48.1875 22.15625 43.53125 
Q 18.109375 38.875 18.109375 30.90625 
L 18.109375 0 
L 9.078125 0 
L 9.078125 54.6875 
L 18.109375 54.6875 
L 18.109375 46.1875 
Q 21.1875 51.21875 25.484375 53.609375 
Q 29.78125 56 35.6875 56 
Q 41.65625 56 45.828125 52.96875 
Q 50 49.953125 52 44.1875 
z
" id="DejaVuSans-109"/>
      <path d="M 48.6875 27.296875 
Q 48.6875 37.203125 44.609375 42.84375 
Q 40.53125 48.484375 33.40625 48.484375 
Q 26.265625 48.484375 22.1875 42.84375 
Q 18.109375 37.203125 18.109375 27.296875 
Q 18.109375 17.390625 22.1875 11.75 
Q 26.265625 6.109375 33.40625 6.109375 
Q 40.53125 6.109375 44.609375 11.75 
Q 48.6875 17.390625 48.6875 27.296875 
z
M 18.109375 46.390625 
Q 20.953125 51.265625 25.265625 53.625 
Q 29.59375 56 35.59375 56 
Q 45.5625 56 51.78125 48.09375 
Q 58.015625 40.1875 58.015625 27.296875 
Q 58.015625 14.40625 51.78125 6.484375 
Q 45.5625 -1.421875 35.59375 -1.421875 
Q 29.59375 -1.421875 25.265625 0.953125 
Q 20.953125 3.328125 18.109375 8.203125 
L 18.109375 0 
L 9.078125 0 
L 9.078125 75.984375 
L 18.109375 75.984375 
z
" id="DejaVuSans-98"/>
      <path d="M 41.109375 46.296875 
Q 39.59375 47.171875 37.8125 47.578125 
Q 36.03125 48 33.890625 48 
Q 26.265625 48 22.1875 43.046875 
Q 18.109375 38.09375 18.109375 28.8125 
L 18.109375 0 
L 9.078125 0 
L 9.078125 54.6875 
L 18.109375 54.6875 
L 18.109375 46.1875 
Q 20.953125 51.171875 25.484375 53.578125 
Q 30.03125 56 36.53125 56 
Q 37.453125 56 38.578125 55.875 
Q 39.703125 55.765625 41.0625 55.515625 
z
" id="DejaVuSans-114"/>
     </defs>
     <g transform="translate(485.065412 280.276563)scale(0.1 -0.1)">
      <use xlink:href="#DejaVuSans-77"/>
      <use x="86.279297" xlink:href="#DejaVuSans-111"/>
      <use x="147.460938" xlink:href="#DejaVuSans-100"/>
      <use x="210.9375" xlink:href="#DejaVuSans-101"/>
      <use x="272.460938" xlink:href="#DejaVuSans-108"/>
      <use x="300.244141" xlink:href="#DejaVuSans-32"/>
      <use x="332.03125" xlink:href="#DejaVuSans-110"/>
      <use x="395.410156" xlink:href="#DejaVuSans-117"/>
      <use x="458.789062" xlink:href="#DejaVuSans-109"/>
      <use x="556.201172" xlink:href="#DejaVuSans-98"/>
      <use x="619.677734" xlink:href="#DejaVuSans-101"/>
      <use x="681.201172" xlink:href="#DejaVuSans-114"/>
     </g>
    </g>
   </g>
   <g id="matplotlib.axis_10">
    <g id="ytick_22">
     <g id="line2d_67">
      <g>
       <use style="stroke:#000000;stroke-width:0.8;" x="394.363636" xlink:href="#m0f18d0a1b0" y="244.894118"/>
      </g>
     </g>
     <g id="text_56">
      <!-- 3.5 -->
      <g transform="translate(371.460511 248.693336)scale(0.1 -0.1)">
       <use xlink:href="#DejaVuSans-51"/>
       <use x="63.623047" xlink:href="#DejaVuSans-46"/>
       <use x="95.410156" xlink:href="#DejaVuSans-53"/>
      </g>
     </g>
    </g>
    <g id="ytick_23">
     <g id="line2d_68">
      <g>
       <use style="stroke:#000000;stroke-width:0.8;" x="394.363636" xlink:href="#m0f18d0a1b0" y="209.364706"/>
      </g>
     </g>
     <g id="text_57">
      <!-- 4.0 -->
      <g transform="translate(371.460511 213.163925)scale(0.1 -0.1)">
       <use xlink:href="#DejaVuSans-52"/>
       <use x="63.623047" xlink:href="#DejaVuSans-46"/>
       <use x="95.410156" xlink:href="#DejaVuSans-48"/>
      </g>
     </g>
    </g>
   </g>
   <g id="line2d_69">
    <path clip-path="url(#p8ddbe900b7)" d="M 394.363636 236.751341 
L 394.701818 236.530103 
L 396.054545 236.400512 
L 401.465455 235.892596 
L 408.229091 234.95789 
L 417.698182 233.330972 
L 422.432727 232.559844 
L 429.872727 231.518471 
L 434.945455 230.58556 
L 443.738182 228.948962 
L 445.429091 228.392822 
L 446.781818 227.723039 
L 448.134545 226.739894 
L 449.149091 225.762189 
L 450.163636 224.444289 
L 450.84 223.235359 
L 452.192727 219.984673 
L 455.236364 211.898469 
L 457.941818 204.557483 
L 458.28 204.694287 
L 458.956364 205.446447 
L 459.294545 205.540576 
L 459.970909 204.131811 
L 461.323636 201.087554 
L 461.661818 201.279225 
L 462 201.604576 
L 462.338182 201.755658 
L 466.058182 201.775684 
L 478.232727 202.012376 
L 491.083636 202.457591 
L 499.876364 202.954702 
L 504.949091 203.443362 
L 508.330909 203.98518 
L 510.698182 204.601075 
L 512.389091 205.268361 
L 513.741818 205.881245 
L 517.123636 206.668305 
L 520.167273 207.588548 
L 523.210909 208.742525 
L 527.269091 210.551237 
L 528.96 211.249955 
L 529.636364 211.246781 
L 530.989091 210.621606 
L 537.076364 207.537458 
L 538.090909 207.2272 
L 538.767273 207.226935 
L 539.781818 207.484637 
L 541.472727 208.232139 
L 549.250909 212.424669 
L 556.352727 217.219681 
L 570.556364 226.862998 
L 572.923636 228.080976 
L 576.981818 229.968351 
L 578.334545 230.754858 
L 580.025455 231.355042 
L 583.407273 232.242465 
L 591.861818 234.078584 
L 598.963636 235.512165 
L 603.36 235.313425 
L 607.756364 234.957083 
L 620.269091 231.57133 
L 621.283636 231.058973 
L 621.621818 230.861972 
L 622.636364 230.906168 
L 626.018182 230.996549 
L 627.032727 231.198393 
L 629.4 231.836515 
L 631.429091 232.515303 
L 633.796364 233.083948 
L 637.854545 233.868656 
L 640.56 233.355667 
L 641.574545 233.392377 
L 648 234.774961 
L 648.338182 234.850987 
L 648.338182 234.850987 
" style="fill:none;stroke:#1f77b4;stroke-linecap:square;stroke-width:1.5;"/>
   </g>
   <g id="line2d_70">
    <path clip-path="url(#p8ddbe900b7)" d="M 547.56 211.326768 
L 553.647273 215.36771 
L 571.232727 227.240395 
L 573.6 228.381828 
L 576.643636 229.760408 
L 578.672727 230.896641 
L 580.701818 231.551243 
L 584.76 232.555272 
L 595.92 234.937386 
L 598.625455 235.514925 
L 598.625455 235.514925 
" style="fill:none;stroke:#ff0000;stroke-linecap:square;stroke-width:1.5;"/>
   </g>
   <g id="patch_26">
    <path d="M 394.363636 252 
L 394.363636 188.047059 
" style="fill:none;stroke:#000000;stroke-linecap:square;stroke-linejoin:miter;stroke-width:0.8;"/>
   </g>
   <g id="patch_27">
    <path d="M 648 252 
L 648 188.047059 
" style="fill:none;stroke:#000000;stroke-linecap:square;stroke-linejoin:miter;stroke-width:0.8;"/>
   </g>
   <g id="patch_28">
    <path d="M 394.363636 252 
L 648 252 
" style="fill:none;stroke:#000000;stroke-linecap:square;stroke-linejoin:miter;stroke-width:0.8;"/>
   </g>
   <g id="patch_29">
    <path d="M 394.363636 188.047059 
L 648 188.047059 
" style="fill:none;stroke:#000000;stroke-linecap:square;stroke-linejoin:miter;stroke-width:0.8;"/>
   </g>
  </g>
  <g id="axes_7">
   <g id="matplotlib.axis_11">
    <g id="ytick_24">
     <g id="line2d_71">
      <g>
       <use style="stroke:#000000;stroke-width:0.8;" x="648" xlink:href="#m8ba05ec42d" y="241.341176"/>
      </g>
     </g>
     <g id="text_58">
      <!-- 2.0 -->
      <g transform="translate(655 245.140395)scale(0.1 -0.1)">
       <use xlink:href="#DejaVuSans-50"/>
       <use x="63.623047" xlink:href="#DejaVuSans-46"/>
       <use x="95.410156" xlink:href="#DejaVuSans-48"/>
      </g>
     </g>
    </g>
    <g id="ytick_25">
     <g id="line2d_72">
      <g>
       <use style="stroke:#000000;stroke-width:0.8;" x="648" xlink:href="#m8ba05ec42d" y="214.694118"/>
      </g>
     </g>
     <g id="text_59">
      <!-- 2.5 -->
      <g transform="translate(655 218.493336)scale(0.1 -0.1)">
       <use xlink:href="#DejaVuSans-50"/>
       <use x="63.623047" xlink:href="#DejaVuSans-46"/>
       <use x="95.410156" xlink:href="#DejaVuSans-53"/>
      </g>
     </g>
    </g>
    <g id="ytick_26">
     <g id="line2d_73">
      <g>
       <use style="stroke:#000000;stroke-width:0.8;" x="648" xlink:href="#m8ba05ec42d" y="188.047059"/>
      </g>
     </g>
     <g id="text_60">
      <!-- 3.0 -->
      <g transform="translate(655 191.846278)scale(0.1 -0.1)">
       <use xlink:href="#DejaVuSans-51"/>
       <use x="63.623047" xlink:href="#DejaVuSans-46"/>
       <use x="95.410156" xlink:href="#DejaVuSans-48"/>
      </g>
     </g>
    </g>
   </g>
   <g id="line2d_74">
    <path clip-path="url(#p8ddbe900b7)" d="M 394.363636 204.598766 
L 394.701818 204.213453 
L 395.378182 204.50126 
L 397.407273 205.854345 
L 399.098182 207.1942 
L 401.465455 209.415041 
L 403.156364 211.25576 
L 405.523636 214.174253 
L 408.229091 217.960193 
L 410.596364 221.629394 
L 414.316364 227.924973 
L 418.374545 235.292505 
L 421.418182 240.75823 
L 422.770909 242.822455 
L 424.123636 244.44023 
L 426.490909 247.076084 
L 427.505455 248.766097 
L 428.52 251.094191 
L 432.578182 261.218113 
L 435.96 268.871612 
L 438.327273 273.758254 
L 440.018182 276.913144 
L 442.047273 280.10467 
L 443.061818 281.298357 
L 443.738182 281.879532 
L 444.414545 282.209903 
L 445.090909 282.201684 
L 445.429091 282.024462 
L 445.767273 281.70581 
L 446.105455 281.212427 
L 446.781818 279.552209 
L 447.458182 276.857519 
L 449.149091 267.845873 
L 451.516364 255.788381 
L 453.883636 246.093354 
L 455.574545 240.002192 
L 456.589091 236.959989 
L 457.265455 235.531268 
L 457.603636 235.434354 
L 457.941818 237.269994 
L 458.956364 245.737144 
L 459.294545 247.25447 
L 459.970909 244.157362 
L 460.647273 240.854789 
L 460.985455 239.729061 
L 461.323636 240.484186 
L 462 244.640998 
L 462.338182 245.318866 
L 463.352727 245.338114 
L 480.261818 245.389202 
L 486.687273 245.129775 
L 491.76 244.73667 
L 495.818182 244.226173 
L 499.2 243.603376 
L 502.243636 242.821745 
L 504.949091 241.8899 
L 507.316364 240.836525 
L 509.345455 239.698899 
L 511.374545 238.3015 
L 513.741818 236.483067 
L 525.578182 233.072665 
L 528.283636 232.353029 
L 528.96 232.04109 
L 532.341818 229.717108 
L 535.047273 227.948306 
L 537.752727 226.071881 
L 538.090909 225.983039 
L 538.429091 226.020574 
L 539.105455 226.398982 
L 541.472727 228.486543 
L 541.810909 228.573182 
L 542.487273 228.400099 
L 543.501818 227.67533 
L 544.516364 226.980579 
L 545.530909 226.524957 
L 546.883636 226.17752 
L 547.221818 226.123411 
L 547.221818 226.123411 
" style="fill:none;stroke:#1f77b4;stroke-dasharray:5.55,2.4;stroke-dashoffset:0;stroke-width:1.5;"/>
   </g>
   <g id="line2d_75">
    <path clip-path="url(#p8ddbe900b7)" d="M 598.963636 204.770904 
L 599.978182 205.024663 
L 602.007273 205.824534 
L 604.712727 207.126394 
L 607.418182 208.642969 
L 614.858182 225.819315 
L 620.607273 238.917327 
L 621.283636 240.036447 
L 621.621818 239.990367 
L 623.650909 237.320346 
L 625.68 234.449293 
L 626.356364 233.60212 
L 627.032727 233.034117 
L 629.061818 231.78616 
L 630.076364 230.229847 
L 637.178182 217.784119 
L 637.516364 217.189652 
L 637.854545 216.98387 
L 640.221818 220.959648 
L 640.56 221.262048 
L 641.236364 221.279152 
L 641.574545 220.997613 
L 643.265455 218.054445 
L 648.338182 208.782016 
L 648.338182 208.782016 
" style="fill:none;stroke:#1f77b4;stroke-dasharray:5.55,2.4;stroke-dashoffset:0;stroke-width:1.5;"/>
   </g>
   <g id="line2d_76">
    <path clip-path="url(#p8ddbe900b7)" d="M 547.56 226.079839 
L 548.912727 225.990782 
L 550.603636 226.075106 
L 552.970909 226.44641 
L 555.676364 227.12839 
L 558.72 228.164797 
L 562.101818 229.590763 
L 565.483636 231.272345 
L 567.512727 232.461323 
L 569.203636 233.718197 
L 570.218182 234.755854 
L 571.570909 236.501964 
L 573.261818 239.108349 
L 576.643636 244.493106 
L 576.981818 244.779022 
L 577.32 244.833837 
L 577.658182 244.613619 
L 578.334545 243.707028 
L 579.687273 241.301358 
L 587.465455 226.367112 
L 598.625455 204.749524 
L 598.625455 204.749524 
" style="fill:none;stroke:#ff0000;stroke-dasharray:5.55,2.4;stroke-dashoffset:0;stroke-width:1.5;"/>
   </g>
   <g id="patch_30">
    <path d="M 394.363636 252 
L 394.363636 188.047059 
" style="fill:none;stroke:#000000;stroke-linecap:square;stroke-linejoin:miter;stroke-width:0.8;"/>
   </g>
   <g id="patch_31">
    <path d="M 648 252 
L 648 188.047059 
" style="fill:none;stroke:#000000;stroke-linecap:square;stroke-linejoin:miter;stroke-width:0.8;"/>
   </g>
   <g id="patch_32">
    <path d="M 394.363636 252 
L 648 252 
" style="fill:none;stroke:#000000;stroke-linecap:square;stroke-linejoin:miter;stroke-width:0.8;"/>
   </g>
   <g id="patch_33">
    <path d="M 394.363636 188.047059 
L 648 188.047059 
" style="fill:none;stroke:#000000;stroke-linecap:square;stroke-linejoin:miter;stroke-width:0.8;"/>
   </g>
  </g>
 </g>
 <defs>
  <clipPath id="pb1891d0f11">
   <rect height="217.44" width="253.636364" x="90" y="34.56"/>
  </clipPath>
  <clipPath id="pa62675c3dc">
   <rect height="63.952941" width="253.636364" x="394.363636" y="34.56"/>
  </clipPath>
  <clipPath id="p6f7bd2c0d6">
   <rect height="63.952941" width="253.636364" x="394.363636" y="111.303529"/>
  </clipPath>
  <clipPath id="p8ddbe900b7">
   <rect height="63.952941" width="253.636364" x="394.363636" y="188.047059"/>
  </clipPath>
 </defs>
</svg>
