<?xml version="1.0" encoding="utf-8" standalone="no"?>
<!DOCTYPE svg PUBLIC "-//W3C//DTD SVG 1.1//EN"
  "http://www.w3.org/Graphics/SVG/1.1/DTD/svg11.dtd">
<!-- Created with matplotlib (https://matplotlib.org/) -->
<svg height="288pt" version="1.1" viewBox="0 0 1008 288" width="1008pt" xmlns="http://www.w3.org/2000/svg" xmlns:xlink="http://www.w3.org/1999/xlink">
 <defs>
  <style type="text/css">
*{stroke-linecap:butt;stroke-linejoin:round;}
  </style>
 </defs>
 <g id="figure_1">
  <g id="patch_1">
   <path d="M 0 288 
L 1008 288 
L 1008 0 
L 0 0 
z
" style="fill:#ffffff;"/>
  </g>
  <g id="axes_1">
   <g id="patch_2">
    <path d="M 126 252 
L 355.764706 252 
L 355.764706 34.56 
L 126 34.56 
z
" style="fill:#ffffff;"/>
   </g>
   <g id="PolyCollection_1">
    <defs>
     <path d="M 252.158707 -253.44 
L 252.158707 -16.232727 
L 234.611535 -16.232727 
L 234.611535 -253.44 
L 234.611535 -253.44 
L 252.158707 -253.44 
z
" id="m4c75185eb3" style="stroke:#0000ff;stroke-opacity:0.3;"/>
    </defs>
    <g clip-path="url(#pb2e0c45077)">
     <use style="fill:#0000ff;fill-opacity:0.3;stroke:#0000ff;stroke-opacity:0.3;" x="0" xlink:href="#m4c75185eb3" y="288"/>
    </g>
   </g>
   <g id="PolyCollection_2">
    <defs>
     <path d="M 234.611535 -253.44 
L 234.611535 -16.232727 
L 192.333015 -16.232727 
L 192.333015 -253.44 
L 192.333015 -253.44 
L 234.611535 -253.44 
z
" id="m30d1c4a8a2" style="stroke:#008000;stroke-opacity:0.3;"/>
    </defs>
    <g clip-path="url(#pb2e0c45077)">
     <use style="fill:#008000;fill-opacity:0.3;stroke:#008000;stroke-opacity:0.3;" x="0" xlink:href="#m30d1c4a8a2" y="288"/>
    </g>
   </g>
   <g id="PolyCollection_3">
    <defs>
     <path d="M 192.333015 -253.44 
L 192.333015 -16.232727 
L 136.44385 -16.232727 
L 136.44385 -253.44 
L 136.44385 -253.44 
L 192.333015 -253.44 
z
" id="m4e2b004dea" style="stroke:#ff0000;stroke-opacity:0.3;"/>
    </defs>
    <g clip-path="url(#pb2e0c45077)">
     <use style="fill:#ff0000;fill-opacity:0.3;stroke:#ff0000;stroke-opacity:0.3;" x="0" xlink:href="#m4e2b004dea" y="288"/>
    </g>
   </g>
   <g id="matplotlib.axis_1">
    <g id="xtick_1">
     <g id="line2d_1">
      <defs>
       <path d="M 0 0 
L 0 3.5 
" id="m17f9682192" style="stroke:#000000;stroke-width:0.8;"/>
      </defs>
      <g>
       <use style="stroke:#000000;stroke-width:0.8;" x="347.113159" xlink:href="#m17f9682192" y="252"/>
      </g>
     </g>
     <g id="text_1">
      <!-- 3.50 -->
      <defs>
       <path d="M 40.578125 39.3125 
Q 47.65625 37.796875 51.625 33 
Q 55.609375 28.21875 55.609375 21.1875 
Q 55.609375 10.40625 48.1875 4.484375 
Q 40.765625 -1.421875 27.09375 -1.421875 
Q 22.515625 -1.421875 17.65625 -0.515625 
Q 12.796875 0.390625 7.625 2.203125 
L 7.625 11.71875 
Q 11.71875 9.328125 16.59375 8.109375 
Q 21.484375 6.890625 26.8125 6.890625 
Q 36.078125 6.890625 40.9375 10.546875 
Q 45.796875 14.203125 45.796875 21.1875 
Q 45.796875 27.640625 41.28125 31.265625 
Q 36.765625 34.90625 28.71875 34.90625 
L 20.21875 34.90625 
L 20.21875 43.015625 
L 29.109375 43.015625 
Q 36.375 43.015625 40.234375 45.921875 
Q 44.09375 48.828125 44.09375 54.296875 
Q 44.09375 59.90625 40.109375 62.90625 
Q 36.140625 65.921875 28.71875 65.921875 
Q 24.65625 65.921875 20.015625 65.03125 
Q 15.375 64.15625 9.8125 62.3125 
L 9.8125 71.09375 
Q 15.4375 72.65625 20.34375 73.4375 
Q 25.25 74.21875 29.59375 74.21875 
Q 40.828125 74.21875 47.359375 69.109375 
Q 53.90625 64.015625 53.90625 55.328125 
Q 53.90625 49.265625 50.4375 45.09375 
Q 46.96875 40.921875 40.578125 39.3125 
z
" id="DejaVuSans-51"/>
       <path d="M 10.6875 12.40625 
L 21 12.40625 
L 21 0 
L 10.6875 0 
z
" id="DejaVuSans-46"/>
       <path d="M 10.796875 72.90625 
L 49.515625 72.90625 
L 49.515625 64.59375 
L 19.828125 64.59375 
L 19.828125 46.734375 
Q 21.96875 47.46875 24.109375 47.828125 
Q 26.265625 48.1875 28.421875 48.1875 
Q 40.625 48.1875 47.75 41.5 
Q 54.890625 34.8125 54.890625 23.390625 
Q 54.890625 11.625 47.5625 5.09375 
Q 40.234375 -1.421875 26.90625 -1.421875 
Q 22.3125 -1.421875 17.546875 -0.640625 
Q 12.796875 0.140625 7.71875 1.703125 
L 7.71875 11.625 
Q 12.109375 9.234375 16.796875 8.0625 
Q 21.484375 6.890625 26.703125 6.890625 
Q 35.15625 6.890625 40.078125 11.328125 
Q 45.015625 15.765625 45.015625 23.390625 
Q 45.015625 31 40.078125 35.4375 
Q 35.15625 39.890625 26.703125 39.890625 
Q 22.75 39.890625 18.8125 39.015625 
Q 14.890625 38.140625 10.796875 36.28125 
z
" id="DejaVuSans-53"/>
       <path d="M 31.78125 66.40625 
Q 24.171875 66.40625 20.328125 58.90625 
Q 16.5 51.421875 16.5 36.375 
Q 16.5 21.390625 20.328125 13.890625 
Q 24.171875 6.390625 31.78125 6.390625 
Q 39.453125 6.390625 43.28125 13.890625 
Q 47.125 21.390625 47.125 36.375 
Q 47.125 51.421875 43.28125 58.90625 
Q 39.453125 66.40625 31.78125 66.40625 
z
M 31.78125 74.21875 
Q 44.046875 74.21875 50.515625 64.515625 
Q 56.984375 54.828125 56.984375 36.375 
Q 56.984375 17.96875 50.515625 8.265625 
Q 44.046875 -1.421875 31.78125 -1.421875 
Q 19.53125 -1.421875 13.0625 8.265625 
Q 6.59375 17.96875 6.59375 36.375 
Q 6.59375 54.828125 13.0625 64.515625 
Q 19.53125 74.21875 31.78125 74.21875 
z
" id="DejaVuSans-48"/>
      </defs>
      <g transform="translate(335.980346 266.598437)scale(0.1 -0.1)">
       <use xlink:href="#DejaVuSans-51"/>
       <use x="63.623047" xlink:href="#DejaVuSans-46"/>
       <use x="95.410156" xlink:href="#DejaVuSans-53"/>
       <use x="159.033203" xlink:href="#DejaVuSans-48"/>
      </g>
     </g>
    </g>
    <g id="xtick_2">
     <g id="line2d_2">
      <g>
       <use style="stroke:#000000;stroke-width:0.8;" x="312.001607" xlink:href="#m17f9682192" y="252"/>
      </g>
     </g>
     <g id="text_2">
      <!-- 3.75 -->
      <defs>
       <path d="M 8.203125 72.90625 
L 55.078125 72.90625 
L 55.078125 68.703125 
L 28.609375 0 
L 18.3125 0 
L 43.21875 64.59375 
L 8.203125 64.59375 
z
" id="DejaVuSans-55"/>
      </defs>
      <g transform="translate(300.868795 266.598437)scale(0.1 -0.1)">
       <use xlink:href="#DejaVuSans-51"/>
       <use x="63.623047" xlink:href="#DejaVuSans-46"/>
       <use x="95.410156" xlink:href="#DejaVuSans-55"/>
       <use x="159.033203" xlink:href="#DejaVuSans-53"/>
      </g>
     </g>
    </g>
    <g id="xtick_3">
     <g id="line2d_3">
      <g>
       <use style="stroke:#000000;stroke-width:0.8;" x="276.890056" xlink:href="#m17f9682192" y="252"/>
      </g>
     </g>
     <g id="text_3">
      <!-- 4.00 -->
      <defs>
       <path d="M 37.796875 64.3125 
L 12.890625 25.390625 
L 37.796875 25.390625 
z
M 35.203125 72.90625 
L 47.609375 72.90625 
L 47.609375 25.390625 
L 58.015625 25.390625 
L 58.015625 17.1875 
L 47.609375 17.1875 
L 47.609375 0 
L 37.796875 0 
L 37.796875 17.1875 
L 4.890625 17.1875 
L 4.890625 26.703125 
z
" id="DejaVuSans-52"/>
      </defs>
      <g transform="translate(265.757243 266.598437)scale(0.1 -0.1)">
       <use xlink:href="#DejaVuSans-52"/>
       <use x="63.623047" xlink:href="#DejaVuSans-46"/>
       <use x="95.410156" xlink:href="#DejaVuSans-48"/>
       <use x="159.033203" xlink:href="#DejaVuSans-48"/>
      </g>
     </g>
    </g>
    <g id="xtick_4">
     <g id="line2d_4">
      <g>
       <use style="stroke:#000000;stroke-width:0.8;" x="241.778504" xlink:href="#m17f9682192" y="252"/>
      </g>
     </g>
     <g id="text_4">
      <!-- 4.25 -->
      <defs>
       <path d="M 19.1875 8.296875 
L 53.609375 8.296875 
L 53.609375 0 
L 7.328125 0 
L 7.328125 8.296875 
Q 12.9375 14.109375 22.625 23.890625 
Q 32.328125 33.6875 34.8125 36.53125 
Q 39.546875 41.84375 41.421875 45.53125 
Q 43.3125 49.21875 43.3125 52.78125 
Q 43.3125 58.59375 39.234375 62.25 
Q 35.15625 65.921875 28.609375 65.921875 
Q 23.96875 65.921875 18.8125 64.3125 
Q 13.671875 62.703125 7.8125 59.421875 
L 7.8125 69.390625 
Q 13.765625 71.78125 18.9375 73 
Q 24.125 74.21875 28.421875 74.21875 
Q 39.75 74.21875 46.484375 68.546875 
Q 53.21875 62.890625 53.21875 53.421875 
Q 53.21875 48.921875 51.53125 44.890625 
Q 49.859375 40.875 45.40625 35.40625 
Q 44.1875 33.984375 37.640625 27.21875 
Q 31.109375 20.453125 19.1875 8.296875 
z
" id="DejaVuSans-50"/>
      </defs>
      <g transform="translate(230.645692 266.598437)scale(0.1 -0.1)">
       <use xlink:href="#DejaVuSans-52"/>
       <use x="63.623047" xlink:href="#DejaVuSans-46"/>
       <use x="95.410156" xlink:href="#DejaVuSans-50"/>
       <use x="159.033203" xlink:href="#DejaVuSans-53"/>
      </g>
     </g>
    </g>
    <g id="xtick_5">
     <g id="line2d_5">
      <g>
       <use style="stroke:#000000;stroke-width:0.8;" x="206.666953" xlink:href="#m17f9682192" y="252"/>
      </g>
     </g>
     <g id="text_5">
      <!-- 4.50 -->
      <g transform="translate(195.534141 266.598437)scale(0.1 -0.1)">
       <use xlink:href="#DejaVuSans-52"/>
       <use x="63.623047" xlink:href="#DejaVuSans-46"/>
       <use x="95.410156" xlink:href="#DejaVuSans-53"/>
       <use x="159.033203" xlink:href="#DejaVuSans-48"/>
      </g>
     </g>
    </g>
    <g id="xtick_6">
     <g id="line2d_6">
      <g>
       <use style="stroke:#000000;stroke-width:0.8;" x="171.555402" xlink:href="#m17f9682192" y="252"/>
      </g>
     </g>
     <g id="text_6">
      <!-- 4.75 -->
      <g transform="translate(160.422589 266.598437)scale(0.1 -0.1)">
       <use xlink:href="#DejaVuSans-52"/>
       <use x="63.623047" xlink:href="#DejaVuSans-46"/>
       <use x="95.410156" xlink:href="#DejaVuSans-55"/>
       <use x="159.033203" xlink:href="#DejaVuSans-53"/>
      </g>
     </g>
    </g>
    <g id="xtick_7">
     <g id="line2d_7">
      <g>
       <use style="stroke:#000000;stroke-width:0.8;" x="136.44385" xlink:href="#m17f9682192" y="252"/>
      </g>
     </g>
     <g id="text_7">
      <!-- 5.00 -->
      <g transform="translate(125.311038 266.598437)scale(0.1 -0.1)">
       <use xlink:href="#DejaVuSans-53"/>
       <use x="63.623047" xlink:href="#DejaVuSans-46"/>
       <use x="95.410156" xlink:href="#DejaVuSans-48"/>
       <use x="159.033203" xlink:href="#DejaVuSans-48"/>
      </g>
     </g>
    </g>
    <g id="text_8">
     <!-- log(Teff) [K] -->
     <defs>
      <path d="M 9.421875 75.984375 
L 18.40625 75.984375 
L 18.40625 0 
L 9.421875 0 
z
" id="DejaVuSans-108"/>
      <path d="M 30.609375 48.390625 
Q 23.390625 48.390625 19.1875 42.75 
Q 14.984375 37.109375 14.984375 27.296875 
Q 14.984375 17.484375 19.15625 11.84375 
Q 23.34375 6.203125 30.609375 6.203125 
Q 37.796875 6.203125 41.984375 11.859375 
Q 46.1875 17.53125 46.1875 27.296875 
Q 46.1875 37.015625 41.984375 42.703125 
Q 37.796875 48.390625 30.609375 48.390625 
z
M 30.609375 56 
Q 42.328125 56 49.015625 48.375 
Q 55.71875 40.765625 55.71875 27.296875 
Q 55.71875 13.875 49.015625 6.21875 
Q 42.328125 -1.421875 30.609375 -1.421875 
Q 18.84375 -1.421875 12.171875 6.21875 
Q 5.515625 13.875 5.515625 27.296875 
Q 5.515625 40.765625 12.171875 48.375 
Q 18.84375 56 30.609375 56 
z
" id="DejaVuSans-111"/>
      <path d="M 45.40625 27.984375 
Q 45.40625 37.75 41.375 43.109375 
Q 37.359375 48.484375 30.078125 48.484375 
Q 22.859375 48.484375 18.828125 43.109375 
Q 14.796875 37.75 14.796875 27.984375 
Q 14.796875 18.265625 18.828125 12.890625 
Q 22.859375 7.515625 30.078125 7.515625 
Q 37.359375 7.515625 41.375 12.890625 
Q 45.40625 18.265625 45.40625 27.984375 
z
M 54.390625 6.78125 
Q 54.390625 -7.171875 48.1875 -13.984375 
Q 42 -20.796875 29.203125 -20.796875 
Q 24.46875 -20.796875 20.265625 -20.09375 
Q 16.0625 -19.390625 12.109375 -17.921875 
L 12.109375 -9.1875 
Q 16.0625 -11.328125 19.921875 -12.34375 
Q 23.78125 -13.375 27.78125 -13.375 
Q 36.625 -13.375 41.015625 -8.765625 
Q 45.40625 -4.15625 45.40625 5.171875 
L 45.40625 9.625 
Q 42.625 4.78125 38.28125 2.390625 
Q 33.9375 0 27.875 0 
Q 17.828125 0 11.671875 7.65625 
Q 5.515625 15.328125 5.515625 27.984375 
Q 5.515625 40.671875 11.671875 48.328125 
Q 17.828125 56 27.875 56 
Q 33.9375 56 38.28125 53.609375 
Q 42.625 51.21875 45.40625 46.390625 
L 45.40625 54.6875 
L 54.390625 54.6875 
z
" id="DejaVuSans-103"/>
      <path d="M 31 75.875 
Q 24.46875 64.65625 21.28125 53.65625 
Q 18.109375 42.671875 18.109375 31.390625 
Q 18.109375 20.125 21.3125 9.0625 
Q 24.515625 -2 31 -13.1875 
L 23.1875 -13.1875 
Q 15.875 -1.703125 12.234375 9.375 
Q 8.59375 20.453125 8.59375 31.390625 
Q 8.59375 42.28125 12.203125 53.3125 
Q 15.828125 64.359375 23.1875 75.875 
z
" id="DejaVuSans-40"/>
      <path d="M -0.296875 72.90625 
L 61.375 72.90625 
L 61.375 64.59375 
L 35.5 64.59375 
L 35.5 0 
L 25.59375 0 
L 25.59375 64.59375 
L -0.296875 64.59375 
z
" id="DejaVuSans-84"/>
      <path d="M 56.203125 29.59375 
L 56.203125 25.203125 
L 14.890625 25.203125 
Q 15.484375 15.921875 20.484375 11.0625 
Q 25.484375 6.203125 34.421875 6.203125 
Q 39.59375 6.203125 44.453125 7.46875 
Q 49.3125 8.734375 54.109375 11.28125 
L 54.109375 2.78125 
Q 49.265625 0.734375 44.1875 -0.34375 
Q 39.109375 -1.421875 33.890625 -1.421875 
Q 20.796875 -1.421875 13.15625 6.1875 
Q 5.515625 13.8125 5.515625 26.8125 
Q 5.515625 40.234375 12.765625 48.109375 
Q 20.015625 56 32.328125 56 
Q 43.359375 56 49.78125 48.890625 
Q 56.203125 41.796875 56.203125 29.59375 
z
M 47.21875 32.234375 
Q 47.125 39.59375 43.09375 43.984375 
Q 39.0625 48.390625 32.421875 48.390625 
Q 24.90625 48.390625 20.390625 44.140625 
Q 15.875 39.890625 15.1875 32.171875 
z
" id="DejaVuSans-101"/>
      <path d="M 37.109375 75.984375 
L 37.109375 68.5 
L 28.515625 68.5 
Q 23.6875 68.5 21.796875 66.546875 
Q 19.921875 64.59375 19.921875 59.515625 
L 19.921875 54.6875 
L 34.71875 54.6875 
L 34.71875 47.703125 
L 19.921875 47.703125 
L 19.921875 0 
L 10.890625 0 
L 10.890625 47.703125 
L 2.296875 47.703125 
L 2.296875 54.6875 
L 10.890625 54.6875 
L 10.890625 58.5 
Q 10.890625 67.625 15.140625 71.796875 
Q 19.390625 75.984375 28.609375 75.984375 
z
" id="DejaVuSans-102"/>
      <path d="M 8.015625 75.875 
L 15.828125 75.875 
Q 23.140625 64.359375 26.78125 53.3125 
Q 30.421875 42.28125 30.421875 31.390625 
Q 30.421875 20.453125 26.78125 9.375 
Q 23.140625 -1.703125 15.828125 -13.1875 
L 8.015625 -13.1875 
Q 14.5 -2 17.703125 9.0625 
Q 20.90625 20.125 20.90625 31.390625 
Q 20.90625 42.671875 17.703125 53.65625 
Q 14.5 64.65625 8.015625 75.875 
z
" id="DejaVuSans-41"/>
      <path id="DejaVuSans-32"/>
      <path d="M 8.59375 75.984375 
L 29.296875 75.984375 
L 29.296875 69 
L 17.578125 69 
L 17.578125 -6.203125 
L 29.296875 -6.203125 
L 29.296875 -13.1875 
L 8.59375 -13.1875 
z
" id="DejaVuSans-91"/>
      <path d="M 9.8125 72.90625 
L 19.671875 72.90625 
L 19.671875 42.09375 
L 52.390625 72.90625 
L 65.09375 72.90625 
L 28.90625 38.921875 
L 67.671875 0 
L 54.6875 0 
L 19.671875 35.109375 
L 19.671875 0 
L 9.8125 0 
z
" id="DejaVuSans-75"/>
      <path d="M 30.421875 75.984375 
L 30.421875 -13.1875 
L 9.71875 -13.1875 
L 9.71875 -6.203125 
L 21.390625 -6.203125 
L 21.390625 69 
L 9.71875 69 
L 9.71875 75.984375 
z
" id="DejaVuSans-93"/>
     </defs>
     <g transform="translate(210.951103 280.276563)scale(0.1 -0.1)">
      <use xlink:href="#DejaVuSans-108"/>
      <use x="27.783203" xlink:href="#DejaVuSans-111"/>
      <use x="88.964844" xlink:href="#DejaVuSans-103"/>
      <use x="152.441406" xlink:href="#DejaVuSans-40"/>
      <use x="191.455078" xlink:href="#DejaVuSans-84"/>
      <use x="252.273438" xlink:href="#DejaVuSans-101"/>
      <use x="313.796875" xlink:href="#DejaVuSans-102"/>
      <use x="349.001953" xlink:href="#DejaVuSans-102"/>
      <use x="384.207031" xlink:href="#DejaVuSans-41"/>
      <use x="423.220703" xlink:href="#DejaVuSans-32"/>
      <use x="455.007812" xlink:href="#DejaVuSans-91"/>
      <use x="494.021484" xlink:href="#DejaVuSans-75"/>
      <use x="559.597656" xlink:href="#DejaVuSans-93"/>
     </g>
    </g>
   </g>
   <g id="matplotlib.axis_2">
    <g id="ytick_1">
     <g id="line2d_8">
      <defs>
       <path d="M 0 0 
L -3.5 0 
" id="m4bf22a5cff" style="stroke:#000000;stroke-width:0.8;"/>
      </defs>
      <g>
       <use style="stroke:#000000;stroke-width:0.8;" x="126" xlink:href="#m4bf22a5cff" y="232.232727"/>
      </g>
     </g>
     <g id="text_9">
      <!-- −1 -->
      <defs>
       <path d="M 10.59375 35.5 
L 73.1875 35.5 
L 73.1875 27.203125 
L 10.59375 27.203125 
z
" id="DejaVuSans-8722"/>
       <path d="M 12.40625 8.296875 
L 28.515625 8.296875 
L 28.515625 63.921875 
L 10.984375 60.40625 
L 10.984375 69.390625 
L 28.421875 72.90625 
L 38.28125 72.90625 
L 38.28125 8.296875 
L 54.390625 8.296875 
L 54.390625 0 
L 12.40625 0 
z
" id="DejaVuSans-49"/>
      </defs>
      <g transform="translate(104.257812 236.031946)scale(0.1 -0.1)">
       <use xlink:href="#DejaVuSans-8722"/>
       <use x="83.789062" xlink:href="#DejaVuSans-49"/>
      </g>
     </g>
    </g>
    <g id="ytick_2">
     <g id="line2d_9">
      <g>
       <use style="stroke:#000000;stroke-width:0.8;" x="126" xlink:href="#m4bf22a5cff" y="192.698182"/>
      </g>
     </g>
     <g id="text_10">
      <!-- 0 -->
      <g transform="translate(112.6375 196.497401)scale(0.1 -0.1)">
       <use xlink:href="#DejaVuSans-48"/>
      </g>
     </g>
    </g>
    <g id="ytick_3">
     <g id="line2d_10">
      <g>
       <use style="stroke:#000000;stroke-width:0.8;" x="126" xlink:href="#m4bf22a5cff" y="153.163636"/>
      </g>
     </g>
     <g id="text_11">
      <!-- 1 -->
      <g transform="translate(112.6375 156.962855)scale(0.1 -0.1)">
       <use xlink:href="#DejaVuSans-49"/>
      </g>
     </g>
    </g>
    <g id="ytick_4">
     <g id="line2d_11">
      <g>
       <use style="stroke:#000000;stroke-width:0.8;" x="126" xlink:href="#m4bf22a5cff" y="113.629091"/>
      </g>
     </g>
     <g id="text_12">
      <!-- 2 -->
      <g transform="translate(112.6375 117.42831)scale(0.1 -0.1)">
       <use xlink:href="#DejaVuSans-50"/>
      </g>
     </g>
    </g>
    <g id="ytick_5">
     <g id="line2d_12">
      <g>
       <use style="stroke:#000000;stroke-width:0.8;" x="126" xlink:href="#m4bf22a5cff" y="74.094545"/>
      </g>
     </g>
     <g id="text_13">
      <!-- 3 -->
      <g transform="translate(112.6375 77.893764)scale(0.1 -0.1)">
       <use xlink:href="#DejaVuSans-51"/>
      </g>
     </g>
    </g>
    <g id="ytick_6">
     <g id="line2d_13">
      <g>
       <use style="stroke:#000000;stroke-width:0.8;" x="126" xlink:href="#m4bf22a5cff" y="34.56"/>
      </g>
     </g>
     <g id="text_14">
      <!-- 4 -->
      <g transform="translate(112.6375 38.359219)scale(0.1 -0.1)">
       <use xlink:href="#DejaVuSans-52"/>
      </g>
     </g>
    </g>
    <g id="text_15">
     <!-- log(L) [Lsol] -->
     <defs>
      <path d="M 9.8125 72.90625 
L 19.671875 72.90625 
L 19.671875 8.296875 
L 55.171875 8.296875 
L 55.171875 0 
L 9.8125 0 
z
" id="DejaVuSans-76"/>
      <path d="M 44.28125 53.078125 
L 44.28125 44.578125 
Q 40.484375 46.53125 36.375 47.5 
Q 32.28125 48.484375 27.875 48.484375 
Q 21.1875 48.484375 17.84375 46.4375 
Q 14.5 44.390625 14.5 40.28125 
Q 14.5 37.15625 16.890625 35.375 
Q 19.28125 33.59375 26.515625 31.984375 
L 29.59375 31.296875 
Q 39.15625 29.25 43.1875 25.515625 
Q 47.21875 21.78125 47.21875 15.09375 
Q 47.21875 7.46875 41.1875 3.015625 
Q 35.15625 -1.421875 24.609375 -1.421875 
Q 20.21875 -1.421875 15.453125 -0.5625 
Q 10.6875 0.296875 5.421875 2 
L 5.421875 11.28125 
Q 10.40625 8.6875 15.234375 7.390625 
Q 20.0625 6.109375 24.8125 6.109375 
Q 31.15625 6.109375 34.5625 8.28125 
Q 37.984375 10.453125 37.984375 14.40625 
Q 37.984375 18.0625 35.515625 20.015625 
Q 33.0625 21.96875 24.703125 23.78125 
L 21.578125 24.515625 
Q 13.234375 26.265625 9.515625 29.90625 
Q 5.8125 33.546875 5.8125 39.890625 
Q 5.8125 47.609375 11.28125 51.796875 
Q 16.75 56 26.8125 56 
Q 31.78125 56 36.171875 55.265625 
Q 40.578125 54.546875 44.28125 53.078125 
z
" id="DejaVuSans-115"/>
     </defs>
     <g transform="translate(98.178125 172.919844)rotate(-90)scale(0.1 -0.1)">
      <use xlink:href="#DejaVuSans-108"/>
      <use x="27.783203" xlink:href="#DejaVuSans-111"/>
      <use x="88.964844" xlink:href="#DejaVuSans-103"/>
      <use x="152.441406" xlink:href="#DejaVuSans-40"/>
      <use x="191.455078" xlink:href="#DejaVuSans-76"/>
      <use x="247.167969" xlink:href="#DejaVuSans-41"/>
      <use x="286.181641" xlink:href="#DejaVuSans-32"/>
      <use x="317.96875" xlink:href="#DejaVuSans-91"/>
      <use x="356.982422" xlink:href="#DejaVuSans-76"/>
      <use x="412.695312" xlink:href="#DejaVuSans-115"/>
      <use x="464.794922" xlink:href="#DejaVuSans-111"/>
      <use x="525.976562" xlink:href="#DejaVuSans-108"/>
      <use x="553.759766" xlink:href="#DejaVuSans-93"/>
     </g>
    </g>
   </g>
   <g id="line2d_14">
    <path clip-path="url(#pb2e0c45077)" d="M 309.614056 194.954552 
L 309.719433 195.182426 
L 309.67977 194.877825 
L 309.345679 193.423362 
L 308.826377 191.006855 
L 308.361303 187.90193 
L 308.200939 185.016723 
L 308.608323 180.285091 
L 308.978633 178.624514 
L 309.47507 177.283702 
L 310.068506 176.257519 
L 310.783133 175.512173 
L 311.634046 175.052121 
L 312.605451 174.883386 
L 314.196031 175.01625 
L 315.641755 175.096899 
L 316.416941 174.927764 
L 317.029025 174.572355 
L 317.5041 174.079026 
L 318.019511 173.171084 
L 318.474692 171.824723 
L 318.881966 169.772309 
L 319.274567 166.297947 
L 321.157785 146.248969 
L 322.184832 139.082668 
L 323.413438 131.828237 
L 324.002642 128.550478 
L 323.644993 130.025171 
L 323.586965 130.277166 
L 324.38044 126.234093 
L 326.00544 118.610618 
L 326.599802 115.998993 
L 327.988963 110.237381 
L 329.143874 105.692271 
L 330.206424 101.748356 
L 331.72781 96.355597 
L 333.905986 89.043906 
L 335.410503 84.143706 
L 335.82314 82.835566 
L 338.32329 75.204749 
L 340.654267 68.597092 
L 341.196 67.128722 
L 342.395165 64.016266 
L 342.700291 63.269482 
L 344.41407 59.840934 
L 344.922893 59.932943 
L 345.320856 60.842929 
L 344.922119 59.929364 
L 345.304158 60.834483 
L 345.021773 60.708933 
L 344.267705 60.686183 
L 339.288325 60.729893 
L 335.109178 60.585633 
L 335.130154 60.679555 
L 335.077583 61.010593 
L 335.062678 60.952471 
L 334.564256 62.891185 
L 334.137784 63.710039 
L 332.339604 68.249437 
L 331.64641 70.65072 
L 331.162648 72.893579 
L 330.642449 74.368162 
L 329.486963 76.151748 
L 327.749031 81.41178 
L 325.589741 81.782912 
L 324.647082 83.564552 
L 325.146156 87.098579 
L 323.538489 85.665298 
L 318.087137 87.692591 
L 316.039874 89.306934 
L 312.139966 91.306398 
L 310.213277 91.997602 
L 308.663372 92.180509 
L 307.950241 92.076445 
L 307.006545 92.424761 
L 305.040525 92.92344 
L 290.560952 97.083569 
L 285.243082 98.452581 
L 280.724198 99.773223 
L 267.420361 104.068722 
L 263.112777 105.63827 
L 258.742481 108.116318 
L 252.059633 113.821159 
L 249.376878 115.674615 
L 247.740206 118.611904 
L 246.785087 121.252338 
L 245.326295 124.745427 
L 244.429144 125.963685 
L 243.887683 127.84269 
L 243.571327 129.640886 
L 243.181208 133.739654 
L 243.164851 137.232496 
L 243.907222 142.409541 
L 245.125224 148.471292 
L 247.579578 156.055535 
L 251.424345 164.819078 
L 256.1835 173.155718 
L 261.211855 180.370769 
L 266.052479 186.211874 
L 270.642201 190.927234 
L 275.128895 194.692777 
L 279.652927 196.683528 
L 277.855103 186.307872 
L 269.875161 166.692251 
L 266.531461 155.059846 
L 266.047813 143.934397 
L 268.234559 135.033651 
L 272.28613 129.223303 
L 274.916101 124.899815 
L 277.976954 121.348384 
L 281.418333 118.604645 
L 287.079815 116.236586 
L 286.270365 114.515911 
L 287.741225 112.887628 
L 285.405641 112.064513 
L 286.847222 111.468317 
L 283.099873 111.137721 
L 286.228352 111.046551 
L 283.980994 110.812007 
L 286.322646 110.773846 
L 286.288544 110.707067 
L 284.131331 110.591369 
L 287.020762 110.707449 
L 284.726111 110.548656 
L 285.599212 110.644 
L 285.137038 110.693329 
L 285.230423 110.82972 
L 282.655339 111.00059 
L 278.880753 111.36723 
L 274.05573 111.94903 
L 269.539573 112.610873 
L 264.669515 113.574915 
L 262.225967 114.439226 
L 261.996922 114.736693 
L 261.752246 115.617772 
L 261.240538 117.290896 
L 260.398054 119.1845 
L 258.761435 122.138212 
L 256.78757 125.323484 
L 254.960741 127.779674 
L 253.993272 129.060595 
L 252.940645 130.775773 
L 252.615473 132.318359 
L 255.198147 129.770209 
L 259.608201 123.849014 
L 260.384766 120.426097 
L 254.372001 119.9657 
L 251.015385 120.963243 
L 250.574797 121.369282 
L 250.54866 121.858832 
L 250.742575 123.460892 
L 250.714798 125.376176 
L 250.42164 127.52028 
L 249.87009 129.918483 
L 249.405897 131.206308 
L 248.435558 132.957782 
L 247.710244 134.133116 
L 247.058993 135.507059 
L 247.352119 135.238147 
L 248.901061 130.69854 
L 247.250677 126.890602 
L 243.718762 127.069918 
L 243.122625 127.337381 
L 242.866248 127.586083 
L 242.893663 128.075441 
L 243.848671 131.449554 
L 244.101334 133.64523 
L 244.138577 135.138932 
L 243.934147 136.768027 
L 243.619145 137.629132 
L 242.557962 139.71278 
L 242.304694 139.731207 
L 242.248698 136.415564 
L 239.875171 133.306317 
L 238.731954 133.404711 
L 238.519975 133.686273 
L 238.663603 134.204093 
L 239.662551 136.638165 
L 240.356446 139.199769 
L 240.522916 140.266779 
L 240.553826 141.345447 
L 240.341035 142.339392 
L 239.873717 143.321333 
L 239.320631 143.94026 
L 238.630619 142.363048 
L 237.198086 139.814717 
L 236.63903 139.550661 
L 236.586312 139.703183 
L 236.929497 140.462978 
L 238.147146 143.346554 
L 238.558262 144.844383 
L 238.749688 146.488423 
L 238.626298 148.315236 
L 238.555122 149.07405 
L 238.97809 149.581364 
L 239.189423 150.017117 
L 239.474249 150.79806 
L 239.621269 150.686858 
L 239.716518 149.790112 
L 240.837226 148.497398 
L 241.740502 147.379237 
L 243.026636 145.316573 
L 238.304267 142.217918 
L 233.328939 141.413772 
L 236.089645 137.671354 
L 236.115652 136.871236 
L 235.753944 136.056821 
L 235.310281 134.608996 
L 235.052541 132.643483 
L 235.193742 130.159527 
L 235.719746 127.253437 
L 236.180182 125.536849 
L 237.361333 121.9326 
L 238.804803 118.477137 
L 240.76055 115.446642 
L 246.253575 108.25571 
L 247.355107 106.427858 
L 247.681755 104.92727 
L 246.934864 103.795942 
L 244.830988 103.050696 
L 237.084352 102.257978 
L 236.97135 99.945221 
L 238.387199 97.772498 
L 236.395549 97.407302 
L 227.918331 97.443792 
L 222.674419 97.765275 
L 213.377097 98.767406 
L 209.267341 99.312667 
L 208.137239 99.400175 
L 207.179141 99.344153 
L 206.493278 99.049317 
L 206.188168 98.448146 
L 206.253348 97.593038 
L 206.678594 95.813528 
L 206.641868 95.121809 
L 206.343211 94.591291 
L 205.81157 94.193427 
L 205.099907 93.894746 
L 203.309232 93.493715 
L 194.311588 92.226752 
L 191.895317 92.178143 
L 187.866581 92.380839 
L 184.91016 92.717337 
L 181.821366 93.238444 
L 178.677259 93.975802 
L 175.64894 94.948534 
L 172.709484 96.203219 
L 171.222565 96.992083 
L 169.839483 97.862788 
L 168.47888 98.876376 
L 167.211992 100.021175 
L 166.024261 101.335411 
L 164.968731 102.807231 
L 164.056906 104.490412 
L 163.261703 106.527475 
L 162.714728 108.847088 
L 162.413908 111.832221 
L 162.527479 115.261866 
L 163.146892 119.768111 
L 164.475098 126.041167 
L 164.201863 126.04414 
L 162.930225 123.189305 
L 159.829444 113.267983 
L 158.5055 106.237821 
L 159.006666 110.535009 
L 162.471171 122.831197 
L 166.844669 132.941551 
L 170.351758 140.158741 
L 170.306123 140.502749 
L 169.195748 139.155884 
L 168.140434 137.483917 
L 165.743288 132.982272 
L 163.373434 127.883737 
L 161.109018 121.757391 
L 160.491181 116.170502 
L 161.707089 115.169108 
L 169.292567 117.949354 
L 170.358447 108.151702 
L 166.791347 92.433138 
L 166.135375 83.131611 
L 163.958732 80.827491 
L 159.913433 84.269262 
L 157.797163 89.048293 
L 156.957304 94.475715 
L 156.38776 97.712021 
L 156.127066 99.656865 
L 155.91336 102.095785 
L 155.927979 105.846712 
L 161.362909 124.972945 
L 168.883149 140.068793 
L 173.485364 148.4351 
L 173.684832 149.109096 
L 173.600115 149.511302 
L 172.905179 149.234073 
L 171.312899 147.208165 
L 168.645912 142.879233 
L 166.751797 139.558422 
L 164.831511 135.924351 
L 162.84061 130.983371 
L 162.898298 129.89996 
L 164.316243 130.412591 
L 169.654101 134.3752 
L 189.571431 149.969297 
L 193.969141 153.137414 
L 197.757618 154.79344 
L 191.216653 142.194666 
L 180.230324 124.800118 
L 175.604952 116.576161 
L 171.789594 108.481425 
L 168.481179 98.824772 
L 166.77603 87.078563 
L 168.668584 73.188472 
L 163.612316 74.157539 
L 159.757274 76.954036 
L 157.759957 80.168384 
L 157.933528 81.190396 
L 157.79189 81.326635 
L 155.682205 84.372767 
L 152.386792 87.977215 
L 150.420503 92.031509 
L 149.683159 101.232279 
L 158.827983 127.438787 
L 165.110409 138.887846 
L 172.389443 150.848851 
L 177.469432 159.03341 
L 178.709133 161.52089 
L 180.655462 165.824645 
L 182.556986 169.734064 
L 185.743099 175.654528 
L 190.18833 183.070792 
L 194.909435 190.393357 
L 204.110582 203.881031 
L 213.044153 216.335945 
L 225.07652 232.451669 
L 236.382512 247.287391 
L 236.382512 247.287391 
" style="fill:none;stroke:#1f77b4;stroke-linecap:square;stroke-width:1.5;"/>
   </g>
   <g id="line2d_15">
    <defs>
     <path d="M 0 -5 
L -1.12257 -1.545085 
L -4.755283 -1.545085 
L -1.816356 0.59017 
L -2.938926 4.045085 
L -0 1.90983 
L 2.938926 4.045085 
L 1.816356 0.59017 
L 4.755283 -1.545085 
L 1.12257 -1.545085 
z
" id="m1e91dc16b6" style="stroke:#ff0000;stroke-linejoin:bevel;"/>
    </defs>
    <g clip-path="url(#pb2e0c45077)">
     <use style="fill:#ff0000;stroke:#ff0000;stroke-linejoin:bevel;" x="335.109478" xlink:href="#m1e91dc16b6" y="60.586742"/>
    </g>
   </g>
   <g id="line2d_16">
    <path clip-path="url(#pb2e0c45077)" d="M 238.908541 149.476078 
L 238.909706 149.477743 
L 238.911725 149.480636 
L 238.915224 149.485664 
L 238.921289 149.494428 
L 238.931677 149.509651 
L 238.949167 149.535967 
L 238.97809 149.581364 
L 239.024222 149.659091 
L 239.093528 149.791367 
L 239.189423 150.017117 
L 239.314315 150.387134 
L 239.474249 150.79806 
L 239.621269 150.686858 
L 239.653142 150.021584 
L 239.656197 149.823828 
L 239.716518 149.790112 
L 239.820956 149.675929 
L 239.999468 149.482491 
L 240.306119 149.125134 
L 240.837226 148.497398 
L 241.740502 147.379237 
L 243.026636 145.316573 
L 238.304267 142.217918 
" style="fill:none;stroke:#ff0000;stroke-linecap:square;stroke-width:2;"/>
   </g>
   <g id="patch_3">
    <path d="M 126 252 
L 126 34.56 
" style="fill:none;stroke:#000000;stroke-linecap:square;stroke-linejoin:miter;stroke-width:0.8;"/>
   </g>
   <g id="patch_4">
    <path d="M 355.764706 252 
L 355.764706 34.56 
" style="fill:none;stroke:#000000;stroke-linecap:square;stroke-linejoin:miter;stroke-width:0.8;"/>
   </g>
   <g id="patch_5">
    <path d="M 126 252 
L 355.764706 252 
" style="fill:none;stroke:#000000;stroke-linecap:square;stroke-linejoin:miter;stroke-width:0.8;"/>
   </g>
   <g id="patch_6">
    <path d="M 126 34.56 
L 355.764706 34.56 
" style="fill:none;stroke:#000000;stroke-linecap:square;stroke-linejoin:miter;stroke-width:0.8;"/>
   </g>
   <g id="text_16">
    <!-- sdA -->
    <defs>
     <path d="M 45.40625 46.390625 
L 45.40625 75.984375 
L 54.390625 75.984375 
L 54.390625 0 
L 45.40625 0 
L 45.40625 8.203125 
Q 42.578125 3.328125 38.25 0.953125 
Q 33.9375 -1.421875 27.875 -1.421875 
Q 17.96875 -1.421875 11.734375 6.484375 
Q 5.515625 14.40625 5.515625 27.296875 
Q 5.515625 40.1875 11.734375 48.09375 
Q 17.96875 56 27.875 56 
Q 33.9375 56 38.25 53.625 
Q 42.578125 51.265625 45.40625 46.390625 
z
M 14.796875 27.296875 
Q 14.796875 17.390625 18.875 11.75 
Q 22.953125 6.109375 30.078125 6.109375 
Q 37.203125 6.109375 41.296875 11.75 
Q 45.40625 17.390625 45.40625 27.296875 
Q 45.40625 37.203125 41.296875 42.84375 
Q 37.203125 48.484375 30.078125 48.484375 
Q 22.953125 48.484375 18.875 42.84375 
Q 14.796875 37.203125 14.796875 27.296875 
z
" id="DejaVuSans-100"/>
     <path d="M 34.1875 63.1875 
L 20.796875 26.90625 
L 47.609375 26.90625 
z
M 28.609375 72.90625 
L 39.796875 72.90625 
L 67.578125 0 
L 57.328125 0 
L 50.6875 18.703125 
L 17.828125 18.703125 
L 11.1875 0 
L 0.78125 0 
z
" id="DejaVuSans-65"/>
    </defs>
    <g transform="translate(236.155795 54.327273)scale(0.1 -0.1)">
     <use xlink:href="#DejaVuSans-115"/>
     <use x="52.099609" xlink:href="#DejaVuSans-100"/>
     <use x="115.576172" xlink:href="#DejaVuSans-65"/>
    </g>
   </g>
   <g id="text_17">
    <!-- sdB -->
    <defs>
     <path d="M 19.671875 34.8125 
L 19.671875 8.109375 
L 35.5 8.109375 
Q 43.453125 8.109375 47.28125 11.40625 
Q 51.125 14.703125 51.125 21.484375 
Q 51.125 28.328125 47.28125 31.5625 
Q 43.453125 34.8125 35.5 34.8125 
z
M 19.671875 64.796875 
L 19.671875 42.828125 
L 34.28125 42.828125 
Q 41.5 42.828125 45.03125 45.53125 
Q 48.578125 48.25 48.578125 53.8125 
Q 48.578125 59.328125 45.03125 62.0625 
Q 41.5 64.796875 34.28125 64.796875 
z
M 9.8125 72.90625 
L 35.015625 72.90625 
Q 46.296875 72.90625 52.390625 68.21875 
Q 58.5 63.53125 58.5 54.890625 
Q 58.5 48.1875 55.375 44.234375 
Q 52.25 40.28125 46.1875 39.3125 
Q 53.46875 37.75 57.5 32.78125 
Q 61.53125 27.828125 61.53125 20.40625 
Q 61.53125 10.640625 54.890625 5.3125 
Q 48.25 0 35.984375 0 
L 9.8125 0 
z
" id="DejaVuSans-66"/>
    </defs>
    <g transform="translate(205.943658 54.327273)scale(0.1 -0.1)">
     <use xlink:href="#DejaVuSans-115"/>
     <use x="52.099609" xlink:href="#DejaVuSans-100"/>
     <use x="115.576172" xlink:href="#DejaVuSans-66"/>
    </g>
   </g>
   <g id="text_18">
    <!-- sdO -->
    <defs>
     <path d="M 39.40625 66.21875 
Q 28.65625 66.21875 22.328125 58.203125 
Q 16.015625 50.203125 16.015625 36.375 
Q 16.015625 22.609375 22.328125 14.59375 
Q 28.65625 6.59375 39.40625 6.59375 
Q 50.140625 6.59375 56.421875 14.59375 
Q 62.703125 22.609375 62.703125 36.375 
Q 62.703125 50.203125 56.421875 58.203125 
Q 50.140625 66.21875 39.40625 66.21875 
z
M 39.40625 74.21875 
Q 54.734375 74.21875 63.90625 63.9375 
Q 73.09375 53.65625 73.09375 36.375 
Q 73.09375 19.140625 63.90625 8.859375 
Q 54.734375 -1.421875 39.40625 -1.421875 
Q 24.03125 -1.421875 14.8125 8.828125 
Q 5.609375 19.09375 5.609375 36.375 
Q 5.609375 53.65625 14.8125 63.9375 
Q 24.03125 74.21875 39.40625 74.21875 
z
" id="DejaVuSans-79"/>
    </defs>
    <g transform="translate(158.199243 54.327273)scale(0.1 -0.1)">
     <use xlink:href="#DejaVuSans-115"/>
     <use x="52.099609" xlink:href="#DejaVuSans-100"/>
     <use x="115.576172" xlink:href="#DejaVuSans-79"/>
    </g>
   </g>
   <g id="text_19">
    <!-- Low mass sdA -->
    <defs>
     <path d="M 4.203125 54.6875 
L 13.1875 54.6875 
L 24.421875 12.015625 
L 35.59375 54.6875 
L 46.1875 54.6875 
L 57.421875 12.015625 
L 68.609375 54.6875 
L 77.59375 54.6875 
L 63.28125 0 
L 52.6875 0 
L 40.921875 44.828125 
L 29.109375 0 
L 18.5 0 
z
" id="DejaVuSans-119"/>
     <path d="M 52 44.1875 
Q 55.375 50.25 60.0625 53.125 
Q 64.75 56 71.09375 56 
Q 79.640625 56 84.28125 50.015625 
Q 88.921875 44.046875 88.921875 33.015625 
L 88.921875 0 
L 79.890625 0 
L 79.890625 32.71875 
Q 79.890625 40.578125 77.09375 44.375 
Q 74.3125 48.1875 68.609375 48.1875 
Q 61.625 48.1875 57.5625 43.546875 
Q 53.515625 38.921875 53.515625 30.90625 
L 53.515625 0 
L 44.484375 0 
L 44.484375 32.71875 
Q 44.484375 40.625 41.703125 44.40625 
Q 38.921875 48.1875 33.109375 48.1875 
Q 26.21875 48.1875 22.15625 43.53125 
Q 18.109375 38.875 18.109375 30.90625 
L 18.109375 0 
L 9.078125 0 
L 9.078125 54.6875 
L 18.109375 54.6875 
L 18.109375 46.1875 
Q 21.1875 51.21875 25.484375 53.609375 
Q 29.78125 56 35.6875 56 
Q 41.65625 56 45.828125 52.96875 
Q 50 49.953125 52 44.1875 
z
" id="DejaVuSans-109"/>
     <path d="M 34.28125 27.484375 
Q 23.390625 27.484375 19.1875 25 
Q 14.984375 22.515625 14.984375 16.5 
Q 14.984375 11.71875 18.140625 8.90625 
Q 21.296875 6.109375 26.703125 6.109375 
Q 34.1875 6.109375 38.703125 11.40625 
Q 43.21875 16.703125 43.21875 25.484375 
L 43.21875 27.484375 
z
M 52.203125 31.203125 
L 52.203125 0 
L 43.21875 0 
L 43.21875 8.296875 
Q 40.140625 3.328125 35.546875 0.953125 
Q 30.953125 -1.421875 24.3125 -1.421875 
Q 15.921875 -1.421875 10.953125 3.296875 
Q 6 8.015625 6 15.921875 
Q 6 25.140625 12.171875 29.828125 
Q 18.359375 34.515625 30.609375 34.515625 
L 43.21875 34.515625 
L 43.21875 35.40625 
Q 43.21875 41.609375 39.140625 45 
Q 35.0625 48.390625 27.6875 48.390625 
Q 23 48.390625 18.546875 47.265625 
Q 14.109375 46.140625 10.015625 43.890625 
L 10.015625 52.203125 
Q 14.9375 54.109375 19.578125 55.046875 
Q 24.21875 56 28.609375 56 
Q 40.484375 56 46.34375 49.84375 
Q 52.203125 43.703125 52.203125 31.203125 
z
" id="DejaVuSans-97"/>
    </defs>
    <g transform="translate(198.336728 28.56)scale(0.12 -0.12)">
     <use xlink:href="#DejaVuSans-76"/>
     <use x="55.697266" xlink:href="#DejaVuSans-111"/>
     <use x="116.878906" xlink:href="#DejaVuSans-119"/>
     <use x="198.666016" xlink:href="#DejaVuSans-32"/>
     <use x="230.453125" xlink:href="#DejaVuSans-109"/>
     <use x="327.865234" xlink:href="#DejaVuSans-97"/>
     <use x="389.144531" xlink:href="#DejaVuSans-115"/>
     <use x="441.244141" xlink:href="#DejaVuSans-115"/>
     <use x="493.34375" xlink:href="#DejaVuSans-32"/>
     <use x="525.130859" xlink:href="#DejaVuSans-115"/>
     <use x="577.230469" xlink:href="#DejaVuSans-100"/>
     <use x="640.707031" xlink:href="#DejaVuSans-65"/>
    </g>
   </g>
  </g>
  <g id="axes_2">
   <g id="patch_7">
    <path d="M 401.717647 252 
L 631.482353 252 
L 631.482353 34.56 
L 401.717647 34.56 
z
" style="fill:#ffffff;"/>
   </g>
   <g id="PolyCollection_4">
    <defs>
     <path d="M 531.906305 -253.44 
L 531.906305 -16.232727 
L 513.748026 -16.232727 
L 513.748026 -253.44 
L 513.748026 -253.44 
L 531.906305 -253.44 
z
" id="m82211e380f" style="stroke:#0000ff;stroke-opacity:0.3;"/>
    </defs>
    <g clip-path="url(#p5ec3643ec7)">
     <use style="fill:#0000ff;fill-opacity:0.3;stroke:#0000ff;stroke-opacity:0.3;" x="0" xlink:href="#m82211e380f" y="288"/>
    </g>
   </g>
   <g id="PolyCollection_5">
    <defs>
     <path d="M 513.748026 -253.44 
L 513.748026 -16.232727 
L 469.99709 -16.232727 
L 469.99709 -253.44 
L 469.99709 -253.44 
L 513.748026 -253.44 
z
" id="m34b68d853f" style="stroke:#008000;stroke-opacity:0.3;"/>
    </defs>
    <g clip-path="url(#p5ec3643ec7)">
     <use style="fill:#008000;fill-opacity:0.3;stroke:#008000;stroke-opacity:0.3;" x="0" xlink:href="#m34b68d853f" y="288"/>
    </g>
   </g>
   <g id="PolyCollection_6">
    <defs>
     <path d="M 469.99709 -253.44 
L 469.99709 -16.232727 
L 412.161497 -16.232727 
L 412.161497 -253.44 
L 412.161497 -253.44 
L 469.99709 -253.44 
z
" id="mf5bff8c084" style="stroke:#ff0000;stroke-opacity:0.3;"/>
    </defs>
    <g clip-path="url(#p5ec3643ec7)">
     <use style="fill:#ff0000;fill-opacity:0.3;stroke:#ff0000;stroke-opacity:0.3;" x="0" xlink:href="#mf5bff8c084" y="288"/>
    </g>
   </g>
   <g id="matplotlib.axis_3">
    <g id="xtick_8">
     <g id="line2d_17">
      <g>
       <use style="stroke:#000000;stroke-width:0.8;" x="630.167695" xlink:href="#m17f9682192" y="252"/>
      </g>
     </g>
     <g id="text_20">
      <!-- 3.50 -->
      <g transform="translate(619.034883 266.598437)scale(0.1 -0.1)">
       <use xlink:href="#DejaVuSans-51"/>
       <use x="63.623047" xlink:href="#DejaVuSans-46"/>
       <use x="95.410156" xlink:href="#DejaVuSans-53"/>
       <use x="159.033203" xlink:href="#DejaVuSans-48"/>
      </g>
     </g>
    </g>
    <g id="xtick_9">
     <g id="line2d_18">
      <g>
       <use style="stroke:#000000;stroke-width:0.8;" x="593.833329" xlink:href="#m17f9682192" y="252"/>
      </g>
     </g>
     <g id="text_21">
      <!-- 3.75 -->
      <g transform="translate(582.700516 266.598437)scale(0.1 -0.1)">
       <use xlink:href="#DejaVuSans-51"/>
       <use x="63.623047" xlink:href="#DejaVuSans-46"/>
       <use x="95.410156" xlink:href="#DejaVuSans-55"/>
       <use x="159.033203" xlink:href="#DejaVuSans-53"/>
      </g>
     </g>
    </g>
    <g id="xtick_10">
     <g id="line2d_19">
      <g>
       <use style="stroke:#000000;stroke-width:0.8;" x="557.498963" xlink:href="#m17f9682192" y="252"/>
      </g>
     </g>
     <g id="text_22">
      <!-- 4.00 -->
      <g transform="translate(546.36615 266.598437)scale(0.1 -0.1)">
       <use xlink:href="#DejaVuSans-52"/>
       <use x="63.623047" xlink:href="#DejaVuSans-46"/>
       <use x="95.410156" xlink:href="#DejaVuSans-48"/>
       <use x="159.033203" xlink:href="#DejaVuSans-48"/>
      </g>
     </g>
    </g>
    <g id="xtick_11">
     <g id="line2d_20">
      <g>
       <use style="stroke:#000000;stroke-width:0.8;" x="521.164596" xlink:href="#m17f9682192" y="252"/>
      </g>
     </g>
     <g id="text_23">
      <!-- 4.25 -->
      <g transform="translate(510.031784 266.598437)scale(0.1 -0.1)">
       <use xlink:href="#DejaVuSans-52"/>
       <use x="63.623047" xlink:href="#DejaVuSans-46"/>
       <use x="95.410156" xlink:href="#DejaVuSans-50"/>
       <use x="159.033203" xlink:href="#DejaVuSans-53"/>
      </g>
     </g>
    </g>
    <g id="xtick_12">
     <g id="line2d_21">
      <g>
       <use style="stroke:#000000;stroke-width:0.8;" x="484.83023" xlink:href="#m17f9682192" y="252"/>
      </g>
     </g>
     <g id="text_24">
      <!-- 4.50 -->
      <g transform="translate(473.697417 266.598437)scale(0.1 -0.1)">
       <use xlink:href="#DejaVuSans-52"/>
       <use x="63.623047" xlink:href="#DejaVuSans-46"/>
       <use x="95.410156" xlink:href="#DejaVuSans-53"/>
       <use x="159.033203" xlink:href="#DejaVuSans-48"/>
      </g>
     </g>
    </g>
    <g id="xtick_13">
     <g id="line2d_22">
      <g>
       <use style="stroke:#000000;stroke-width:0.8;" x="448.495864" xlink:href="#m17f9682192" y="252"/>
      </g>
     </g>
     <g id="text_25">
      <!-- 4.75 -->
      <g transform="translate(437.363051 266.598437)scale(0.1 -0.1)">
       <use xlink:href="#DejaVuSans-52"/>
       <use x="63.623047" xlink:href="#DejaVuSans-46"/>
       <use x="95.410156" xlink:href="#DejaVuSans-55"/>
       <use x="159.033203" xlink:href="#DejaVuSans-53"/>
      </g>
     </g>
    </g>
    <g id="xtick_14">
     <g id="line2d_23">
      <g>
       <use style="stroke:#000000;stroke-width:0.8;" x="412.161497" xlink:href="#m17f9682192" y="252"/>
      </g>
     </g>
     <g id="text_26">
      <!-- 5.00 -->
      <g transform="translate(401.028685 266.598437)scale(0.1 -0.1)">
       <use xlink:href="#DejaVuSans-53"/>
       <use x="63.623047" xlink:href="#DejaVuSans-46"/>
       <use x="95.410156" xlink:href="#DejaVuSans-48"/>
       <use x="159.033203" xlink:href="#DejaVuSans-48"/>
      </g>
     </g>
    </g>
    <g id="text_27">
     <!-- log(Teff) [K] -->
     <g transform="translate(486.66875 280.276563)scale(0.1 -0.1)">
      <use xlink:href="#DejaVuSans-108"/>
      <use x="27.783203" xlink:href="#DejaVuSans-111"/>
      <use x="88.964844" xlink:href="#DejaVuSans-103"/>
      <use x="152.441406" xlink:href="#DejaVuSans-40"/>
      <use x="191.455078" xlink:href="#DejaVuSans-84"/>
      <use x="252.273438" xlink:href="#DejaVuSans-101"/>
      <use x="313.796875" xlink:href="#DejaVuSans-102"/>
      <use x="349.001953" xlink:href="#DejaVuSans-102"/>
      <use x="384.207031" xlink:href="#DejaVuSans-41"/>
      <use x="423.220703" xlink:href="#DejaVuSans-32"/>
      <use x="455.007812" xlink:href="#DejaVuSans-91"/>
      <use x="494.021484" xlink:href="#DejaVuSans-75"/>
      <use x="559.597656" xlink:href="#DejaVuSans-93"/>
     </g>
    </g>
   </g>
   <g id="matplotlib.axis_4">
    <g id="ytick_7">
     <g id="line2d_24">
      <g>
       <use style="stroke:#000000;stroke-width:0.8;" x="401.717647" xlink:href="#m4bf22a5cff" y="232.232727"/>
      </g>
     </g>
     <g id="text_28">
      <!-- −1 -->
      <g transform="translate(379.97546 236.031946)scale(0.1 -0.1)">
       <use xlink:href="#DejaVuSans-8722"/>
       <use x="83.789062" xlink:href="#DejaVuSans-49"/>
      </g>
     </g>
    </g>
    <g id="ytick_8">
     <g id="line2d_25">
      <g>
       <use style="stroke:#000000;stroke-width:0.8;" x="401.717647" xlink:href="#m4bf22a5cff" y="192.698182"/>
      </g>
     </g>
     <g id="text_29">
      <!-- 0 -->
      <g transform="translate(388.355147 196.497401)scale(0.1 -0.1)">
       <use xlink:href="#DejaVuSans-48"/>
      </g>
     </g>
    </g>
    <g id="ytick_9">
     <g id="line2d_26">
      <g>
       <use style="stroke:#000000;stroke-width:0.8;" x="401.717647" xlink:href="#m4bf22a5cff" y="153.163636"/>
      </g>
     </g>
     <g id="text_30">
      <!-- 1 -->
      <g transform="translate(388.355147 156.962855)scale(0.1 -0.1)">
       <use xlink:href="#DejaVuSans-49"/>
      </g>
     </g>
    </g>
    <g id="ytick_10">
     <g id="line2d_27">
      <g>
       <use style="stroke:#000000;stroke-width:0.8;" x="401.717647" xlink:href="#m4bf22a5cff" y="113.629091"/>
      </g>
     </g>
     <g id="text_31">
      <!-- 2 -->
      <g transform="translate(388.355147 117.42831)scale(0.1 -0.1)">
       <use xlink:href="#DejaVuSans-50"/>
      </g>
     </g>
    </g>
    <g id="ytick_11">
     <g id="line2d_28">
      <g>
       <use style="stroke:#000000;stroke-width:0.8;" x="401.717647" xlink:href="#m4bf22a5cff" y="74.094545"/>
      </g>
     </g>
     <g id="text_32">
      <!-- 3 -->
      <g transform="translate(388.355147 77.893764)scale(0.1 -0.1)">
       <use xlink:href="#DejaVuSans-51"/>
      </g>
     </g>
    </g>
    <g id="ytick_12">
     <g id="line2d_29">
      <g>
       <use style="stroke:#000000;stroke-width:0.8;" x="401.717647" xlink:href="#m4bf22a5cff" y="34.56"/>
      </g>
     </g>
     <g id="text_33">
      <!-- 4 -->
      <g transform="translate(388.355147 38.359219)scale(0.1 -0.1)">
       <use xlink:href="#DejaVuSans-52"/>
      </g>
     </g>
    </g>
    <g id="text_34">
     <!-- log(L) [Lsol] -->
     <g transform="translate(373.895772 172.919844)rotate(-90)scale(0.1 -0.1)">
      <use xlink:href="#DejaVuSans-108"/>
      <use x="27.783203" xlink:href="#DejaVuSans-111"/>
      <use x="88.964844" xlink:href="#DejaVuSans-103"/>
      <use x="152.441406" xlink:href="#DejaVuSans-40"/>
      <use x="191.455078" xlink:href="#DejaVuSans-76"/>
      <use x="247.167969" xlink:href="#DejaVuSans-41"/>
      <use x="286.181641" xlink:href="#DejaVuSans-32"/>
      <use x="317.96875" xlink:href="#DejaVuSans-91"/>
      <use x="356.982422" xlink:href="#DejaVuSans-76"/>
      <use x="412.695312" xlink:href="#DejaVuSans-115"/>
      <use x="464.794922" xlink:href="#DejaVuSans-111"/>
      <use x="525.976562" xlink:href="#DejaVuSans-108"/>
      <use x="553.759766" xlink:href="#DejaVuSans-93"/>
     </g>
    </g>
   </g>
   <g id="line2d_30">
    <path clip-path="url(#p5ec3643ec7)" d="M 575.001542 169.826406 
L 574.748615 169.251842 
L 574.329848 168.231804 
L 573.957584 167.077499 
L 573.698815 164.967422 
L 574.949739 161.194067 
L 573.803658 158.84299 
L 575.490884 155.717196 
L 576.29209 154.801619 
L 577.307842 153.975345 
L 578.603567 153.230199 
L 579.82863 152.722172 
L 581.631988 152.193091 
L 583.588963 151.791728 
L 587.112391 151.435614 
L 588.600329 151.475885 
L 589.92219 151.672103 
L 591.102249 152.02473 
L 592.158202 152.523361 
L 593.102135 153.13999 
L 594.657179 154.48328 
L 595.796674 155.49376 
L 596.596571 155.923193 
L 597.160981 155.890654 
L 597.570073 155.578761 
L 598.000546 154.853462 
L 598.464841 153.428405 
L 598.913379 151.167731 
L 599.527678 146.558346 
L 601.830852 128.807892 
L 602.46837 124.768553 
L 603.734329 117.439054 
L 606.364913 103.690678 
L 608.398486 94.911126 
L 608.710797 93.69499 
L 609.85355 89.567113 
L 611.573775 84.292755 
L 611.871268 83.499231 
L 613.054587 80.614175 
L 613.787224 79.439583 
L 615.516322 78.319448 
L 615.758967 78.09874 
L 616.072613 77.785334 
L 616.314144 77.533688 
L 616.750836 77.048134 
L 617.022629 76.722188 
L 617.295611 76.395457 
L 617.515367 76.10431 
L 617.713712 75.857492 
L 617.938094 75.548617 
L 618.144654 75.273996 
L 618.487894 74.776643 
L 618.722573 74.432303 
L 620.59998 70.952316 
L 621.02565 69.150873 
L 620.952851 68.110128 
L 620.575965 67.111945 
L 620.493396 66.982569 
L 620.363752 66.783387 
L 620.216362 66.58808 
L 620.056248 66.388275 
L 619.839713 66.170597 
L 619.669957 66.004216 
L 619.473024 65.833962 
L 619.261339 65.655066 
L 619.042064 65.495005 
L 617.694517 64.733917 
L 617.377478 64.601094 
L 617.101757 64.488463 
L 614.81051 63.890527 
L 614.015581 63.77698 
L 613.40988 63.694489 
L 609.322503 63.420542 
L 600.824811 63.304297 
L 538.178992 63.36962 
L 510.367084 63.562326 
L 487.690215 63.980304 
L 475.222001 64.395004 
L 464.114821 64.979764 
L 457.375371 65.472165 
L 450.69577 66.116711 
L 444.319035 66.943881 
L 438.055226 68.045724 
L 434.068223 68.963956 
L 430.189336 70.092357 
L 426.353019 71.539182 
L 424.523642 72.398928 
L 422.795924 73.352811 
L 420.948884 74.568823 
L 419.220485 75.990995 
L 417.628535 77.68733 
L 416.125288 79.917342 
L 414.906825 82.887387 
L 414.262406 87.522358 
L 417.455729 101.668903 
L 424.734483 116.995436 
L 429.061661 124.450812 
L 433.289824 131.247111 
L 440.837473 142.72224 
L 451.0424 157.563303 
L 456.451353 165.051628 
L 463.995595 171.066193 
L 491.988495 193.380712 
L 539.870985 231.563325 
L 546.669038 237.259878 
L 546.252904 236.815248 
L 545.36064 235.844629 
L 546.831295 237.392226 
L 550.890795 240.8541 
L 550.488929 240.418508 
L 546.271715 235.82892 
L 551.460852 241.335967 
L 555.825669 245.001293 
L 555.358084 244.491759 
L 552.177461 241.029575 
L 556.424182 245.528643 
L 558.167867 246.995972 
L 557.783752 246.547721 
L 549.580404 237.620858 
L 558.840005 247.558127 
L 566.914157 254.331789 
L 567.559837 253.776652 
L 567.537673 253.773056 
L 566.729155 252.891173 
L 567.571374 253.770777 
L 567.617814 253.706825 
L 567.673864 253.537177 
L 567.71327 253.439313 
L 567.858336 252.897005 
L 567.858336 252.897005 
L 567.698897 252.791529 
L 565.510426 250.407863 
L 567.84881 252.893303 
L 567.870747 252.839548 
L 567.979069 252.401121 
L 567.627737 252.01574 
L 568.024907 252.302248 
L 568.15861 251.898198 
L 568.219884 251.685476 
L 568.152993 251.666969 
L 567.703823 251.16965 
L 568.211922 251.681456 
L 568.232737 251.627867 
L 568.250073 251.396011 
L 565.352522 248.192743 
L 568.27001 251.397314 
L 568.314478 251.303167 
L 568.36527 251.127013 
L 566.935096 249.563471 
L 568.389818 250.995158 
L 568.430065 250.884347 
L 568.400023 250.586735 
L 568.063509 250.220178 
L 568.471159 250.636156 
L 568.496823 250.53704 
L 568.560835 249.853085 
L 568.364672 248.894268 
L 568.393345 248.922309 
L 568.320378 248.785657 
L 568.407942 248.927045 
L 568.375537 248.75593 
L 568.282192 248.015918 
L 568.319631 248.022998 
L 568.520981 247.081692 
L 568.520981 247.081692 
L 568.551584 247.114435 
L 568.544672 246.984744 
L 568.563193 246.934954 
L 568.577836 246.949594 
L 568.692491 247.074438 
L 568.594251 246.819782 
L 568.981118 245.30914 
L 569.108676 245.447487 
L 569.153446 245.495676 
L 568.998812 245.169962 
L 569.029664 245.018329 
L 569.053258 245.037369 
L 569.167381 245.160826 
L 569.049703 244.896841 
L 569.399452 243.703178 
L 569.412329 243.718619 
L 569.435131 243.582973 
L 569.525217 243.325795 
L 569.564966 243.367241 
L 569.651267 243.46118 
L 569.556015 243.211811 
L 569.649649 242.915286 
L 569.722072 242.991242 
L 570.136123 243.441532 
L 569.684471 242.792994 
L 570.352691 240.855386 
L 570.682727 239.992584 
L 570.725417 240.037987 
L 570.725624 239.877536 
L 571.857335 237.261785 
L 571.861884 237.265577 
L 571.873816 237.278346 
L 571.90604 237.155052 
L 572.288524 236.369947 
L 572.326733 236.411117 
L 572.509077 236.609622 
L 572.340982 236.264114 
L 575.374998 231.124488 
L 576.245073 230.055077 
L 576.426377 230.081749 
L 577.760488 228.316535 
L 579.143787 226.805785 
L 580.583337 225.506741 
L 581.870627 224.463832 
L 582.263084 223.836774 
L 582.844295 223.317115 
L 579.107163 218.470583 
L 579.60555 217.738622 
L 579.930309 217.232504 
L 580.267034 214.729026 
L 579.423237 213.057811 
L 572.911841 205.70245 
L 573.241675 205.797888 
L 573.575485 205.062627 
L 573.72477 204.23565 
L 573.751569 203.340987 
L 573.080697 201.546338 
L 571.851128 198.751449 
L 570.874858 195.838203 
L 569.09366 191.707698 
L 563.879182 178.421178 
L 563.438516 175.807593 
L 562.266173 172.643774 
L 560.858418 169.225612 
L 559.137722 165.619757 
L 558.445221 162.364286 
L 558.004575 161.260277 
L 558.089965 160.609857 
L 561.299826 146.012119 
L 563.367285 137.681686 
L 565.879726 128.715247 
L 568.63479 119.766409 
L 571.421043 111.394621 
L 576.624622 96.841967 
L 576.563251 96.158196 
L 575.769852 95.399643 
L 574.53879 94.066732 
L 573.462899 93.414421 
L 571.821792 92.959332 
L 569.259611 92.761039 
L 552.585596 92.820682 
L 535.670075 93.074654 
L 526.362084 93.339004 
L 516.479244 93.822308 
L 507.171928 94.564741 
L 502.390889 95.104562 
L 497.787029 95.758845 
L 493.43241 96.528617 
L 488.946316 97.51728 
L 484.579812 98.710802 
L 480.096887 100.226261 
L 475.803456 102.007066 
L 471.588584 104.098842 
L 467.496066 106.489687 
L 463.757692 109.094102 
L 461.432958 111.503233 
L 461.14668 112.570428 
L 461.463681 113.018586 
L 463.438421 114.699087 
L 468.310741 118.845937 
L 470.865707 121.368603 
L 472.740747 123.516958 
L 474.222018 125.532053 
L 475.461491 127.71192 
L 477.106351 130.643715 
L 478.195089 131.935506 
L 477.135784 128.959767 
L 472.8568 122.182954 
L 468.412741 119.349271 
L 465.01742 119.49417 
L 464.325604 120.347514 
L 464.537032 120.727612 
L 465.882229 121.910786 
L 470.802574 126.165475 
L 473.209602 128.570715 
L 474.670085 130.261594 
L 475.38704 131.261648 
L 476.163802 132.729035 
L 477.33117 135.058485 
L 477.187087 134.664055 
L 474.177107 130.157576 
L 469.692926 126.329051 
L 466.475408 126.336401 
L 466.367111 126.642012 
L 466.852892 127.260275 
L 473.670281 133.400955 
L 475.183063 135.026782 
L 476.199359 136.364747 
L 476.948976 137.983995 
L 477.354132 139.034581 
L 477.121693 139.030925 
L 474.493352 135.828863 
L 470.109261 132.580507 
L 468.988482 132.799865 
L 469.142254 133.102527 
L 470.587304 134.415428 
L 474.317691 137.786973 
L 476.003898 139.496669 
L 477.35777 141.168137 
L 477.786467 141.99713 
L 478.074025 142.893706 
L 477.993426 143.385375 
L 476.20588 141.660735 
L 472.743369 138.962358 
L 472.422777 138.964272 
L 473.529166 140.021147 
L 476.944909 143.226994 
L 478.201278 144.590648 
L 479.484822 146.327326 
L 480.210239 147.744891 
L 480.198244 147.97792 
L 480.054082 147.938974 
L 479.025225 146.991828 
L 478.809682 146.744351 
L 480.758299 148.523025 
L 481.745964 149.613953 
L 483.258952 151.33887 
L 482.953688 150.665845 
L 482.393419 149.678906 
L 482.444712 148.178097 
L 482.26237 146.030544 
L 482.03204 145.184182 
L 481.668687 144.421586 
L 481.104668 143.715586 
L 480.214515 143.05481 
L 478.73133 142.445409 
L 475.86048 141.929536 
L 471.280728 140.464607 
L 471.000195 137.909721 
L 470.644536 137.182331 
L 469.304785 135.969606 
L 466.550998 133.347261 
L 462.894057 129.31076 
L 457.467634 123.266937 
L 452.335623 117.749314 
L 446.828391 112.344598 
L 444.070752 110.002963 
L 441.244418 107.968296 
L 438.395314 106.24717 
L 435.537799 104.879737 
L 432.683551 103.908417 
L 429.854357 103.386214 
L 427.090697 103.397138 
L 424.462395 104.088773 
L 422.024762 105.817794 
L 420.25418 109.912759 
L 429.182784 135.887419 
L 437.041052 149.822576 
L 441.226131 156.622045 
L 445.876493 163.888362 
L 450.658873 171.039438 
L 455.321964 177.70402 
L 459.78035 183.835026 
L 469.206661 196.257719 
L 473.748908 202.064336 
L 473.748908 202.064336 
" style="fill:none;stroke:#1f77b4;stroke-linecap:square;stroke-width:1.5;"/>
   </g>
   <g id="line2d_31">
    <g clip-path="url(#p5ec3643ec7)">
     <use style="fill:#ff0000;stroke:#ff0000;stroke-linejoin:bevel;" x="477.418393" xlink:href="#m1e91dc16b6" y="181.753566"/>
    </g>
   </g>
   <g id="line2d_32">
    <path clip-path="url(#p5ec3643ec7)" d="M 480.994215 148.768432 
L 480.996857 148.771215 
L 481.001423 148.776028 
L 481.009317 148.784352 
L 481.022962 148.798754 
L 481.046461 148.823618 
L 481.086554 148.8663 
L 481.154351 148.93923 
L 481.267337 149.062861 
L 481.451939 149.270408 
L 481.745964 149.613953 
L 482.198249 150.163591 
L 482.807454 150.902746 
L 483.258952 151.33887 
L 482.953688 150.665845 
L 482.394112 149.787579 
L 482.366595 149.726744 
L 482.393419 149.678906 
L 482.404508 149.546407 
L 482.425801 149.323824 
L 482.437782 148.908038 
L 482.444712 148.178097 
L 482.395905 147.01399 
L 482.26237 146.030544 
L 482.03204 145.184182 
L 481.668687 144.421586 
L 481.104668 143.715586 
L 480.214515 143.05481 
L 478.73133 142.445409 
L 475.86048 141.929536 
" style="fill:none;stroke:#ff0000;stroke-linecap:square;stroke-width:2;"/>
   </g>
   <g id="patch_8">
    <path d="M 401.717647 252 
L 401.717647 34.56 
" style="fill:none;stroke:#000000;stroke-linecap:square;stroke-linejoin:miter;stroke-width:0.8;"/>
   </g>
   <g id="patch_9">
    <path d="M 631.482353 252 
L 631.482353 34.56 
" style="fill:none;stroke:#000000;stroke-linecap:square;stroke-linejoin:miter;stroke-width:0.8;"/>
   </g>
   <g id="patch_10">
    <path d="M 401.717647 252 
L 631.482353 252 
" style="fill:none;stroke:#000000;stroke-linecap:square;stroke-linejoin:miter;stroke-width:0.8;"/>
   </g>
   <g id="patch_11">
    <path d="M 401.717647 34.56 
L 631.482353 34.56 
" style="fill:none;stroke:#000000;stroke-linecap:square;stroke-linejoin:miter;stroke-width:0.8;"/>
   </g>
   <g id="text_35">
    <!-- sdA -->
    <g transform="translate(515.346067 54.327273)scale(0.1 -0.1)">
     <use xlink:href="#DejaVuSans-115"/>
     <use x="52.099609" xlink:href="#DejaVuSans-100"/>
     <use x="115.576172" xlink:href="#DejaVuSans-65"/>
    </g>
   </g>
   <g id="text_36">
    <!-- sdB -->
    <g transform="translate(484.081745 54.327273)scale(0.1 -0.1)">
     <use xlink:href="#DejaVuSans-115"/>
     <use x="52.099609" xlink:href="#DejaVuSans-100"/>
     <use x="115.576172" xlink:href="#DejaVuSans-66"/>
    </g>
   </g>
   <g id="text_37">
    <!-- sdO -->
    <g transform="translate(434.674556 54.327273)scale(0.1 -0.1)">
     <use xlink:href="#DejaVuSans-115"/>
     <use x="52.099609" xlink:href="#DejaVuSans-100"/>
     <use x="115.576172" xlink:href="#DejaVuSans-79"/>
    </g>
   </g>
   <g id="text_38">
    <!-- Low mass sdB -->
    <g transform="translate(474.042188 28.56)scale(0.12 -0.12)">
     <use xlink:href="#DejaVuSans-76"/>
     <use x="55.697266" xlink:href="#DejaVuSans-111"/>
     <use x="116.878906" xlink:href="#DejaVuSans-119"/>
     <use x="198.666016" xlink:href="#DejaVuSans-32"/>
     <use x="230.453125" xlink:href="#DejaVuSans-109"/>
     <use x="327.865234" xlink:href="#DejaVuSans-97"/>
     <use x="389.144531" xlink:href="#DejaVuSans-115"/>
     <use x="441.244141" xlink:href="#DejaVuSans-115"/>
     <use x="493.34375" xlink:href="#DejaVuSans-32"/>
     <use x="525.130859" xlink:href="#DejaVuSans-115"/>
     <use x="577.230469" xlink:href="#DejaVuSans-100"/>
     <use x="640.707031" xlink:href="#DejaVuSans-66"/>
    </g>
   </g>
  </g>
  <g id="axes_3">
   <g id="patch_12">
    <path d="M 677.435294 252 
L 907.2 252 
L 907.2 34.56 
L 677.435294 34.56 
z
" style="fill:#ffffff;"/>
   </g>
   <g id="PolyCollection_7">
    <defs>
     <path d="M 822.724363 -253.44 
L 822.724363 -16.232727 
L 805.369136 -16.232727 
L 805.369136 -253.44 
L 805.369136 -253.44 
L 822.724363 -253.44 
z
" id="m3a03bdfd18" style="stroke:#0000ff;stroke-opacity:0.3;"/>
    </defs>
    <g clip-path="url(#p937cac5448)">
     <use style="fill:#0000ff;fill-opacity:0.3;stroke:#0000ff;stroke-opacity:0.3;" x="0" xlink:href="#m3a03bdfd18" y="288"/>
    </g>
   </g>
   <g id="PolyCollection_8">
    <defs>
     <path d="M 805.369136 -253.44 
L 805.369136 -16.232727 
L 763.553091 -16.232727 
L 763.553091 -253.44 
L 763.553091 -253.44 
L 805.369136 -253.44 
z
" id="m67e5216ca3" style="stroke:#008000;stroke-opacity:0.3;"/>
    </defs>
    <g clip-path="url(#p937cac5448)">
     <use style="fill:#008000;fill-opacity:0.3;stroke:#008000;stroke-opacity:0.3;" x="0" xlink:href="#m67e5216ca3" y="288"/>
    </g>
   </g>
   <g id="PolyCollection_9">
    <defs>
     <path d="M 763.553091 -253.44 
L 763.553091 -16.232727 
L 708.275286 -16.232727 
L 708.275286 -253.44 
L 708.275286 -253.44 
L 763.553091 -253.44 
z
" id="mc4f9e194f6" style="stroke:#ff0000;stroke-opacity:0.3;"/>
    </defs>
    <g clip-path="url(#p937cac5448)">
     <use style="fill:#ff0000;fill-opacity:0.3;stroke:#ff0000;stroke-opacity:0.3;" x="0" xlink:href="#mc4f9e194f6" y="288"/>
    </g>
   </g>
   <g id="matplotlib.axis_5">
    <g id="xtick_15">
     <g id="line2d_33">
      <g>
       <use style="stroke:#000000;stroke-width:0.8;" x="881.912655" xlink:href="#m17f9682192" y="252"/>
      </g>
     </g>
     <g id="text_39">
      <!-- 3.75 -->
      <g transform="translate(870.779842 266.598437)scale(0.1 -0.1)">
       <use xlink:href="#DejaVuSans-51"/>
       <use x="63.623047" xlink:href="#DejaVuSans-46"/>
       <use x="95.410156" xlink:href="#DejaVuSans-55"/>
       <use x="159.033203" xlink:href="#DejaVuSans-53"/>
      </g>
     </g>
    </g>
    <g id="xtick_16">
     <g id="line2d_34">
      <g>
       <use style="stroke:#000000;stroke-width:0.8;" x="847.185181" xlink:href="#m17f9682192" y="252"/>
      </g>
     </g>
     <g id="text_40">
      <!-- 4.00 -->
      <g transform="translate(836.052369 266.598437)scale(0.1 -0.1)">
       <use xlink:href="#DejaVuSans-52"/>
       <use x="63.623047" xlink:href="#DejaVuSans-46"/>
       <use x="95.410156" xlink:href="#DejaVuSans-48"/>
       <use x="159.033203" xlink:href="#DejaVuSans-48"/>
      </g>
     </g>
    </g>
    <g id="xtick_17">
     <g id="line2d_35">
      <g>
       <use style="stroke:#000000;stroke-width:0.8;" x="812.457707" xlink:href="#m17f9682192" y="252"/>
      </g>
     </g>
     <g id="text_41">
      <!-- 4.25 -->
      <g transform="translate(801.324895 266.598437)scale(0.1 -0.1)">
       <use xlink:href="#DejaVuSans-52"/>
       <use x="63.623047" xlink:href="#DejaVuSans-46"/>
       <use x="95.410156" xlink:href="#DejaVuSans-50"/>
       <use x="159.033203" xlink:href="#DejaVuSans-53"/>
      </g>
     </g>
    </g>
    <g id="xtick_18">
     <g id="line2d_36">
      <g>
       <use style="stroke:#000000;stroke-width:0.8;" x="777.730233" xlink:href="#m17f9682192" y="252"/>
      </g>
     </g>
     <g id="text_42">
      <!-- 4.50 -->
      <g transform="translate(766.597421 266.598437)scale(0.1 -0.1)">
       <use xlink:href="#DejaVuSans-52"/>
       <use x="63.623047" xlink:href="#DejaVuSans-46"/>
       <use x="95.410156" xlink:href="#DejaVuSans-53"/>
       <use x="159.033203" xlink:href="#DejaVuSans-48"/>
      </g>
     </g>
    </g>
    <g id="xtick_19">
     <g id="line2d_37">
      <g>
       <use style="stroke:#000000;stroke-width:0.8;" x="743.00276" xlink:href="#m17f9682192" y="252"/>
      </g>
     </g>
     <g id="text_43">
      <!-- 4.75 -->
      <g transform="translate(731.869947 266.598437)scale(0.1 -0.1)">
       <use xlink:href="#DejaVuSans-52"/>
       <use x="63.623047" xlink:href="#DejaVuSans-46"/>
       <use x="95.410156" xlink:href="#DejaVuSans-55"/>
       <use x="159.033203" xlink:href="#DejaVuSans-53"/>
      </g>
     </g>
    </g>
    <g id="xtick_20">
     <g id="line2d_38">
      <g>
       <use style="stroke:#000000;stroke-width:0.8;" x="708.275286" xlink:href="#m17f9682192" y="252"/>
      </g>
     </g>
     <g id="text_44">
      <!-- 5.00 -->
      <g transform="translate(697.142473 266.598437)scale(0.1 -0.1)">
       <use xlink:href="#DejaVuSans-53"/>
       <use x="63.623047" xlink:href="#DejaVuSans-46"/>
       <use x="95.410156" xlink:href="#DejaVuSans-48"/>
       <use x="159.033203" xlink:href="#DejaVuSans-48"/>
      </g>
     </g>
    </g>
    <g id="text_45">
     <!-- log(Teff) [K] -->
     <g transform="translate(762.386397 280.276563)scale(0.1 -0.1)">
      <use xlink:href="#DejaVuSans-108"/>
      <use x="27.783203" xlink:href="#DejaVuSans-111"/>
      <use x="88.964844" xlink:href="#DejaVuSans-103"/>
      <use x="152.441406" xlink:href="#DejaVuSans-40"/>
      <use x="191.455078" xlink:href="#DejaVuSans-84"/>
      <use x="252.273438" xlink:href="#DejaVuSans-101"/>
      <use x="313.796875" xlink:href="#DejaVuSans-102"/>
      <use x="349.001953" xlink:href="#DejaVuSans-102"/>
      <use x="384.207031" xlink:href="#DejaVuSans-41"/>
      <use x="423.220703" xlink:href="#DejaVuSans-32"/>
      <use x="455.007812" xlink:href="#DejaVuSans-91"/>
      <use x="494.021484" xlink:href="#DejaVuSans-75"/>
      <use x="559.597656" xlink:href="#DejaVuSans-93"/>
     </g>
    </g>
   </g>
   <g id="matplotlib.axis_6">
    <g id="ytick_13">
     <g id="line2d_39">
      <g>
       <use style="stroke:#000000;stroke-width:0.8;" x="677.435294" xlink:href="#m4bf22a5cff" y="232.232727"/>
      </g>
     </g>
     <g id="text_46">
      <!-- −1 -->
      <g transform="translate(655.693107 236.031946)scale(0.1 -0.1)">
       <use xlink:href="#DejaVuSans-8722"/>
       <use x="83.789062" xlink:href="#DejaVuSans-49"/>
      </g>
     </g>
    </g>
    <g id="ytick_14">
     <g id="line2d_40">
      <g>
       <use style="stroke:#000000;stroke-width:0.8;" x="677.435294" xlink:href="#m4bf22a5cff" y="192.698182"/>
      </g>
     </g>
     <g id="text_47">
      <!-- 0 -->
      <g transform="translate(664.072794 196.497401)scale(0.1 -0.1)">
       <use xlink:href="#DejaVuSans-48"/>
      </g>
     </g>
    </g>
    <g id="ytick_15">
     <g id="line2d_41">
      <g>
       <use style="stroke:#000000;stroke-width:0.8;" x="677.435294" xlink:href="#m4bf22a5cff" y="153.163636"/>
      </g>
     </g>
     <g id="text_48">
      <!-- 1 -->
      <g transform="translate(664.072794 156.962855)scale(0.1 -0.1)">
       <use xlink:href="#DejaVuSans-49"/>
      </g>
     </g>
    </g>
    <g id="ytick_16">
     <g id="line2d_42">
      <g>
       <use style="stroke:#000000;stroke-width:0.8;" x="677.435294" xlink:href="#m4bf22a5cff" y="113.629091"/>
      </g>
     </g>
     <g id="text_49">
      <!-- 2 -->
      <g transform="translate(664.072794 117.42831)scale(0.1 -0.1)">
       <use xlink:href="#DejaVuSans-50"/>
      </g>
     </g>
    </g>
    <g id="ytick_17">
     <g id="line2d_43">
      <g>
       <use style="stroke:#000000;stroke-width:0.8;" x="677.435294" xlink:href="#m4bf22a5cff" y="74.094545"/>
      </g>
     </g>
     <g id="text_50">
      <!-- 3 -->
      <g transform="translate(664.072794 77.893764)scale(0.1 -0.1)">
       <use xlink:href="#DejaVuSans-51"/>
      </g>
     </g>
    </g>
    <g id="ytick_18">
     <g id="line2d_44">
      <g>
       <use style="stroke:#000000;stroke-width:0.8;" x="677.435294" xlink:href="#m4bf22a5cff" y="34.56"/>
      </g>
     </g>
     <g id="text_51">
      <!-- 4 -->
      <g transform="translate(664.072794 38.359219)scale(0.1 -0.1)">
       <use xlink:href="#DejaVuSans-52"/>
      </g>
     </g>
    </g>
    <g id="text_52">
     <!-- log(L) [Lsol] -->
     <g transform="translate(649.613419 172.919844)rotate(-90)scale(0.1 -0.1)">
      <use xlink:href="#DejaVuSans-108"/>
      <use x="27.783203" xlink:href="#DejaVuSans-111"/>
      <use x="88.964844" xlink:href="#DejaVuSans-103"/>
      <use x="152.441406" xlink:href="#DejaVuSans-40"/>
      <use x="191.455078" xlink:href="#DejaVuSans-76"/>
      <use x="247.167969" xlink:href="#DejaVuSans-41"/>
      <use x="286.181641" xlink:href="#DejaVuSans-32"/>
      <use x="317.96875" xlink:href="#DejaVuSans-91"/>
      <use x="356.982422" xlink:href="#DejaVuSans-76"/>
      <use x="412.695312" xlink:href="#DejaVuSans-115"/>
      <use x="464.794922" xlink:href="#DejaVuSans-111"/>
      <use x="525.976562" xlink:href="#DejaVuSans-108"/>
      <use x="553.759766" xlink:href="#DejaVuSans-93"/>
     </g>
    </g>
   </g>
   <g id="line2d_45">
    <path clip-path="url(#p937cac5448)" d="M 821.240965 97.500323 
L 821.547328 98.000799 
L 821.839471 97.973146 
L 822.457337 97.699814 
L 822.953065 97.329482 
L 824.988365 95.22197 
L 828.481644 92.434502 
L 835.734916 89.467068 
L 831.106871 85.084516 
L 838.439933 84.691174 
L 843.70126 84.924641 
L 848.573123 85.571349 
L 853.306735 86.462059 
L 858.550557 87.679031 
L 867.284913 90.11368 
L 869.090811 90.751062 
L 869.839937 91.523193 
L 872.652744 95.074211 
L 873.935964 96.944759 
L 878.426029 103.230462 
L 880.482258 106.545759 
L 884.802295 114.622209 
L 887.733324 120.636663 
L 888.281995 121.169257 
L 888.836679 121.378245 
L 889.504366 121.213534 
L 889.967898 120.863689 
L 891.06525 119.435265 
L 892.047076 117.721355 
L 894.371924 112.259568 
L 895.696189 108.04059 
L 896.343975 105.131483 
L 896.716295 102.300304 
L 896.708666 99.150252 
L 896.348716 95.466521 
L 895.741309 92.351065 
L 894.863019 89.259575 
L 893.884251 86.329258 
L 892.771671 83.539366 
L 891.823697 81.419128 
L 891.170509 80.160606 
L 890.925888 79.881771 
L 890.655446 79.757736 
L 887.890854 79.888504 
L 853.359667 80.75312 
L 835.294107 81.507348 
L 826.159786 82.049337 
L 817.384472 82.768815 
L 809.839894 83.616474 
L 803.043001 84.644989 
L 796.747507 85.929077 
L 791.183874 87.464204 
L 788.521034 88.390906 
L 786.122256 89.374036 
L 783.914565 90.438888 
L 781.732738 91.690951 
L 779.851997 92.988155 
L 778.041851 94.504349 
L 776.473286 96.129368 
L 775.093242 97.948148 
L 773.858342 100.112179 
L 772.91285 102.47629 
L 772.246343 105.16741 
L 771.916417 108.05081 
L 771.916354 111.164346 
L 772.22134 114.317813 
L 772.686784 117.029651 
L 773.263404 119.565218 
L 774.33725 123.033903 
L 775.126392 124.80372 
L 775.440704 125.139271 
L 775.735095 125.143178 
L 776.067821 124.652337 
L 776.351751 123.222242 
L 775.475933 120.738505 
L 768.501584 115.971745 
L 764.149464 111.34065 
L 765.189783 110.203361 
L 765.460711 109.575819 
L 765.59767 108.853102 
L 765.494375 107.95867 
L 764.737557 105.903827 
L 763.988119 104.017318 
L 763.056258 101.25477 
L 762.393061 97.870116 
L 762.333153 94.98477 
L 762.578916 92.682972 
L 762.95497 90.424291 
L 763.438341 88.201239 
L 764.038265 86.048637 
L 765.507075 82.054548 
L 767.15328 78.522231 
L 772.553031 67.911467 
L 774.01727 64.461323 
L 775.473016 61.947345 
L 776.643072 59.83354 
L 777.012374 58.637254 
L 777.023011 57.957544 
L 776.852552 57.35162 
L 776.506556 56.808196 
L 775.677044 56.09589 
L 774.496226 55.473772 
L 772.994612 54.930117 
L 770.563392 54.311315 
L 766.931346 53.679266 
L 762.557618 53.146412 
L 755.746724 52.640655 
L 750.300586 52.401031 
L 742.610517 52.308798 
L 735.01313 52.498157 
L 729.581665 52.818222 
L 723.347435 53.438596 
L 718.463653 54.148899 
L 713.983811 55.010249 
L 709.845588 55.993946 
L 706.842469 56.89397 
L 703.435653 58.169047 
L 700.52128 59.521061 
L 698.365285 60.713069 
L 696.021929 62.275535 
L 693.936037 63.996416 
L 692.48778 65.482055 
L 691.067359 67.292684 
L 690.096184 68.88722 
L 689.144477 70.964986 
L 688.591335 72.670058 
L 688.1669 74.655685 
L 687.913152 77.052667 
L 687.931546 80.018216 
L 688.091988 81.773409 
L 688.450134 84.035481 
L 688.955207 86.249003 
L 689.724879 88.919514 
L 691.718919 94.448589 
L 694.167883 100.296802 
L 700.177458 113.720098 
L 703.922144 121.661175 
L 707.705796 128.822184 
L 709.49497 131.960145 
L 709.49497 131.960145 
" style="fill:none;stroke:#1f77b4;stroke-linecap:square;stroke-width:1.5;"/>
   </g>
   <g id="line2d_46">
    <g clip-path="url(#p937cac5448)">
     <use style="fill:#ff0000;stroke:#ff0000;stroke-linejoin:bevel;" x="890.655446" xlink:href="#m1e91dc16b6" y="79.757736"/>
    </g>
   </g>
   <g id="line2d_47">
    <path clip-path="url(#p937cac5448)" d="M 894.206805 87.263692 
L 894.049663 86.796944 
L 893.884251 86.329258 
L 893.71641 85.863872 
L 893.569829 85.421607 
L 893.366825 84.942838 
L 893.164655 84.481255 
L 892.976429 84.015709 
L 892.771671 83.539366 
L 892.60314 83.116892 
L 892.392902 82.653935 
L 892.213318 82.239514 
L 892.013326 81.816766 
L 891.823697 81.419128 
L 891.633047 81.028331 
L 891.512374 80.705036 
L 891.293349 80.392062 
L 891.170509 80.160606 
L 890.925888 79.881771 
L 890.655446 79.757736 
L 890.061714 79.804771 
L 889.046092 79.852053 
L 887.890854 79.888504 
L 886.319376 79.923898 
L 884.141898 79.963212 
L 882.143531 79.996758 
L 880.396582 80.027283 
L 878.825453 80.055606 
L 876.658708 80.097375 
L 874.739437 80.136437 
L 872.619717 80.182768 
L 869.785527 80.250075 
L 866.740959 80.329311 
L 862.840093 80.441824 
L 858.121974 80.590664 
L 853.359667 80.75312 
L 849.094151 80.90912 
L 844.310606 81.097186 
L 839.552169 81.302401 
L 835.294107 81.507348 
L 830.4799 81.771993 
L 826.159786 82.049337 
L 821.686326 82.386609 
L 817.384472 82.768815 
L 813.605712 83.161881 
L 809.839894 83.616474 
L 806.465447 84.089461 
L 803.043001 84.644989 
L 799.901828 85.237137 
L 796.747507 85.929077 
L 793.86547 86.666638 
L 791.183874 87.464204 
L 788.521034 88.390906 
L 786.122256 89.374036 
L 783.914565 90.438888 
L 781.732738 91.690951 
L 779.851997 92.988155 
L 778.041851 94.504349 
L 776.473286 96.129368 
L 775.093242 97.948148 
L 773.858342 100.112179 
L 772.91285 102.47629 
L 772.246343 105.16741 
L 771.916417 108.05081 
L 771.916354 111.164346 
L 772.22134 114.317813 
L 772.686784 117.029651 
L 773.263404 119.565218 
L 773.821697 121.514874 
L 774.33725 123.033903 
L 774.75154 124.107083 
L 775.126392 124.80372 
L 775.440704 125.139271 
L 775.735095 125.143178 
L 776.067821 124.652337 
L 776.351751 123.222242 
L 775.475933 120.738505 
" style="fill:none;stroke:#ff0000;stroke-linecap:square;stroke-width:2;"/>
   </g>
   <g id="patch_13">
    <path d="M 677.435294 252 
L 677.435294 34.56 
" style="fill:none;stroke:#000000;stroke-linecap:square;stroke-linejoin:miter;stroke-width:0.8;"/>
   </g>
   <g id="patch_14">
    <path d="M 907.2 252 
L 907.2 34.56 
" style="fill:none;stroke:#000000;stroke-linecap:square;stroke-linejoin:miter;stroke-width:0.8;"/>
   </g>
   <g id="patch_15">
    <path d="M 677.435294 252 
L 907.2 252 
" style="fill:none;stroke:#000000;stroke-linecap:square;stroke-linejoin:miter;stroke-width:0.8;"/>
   </g>
   <g id="patch_16">
    <path d="M 677.435294 34.56 
L 907.2 34.56 
" style="fill:none;stroke:#000000;stroke-linecap:square;stroke-linejoin:miter;stroke-width:0.8;"/>
   </g>
   <g id="text_53">
    <!-- sdA -->
    <g transform="translate(806.896504 54.327273)scale(0.1 -0.1)">
     <use xlink:href="#DejaVuSans-115"/>
     <use x="52.099609" xlink:href="#DejaVuSans-100"/>
     <use x="115.576172" xlink:href="#DejaVuSans-65"/>
    </g>
   </g>
   <g id="text_54">
    <!-- sdB -->
    <g transform="translate(777.01485 54.327273)scale(0.1 -0.1)">
     <use xlink:href="#DejaVuSans-115"/>
     <use x="52.099609" xlink:href="#DejaVuSans-100"/>
     <use x="115.576172" xlink:href="#DejaVuSans-66"/>
    </g>
   </g>
   <g id="text_55">
    <!-- sdO -->
    <g transform="translate(729.792701 54.327273)scale(0.1 -0.1)">
     <use xlink:href="#DejaVuSans-115"/>
     <use x="52.099609" xlink:href="#DejaVuSans-100"/>
     <use x="115.576172" xlink:href="#DejaVuSans-79"/>
    </g>
   </g>
   <g id="text_56">
    <!-- High mass sdB -->
    <defs>
     <path d="M 9.8125 72.90625 
L 19.671875 72.90625 
L 19.671875 43.015625 
L 55.515625 43.015625 
L 55.515625 72.90625 
L 65.375 72.90625 
L 65.375 0 
L 55.515625 0 
L 55.515625 34.71875 
L 19.671875 34.71875 
L 19.671875 0 
L 9.8125 0 
z
" id="DejaVuSans-72"/>
     <path d="M 9.421875 54.6875 
L 18.40625 54.6875 
L 18.40625 0 
L 9.421875 0 
z
M 9.421875 75.984375 
L 18.40625 75.984375 
L 18.40625 64.59375 
L 9.421875 64.59375 
z
" id="DejaVuSans-105"/>
     <path d="M 54.890625 33.015625 
L 54.890625 0 
L 45.90625 0 
L 45.90625 32.71875 
Q 45.90625 40.484375 42.875 44.328125 
Q 39.84375 48.1875 33.796875 48.1875 
Q 26.515625 48.1875 22.3125 43.546875 
Q 18.109375 38.921875 18.109375 30.90625 
L 18.109375 0 
L 9.078125 0 
L 9.078125 75.984375 
L 18.109375 75.984375 
L 18.109375 46.1875 
Q 21.34375 51.125 25.703125 53.5625 
Q 30.078125 56 35.796875 56 
Q 45.21875 56 50.046875 50.171875 
Q 54.890625 44.34375 54.890625 33.015625 
z
" id="DejaVuSans-104"/>
    </defs>
    <g transform="translate(747.889522 28.56)scale(0.12 -0.12)">
     <use xlink:href="#DejaVuSans-72"/>
     <use x="75.195312" xlink:href="#DejaVuSans-105"/>
     <use x="102.978516" xlink:href="#DejaVuSans-103"/>
     <use x="166.455078" xlink:href="#DejaVuSans-104"/>
     <use x="229.833984" xlink:href="#DejaVuSans-32"/>
     <use x="261.621094" xlink:href="#DejaVuSans-109"/>
     <use x="359.033203" xlink:href="#DejaVuSans-97"/>
     <use x="420.3125" xlink:href="#DejaVuSans-115"/>
     <use x="472.412109" xlink:href="#DejaVuSans-115"/>
     <use x="524.511719" xlink:href="#DejaVuSans-32"/>
     <use x="556.298828" xlink:href="#DejaVuSans-115"/>
     <use x="608.398438" xlink:href="#DejaVuSans-100"/>
     <use x="671.875" xlink:href="#DejaVuSans-66"/>
    </g>
   </g>
  </g>
 </g>
 <defs>
  <clipPath id="pb2e0c45077">
   <rect height="217.44" width="229.764706" x="126" y="34.56"/>
  </clipPath>
  <clipPath id="p5ec3643ec7">
   <rect height="217.44" width="229.764706" x="401.717647" y="34.56"/>
  </clipPath>
  <clipPath id="p937cac5448">
   <rect height="217.44" width="229.764706" x="677.435294" y="34.56"/>
  </clipPath>
 </defs>
</svg>
